%TF.GenerationSoftware,KiCad,Pcbnew,(5.1.10)-1*%
%TF.CreationDate,2021-08-10T11:15:44+01:00*%
%TF.ProjectId,ocu2pciex8,6f637532-7063-4696-9578-382e6b696361,rev?*%
%TF.SameCoordinates,Original*%
%TF.FileFunction,Copper,L3,Inr*%
%TF.FilePolarity,Positive*%
%FSLAX46Y46*%
G04 Gerber Fmt 4.6, Leading zero omitted, Abs format (unit mm)*
G04 Created by KiCad (PCBNEW (5.1.10)-1) date 2021-08-10 11:15:44*
%MOMM*%
%LPD*%
G01*
G04 APERTURE LIST*
%TA.AperFunction,ComponentPad*%
%ADD10C,0.800000*%
%TD*%
%TA.AperFunction,ComponentPad*%
%ADD11C,3.000000*%
%TD*%
%TA.AperFunction,ComponentPad*%
%ADD12C,1.000000*%
%TD*%
%TA.AperFunction,ViaPad*%
%ADD13C,0.600000*%
%TD*%
%TA.AperFunction,ViaPad*%
%ADD14C,0.800000*%
%TD*%
%TA.AperFunction,Conductor*%
%ADD15C,0.250000*%
%TD*%
%TA.AperFunction,Conductor*%
%ADD16C,0.254000*%
%TD*%
%TA.AperFunction,Conductor*%
%ADD17C,0.100000*%
%TD*%
G04 APERTURE END LIST*
D10*
%TO.N,GND*%
%TO.C,J5*%
X103750000Y-67500000D03*
X106250000Y-70000000D03*
X103750000Y-72500000D03*
X101250000Y-70000000D03*
X102000000Y-68250000D03*
X105500000Y-68250000D03*
X105500000Y-71750000D03*
X102000000Y-71750000D03*
%TD*%
%TO.N,GND*%
%TO.C,J4*%
X185500000Y-67500000D03*
X188000000Y-70000000D03*
X185500000Y-72500000D03*
X183000000Y-70000000D03*
X183750000Y-68250000D03*
X187250000Y-68250000D03*
X187250000Y-71750000D03*
X183750000Y-71750000D03*
%TD*%
D11*
%TO.N,GND*%
%TO.C,J3*%
X154150000Y-61600000D03*
%TO.N,+12VA*%
X154150000Y-57400000D03*
%TD*%
D12*
%TO.N,GND*%
%TO.C,J2*%
X110810000Y-71250000D03*
X110810000Y-68750000D03*
%TO.N,Net-(J2-PadA48)*%
X111810000Y-73250000D03*
%TO.N,Net-(J2-PadB48)*%
X111810000Y-66750000D03*
%TO.N,Net-(J2-PadA47)*%
X112810000Y-71250000D03*
%TO.N,GND*%
X112810000Y-68750000D03*
X113810000Y-73250000D03*
%TO.N,Net-(J2-PadB46)*%
X113810000Y-66750000D03*
%TO.N,GND*%
X114810000Y-71250000D03*
%TO.N,Net-(J2-PadB45)*%
X114810000Y-68750000D03*
%TO.N,Net-(J2-PadA44)*%
X115810000Y-73250000D03*
%TO.N,GND*%
X115810000Y-66750000D03*
%TO.N,Net-(J2-PadA43)*%
X116810000Y-71250000D03*
%TO.N,GND*%
X116810000Y-68750000D03*
X117810000Y-73250000D03*
%TO.N,Net-(J2-PadB42)*%
X117810000Y-66750000D03*
%TO.N,GND*%
X118810000Y-71250000D03*
%TO.N,Net-(J2-PadB41)*%
X118810000Y-68750000D03*
%TO.N,Net-(J2-PadA40)*%
X119810000Y-73250000D03*
%TO.N,GND*%
X119810000Y-66750000D03*
%TO.N,Net-(J2-PadA39)*%
X120810000Y-71250000D03*
%TO.N,GND*%
X120810000Y-68750000D03*
X121810000Y-73250000D03*
%TO.N,Net-(J2-PadB38)*%
X121810000Y-66750000D03*
%TO.N,GND*%
X122810000Y-71250000D03*
%TO.N,Net-(J2-PadB37)*%
X122810000Y-68750000D03*
%TO.N,Net-(J2-PadA36)*%
X123810000Y-73250000D03*
%TO.N,GND*%
X123810000Y-66750000D03*
%TO.N,Net-(J2-PadA35)*%
X124810000Y-71250000D03*
%TO.N,GND*%
X124810000Y-68750000D03*
X125810000Y-73250000D03*
%TO.N,Net-(J2-PadB34)*%
X125810000Y-66750000D03*
%TO.N,Net-(J2-PadA33)*%
X126810000Y-71250000D03*
%TO.N,Net-(J2-PadB33)*%
X126810000Y-68750000D03*
%TO.N,Net-(J2-PadA32)*%
X127810000Y-73250000D03*
%TO.N,GND*%
X127810000Y-66750000D03*
X128810000Y-71250000D03*
%TO.N,Net-(J2-PadB31)*%
X128810000Y-68750000D03*
%TO.N,/X8_PER3_N*%
X129810000Y-73250000D03*
%TO.N,Net-(J2-PadB30)*%
X129810000Y-66750000D03*
%TO.N,/X8_PER3_P*%
X130810000Y-71250000D03*
%TO.N,GND*%
X130810000Y-68750000D03*
X131810000Y-73250000D03*
%TO.N,/X8_PET3_N*%
X131810000Y-66750000D03*
%TO.N,GND*%
X132810000Y-71250000D03*
%TO.N,/X8_PET3_P*%
X132810000Y-68750000D03*
%TO.N,/X8_PER2_N*%
X133810000Y-73250000D03*
%TO.N,GND*%
X133810000Y-66750000D03*
%TO.N,/X8_PER2_P*%
X134810000Y-71250000D03*
%TO.N,GND*%
X134810000Y-68750000D03*
X135810000Y-73250000D03*
%TO.N,/X8_PET2_N*%
X135810000Y-66750000D03*
%TO.N,GND*%
X136810000Y-71250000D03*
%TO.N,/X8_PET2_P*%
X136810000Y-68750000D03*
%TO.N,/X8_PER1_N*%
X137810000Y-73250000D03*
%TO.N,GND*%
X137810000Y-66750000D03*
%TO.N,/X8_PER1_P*%
X138810000Y-71250000D03*
%TO.N,GND*%
X138810000Y-68750000D03*
X139810000Y-73250000D03*
%TO.N,/X8_PET1_N*%
X139810000Y-66750000D03*
%TO.N,Net-(J2-PadA19)*%
X140810000Y-71250000D03*
%TO.N,/X8_PET1_P*%
X140810000Y-68750000D03*
%TO.N,GND*%
X141810000Y-73250000D03*
X141810000Y-66750000D03*
%TO.N,/X8_PER0_N*%
X142810000Y-71250000D03*
%TO.N,Net-(J2-PadB17)*%
X142810000Y-68750000D03*
%TO.N,/X8_PER0_P*%
X143810000Y-73250000D03*
%TO.N,GND*%
X143810000Y-66750000D03*
X144810000Y-71250000D03*
%TO.N,/X8_PET0_N*%
X144810000Y-68750000D03*
%TO.N,/REFCLK_0_N*%
X145810000Y-73250000D03*
%TO.N,/X8_PET0_P*%
X145810000Y-66750000D03*
%TO.N,/REFCLK_0_P*%
X146810000Y-71250000D03*
%TO.N,GND*%
X146810000Y-68750000D03*
X147810000Y-73250000D03*
%TO.N,Net-(J2-PadB12)*%
X147810000Y-66750000D03*
%TO.N,/~WAKE*%
X150810000Y-68750000D03*
%TO.N,+3V3*%
X151810000Y-66750000D03*
%TO.N,Net-(J2-PadB9)*%
X152810000Y-68750000D03*
%TO.N,+3V3*%
X153810000Y-66750000D03*
%TO.N,GND*%
X154810000Y-68750000D03*
%TO.N,/SMDAT*%
X155810000Y-66750000D03*
%TO.N,/SMCLK*%
X156810000Y-68750000D03*
%TO.N,GND*%
X157810000Y-66750000D03*
%TO.N,+12V*%
X158810000Y-68750000D03*
X159810000Y-66750000D03*
X160810000Y-68750000D03*
%TO.N,/~PERST*%
X150810000Y-71250000D03*
%TO.N,+3V3*%
X151810000Y-73250000D03*
X152810000Y-71250000D03*
%TO.N,Net-(J2-PadA8)*%
X153810000Y-73250000D03*
%TO.N,Net-(J2-PadA7)*%
X154810000Y-71250000D03*
%TO.N,Net-(J2-PadA6)*%
X155810000Y-73250000D03*
%TO.N,Net-(J2-PadA5)*%
X156810000Y-71250000D03*
%TO.N,GND*%
X157810000Y-73250000D03*
%TO.N,+12V*%
X158810000Y-71250000D03*
X159810000Y-73250000D03*
%TO.N,Net-(J2-PadA1)*%
X160810000Y-71250000D03*
%TD*%
D13*
%TO.N,GND*%
X99500000Y-61270701D03*
X99500000Y-62250000D03*
X99500000Y-57750000D03*
X99500000Y-63750000D03*
X95250000Y-59750000D03*
X97250000Y-62750000D03*
X95250000Y-64500000D03*
X95250000Y-65750000D03*
X95250000Y-67250000D03*
X99500000Y-67270701D03*
D14*
X171478045Y-65371955D03*
X173900000Y-59200000D03*
X185900000Y-65500000D03*
X184400000Y-65500000D03*
X182400000Y-65500000D03*
X180900000Y-65500000D03*
X174900000Y-69500000D03*
X178400000Y-69500000D03*
X178400000Y-68500000D03*
X174900000Y-68500000D03*
X187150000Y-58250000D03*
D13*
X95250000Y-61000000D03*
X95247176Y-58900000D03*
X173650000Y-64100000D03*
X173650000Y-64900000D03*
X174650000Y-64900000D03*
X175650000Y-64900000D03*
X175650000Y-64100000D03*
X174650000Y-64100000D03*
D14*
X144250000Y-58750000D03*
X148000000Y-62000000D03*
X94500000Y-72000000D03*
X165550000Y-62300000D03*
D13*
X99500000Y-59250000D03*
X99500026Y-65250000D03*
D14*
X170900000Y-62225000D03*
X167150000Y-58450000D03*
%TO.N,+12VA*%
X177650000Y-57750000D03*
X180900000Y-60000000D03*
X182400000Y-60000000D03*
X185900000Y-60000000D03*
X184400000Y-60000000D03*
X160900000Y-60250000D03*
X156900000Y-60250000D03*
X159650015Y-60250000D03*
X158150030Y-60250000D03*
X177400000Y-64500000D03*
X177400000Y-63500000D03*
X177400000Y-62500000D03*
X176400000Y-62500000D03*
%TO.N,+3V3*%
X181150000Y-71250000D03*
X179150000Y-71250000D03*
X177650000Y-71250000D03*
X175650000Y-71250000D03*
X174150000Y-71250000D03*
X172150000Y-71250000D03*
X169900000Y-71250000D03*
X167650000Y-70000000D03*
X169150000Y-70000000D03*
X166150000Y-70000000D03*
X165399994Y-71250000D03*
X165400000Y-72750000D03*
X169900000Y-72750000D03*
D13*
%TO.N,/X8_PET0_P*%
X97275000Y-58572197D03*
%TO.N,/X8_PET0_N*%
X97275000Y-59350000D03*
%TO.N,/X8_PET1_P*%
X97275000Y-60150000D03*
%TO.N,/X8_PET1_N*%
X97275000Y-60927803D03*
D14*
%TO.N,/SMCLK*%
X94347470Y-61272192D03*
%TO.N,/SMDAT*%
X94350004Y-62250000D03*
%TO.N,/~PERST*%
X149900001Y-56650001D03*
X149900001Y-59400001D03*
X94350000Y-63250000D03*
%TO.N,/~CPRSNT*%
X94350000Y-64227803D03*
X184149988Y-56250000D03*
D13*
%TO.N,/X8_PET2_P*%
X97250000Y-64572197D03*
%TO.N,/X8_PET2_N*%
X97250000Y-65350000D03*
%TO.N,/X8_PET3_P*%
X97250000Y-66150000D03*
%TO.N,/X8_PET3_N*%
X97250000Y-66927803D03*
%TO.N,/REFCLK_0_P*%
X134497848Y-59033246D03*
%TO.N,/REFCLK_0_N*%
X134497848Y-59836446D03*
%TO.N,/~WAKE*%
X97275000Y-61800000D03*
%TO.N,/SW*%
X174650000Y-65975000D03*
D14*
X169900000Y-66250000D03*
X169900000Y-67749958D03*
X167650000Y-67750000D03*
X165400000Y-67750000D03*
X165400000Y-66250000D03*
D13*
X173650000Y-65975000D03*
X175650000Y-65975004D03*
D14*
X172381090Y-67268910D03*
%TD*%
D15*
%TO.N,GND*%
X148000000Y-62000000D02*
X145500000Y-62000000D01*
X144250000Y-60750000D02*
X144250000Y-58750000D01*
X145500000Y-62000000D02*
X144250000Y-60750000D01*
%TO.N,+12VA*%
X161465685Y-60250000D02*
X160900000Y-60250000D01*
X154150000Y-57400000D02*
X157000000Y-60250000D01*
X156650000Y-60250000D02*
X156900000Y-60250000D01*
X160900000Y-60250000D02*
X159650015Y-60250000D01*
X156900000Y-60250000D02*
X158150000Y-60250000D01*
X158150000Y-60250000D02*
X158150030Y-60250000D01*
X159650015Y-60250000D02*
X158150030Y-60250000D01*
X184400000Y-60000000D02*
X182400000Y-60000000D01*
X161715685Y-60000000D02*
X161465685Y-60250000D01*
X178650000Y-57750000D02*
X180900000Y-60000000D01*
X177650000Y-57750000D02*
X178650000Y-57750000D01*
X176900000Y-62500000D02*
X177400000Y-63000000D01*
X177400000Y-63000000D02*
X177400000Y-63500000D01*
X177400000Y-63500000D02*
X177400000Y-64500000D01*
X176900000Y-62500000D02*
X177400000Y-62500000D01*
X177400000Y-62500000D02*
X177400000Y-63500000D01*
X176900000Y-62500000D02*
X176400000Y-62500000D01*
X161715685Y-60000000D02*
X180900000Y-60000000D01*
%TO.N,+3V3*%
X151810000Y-72250000D02*
X152810000Y-71250000D01*
X151810000Y-73250000D02*
X151810000Y-72250000D01*
X151810000Y-66750000D02*
X153810000Y-66750000D01*
X181150000Y-71250000D02*
X179150000Y-71250000D01*
X179150000Y-71250000D02*
X177650000Y-71250000D01*
X177650000Y-71250000D02*
X175650000Y-71250000D01*
X175650000Y-71250000D02*
X174150000Y-71250000D01*
X174150000Y-71250000D02*
X172150000Y-71250000D01*
X171400000Y-71250000D02*
X169900000Y-72750000D01*
X172150000Y-71250000D02*
X171400000Y-71250000D01*
X169900000Y-72750000D02*
X169900000Y-71250000D01*
X169900000Y-70750000D02*
X169150000Y-70000000D01*
X169900000Y-71250000D02*
X169900000Y-70750000D01*
X169150000Y-70000000D02*
X167650000Y-70000000D01*
X167650000Y-70000000D02*
X166150000Y-70000000D01*
X165399994Y-70650006D02*
X165399994Y-71250000D01*
X166050000Y-70000000D02*
X165399994Y-70650006D01*
X166150000Y-70000000D02*
X166050000Y-70000000D01*
X165399994Y-72749994D02*
X165400000Y-72750000D01*
X165399994Y-71250000D02*
X165399994Y-72749994D01*
X152517106Y-66750000D02*
X151810000Y-66750000D01*
X153750000Y-67982894D02*
X152517106Y-66750000D01*
X153750000Y-70310000D02*
X153750000Y-67982894D01*
X152810000Y-71250000D02*
X153750000Y-70310000D01*
X153810000Y-72250000D02*
X152810000Y-71250000D01*
X164900000Y-72250000D02*
X153810000Y-72250000D01*
X165400000Y-72750000D02*
X164900000Y-72250000D01*
%TO.N,/SW*%
X165400000Y-67750000D02*
X167650000Y-67750000D01*
X172451801Y-67198199D02*
X171900000Y-67750000D01*
X171900000Y-67750000D02*
X169899958Y-67750000D01*
X172451801Y-67198199D02*
X172381090Y-67268910D01*
%TD*%
D16*
%TO.N,+3V3*%
X163619000Y-68500000D02*
X163623000Y-68540611D01*
X163623000Y-68750000D01*
X163625440Y-68774776D01*
X163632667Y-68798601D01*
X163644403Y-68820557D01*
X163660197Y-68839803D01*
X163679443Y-68855597D01*
X163701399Y-68867333D01*
X163725224Y-68874560D01*
X163750000Y-68877000D01*
X163959389Y-68877000D01*
X164000000Y-68881000D01*
X174215276Y-68881000D01*
X174293358Y-68997859D01*
X174295499Y-69000000D01*
X174293358Y-69002141D01*
X174207887Y-69130058D01*
X174149013Y-69272191D01*
X174119000Y-69423078D01*
X174119000Y-69576922D01*
X174149013Y-69727809D01*
X174207887Y-69869942D01*
X174293358Y-69997859D01*
X174402141Y-70106642D01*
X174530058Y-70192113D01*
X174672191Y-70250987D01*
X174823078Y-70281000D01*
X174976922Y-70281000D01*
X175127809Y-70250987D01*
X175269942Y-70192113D01*
X175397859Y-70106642D01*
X175506642Y-69997859D01*
X175592113Y-69869942D01*
X175650987Y-69727809D01*
X175681000Y-69576922D01*
X175681000Y-69423078D01*
X175650987Y-69272191D01*
X175592113Y-69130058D01*
X175506642Y-69002141D01*
X175504501Y-69000000D01*
X175506642Y-68997859D01*
X175584724Y-68881000D01*
X177715276Y-68881000D01*
X177793358Y-68997859D01*
X177795499Y-69000000D01*
X177793358Y-69002141D01*
X177707887Y-69130058D01*
X177649013Y-69272191D01*
X177619000Y-69423078D01*
X177619000Y-69576922D01*
X177649013Y-69727809D01*
X177707887Y-69869942D01*
X177793358Y-69997859D01*
X177902141Y-70106642D01*
X178030058Y-70192113D01*
X178172191Y-70250987D01*
X178323078Y-70281000D01*
X178476922Y-70281000D01*
X178627809Y-70250987D01*
X178769942Y-70192113D01*
X178897859Y-70106642D01*
X179006642Y-69997859D01*
X179092113Y-69869942D01*
X179150987Y-69727809D01*
X179181000Y-69576922D01*
X179181000Y-69423078D01*
X179150987Y-69272191D01*
X179092113Y-69130058D01*
X179006642Y-69002141D01*
X179004501Y-69000000D01*
X179006642Y-68997859D01*
X179084724Y-68881000D01*
X181373000Y-68881000D01*
X181373000Y-74094000D01*
X160074568Y-74094000D01*
X160227310Y-74030732D01*
X160371605Y-73934318D01*
X160494318Y-73811605D01*
X160590732Y-73667310D01*
X160657144Y-73506978D01*
X160691000Y-73336771D01*
X160691000Y-73163229D01*
X160657144Y-72993022D01*
X160590732Y-72832690D01*
X160494318Y-72688395D01*
X160371605Y-72565682D01*
X160227310Y-72469268D01*
X160066978Y-72402856D01*
X159896771Y-72369000D01*
X159723229Y-72369000D01*
X159553022Y-72402856D01*
X159392690Y-72469268D01*
X159248395Y-72565682D01*
X159125682Y-72688395D01*
X159029268Y-72832690D01*
X158962856Y-72993022D01*
X158929000Y-73163229D01*
X158929000Y-73336771D01*
X158962856Y-73506978D01*
X159029268Y-73667310D01*
X159125682Y-73811605D01*
X159248395Y-73934318D01*
X159392690Y-74030732D01*
X159545432Y-74094000D01*
X158074568Y-74094000D01*
X158227310Y-74030732D01*
X158371605Y-73934318D01*
X158494318Y-73811605D01*
X158590732Y-73667310D01*
X158657144Y-73506978D01*
X158691000Y-73336771D01*
X158691000Y-73163229D01*
X158657144Y-72993022D01*
X158590732Y-72832690D01*
X158494318Y-72688395D01*
X158371605Y-72565682D01*
X158227310Y-72469268D01*
X158066978Y-72402856D01*
X157896771Y-72369000D01*
X157723229Y-72369000D01*
X157553022Y-72402856D01*
X157392690Y-72469268D01*
X157248395Y-72565682D01*
X157125682Y-72688395D01*
X157029268Y-72832690D01*
X156962856Y-72993022D01*
X156929000Y-73163229D01*
X156929000Y-73336771D01*
X156962856Y-73506978D01*
X157029268Y-73667310D01*
X157125682Y-73811605D01*
X157248395Y-73934318D01*
X157392690Y-74030732D01*
X157545432Y-74094000D01*
X156074568Y-74094000D01*
X156227310Y-74030732D01*
X156371605Y-73934318D01*
X156494318Y-73811605D01*
X156590732Y-73667310D01*
X156657144Y-73506978D01*
X156691000Y-73336771D01*
X156691000Y-73163229D01*
X156657144Y-72993022D01*
X156590732Y-72832690D01*
X156494318Y-72688395D01*
X156371605Y-72565682D01*
X156227310Y-72469268D01*
X156066978Y-72402856D01*
X155896771Y-72369000D01*
X155723229Y-72369000D01*
X155553022Y-72402856D01*
X155392690Y-72469268D01*
X155248395Y-72565682D01*
X155125682Y-72688395D01*
X155029268Y-72832690D01*
X154962856Y-72993022D01*
X154929000Y-73163229D01*
X154929000Y-73336771D01*
X154962856Y-73506978D01*
X155029268Y-73667310D01*
X155125682Y-73811605D01*
X155248395Y-73934318D01*
X155392690Y-74030732D01*
X155545432Y-74094000D01*
X154074568Y-74094000D01*
X154227310Y-74030732D01*
X154371605Y-73934318D01*
X154494318Y-73811605D01*
X154590732Y-73667310D01*
X154657144Y-73506978D01*
X154691000Y-73336771D01*
X154691000Y-73163229D01*
X154657144Y-72993022D01*
X154590732Y-72832690D01*
X154494318Y-72688395D01*
X154371605Y-72565682D01*
X154227310Y-72469268D01*
X154066978Y-72402856D01*
X153896771Y-72369000D01*
X153723229Y-72369000D01*
X153553022Y-72402856D01*
X153392690Y-72469268D01*
X153248395Y-72565682D01*
X153125682Y-72688395D01*
X153029268Y-72832690D01*
X152962856Y-72993022D01*
X152929000Y-73163229D01*
X152929000Y-73336771D01*
X152962856Y-73506978D01*
X153029268Y-73667310D01*
X153125682Y-73811605D01*
X153248395Y-73934318D01*
X153392690Y-74030732D01*
X153545432Y-74094000D01*
X149877000Y-74094000D01*
X149877000Y-71387211D01*
X149897042Y-71378909D01*
X149932649Y-71355117D01*
X149962856Y-71506978D01*
X150029268Y-71667310D01*
X150125682Y-71811605D01*
X150248395Y-71934318D01*
X150392690Y-72030732D01*
X150553022Y-72097144D01*
X150723229Y-72131000D01*
X150896771Y-72131000D01*
X151066978Y-72097144D01*
X151227310Y-72030732D01*
X151371605Y-71934318D01*
X151494318Y-71811605D01*
X151590732Y-71667310D01*
X151657144Y-71506978D01*
X151691000Y-71336771D01*
X151691000Y-71163229D01*
X153929000Y-71163229D01*
X153929000Y-71336771D01*
X153962856Y-71506978D01*
X154029268Y-71667310D01*
X154125682Y-71811605D01*
X154248395Y-71934318D01*
X154392690Y-72030732D01*
X154553022Y-72097144D01*
X154723229Y-72131000D01*
X154896771Y-72131000D01*
X155066978Y-72097144D01*
X155227310Y-72030732D01*
X155371605Y-71934318D01*
X155494318Y-71811605D01*
X155590732Y-71667310D01*
X155657144Y-71506978D01*
X155691000Y-71336771D01*
X155691000Y-71163229D01*
X155929000Y-71163229D01*
X155929000Y-71336771D01*
X155962856Y-71506978D01*
X156029268Y-71667310D01*
X156125682Y-71811605D01*
X156248395Y-71934318D01*
X156392690Y-72030732D01*
X156553022Y-72097144D01*
X156723229Y-72131000D01*
X156896771Y-72131000D01*
X157066978Y-72097144D01*
X157227310Y-72030732D01*
X157371605Y-71934318D01*
X157494318Y-71811605D01*
X157590732Y-71667310D01*
X157657144Y-71506978D01*
X157691000Y-71336771D01*
X157691000Y-71163229D01*
X157929000Y-71163229D01*
X157929000Y-71336771D01*
X157962856Y-71506978D01*
X158029268Y-71667310D01*
X158125682Y-71811605D01*
X158248395Y-71934318D01*
X158392690Y-72030732D01*
X158553022Y-72097144D01*
X158723229Y-72131000D01*
X158896771Y-72131000D01*
X159066978Y-72097144D01*
X159227310Y-72030732D01*
X159371605Y-71934318D01*
X159494318Y-71811605D01*
X159590732Y-71667310D01*
X159657144Y-71506978D01*
X159691000Y-71336771D01*
X159691000Y-71163229D01*
X159929000Y-71163229D01*
X159929000Y-71336771D01*
X159962856Y-71506978D01*
X160029268Y-71667310D01*
X160125682Y-71811605D01*
X160248395Y-71934318D01*
X160392690Y-72030732D01*
X160553022Y-72097144D01*
X160723229Y-72131000D01*
X160896771Y-72131000D01*
X161066978Y-72097144D01*
X161227310Y-72030732D01*
X161371605Y-71934318D01*
X161494318Y-71811605D01*
X161590732Y-71667310D01*
X161657144Y-71506978D01*
X161691000Y-71336771D01*
X161691000Y-71163229D01*
X161657144Y-70993022D01*
X161590732Y-70832690D01*
X161494318Y-70688395D01*
X161371605Y-70565682D01*
X161227310Y-70469268D01*
X161066978Y-70402856D01*
X160896771Y-70369000D01*
X160723229Y-70369000D01*
X160553022Y-70402856D01*
X160392690Y-70469268D01*
X160248395Y-70565682D01*
X160125682Y-70688395D01*
X160029268Y-70832690D01*
X159962856Y-70993022D01*
X159929000Y-71163229D01*
X159691000Y-71163229D01*
X159657144Y-70993022D01*
X159590732Y-70832690D01*
X159494318Y-70688395D01*
X159371605Y-70565682D01*
X159227310Y-70469268D01*
X159066978Y-70402856D01*
X158896771Y-70369000D01*
X158723229Y-70369000D01*
X158553022Y-70402856D01*
X158392690Y-70469268D01*
X158248395Y-70565682D01*
X158125682Y-70688395D01*
X158029268Y-70832690D01*
X157962856Y-70993022D01*
X157929000Y-71163229D01*
X157691000Y-71163229D01*
X157657144Y-70993022D01*
X157590732Y-70832690D01*
X157494318Y-70688395D01*
X157371605Y-70565682D01*
X157227310Y-70469268D01*
X157066978Y-70402856D01*
X156896771Y-70369000D01*
X156723229Y-70369000D01*
X156553022Y-70402856D01*
X156392690Y-70469268D01*
X156248395Y-70565682D01*
X156125682Y-70688395D01*
X156029268Y-70832690D01*
X155962856Y-70993022D01*
X155929000Y-71163229D01*
X155691000Y-71163229D01*
X155657144Y-70993022D01*
X155590732Y-70832690D01*
X155494318Y-70688395D01*
X155371605Y-70565682D01*
X155227310Y-70469268D01*
X155066978Y-70402856D01*
X154896771Y-70369000D01*
X154723229Y-70369000D01*
X154553022Y-70402856D01*
X154392690Y-70469268D01*
X154248395Y-70565682D01*
X154125682Y-70688395D01*
X154029268Y-70832690D01*
X153962856Y-70993022D01*
X153929000Y-71163229D01*
X151691000Y-71163229D01*
X151657144Y-70993022D01*
X151590732Y-70832690D01*
X151494318Y-70688395D01*
X151371605Y-70565682D01*
X151227310Y-70469268D01*
X151066978Y-70402856D01*
X150896771Y-70369000D01*
X150723229Y-70369000D01*
X150671020Y-70379385D01*
X150716000Y-70153253D01*
X150716000Y-69846747D01*
X150671020Y-69620615D01*
X150723229Y-69631000D01*
X150896771Y-69631000D01*
X151066978Y-69597144D01*
X151227310Y-69530732D01*
X151371605Y-69434318D01*
X151494318Y-69311605D01*
X151590732Y-69167310D01*
X151657144Y-69006978D01*
X151691000Y-68836771D01*
X151691000Y-68663229D01*
X151929000Y-68663229D01*
X151929000Y-68836771D01*
X151962856Y-69006978D01*
X152029268Y-69167310D01*
X152125682Y-69311605D01*
X152248395Y-69434318D01*
X152392690Y-69530732D01*
X152553022Y-69597144D01*
X152723229Y-69631000D01*
X152896771Y-69631000D01*
X153066978Y-69597144D01*
X153227310Y-69530732D01*
X153371605Y-69434318D01*
X153494318Y-69311605D01*
X153590732Y-69167310D01*
X153657144Y-69006978D01*
X153691000Y-68836771D01*
X153691000Y-68663229D01*
X153929000Y-68663229D01*
X153929000Y-68836771D01*
X153962856Y-69006978D01*
X154029268Y-69167310D01*
X154125682Y-69311605D01*
X154248395Y-69434318D01*
X154392690Y-69530732D01*
X154553022Y-69597144D01*
X154723229Y-69631000D01*
X154896771Y-69631000D01*
X155066978Y-69597144D01*
X155227310Y-69530732D01*
X155371605Y-69434318D01*
X155494318Y-69311605D01*
X155590732Y-69167310D01*
X155657144Y-69006978D01*
X155691000Y-68836771D01*
X155691000Y-68663229D01*
X155929000Y-68663229D01*
X155929000Y-68836771D01*
X155962856Y-69006978D01*
X156029268Y-69167310D01*
X156125682Y-69311605D01*
X156248395Y-69434318D01*
X156392690Y-69530732D01*
X156553022Y-69597144D01*
X156723229Y-69631000D01*
X156896771Y-69631000D01*
X157066978Y-69597144D01*
X157227310Y-69530732D01*
X157371605Y-69434318D01*
X157494318Y-69311605D01*
X157590732Y-69167310D01*
X157657144Y-69006978D01*
X157691000Y-68836771D01*
X157691000Y-68663229D01*
X157929000Y-68663229D01*
X157929000Y-68836771D01*
X157962856Y-69006978D01*
X158029268Y-69167310D01*
X158125682Y-69311605D01*
X158248395Y-69434318D01*
X158392690Y-69530732D01*
X158553022Y-69597144D01*
X158723229Y-69631000D01*
X158896771Y-69631000D01*
X159066978Y-69597144D01*
X159227310Y-69530732D01*
X159371605Y-69434318D01*
X159494318Y-69311605D01*
X159590732Y-69167310D01*
X159657144Y-69006978D01*
X159691000Y-68836771D01*
X159691000Y-68663229D01*
X159929000Y-68663229D01*
X159929000Y-68836771D01*
X159962856Y-69006978D01*
X160029268Y-69167310D01*
X160125682Y-69311605D01*
X160248395Y-69434318D01*
X160392690Y-69530732D01*
X160553022Y-69597144D01*
X160723229Y-69631000D01*
X160896771Y-69631000D01*
X161066978Y-69597144D01*
X161227310Y-69530732D01*
X161371605Y-69434318D01*
X161494318Y-69311605D01*
X161590732Y-69167310D01*
X161657144Y-69006978D01*
X161691000Y-68836771D01*
X161691000Y-68663229D01*
X161657144Y-68493022D01*
X161590732Y-68332690D01*
X161494318Y-68188395D01*
X161371605Y-68065682D01*
X161227310Y-67969268D01*
X161066978Y-67902856D01*
X160896771Y-67869000D01*
X160723229Y-67869000D01*
X160553022Y-67902856D01*
X160392690Y-67969268D01*
X160248395Y-68065682D01*
X160125682Y-68188395D01*
X160029268Y-68332690D01*
X159962856Y-68493022D01*
X159929000Y-68663229D01*
X159691000Y-68663229D01*
X159657144Y-68493022D01*
X159590732Y-68332690D01*
X159494318Y-68188395D01*
X159371605Y-68065682D01*
X159227310Y-67969268D01*
X159066978Y-67902856D01*
X158896771Y-67869000D01*
X158723229Y-67869000D01*
X158553022Y-67902856D01*
X158392690Y-67969268D01*
X158248395Y-68065682D01*
X158125682Y-68188395D01*
X158029268Y-68332690D01*
X157962856Y-68493022D01*
X157929000Y-68663229D01*
X157691000Y-68663229D01*
X157657144Y-68493022D01*
X157590732Y-68332690D01*
X157494318Y-68188395D01*
X157371605Y-68065682D01*
X157227310Y-67969268D01*
X157066978Y-67902856D01*
X156896771Y-67869000D01*
X156723229Y-67869000D01*
X156553022Y-67902856D01*
X156392690Y-67969268D01*
X156248395Y-68065682D01*
X156125682Y-68188395D01*
X156029268Y-68332690D01*
X155962856Y-68493022D01*
X155929000Y-68663229D01*
X155691000Y-68663229D01*
X155657144Y-68493022D01*
X155590732Y-68332690D01*
X155494318Y-68188395D01*
X155371605Y-68065682D01*
X155227310Y-67969268D01*
X155066978Y-67902856D01*
X154896771Y-67869000D01*
X154723229Y-67869000D01*
X154553022Y-67902856D01*
X154392690Y-67969268D01*
X154248395Y-68065682D01*
X154125682Y-68188395D01*
X154029268Y-68332690D01*
X153962856Y-68493022D01*
X153929000Y-68663229D01*
X153691000Y-68663229D01*
X153657144Y-68493022D01*
X153590732Y-68332690D01*
X153494318Y-68188395D01*
X153371605Y-68065682D01*
X153227310Y-67969268D01*
X153066978Y-67902856D01*
X152896771Y-67869000D01*
X152723229Y-67869000D01*
X152553022Y-67902856D01*
X152392690Y-67969268D01*
X152248395Y-68065682D01*
X152125682Y-68188395D01*
X152029268Y-68332690D01*
X151962856Y-68493022D01*
X151929000Y-68663229D01*
X151691000Y-68663229D01*
X151657144Y-68493022D01*
X151590732Y-68332690D01*
X151494318Y-68188395D01*
X151371605Y-68065682D01*
X151227310Y-67969268D01*
X151066978Y-67902856D01*
X150896771Y-67869000D01*
X150723229Y-67869000D01*
X150553022Y-67902856D01*
X150392690Y-67969268D01*
X150248395Y-68065682D01*
X150125682Y-68188395D01*
X150029268Y-68332690D01*
X149962856Y-68493022D01*
X149932649Y-68644883D01*
X149897042Y-68621091D01*
X149877000Y-68612789D01*
X149877000Y-66663229D01*
X154929000Y-66663229D01*
X154929000Y-66836771D01*
X154962856Y-67006978D01*
X155029268Y-67167310D01*
X155125682Y-67311605D01*
X155248395Y-67434318D01*
X155392690Y-67530732D01*
X155553022Y-67597144D01*
X155723229Y-67631000D01*
X155896771Y-67631000D01*
X156066978Y-67597144D01*
X156227310Y-67530732D01*
X156371605Y-67434318D01*
X156494318Y-67311605D01*
X156590732Y-67167310D01*
X156657144Y-67006978D01*
X156691000Y-66836771D01*
X156691000Y-66663229D01*
X156929000Y-66663229D01*
X156929000Y-66836771D01*
X156962856Y-67006978D01*
X157029268Y-67167310D01*
X157125682Y-67311605D01*
X157248395Y-67434318D01*
X157392690Y-67530732D01*
X157553022Y-67597144D01*
X157723229Y-67631000D01*
X157896771Y-67631000D01*
X158066978Y-67597144D01*
X158227310Y-67530732D01*
X158371605Y-67434318D01*
X158494318Y-67311605D01*
X158590732Y-67167310D01*
X158657144Y-67006978D01*
X158691000Y-66836771D01*
X158691000Y-66663229D01*
X158929000Y-66663229D01*
X158929000Y-66836771D01*
X158962856Y-67006978D01*
X159029268Y-67167310D01*
X159125682Y-67311605D01*
X159248395Y-67434318D01*
X159392690Y-67530732D01*
X159553022Y-67597144D01*
X159723229Y-67631000D01*
X159896771Y-67631000D01*
X160066978Y-67597144D01*
X160227310Y-67530732D01*
X160371605Y-67434318D01*
X160494318Y-67311605D01*
X160590732Y-67167310D01*
X160657144Y-67006978D01*
X160691000Y-66836771D01*
X160691000Y-66663229D01*
X160657144Y-66493022D01*
X160590732Y-66332690D01*
X160494318Y-66188395D01*
X160371605Y-66065682D01*
X160227310Y-65969268D01*
X160066978Y-65902856D01*
X159896771Y-65869000D01*
X159723229Y-65869000D01*
X159553022Y-65902856D01*
X159392690Y-65969268D01*
X159248395Y-66065682D01*
X159125682Y-66188395D01*
X159029268Y-66332690D01*
X158962856Y-66493022D01*
X158929000Y-66663229D01*
X158691000Y-66663229D01*
X158657144Y-66493022D01*
X158590732Y-66332690D01*
X158494318Y-66188395D01*
X158371605Y-66065682D01*
X158227310Y-65969268D01*
X158066978Y-65902856D01*
X157896771Y-65869000D01*
X157723229Y-65869000D01*
X157553022Y-65902856D01*
X157392690Y-65969268D01*
X157248395Y-66065682D01*
X157125682Y-66188395D01*
X157029268Y-66332690D01*
X156962856Y-66493022D01*
X156929000Y-66663229D01*
X156691000Y-66663229D01*
X156657144Y-66493022D01*
X156590732Y-66332690D01*
X156494318Y-66188395D01*
X156371605Y-66065682D01*
X156227310Y-65969268D01*
X156066978Y-65902856D01*
X155896771Y-65869000D01*
X155723229Y-65869000D01*
X155553022Y-65902856D01*
X155392690Y-65969268D01*
X155248395Y-66065682D01*
X155125682Y-66188395D01*
X155029268Y-66332690D01*
X154962856Y-66493022D01*
X154929000Y-66663229D01*
X149877000Y-66663229D01*
X149877000Y-65627000D01*
X163619000Y-65627000D01*
X163619000Y-68500000D01*
%TA.AperFunction,Conductor*%
D17*
G36*
X163619000Y-68500000D02*
G01*
X163623000Y-68540611D01*
X163623000Y-68750000D01*
X163625440Y-68774776D01*
X163632667Y-68798601D01*
X163644403Y-68820557D01*
X163660197Y-68839803D01*
X163679443Y-68855597D01*
X163701399Y-68867333D01*
X163725224Y-68874560D01*
X163750000Y-68877000D01*
X163959389Y-68877000D01*
X164000000Y-68881000D01*
X174215276Y-68881000D01*
X174293358Y-68997859D01*
X174295499Y-69000000D01*
X174293358Y-69002141D01*
X174207887Y-69130058D01*
X174149013Y-69272191D01*
X174119000Y-69423078D01*
X174119000Y-69576922D01*
X174149013Y-69727809D01*
X174207887Y-69869942D01*
X174293358Y-69997859D01*
X174402141Y-70106642D01*
X174530058Y-70192113D01*
X174672191Y-70250987D01*
X174823078Y-70281000D01*
X174976922Y-70281000D01*
X175127809Y-70250987D01*
X175269942Y-70192113D01*
X175397859Y-70106642D01*
X175506642Y-69997859D01*
X175592113Y-69869942D01*
X175650987Y-69727809D01*
X175681000Y-69576922D01*
X175681000Y-69423078D01*
X175650987Y-69272191D01*
X175592113Y-69130058D01*
X175506642Y-69002141D01*
X175504501Y-69000000D01*
X175506642Y-68997859D01*
X175584724Y-68881000D01*
X177715276Y-68881000D01*
X177793358Y-68997859D01*
X177795499Y-69000000D01*
X177793358Y-69002141D01*
X177707887Y-69130058D01*
X177649013Y-69272191D01*
X177619000Y-69423078D01*
X177619000Y-69576922D01*
X177649013Y-69727809D01*
X177707887Y-69869942D01*
X177793358Y-69997859D01*
X177902141Y-70106642D01*
X178030058Y-70192113D01*
X178172191Y-70250987D01*
X178323078Y-70281000D01*
X178476922Y-70281000D01*
X178627809Y-70250987D01*
X178769942Y-70192113D01*
X178897859Y-70106642D01*
X179006642Y-69997859D01*
X179092113Y-69869942D01*
X179150987Y-69727809D01*
X179181000Y-69576922D01*
X179181000Y-69423078D01*
X179150987Y-69272191D01*
X179092113Y-69130058D01*
X179006642Y-69002141D01*
X179004501Y-69000000D01*
X179006642Y-68997859D01*
X179084724Y-68881000D01*
X181373000Y-68881000D01*
X181373000Y-74094000D01*
X160074568Y-74094000D01*
X160227310Y-74030732D01*
X160371605Y-73934318D01*
X160494318Y-73811605D01*
X160590732Y-73667310D01*
X160657144Y-73506978D01*
X160691000Y-73336771D01*
X160691000Y-73163229D01*
X160657144Y-72993022D01*
X160590732Y-72832690D01*
X160494318Y-72688395D01*
X160371605Y-72565682D01*
X160227310Y-72469268D01*
X160066978Y-72402856D01*
X159896771Y-72369000D01*
X159723229Y-72369000D01*
X159553022Y-72402856D01*
X159392690Y-72469268D01*
X159248395Y-72565682D01*
X159125682Y-72688395D01*
X159029268Y-72832690D01*
X158962856Y-72993022D01*
X158929000Y-73163229D01*
X158929000Y-73336771D01*
X158962856Y-73506978D01*
X159029268Y-73667310D01*
X159125682Y-73811605D01*
X159248395Y-73934318D01*
X159392690Y-74030732D01*
X159545432Y-74094000D01*
X158074568Y-74094000D01*
X158227310Y-74030732D01*
X158371605Y-73934318D01*
X158494318Y-73811605D01*
X158590732Y-73667310D01*
X158657144Y-73506978D01*
X158691000Y-73336771D01*
X158691000Y-73163229D01*
X158657144Y-72993022D01*
X158590732Y-72832690D01*
X158494318Y-72688395D01*
X158371605Y-72565682D01*
X158227310Y-72469268D01*
X158066978Y-72402856D01*
X157896771Y-72369000D01*
X157723229Y-72369000D01*
X157553022Y-72402856D01*
X157392690Y-72469268D01*
X157248395Y-72565682D01*
X157125682Y-72688395D01*
X157029268Y-72832690D01*
X156962856Y-72993022D01*
X156929000Y-73163229D01*
X156929000Y-73336771D01*
X156962856Y-73506978D01*
X157029268Y-73667310D01*
X157125682Y-73811605D01*
X157248395Y-73934318D01*
X157392690Y-74030732D01*
X157545432Y-74094000D01*
X156074568Y-74094000D01*
X156227310Y-74030732D01*
X156371605Y-73934318D01*
X156494318Y-73811605D01*
X156590732Y-73667310D01*
X156657144Y-73506978D01*
X156691000Y-73336771D01*
X156691000Y-73163229D01*
X156657144Y-72993022D01*
X156590732Y-72832690D01*
X156494318Y-72688395D01*
X156371605Y-72565682D01*
X156227310Y-72469268D01*
X156066978Y-72402856D01*
X155896771Y-72369000D01*
X155723229Y-72369000D01*
X155553022Y-72402856D01*
X155392690Y-72469268D01*
X155248395Y-72565682D01*
X155125682Y-72688395D01*
X155029268Y-72832690D01*
X154962856Y-72993022D01*
X154929000Y-73163229D01*
X154929000Y-73336771D01*
X154962856Y-73506978D01*
X155029268Y-73667310D01*
X155125682Y-73811605D01*
X155248395Y-73934318D01*
X155392690Y-74030732D01*
X155545432Y-74094000D01*
X154074568Y-74094000D01*
X154227310Y-74030732D01*
X154371605Y-73934318D01*
X154494318Y-73811605D01*
X154590732Y-73667310D01*
X154657144Y-73506978D01*
X154691000Y-73336771D01*
X154691000Y-73163229D01*
X154657144Y-72993022D01*
X154590732Y-72832690D01*
X154494318Y-72688395D01*
X154371605Y-72565682D01*
X154227310Y-72469268D01*
X154066978Y-72402856D01*
X153896771Y-72369000D01*
X153723229Y-72369000D01*
X153553022Y-72402856D01*
X153392690Y-72469268D01*
X153248395Y-72565682D01*
X153125682Y-72688395D01*
X153029268Y-72832690D01*
X152962856Y-72993022D01*
X152929000Y-73163229D01*
X152929000Y-73336771D01*
X152962856Y-73506978D01*
X153029268Y-73667310D01*
X153125682Y-73811605D01*
X153248395Y-73934318D01*
X153392690Y-74030732D01*
X153545432Y-74094000D01*
X149877000Y-74094000D01*
X149877000Y-71387211D01*
X149897042Y-71378909D01*
X149932649Y-71355117D01*
X149962856Y-71506978D01*
X150029268Y-71667310D01*
X150125682Y-71811605D01*
X150248395Y-71934318D01*
X150392690Y-72030732D01*
X150553022Y-72097144D01*
X150723229Y-72131000D01*
X150896771Y-72131000D01*
X151066978Y-72097144D01*
X151227310Y-72030732D01*
X151371605Y-71934318D01*
X151494318Y-71811605D01*
X151590732Y-71667310D01*
X151657144Y-71506978D01*
X151691000Y-71336771D01*
X151691000Y-71163229D01*
X153929000Y-71163229D01*
X153929000Y-71336771D01*
X153962856Y-71506978D01*
X154029268Y-71667310D01*
X154125682Y-71811605D01*
X154248395Y-71934318D01*
X154392690Y-72030732D01*
X154553022Y-72097144D01*
X154723229Y-72131000D01*
X154896771Y-72131000D01*
X155066978Y-72097144D01*
X155227310Y-72030732D01*
X155371605Y-71934318D01*
X155494318Y-71811605D01*
X155590732Y-71667310D01*
X155657144Y-71506978D01*
X155691000Y-71336771D01*
X155691000Y-71163229D01*
X155929000Y-71163229D01*
X155929000Y-71336771D01*
X155962856Y-71506978D01*
X156029268Y-71667310D01*
X156125682Y-71811605D01*
X156248395Y-71934318D01*
X156392690Y-72030732D01*
X156553022Y-72097144D01*
X156723229Y-72131000D01*
X156896771Y-72131000D01*
X157066978Y-72097144D01*
X157227310Y-72030732D01*
X157371605Y-71934318D01*
X157494318Y-71811605D01*
X157590732Y-71667310D01*
X157657144Y-71506978D01*
X157691000Y-71336771D01*
X157691000Y-71163229D01*
X157929000Y-71163229D01*
X157929000Y-71336771D01*
X157962856Y-71506978D01*
X158029268Y-71667310D01*
X158125682Y-71811605D01*
X158248395Y-71934318D01*
X158392690Y-72030732D01*
X158553022Y-72097144D01*
X158723229Y-72131000D01*
X158896771Y-72131000D01*
X159066978Y-72097144D01*
X159227310Y-72030732D01*
X159371605Y-71934318D01*
X159494318Y-71811605D01*
X159590732Y-71667310D01*
X159657144Y-71506978D01*
X159691000Y-71336771D01*
X159691000Y-71163229D01*
X159929000Y-71163229D01*
X159929000Y-71336771D01*
X159962856Y-71506978D01*
X160029268Y-71667310D01*
X160125682Y-71811605D01*
X160248395Y-71934318D01*
X160392690Y-72030732D01*
X160553022Y-72097144D01*
X160723229Y-72131000D01*
X160896771Y-72131000D01*
X161066978Y-72097144D01*
X161227310Y-72030732D01*
X161371605Y-71934318D01*
X161494318Y-71811605D01*
X161590732Y-71667310D01*
X161657144Y-71506978D01*
X161691000Y-71336771D01*
X161691000Y-71163229D01*
X161657144Y-70993022D01*
X161590732Y-70832690D01*
X161494318Y-70688395D01*
X161371605Y-70565682D01*
X161227310Y-70469268D01*
X161066978Y-70402856D01*
X160896771Y-70369000D01*
X160723229Y-70369000D01*
X160553022Y-70402856D01*
X160392690Y-70469268D01*
X160248395Y-70565682D01*
X160125682Y-70688395D01*
X160029268Y-70832690D01*
X159962856Y-70993022D01*
X159929000Y-71163229D01*
X159691000Y-71163229D01*
X159657144Y-70993022D01*
X159590732Y-70832690D01*
X159494318Y-70688395D01*
X159371605Y-70565682D01*
X159227310Y-70469268D01*
X159066978Y-70402856D01*
X158896771Y-70369000D01*
X158723229Y-70369000D01*
X158553022Y-70402856D01*
X158392690Y-70469268D01*
X158248395Y-70565682D01*
X158125682Y-70688395D01*
X158029268Y-70832690D01*
X157962856Y-70993022D01*
X157929000Y-71163229D01*
X157691000Y-71163229D01*
X157657144Y-70993022D01*
X157590732Y-70832690D01*
X157494318Y-70688395D01*
X157371605Y-70565682D01*
X157227310Y-70469268D01*
X157066978Y-70402856D01*
X156896771Y-70369000D01*
X156723229Y-70369000D01*
X156553022Y-70402856D01*
X156392690Y-70469268D01*
X156248395Y-70565682D01*
X156125682Y-70688395D01*
X156029268Y-70832690D01*
X155962856Y-70993022D01*
X155929000Y-71163229D01*
X155691000Y-71163229D01*
X155657144Y-70993022D01*
X155590732Y-70832690D01*
X155494318Y-70688395D01*
X155371605Y-70565682D01*
X155227310Y-70469268D01*
X155066978Y-70402856D01*
X154896771Y-70369000D01*
X154723229Y-70369000D01*
X154553022Y-70402856D01*
X154392690Y-70469268D01*
X154248395Y-70565682D01*
X154125682Y-70688395D01*
X154029268Y-70832690D01*
X153962856Y-70993022D01*
X153929000Y-71163229D01*
X151691000Y-71163229D01*
X151657144Y-70993022D01*
X151590732Y-70832690D01*
X151494318Y-70688395D01*
X151371605Y-70565682D01*
X151227310Y-70469268D01*
X151066978Y-70402856D01*
X150896771Y-70369000D01*
X150723229Y-70369000D01*
X150671020Y-70379385D01*
X150716000Y-70153253D01*
X150716000Y-69846747D01*
X150671020Y-69620615D01*
X150723229Y-69631000D01*
X150896771Y-69631000D01*
X151066978Y-69597144D01*
X151227310Y-69530732D01*
X151371605Y-69434318D01*
X151494318Y-69311605D01*
X151590732Y-69167310D01*
X151657144Y-69006978D01*
X151691000Y-68836771D01*
X151691000Y-68663229D01*
X151929000Y-68663229D01*
X151929000Y-68836771D01*
X151962856Y-69006978D01*
X152029268Y-69167310D01*
X152125682Y-69311605D01*
X152248395Y-69434318D01*
X152392690Y-69530732D01*
X152553022Y-69597144D01*
X152723229Y-69631000D01*
X152896771Y-69631000D01*
X153066978Y-69597144D01*
X153227310Y-69530732D01*
X153371605Y-69434318D01*
X153494318Y-69311605D01*
X153590732Y-69167310D01*
X153657144Y-69006978D01*
X153691000Y-68836771D01*
X153691000Y-68663229D01*
X153929000Y-68663229D01*
X153929000Y-68836771D01*
X153962856Y-69006978D01*
X154029268Y-69167310D01*
X154125682Y-69311605D01*
X154248395Y-69434318D01*
X154392690Y-69530732D01*
X154553022Y-69597144D01*
X154723229Y-69631000D01*
X154896771Y-69631000D01*
X155066978Y-69597144D01*
X155227310Y-69530732D01*
X155371605Y-69434318D01*
X155494318Y-69311605D01*
X155590732Y-69167310D01*
X155657144Y-69006978D01*
X155691000Y-68836771D01*
X155691000Y-68663229D01*
X155929000Y-68663229D01*
X155929000Y-68836771D01*
X155962856Y-69006978D01*
X156029268Y-69167310D01*
X156125682Y-69311605D01*
X156248395Y-69434318D01*
X156392690Y-69530732D01*
X156553022Y-69597144D01*
X156723229Y-69631000D01*
X156896771Y-69631000D01*
X157066978Y-69597144D01*
X157227310Y-69530732D01*
X157371605Y-69434318D01*
X157494318Y-69311605D01*
X157590732Y-69167310D01*
X157657144Y-69006978D01*
X157691000Y-68836771D01*
X157691000Y-68663229D01*
X157929000Y-68663229D01*
X157929000Y-68836771D01*
X157962856Y-69006978D01*
X158029268Y-69167310D01*
X158125682Y-69311605D01*
X158248395Y-69434318D01*
X158392690Y-69530732D01*
X158553022Y-69597144D01*
X158723229Y-69631000D01*
X158896771Y-69631000D01*
X159066978Y-69597144D01*
X159227310Y-69530732D01*
X159371605Y-69434318D01*
X159494318Y-69311605D01*
X159590732Y-69167310D01*
X159657144Y-69006978D01*
X159691000Y-68836771D01*
X159691000Y-68663229D01*
X159929000Y-68663229D01*
X159929000Y-68836771D01*
X159962856Y-69006978D01*
X160029268Y-69167310D01*
X160125682Y-69311605D01*
X160248395Y-69434318D01*
X160392690Y-69530732D01*
X160553022Y-69597144D01*
X160723229Y-69631000D01*
X160896771Y-69631000D01*
X161066978Y-69597144D01*
X161227310Y-69530732D01*
X161371605Y-69434318D01*
X161494318Y-69311605D01*
X161590732Y-69167310D01*
X161657144Y-69006978D01*
X161691000Y-68836771D01*
X161691000Y-68663229D01*
X161657144Y-68493022D01*
X161590732Y-68332690D01*
X161494318Y-68188395D01*
X161371605Y-68065682D01*
X161227310Y-67969268D01*
X161066978Y-67902856D01*
X160896771Y-67869000D01*
X160723229Y-67869000D01*
X160553022Y-67902856D01*
X160392690Y-67969268D01*
X160248395Y-68065682D01*
X160125682Y-68188395D01*
X160029268Y-68332690D01*
X159962856Y-68493022D01*
X159929000Y-68663229D01*
X159691000Y-68663229D01*
X159657144Y-68493022D01*
X159590732Y-68332690D01*
X159494318Y-68188395D01*
X159371605Y-68065682D01*
X159227310Y-67969268D01*
X159066978Y-67902856D01*
X158896771Y-67869000D01*
X158723229Y-67869000D01*
X158553022Y-67902856D01*
X158392690Y-67969268D01*
X158248395Y-68065682D01*
X158125682Y-68188395D01*
X158029268Y-68332690D01*
X157962856Y-68493022D01*
X157929000Y-68663229D01*
X157691000Y-68663229D01*
X157657144Y-68493022D01*
X157590732Y-68332690D01*
X157494318Y-68188395D01*
X157371605Y-68065682D01*
X157227310Y-67969268D01*
X157066978Y-67902856D01*
X156896771Y-67869000D01*
X156723229Y-67869000D01*
X156553022Y-67902856D01*
X156392690Y-67969268D01*
X156248395Y-68065682D01*
X156125682Y-68188395D01*
X156029268Y-68332690D01*
X155962856Y-68493022D01*
X155929000Y-68663229D01*
X155691000Y-68663229D01*
X155657144Y-68493022D01*
X155590732Y-68332690D01*
X155494318Y-68188395D01*
X155371605Y-68065682D01*
X155227310Y-67969268D01*
X155066978Y-67902856D01*
X154896771Y-67869000D01*
X154723229Y-67869000D01*
X154553022Y-67902856D01*
X154392690Y-67969268D01*
X154248395Y-68065682D01*
X154125682Y-68188395D01*
X154029268Y-68332690D01*
X153962856Y-68493022D01*
X153929000Y-68663229D01*
X153691000Y-68663229D01*
X153657144Y-68493022D01*
X153590732Y-68332690D01*
X153494318Y-68188395D01*
X153371605Y-68065682D01*
X153227310Y-67969268D01*
X153066978Y-67902856D01*
X152896771Y-67869000D01*
X152723229Y-67869000D01*
X152553022Y-67902856D01*
X152392690Y-67969268D01*
X152248395Y-68065682D01*
X152125682Y-68188395D01*
X152029268Y-68332690D01*
X151962856Y-68493022D01*
X151929000Y-68663229D01*
X151691000Y-68663229D01*
X151657144Y-68493022D01*
X151590732Y-68332690D01*
X151494318Y-68188395D01*
X151371605Y-68065682D01*
X151227310Y-67969268D01*
X151066978Y-67902856D01*
X150896771Y-67869000D01*
X150723229Y-67869000D01*
X150553022Y-67902856D01*
X150392690Y-67969268D01*
X150248395Y-68065682D01*
X150125682Y-68188395D01*
X150029268Y-68332690D01*
X149962856Y-68493022D01*
X149932649Y-68644883D01*
X149897042Y-68621091D01*
X149877000Y-68612789D01*
X149877000Y-66663229D01*
X154929000Y-66663229D01*
X154929000Y-66836771D01*
X154962856Y-67006978D01*
X155029268Y-67167310D01*
X155125682Y-67311605D01*
X155248395Y-67434318D01*
X155392690Y-67530732D01*
X155553022Y-67597144D01*
X155723229Y-67631000D01*
X155896771Y-67631000D01*
X156066978Y-67597144D01*
X156227310Y-67530732D01*
X156371605Y-67434318D01*
X156494318Y-67311605D01*
X156590732Y-67167310D01*
X156657144Y-67006978D01*
X156691000Y-66836771D01*
X156691000Y-66663229D01*
X156929000Y-66663229D01*
X156929000Y-66836771D01*
X156962856Y-67006978D01*
X157029268Y-67167310D01*
X157125682Y-67311605D01*
X157248395Y-67434318D01*
X157392690Y-67530732D01*
X157553022Y-67597144D01*
X157723229Y-67631000D01*
X157896771Y-67631000D01*
X158066978Y-67597144D01*
X158227310Y-67530732D01*
X158371605Y-67434318D01*
X158494318Y-67311605D01*
X158590732Y-67167310D01*
X158657144Y-67006978D01*
X158691000Y-66836771D01*
X158691000Y-66663229D01*
X158929000Y-66663229D01*
X158929000Y-66836771D01*
X158962856Y-67006978D01*
X159029268Y-67167310D01*
X159125682Y-67311605D01*
X159248395Y-67434318D01*
X159392690Y-67530732D01*
X159553022Y-67597144D01*
X159723229Y-67631000D01*
X159896771Y-67631000D01*
X160066978Y-67597144D01*
X160227310Y-67530732D01*
X160371605Y-67434318D01*
X160494318Y-67311605D01*
X160590732Y-67167310D01*
X160657144Y-67006978D01*
X160691000Y-66836771D01*
X160691000Y-66663229D01*
X160657144Y-66493022D01*
X160590732Y-66332690D01*
X160494318Y-66188395D01*
X160371605Y-66065682D01*
X160227310Y-65969268D01*
X160066978Y-65902856D01*
X159896771Y-65869000D01*
X159723229Y-65869000D01*
X159553022Y-65902856D01*
X159392690Y-65969268D01*
X159248395Y-66065682D01*
X159125682Y-66188395D01*
X159029268Y-66332690D01*
X158962856Y-66493022D01*
X158929000Y-66663229D01*
X158691000Y-66663229D01*
X158657144Y-66493022D01*
X158590732Y-66332690D01*
X158494318Y-66188395D01*
X158371605Y-66065682D01*
X158227310Y-65969268D01*
X158066978Y-65902856D01*
X157896771Y-65869000D01*
X157723229Y-65869000D01*
X157553022Y-65902856D01*
X157392690Y-65969268D01*
X157248395Y-66065682D01*
X157125682Y-66188395D01*
X157029268Y-66332690D01*
X156962856Y-66493022D01*
X156929000Y-66663229D01*
X156691000Y-66663229D01*
X156657144Y-66493022D01*
X156590732Y-66332690D01*
X156494318Y-66188395D01*
X156371605Y-66065682D01*
X156227310Y-65969268D01*
X156066978Y-65902856D01*
X155896771Y-65869000D01*
X155723229Y-65869000D01*
X155553022Y-65902856D01*
X155392690Y-65969268D01*
X155248395Y-66065682D01*
X155125682Y-66188395D01*
X155029268Y-66332690D01*
X154962856Y-66493022D01*
X154929000Y-66663229D01*
X149877000Y-66663229D01*
X149877000Y-65627000D01*
X163619000Y-65627000D01*
X163619000Y-68500000D01*
G37*
%TD.AperFunction*%
%TD*%
D16*
%TO.N,+12VA*%
X189094000Y-65123000D02*
X186587397Y-65123000D01*
X186506642Y-65002141D01*
X186397859Y-64893358D01*
X186269942Y-64807887D01*
X186127809Y-64749013D01*
X185976922Y-64719000D01*
X185823078Y-64719000D01*
X185672191Y-64749013D01*
X185530058Y-64807887D01*
X185402141Y-64893358D01*
X185293358Y-65002141D01*
X185212603Y-65123000D01*
X185087397Y-65123000D01*
X185006642Y-65002141D01*
X184897859Y-64893358D01*
X184769942Y-64807887D01*
X184627809Y-64749013D01*
X184476922Y-64719000D01*
X184323078Y-64719000D01*
X184172191Y-64749013D01*
X184030058Y-64807887D01*
X183902141Y-64893358D01*
X183793358Y-65002141D01*
X183712603Y-65123000D01*
X183087397Y-65123000D01*
X183006642Y-65002141D01*
X182897859Y-64893358D01*
X182769942Y-64807887D01*
X182627809Y-64749013D01*
X182476922Y-64719000D01*
X182323078Y-64719000D01*
X182172191Y-64749013D01*
X182030058Y-64807887D01*
X181902141Y-64893358D01*
X181793358Y-65002141D01*
X181715276Y-65119000D01*
X181584724Y-65119000D01*
X181506642Y-65002141D01*
X181397859Y-64893358D01*
X181269942Y-64807887D01*
X181127809Y-64749013D01*
X180976922Y-64719000D01*
X180823078Y-64719000D01*
X180672191Y-64749013D01*
X180530058Y-64807887D01*
X180402141Y-64893358D01*
X180293358Y-65002141D01*
X180215276Y-65119000D01*
X176296396Y-65119000D01*
X176304829Y-65098640D01*
X176331000Y-64967073D01*
X176331000Y-64832927D01*
X176304829Y-64701360D01*
X176253494Y-64577426D01*
X176201760Y-64500000D01*
X176253494Y-64422574D01*
X176304829Y-64298640D01*
X176331000Y-64167073D01*
X176331000Y-64032927D01*
X176304829Y-63901360D01*
X176253494Y-63777426D01*
X176178967Y-63665888D01*
X176084112Y-63571033D01*
X175972574Y-63496506D01*
X175848640Y-63445171D01*
X175717073Y-63419000D01*
X175582927Y-63419000D01*
X175451360Y-63445171D01*
X175327426Y-63496506D01*
X175215888Y-63571033D01*
X175150000Y-63636921D01*
X175084112Y-63571033D01*
X174972574Y-63496506D01*
X174848640Y-63445171D01*
X174717073Y-63419000D01*
X174582927Y-63419000D01*
X174451360Y-63445171D01*
X174327426Y-63496506D01*
X174215888Y-63571033D01*
X174150000Y-63636921D01*
X174084112Y-63571033D01*
X173972574Y-63496506D01*
X173848640Y-63445171D01*
X173717073Y-63419000D01*
X173582927Y-63419000D01*
X173451360Y-63445171D01*
X173327426Y-63496506D01*
X173215888Y-63571033D01*
X173121033Y-63665888D01*
X173046506Y-63777426D01*
X172995171Y-63901360D01*
X172969000Y-64032927D01*
X172969000Y-64167073D01*
X172995171Y-64298640D01*
X173046506Y-64422574D01*
X173098240Y-64500000D01*
X173046506Y-64577426D01*
X172995171Y-64701360D01*
X172969000Y-64832927D01*
X172969000Y-64967073D01*
X172995171Y-65098640D01*
X173003604Y-65119000D01*
X172218616Y-65119000D01*
X172170158Y-65002013D01*
X172084687Y-64874096D01*
X171975904Y-64765313D01*
X171847987Y-64679842D01*
X171705854Y-64620968D01*
X171554967Y-64590955D01*
X171401123Y-64590955D01*
X171250236Y-64620968D01*
X171108103Y-64679842D01*
X170980186Y-64765313D01*
X170871403Y-64874096D01*
X170785932Y-65002013D01*
X170737474Y-65119000D01*
X164000000Y-65119000D01*
X163959389Y-65123000D01*
X163790611Y-65123000D01*
X163750000Y-65119000D01*
X149877000Y-65119000D01*
X149877000Y-61414738D01*
X152269000Y-61414738D01*
X152269000Y-61785262D01*
X152341286Y-62148667D01*
X152483080Y-62490987D01*
X152688932Y-62799067D01*
X152950933Y-63061068D01*
X153259013Y-63266920D01*
X153601333Y-63408714D01*
X153964738Y-63481000D01*
X154335262Y-63481000D01*
X154698667Y-63408714D01*
X155040987Y-63266920D01*
X155349067Y-63061068D01*
X155611068Y-62799067D01*
X155816920Y-62490987D01*
X155927891Y-62223078D01*
X164769000Y-62223078D01*
X164769000Y-62376922D01*
X164799013Y-62527809D01*
X164857887Y-62669942D01*
X164943358Y-62797859D01*
X165052141Y-62906642D01*
X165180058Y-62992113D01*
X165322191Y-63050987D01*
X165473078Y-63081000D01*
X165626922Y-63081000D01*
X165777809Y-63050987D01*
X165919942Y-62992113D01*
X166047859Y-62906642D01*
X166156642Y-62797859D01*
X166242113Y-62669942D01*
X166300987Y-62527809D01*
X166331000Y-62376922D01*
X166331000Y-62223078D01*
X166316082Y-62148078D01*
X170119000Y-62148078D01*
X170119000Y-62301922D01*
X170149013Y-62452809D01*
X170207887Y-62594942D01*
X170293358Y-62722859D01*
X170402141Y-62831642D01*
X170530058Y-62917113D01*
X170672191Y-62975987D01*
X170823078Y-63006000D01*
X170976922Y-63006000D01*
X171127809Y-62975987D01*
X171269942Y-62917113D01*
X171397859Y-62831642D01*
X171506642Y-62722859D01*
X171592113Y-62594942D01*
X171650987Y-62452809D01*
X171681000Y-62301922D01*
X171681000Y-62148078D01*
X171650987Y-61997191D01*
X171592113Y-61855058D01*
X171506642Y-61727141D01*
X171397859Y-61618358D01*
X171269942Y-61532887D01*
X171127809Y-61474013D01*
X170976922Y-61444000D01*
X170823078Y-61444000D01*
X170672191Y-61474013D01*
X170530058Y-61532887D01*
X170402141Y-61618358D01*
X170293358Y-61727141D01*
X170207887Y-61855058D01*
X170149013Y-61997191D01*
X170119000Y-62148078D01*
X166316082Y-62148078D01*
X166300987Y-62072191D01*
X166242113Y-61930058D01*
X166156642Y-61802141D01*
X166047859Y-61693358D01*
X165919942Y-61607887D01*
X165777809Y-61549013D01*
X165626922Y-61519000D01*
X165473078Y-61519000D01*
X165322191Y-61549013D01*
X165180058Y-61607887D01*
X165052141Y-61693358D01*
X164943358Y-61802141D01*
X164857887Y-61930058D01*
X164799013Y-62072191D01*
X164769000Y-62223078D01*
X155927891Y-62223078D01*
X155958714Y-62148667D01*
X156031000Y-61785262D01*
X156031000Y-61414738D01*
X155958714Y-61051333D01*
X155816920Y-60709013D01*
X155611068Y-60400933D01*
X155349067Y-60138932D01*
X155040987Y-59933080D01*
X154698667Y-59791286D01*
X154335262Y-59719000D01*
X153964738Y-59719000D01*
X153601333Y-59791286D01*
X153259013Y-59933080D01*
X152950933Y-60138932D01*
X152688932Y-60400933D01*
X152483080Y-60709013D01*
X152341286Y-61051333D01*
X152269000Y-61414738D01*
X149877000Y-61414738D01*
X149877000Y-60181001D01*
X149976923Y-60181001D01*
X150127810Y-60150988D01*
X150269943Y-60092114D01*
X150397860Y-60006643D01*
X150506643Y-59897860D01*
X150592114Y-59769943D01*
X150650988Y-59627810D01*
X150681001Y-59476923D01*
X150681001Y-59323079D01*
X150650988Y-59172192D01*
X150592114Y-59030059D01*
X150506643Y-58902142D01*
X150397860Y-58793359D01*
X150269943Y-58707888D01*
X150127810Y-58649014D01*
X149976923Y-58619001D01*
X149877000Y-58619001D01*
X149877000Y-58373078D01*
X166369000Y-58373078D01*
X166369000Y-58526922D01*
X166399013Y-58677809D01*
X166457887Y-58819942D01*
X166543358Y-58947859D01*
X166652141Y-59056642D01*
X166780058Y-59142113D01*
X166922191Y-59200987D01*
X167073078Y-59231000D01*
X167226922Y-59231000D01*
X167377809Y-59200987D01*
X167519942Y-59142113D01*
X167548430Y-59123078D01*
X173119000Y-59123078D01*
X173119000Y-59276922D01*
X173149013Y-59427809D01*
X173207887Y-59569942D01*
X173293358Y-59697859D01*
X173402141Y-59806642D01*
X173530058Y-59892113D01*
X173672191Y-59950987D01*
X173823078Y-59981000D01*
X173976922Y-59981000D01*
X174127809Y-59950987D01*
X174269942Y-59892113D01*
X174397859Y-59806642D01*
X174506642Y-59697859D01*
X174592113Y-59569942D01*
X174650987Y-59427809D01*
X174681000Y-59276922D01*
X174681000Y-59123078D01*
X174650987Y-58972191D01*
X174592113Y-58830058D01*
X174506642Y-58702141D01*
X174397859Y-58593358D01*
X174269942Y-58507887D01*
X174127809Y-58449013D01*
X173976922Y-58419000D01*
X173823078Y-58419000D01*
X173672191Y-58449013D01*
X173530058Y-58507887D01*
X173402141Y-58593358D01*
X173293358Y-58702141D01*
X173207887Y-58830058D01*
X173149013Y-58972191D01*
X173119000Y-59123078D01*
X167548430Y-59123078D01*
X167647859Y-59056642D01*
X167756642Y-58947859D01*
X167842113Y-58819942D01*
X167900987Y-58677809D01*
X167931000Y-58526922D01*
X167931000Y-58373078D01*
X167900987Y-58222191D01*
X167880644Y-58173078D01*
X186369000Y-58173078D01*
X186369000Y-58326922D01*
X186399013Y-58477809D01*
X186457887Y-58619942D01*
X186543358Y-58747859D01*
X186652141Y-58856642D01*
X186780058Y-58942113D01*
X186922191Y-59000987D01*
X187073078Y-59031000D01*
X187226922Y-59031000D01*
X187377809Y-59000987D01*
X187519942Y-58942113D01*
X187647859Y-58856642D01*
X187756642Y-58747859D01*
X187842113Y-58619942D01*
X187900987Y-58477809D01*
X187931000Y-58326922D01*
X187931000Y-58173078D01*
X187900987Y-58022191D01*
X187842113Y-57880058D01*
X187756642Y-57752141D01*
X187647859Y-57643358D01*
X187519942Y-57557887D01*
X187377809Y-57499013D01*
X187226922Y-57469000D01*
X187073078Y-57469000D01*
X186922191Y-57499013D01*
X186780058Y-57557887D01*
X186652141Y-57643358D01*
X186543358Y-57752141D01*
X186457887Y-57880058D01*
X186399013Y-58022191D01*
X186369000Y-58173078D01*
X167880644Y-58173078D01*
X167842113Y-58080058D01*
X167756642Y-57952141D01*
X167647859Y-57843358D01*
X167519942Y-57757887D01*
X167377809Y-57699013D01*
X167226922Y-57669000D01*
X167073078Y-57669000D01*
X166922191Y-57699013D01*
X166780058Y-57757887D01*
X166652141Y-57843358D01*
X166543358Y-57952141D01*
X166457887Y-58080058D01*
X166399013Y-58222191D01*
X166369000Y-58373078D01*
X149877000Y-58373078D01*
X149877000Y-57431001D01*
X149976923Y-57431001D01*
X150127810Y-57400988D01*
X150269943Y-57342114D01*
X150397860Y-57256643D01*
X150506643Y-57147860D01*
X150592114Y-57019943D01*
X150650988Y-56877810D01*
X150681001Y-56726923D01*
X150681001Y-56573079D01*
X150650988Y-56422192D01*
X150592114Y-56280059D01*
X150520632Y-56173078D01*
X183368988Y-56173078D01*
X183368988Y-56326922D01*
X183399001Y-56477809D01*
X183457875Y-56619942D01*
X183543346Y-56747859D01*
X183652129Y-56856642D01*
X183780046Y-56942113D01*
X183922179Y-57000987D01*
X184073066Y-57031000D01*
X184226910Y-57031000D01*
X184377797Y-57000987D01*
X184519930Y-56942113D01*
X184647847Y-56856642D01*
X184756630Y-56747859D01*
X184842101Y-56619942D01*
X184900975Y-56477809D01*
X184930988Y-56326922D01*
X184930988Y-56173078D01*
X184900975Y-56022191D01*
X184842101Y-55880058D01*
X184756630Y-55752141D01*
X184647847Y-55643358D01*
X184519930Y-55557887D01*
X184377797Y-55499013D01*
X184226910Y-55469000D01*
X184073066Y-55469000D01*
X183922179Y-55499013D01*
X183780046Y-55557887D01*
X183652129Y-55643358D01*
X183543346Y-55752141D01*
X183457875Y-55880058D01*
X183399001Y-56022191D01*
X183368988Y-56173078D01*
X150520632Y-56173078D01*
X150506643Y-56152142D01*
X150397860Y-56043359D01*
X150269943Y-55957888D01*
X150127810Y-55899014D01*
X149976923Y-55869001D01*
X149877000Y-55869001D01*
X149877000Y-54906000D01*
X189094001Y-54906000D01*
X189094000Y-65123000D01*
%TA.AperFunction,Conductor*%
D17*
G36*
X189094000Y-65123000D02*
G01*
X186587397Y-65123000D01*
X186506642Y-65002141D01*
X186397859Y-64893358D01*
X186269942Y-64807887D01*
X186127809Y-64749013D01*
X185976922Y-64719000D01*
X185823078Y-64719000D01*
X185672191Y-64749013D01*
X185530058Y-64807887D01*
X185402141Y-64893358D01*
X185293358Y-65002141D01*
X185212603Y-65123000D01*
X185087397Y-65123000D01*
X185006642Y-65002141D01*
X184897859Y-64893358D01*
X184769942Y-64807887D01*
X184627809Y-64749013D01*
X184476922Y-64719000D01*
X184323078Y-64719000D01*
X184172191Y-64749013D01*
X184030058Y-64807887D01*
X183902141Y-64893358D01*
X183793358Y-65002141D01*
X183712603Y-65123000D01*
X183087397Y-65123000D01*
X183006642Y-65002141D01*
X182897859Y-64893358D01*
X182769942Y-64807887D01*
X182627809Y-64749013D01*
X182476922Y-64719000D01*
X182323078Y-64719000D01*
X182172191Y-64749013D01*
X182030058Y-64807887D01*
X181902141Y-64893358D01*
X181793358Y-65002141D01*
X181715276Y-65119000D01*
X181584724Y-65119000D01*
X181506642Y-65002141D01*
X181397859Y-64893358D01*
X181269942Y-64807887D01*
X181127809Y-64749013D01*
X180976922Y-64719000D01*
X180823078Y-64719000D01*
X180672191Y-64749013D01*
X180530058Y-64807887D01*
X180402141Y-64893358D01*
X180293358Y-65002141D01*
X180215276Y-65119000D01*
X176296396Y-65119000D01*
X176304829Y-65098640D01*
X176331000Y-64967073D01*
X176331000Y-64832927D01*
X176304829Y-64701360D01*
X176253494Y-64577426D01*
X176201760Y-64500000D01*
X176253494Y-64422574D01*
X176304829Y-64298640D01*
X176331000Y-64167073D01*
X176331000Y-64032927D01*
X176304829Y-63901360D01*
X176253494Y-63777426D01*
X176178967Y-63665888D01*
X176084112Y-63571033D01*
X175972574Y-63496506D01*
X175848640Y-63445171D01*
X175717073Y-63419000D01*
X175582927Y-63419000D01*
X175451360Y-63445171D01*
X175327426Y-63496506D01*
X175215888Y-63571033D01*
X175150000Y-63636921D01*
X175084112Y-63571033D01*
X174972574Y-63496506D01*
X174848640Y-63445171D01*
X174717073Y-63419000D01*
X174582927Y-63419000D01*
X174451360Y-63445171D01*
X174327426Y-63496506D01*
X174215888Y-63571033D01*
X174150000Y-63636921D01*
X174084112Y-63571033D01*
X173972574Y-63496506D01*
X173848640Y-63445171D01*
X173717073Y-63419000D01*
X173582927Y-63419000D01*
X173451360Y-63445171D01*
X173327426Y-63496506D01*
X173215888Y-63571033D01*
X173121033Y-63665888D01*
X173046506Y-63777426D01*
X172995171Y-63901360D01*
X172969000Y-64032927D01*
X172969000Y-64167073D01*
X172995171Y-64298640D01*
X173046506Y-64422574D01*
X173098240Y-64500000D01*
X173046506Y-64577426D01*
X172995171Y-64701360D01*
X172969000Y-64832927D01*
X172969000Y-64967073D01*
X172995171Y-65098640D01*
X173003604Y-65119000D01*
X172218616Y-65119000D01*
X172170158Y-65002013D01*
X172084687Y-64874096D01*
X171975904Y-64765313D01*
X171847987Y-64679842D01*
X171705854Y-64620968D01*
X171554967Y-64590955D01*
X171401123Y-64590955D01*
X171250236Y-64620968D01*
X171108103Y-64679842D01*
X170980186Y-64765313D01*
X170871403Y-64874096D01*
X170785932Y-65002013D01*
X170737474Y-65119000D01*
X164000000Y-65119000D01*
X163959389Y-65123000D01*
X163790611Y-65123000D01*
X163750000Y-65119000D01*
X149877000Y-65119000D01*
X149877000Y-61414738D01*
X152269000Y-61414738D01*
X152269000Y-61785262D01*
X152341286Y-62148667D01*
X152483080Y-62490987D01*
X152688932Y-62799067D01*
X152950933Y-63061068D01*
X153259013Y-63266920D01*
X153601333Y-63408714D01*
X153964738Y-63481000D01*
X154335262Y-63481000D01*
X154698667Y-63408714D01*
X155040987Y-63266920D01*
X155349067Y-63061068D01*
X155611068Y-62799067D01*
X155816920Y-62490987D01*
X155927891Y-62223078D01*
X164769000Y-62223078D01*
X164769000Y-62376922D01*
X164799013Y-62527809D01*
X164857887Y-62669942D01*
X164943358Y-62797859D01*
X165052141Y-62906642D01*
X165180058Y-62992113D01*
X165322191Y-63050987D01*
X165473078Y-63081000D01*
X165626922Y-63081000D01*
X165777809Y-63050987D01*
X165919942Y-62992113D01*
X166047859Y-62906642D01*
X166156642Y-62797859D01*
X166242113Y-62669942D01*
X166300987Y-62527809D01*
X166331000Y-62376922D01*
X166331000Y-62223078D01*
X166316082Y-62148078D01*
X170119000Y-62148078D01*
X170119000Y-62301922D01*
X170149013Y-62452809D01*
X170207887Y-62594942D01*
X170293358Y-62722859D01*
X170402141Y-62831642D01*
X170530058Y-62917113D01*
X170672191Y-62975987D01*
X170823078Y-63006000D01*
X170976922Y-63006000D01*
X171127809Y-62975987D01*
X171269942Y-62917113D01*
X171397859Y-62831642D01*
X171506642Y-62722859D01*
X171592113Y-62594942D01*
X171650987Y-62452809D01*
X171681000Y-62301922D01*
X171681000Y-62148078D01*
X171650987Y-61997191D01*
X171592113Y-61855058D01*
X171506642Y-61727141D01*
X171397859Y-61618358D01*
X171269942Y-61532887D01*
X171127809Y-61474013D01*
X170976922Y-61444000D01*
X170823078Y-61444000D01*
X170672191Y-61474013D01*
X170530058Y-61532887D01*
X170402141Y-61618358D01*
X170293358Y-61727141D01*
X170207887Y-61855058D01*
X170149013Y-61997191D01*
X170119000Y-62148078D01*
X166316082Y-62148078D01*
X166300987Y-62072191D01*
X166242113Y-61930058D01*
X166156642Y-61802141D01*
X166047859Y-61693358D01*
X165919942Y-61607887D01*
X165777809Y-61549013D01*
X165626922Y-61519000D01*
X165473078Y-61519000D01*
X165322191Y-61549013D01*
X165180058Y-61607887D01*
X165052141Y-61693358D01*
X164943358Y-61802141D01*
X164857887Y-61930058D01*
X164799013Y-62072191D01*
X164769000Y-62223078D01*
X155927891Y-62223078D01*
X155958714Y-62148667D01*
X156031000Y-61785262D01*
X156031000Y-61414738D01*
X155958714Y-61051333D01*
X155816920Y-60709013D01*
X155611068Y-60400933D01*
X155349067Y-60138932D01*
X155040987Y-59933080D01*
X154698667Y-59791286D01*
X154335262Y-59719000D01*
X153964738Y-59719000D01*
X153601333Y-59791286D01*
X153259013Y-59933080D01*
X152950933Y-60138932D01*
X152688932Y-60400933D01*
X152483080Y-60709013D01*
X152341286Y-61051333D01*
X152269000Y-61414738D01*
X149877000Y-61414738D01*
X149877000Y-60181001D01*
X149976923Y-60181001D01*
X150127810Y-60150988D01*
X150269943Y-60092114D01*
X150397860Y-60006643D01*
X150506643Y-59897860D01*
X150592114Y-59769943D01*
X150650988Y-59627810D01*
X150681001Y-59476923D01*
X150681001Y-59323079D01*
X150650988Y-59172192D01*
X150592114Y-59030059D01*
X150506643Y-58902142D01*
X150397860Y-58793359D01*
X150269943Y-58707888D01*
X150127810Y-58649014D01*
X149976923Y-58619001D01*
X149877000Y-58619001D01*
X149877000Y-58373078D01*
X166369000Y-58373078D01*
X166369000Y-58526922D01*
X166399013Y-58677809D01*
X166457887Y-58819942D01*
X166543358Y-58947859D01*
X166652141Y-59056642D01*
X166780058Y-59142113D01*
X166922191Y-59200987D01*
X167073078Y-59231000D01*
X167226922Y-59231000D01*
X167377809Y-59200987D01*
X167519942Y-59142113D01*
X167548430Y-59123078D01*
X173119000Y-59123078D01*
X173119000Y-59276922D01*
X173149013Y-59427809D01*
X173207887Y-59569942D01*
X173293358Y-59697859D01*
X173402141Y-59806642D01*
X173530058Y-59892113D01*
X173672191Y-59950987D01*
X173823078Y-59981000D01*
X173976922Y-59981000D01*
X174127809Y-59950987D01*
X174269942Y-59892113D01*
X174397859Y-59806642D01*
X174506642Y-59697859D01*
X174592113Y-59569942D01*
X174650987Y-59427809D01*
X174681000Y-59276922D01*
X174681000Y-59123078D01*
X174650987Y-58972191D01*
X174592113Y-58830058D01*
X174506642Y-58702141D01*
X174397859Y-58593358D01*
X174269942Y-58507887D01*
X174127809Y-58449013D01*
X173976922Y-58419000D01*
X173823078Y-58419000D01*
X173672191Y-58449013D01*
X173530058Y-58507887D01*
X173402141Y-58593358D01*
X173293358Y-58702141D01*
X173207887Y-58830058D01*
X173149013Y-58972191D01*
X173119000Y-59123078D01*
X167548430Y-59123078D01*
X167647859Y-59056642D01*
X167756642Y-58947859D01*
X167842113Y-58819942D01*
X167900987Y-58677809D01*
X167931000Y-58526922D01*
X167931000Y-58373078D01*
X167900987Y-58222191D01*
X167880644Y-58173078D01*
X186369000Y-58173078D01*
X186369000Y-58326922D01*
X186399013Y-58477809D01*
X186457887Y-58619942D01*
X186543358Y-58747859D01*
X186652141Y-58856642D01*
X186780058Y-58942113D01*
X186922191Y-59000987D01*
X187073078Y-59031000D01*
X187226922Y-59031000D01*
X187377809Y-59000987D01*
X187519942Y-58942113D01*
X187647859Y-58856642D01*
X187756642Y-58747859D01*
X187842113Y-58619942D01*
X187900987Y-58477809D01*
X187931000Y-58326922D01*
X187931000Y-58173078D01*
X187900987Y-58022191D01*
X187842113Y-57880058D01*
X187756642Y-57752141D01*
X187647859Y-57643358D01*
X187519942Y-57557887D01*
X187377809Y-57499013D01*
X187226922Y-57469000D01*
X187073078Y-57469000D01*
X186922191Y-57499013D01*
X186780058Y-57557887D01*
X186652141Y-57643358D01*
X186543358Y-57752141D01*
X186457887Y-57880058D01*
X186399013Y-58022191D01*
X186369000Y-58173078D01*
X167880644Y-58173078D01*
X167842113Y-58080058D01*
X167756642Y-57952141D01*
X167647859Y-57843358D01*
X167519942Y-57757887D01*
X167377809Y-57699013D01*
X167226922Y-57669000D01*
X167073078Y-57669000D01*
X166922191Y-57699013D01*
X166780058Y-57757887D01*
X166652141Y-57843358D01*
X166543358Y-57952141D01*
X166457887Y-58080058D01*
X166399013Y-58222191D01*
X166369000Y-58373078D01*
X149877000Y-58373078D01*
X149877000Y-57431001D01*
X149976923Y-57431001D01*
X150127810Y-57400988D01*
X150269943Y-57342114D01*
X150397860Y-57256643D01*
X150506643Y-57147860D01*
X150592114Y-57019943D01*
X150650988Y-56877810D01*
X150681001Y-56726923D01*
X150681001Y-56573079D01*
X150650988Y-56422192D01*
X150592114Y-56280059D01*
X150520632Y-56173078D01*
X183368988Y-56173078D01*
X183368988Y-56326922D01*
X183399001Y-56477809D01*
X183457875Y-56619942D01*
X183543346Y-56747859D01*
X183652129Y-56856642D01*
X183780046Y-56942113D01*
X183922179Y-57000987D01*
X184073066Y-57031000D01*
X184226910Y-57031000D01*
X184377797Y-57000987D01*
X184519930Y-56942113D01*
X184647847Y-56856642D01*
X184756630Y-56747859D01*
X184842101Y-56619942D01*
X184900975Y-56477809D01*
X184930988Y-56326922D01*
X184930988Y-56173078D01*
X184900975Y-56022191D01*
X184842101Y-55880058D01*
X184756630Y-55752141D01*
X184647847Y-55643358D01*
X184519930Y-55557887D01*
X184377797Y-55499013D01*
X184226910Y-55469000D01*
X184073066Y-55469000D01*
X183922179Y-55499013D01*
X183780046Y-55557887D01*
X183652129Y-55643358D01*
X183543346Y-55752141D01*
X183457875Y-55880058D01*
X183399001Y-56022191D01*
X183368988Y-56173078D01*
X150520632Y-56173078D01*
X150506643Y-56152142D01*
X150397860Y-56043359D01*
X150269943Y-55957888D01*
X150127810Y-55899014D01*
X149976923Y-55869001D01*
X149877000Y-55869001D01*
X149877000Y-54906000D01*
X189094001Y-54906000D01*
X189094000Y-65123000D01*
G37*
%TD.AperFunction*%
%TD*%
D16*
%TO.N,GND*%
X149369000Y-56076501D02*
X149293359Y-56152142D01*
X149207888Y-56280059D01*
X149149014Y-56422192D01*
X149119001Y-56573079D01*
X149119001Y-56726923D01*
X149149014Y-56877810D01*
X149207888Y-57019943D01*
X149293359Y-57147860D01*
X149369000Y-57223501D01*
X149369000Y-58826501D01*
X149293359Y-58902142D01*
X149207888Y-59030059D01*
X149149014Y-59172192D01*
X149119001Y-59323079D01*
X149119001Y-59476923D01*
X149149014Y-59627810D01*
X149207888Y-59769943D01*
X149293359Y-59897860D01*
X149369000Y-59973501D01*
X149369000Y-65250000D01*
X149373000Y-65290611D01*
X149373000Y-65459389D01*
X149369000Y-65500000D01*
X149369000Y-68455089D01*
X149313253Y-68444000D01*
X149006747Y-68444000D01*
X148706131Y-68503796D01*
X148422958Y-68621091D01*
X148168108Y-68791376D01*
X147951376Y-69008108D01*
X147781091Y-69262958D01*
X147663796Y-69546131D01*
X147604000Y-69846747D01*
X147604000Y-70153253D01*
X147663796Y-70453869D01*
X147781091Y-70737042D01*
X147951376Y-70991892D01*
X148168108Y-71208624D01*
X148422958Y-71378909D01*
X148706131Y-71496204D01*
X149006747Y-71556000D01*
X149313253Y-71556000D01*
X149369000Y-71544911D01*
X149369000Y-74094000D01*
X146074568Y-74094000D01*
X146227310Y-74030732D01*
X146371605Y-73934318D01*
X146494318Y-73811605D01*
X146590732Y-73667310D01*
X146657144Y-73506978D01*
X146691000Y-73336771D01*
X146691000Y-73163229D01*
X146657144Y-72993022D01*
X146590732Y-72832690D01*
X146494318Y-72688395D01*
X146371605Y-72565682D01*
X146227310Y-72469268D01*
X146066978Y-72402856D01*
X145896771Y-72369000D01*
X145723229Y-72369000D01*
X145553022Y-72402856D01*
X145392690Y-72469268D01*
X145248395Y-72565682D01*
X145125682Y-72688395D01*
X145029268Y-72832690D01*
X144962856Y-72993022D01*
X144929000Y-73163229D01*
X144929000Y-73336771D01*
X144962856Y-73506978D01*
X145029268Y-73667310D01*
X145125682Y-73811605D01*
X145248395Y-73934318D01*
X145392690Y-74030732D01*
X145545432Y-74094000D01*
X144074568Y-74094000D01*
X144227310Y-74030732D01*
X144371605Y-73934318D01*
X144494318Y-73811605D01*
X144590732Y-73667310D01*
X144657144Y-73506978D01*
X144691000Y-73336771D01*
X144691000Y-73163229D01*
X144657144Y-72993022D01*
X144590732Y-72832690D01*
X144494318Y-72688395D01*
X144371605Y-72565682D01*
X144227310Y-72469268D01*
X144066978Y-72402856D01*
X143896771Y-72369000D01*
X143723229Y-72369000D01*
X143553022Y-72402856D01*
X143392690Y-72469268D01*
X143248395Y-72565682D01*
X143125682Y-72688395D01*
X143029268Y-72832690D01*
X142962856Y-72993022D01*
X142929000Y-73163229D01*
X142929000Y-73336771D01*
X142962856Y-73506978D01*
X143029268Y-73667310D01*
X143125682Y-73811605D01*
X143248395Y-73934318D01*
X143392690Y-74030732D01*
X143545432Y-74094000D01*
X138074568Y-74094000D01*
X138227310Y-74030732D01*
X138371605Y-73934318D01*
X138494318Y-73811605D01*
X138590732Y-73667310D01*
X138657144Y-73506978D01*
X138691000Y-73336771D01*
X138691000Y-73163229D01*
X138657144Y-72993022D01*
X138590732Y-72832690D01*
X138494318Y-72688395D01*
X138371605Y-72565682D01*
X138227310Y-72469268D01*
X138066978Y-72402856D01*
X137896771Y-72369000D01*
X137723229Y-72369000D01*
X137553022Y-72402856D01*
X137392690Y-72469268D01*
X137248395Y-72565682D01*
X137125682Y-72688395D01*
X137029268Y-72832690D01*
X136962856Y-72993022D01*
X136929000Y-73163229D01*
X136929000Y-73336771D01*
X136962856Y-73506978D01*
X137029268Y-73667310D01*
X137125682Y-73811605D01*
X137248395Y-73934318D01*
X137392690Y-74030732D01*
X137545432Y-74094000D01*
X134074568Y-74094000D01*
X134227310Y-74030732D01*
X134371605Y-73934318D01*
X134494318Y-73811605D01*
X134590732Y-73667310D01*
X134657144Y-73506978D01*
X134691000Y-73336771D01*
X134691000Y-73163229D01*
X134657144Y-72993022D01*
X134590732Y-72832690D01*
X134494318Y-72688395D01*
X134371605Y-72565682D01*
X134227310Y-72469268D01*
X134066978Y-72402856D01*
X133896771Y-72369000D01*
X133723229Y-72369000D01*
X133553022Y-72402856D01*
X133392690Y-72469268D01*
X133248395Y-72565682D01*
X133125682Y-72688395D01*
X133029268Y-72832690D01*
X132962856Y-72993022D01*
X132929000Y-73163229D01*
X132929000Y-73336771D01*
X132962856Y-73506978D01*
X133029268Y-73667310D01*
X133125682Y-73811605D01*
X133248395Y-73934318D01*
X133392690Y-74030732D01*
X133545432Y-74094000D01*
X130074568Y-74094000D01*
X130227310Y-74030732D01*
X130371605Y-73934318D01*
X130494318Y-73811605D01*
X130590732Y-73667310D01*
X130657144Y-73506978D01*
X130691000Y-73336771D01*
X130691000Y-73163229D01*
X130657144Y-72993022D01*
X130590732Y-72832690D01*
X130494318Y-72688395D01*
X130371605Y-72565682D01*
X130227310Y-72469268D01*
X130066978Y-72402856D01*
X129896771Y-72369000D01*
X129723229Y-72369000D01*
X129553022Y-72402856D01*
X129392690Y-72469268D01*
X129248395Y-72565682D01*
X129125682Y-72688395D01*
X129029268Y-72832690D01*
X128962856Y-72993022D01*
X128929000Y-73163229D01*
X128929000Y-73336771D01*
X128962856Y-73506978D01*
X129029268Y-73667310D01*
X129125682Y-73811605D01*
X129248395Y-73934318D01*
X129392690Y-74030732D01*
X129545432Y-74094000D01*
X128074568Y-74094000D01*
X128227310Y-74030732D01*
X128371605Y-73934318D01*
X128494318Y-73811605D01*
X128590732Y-73667310D01*
X128657144Y-73506978D01*
X128691000Y-73336771D01*
X128691000Y-73163229D01*
X128657144Y-72993022D01*
X128590732Y-72832690D01*
X128494318Y-72688395D01*
X128371605Y-72565682D01*
X128227310Y-72469268D01*
X128066978Y-72402856D01*
X127896771Y-72369000D01*
X127723229Y-72369000D01*
X127553022Y-72402856D01*
X127392690Y-72469268D01*
X127248395Y-72565682D01*
X127125682Y-72688395D01*
X127029268Y-72832690D01*
X126962856Y-72993022D01*
X126929000Y-73163229D01*
X126929000Y-73336771D01*
X126962856Y-73506978D01*
X127029268Y-73667310D01*
X127125682Y-73811605D01*
X127248395Y-73934318D01*
X127392690Y-74030732D01*
X127545432Y-74094000D01*
X124074568Y-74094000D01*
X124227310Y-74030732D01*
X124371605Y-73934318D01*
X124494318Y-73811605D01*
X124590732Y-73667310D01*
X124657144Y-73506978D01*
X124691000Y-73336771D01*
X124691000Y-73163229D01*
X124657144Y-72993022D01*
X124590732Y-72832690D01*
X124494318Y-72688395D01*
X124371605Y-72565682D01*
X124227310Y-72469268D01*
X124066978Y-72402856D01*
X123896771Y-72369000D01*
X123723229Y-72369000D01*
X123553022Y-72402856D01*
X123392690Y-72469268D01*
X123248395Y-72565682D01*
X123125682Y-72688395D01*
X123029268Y-72832690D01*
X122962856Y-72993022D01*
X122929000Y-73163229D01*
X122929000Y-73336771D01*
X122962856Y-73506978D01*
X123029268Y-73667310D01*
X123125682Y-73811605D01*
X123248395Y-73934318D01*
X123392690Y-74030732D01*
X123545432Y-74094000D01*
X120074568Y-74094000D01*
X120227310Y-74030732D01*
X120371605Y-73934318D01*
X120494318Y-73811605D01*
X120590732Y-73667310D01*
X120657144Y-73506978D01*
X120691000Y-73336771D01*
X120691000Y-73163229D01*
X120657144Y-72993022D01*
X120590732Y-72832690D01*
X120494318Y-72688395D01*
X120371605Y-72565682D01*
X120227310Y-72469268D01*
X120066978Y-72402856D01*
X119896771Y-72369000D01*
X119723229Y-72369000D01*
X119553022Y-72402856D01*
X119392690Y-72469268D01*
X119248395Y-72565682D01*
X119125682Y-72688395D01*
X119029268Y-72832690D01*
X118962856Y-72993022D01*
X118929000Y-73163229D01*
X118929000Y-73336771D01*
X118962856Y-73506978D01*
X119029268Y-73667310D01*
X119125682Y-73811605D01*
X119248395Y-73934318D01*
X119392690Y-74030732D01*
X119545432Y-74094000D01*
X116074568Y-74094000D01*
X116227310Y-74030732D01*
X116371605Y-73934318D01*
X116494318Y-73811605D01*
X116590732Y-73667310D01*
X116657144Y-73506978D01*
X116691000Y-73336771D01*
X116691000Y-73163229D01*
X116657144Y-72993022D01*
X116590732Y-72832690D01*
X116494318Y-72688395D01*
X116371605Y-72565682D01*
X116227310Y-72469268D01*
X116066978Y-72402856D01*
X115896771Y-72369000D01*
X115723229Y-72369000D01*
X115553022Y-72402856D01*
X115392690Y-72469268D01*
X115248395Y-72565682D01*
X115125682Y-72688395D01*
X115029268Y-72832690D01*
X114962856Y-72993022D01*
X114929000Y-73163229D01*
X114929000Y-73336771D01*
X114962856Y-73506978D01*
X115029268Y-73667310D01*
X115125682Y-73811605D01*
X115248395Y-73934318D01*
X115392690Y-74030732D01*
X115545432Y-74094000D01*
X112074568Y-74094000D01*
X112227310Y-74030732D01*
X112371605Y-73934318D01*
X112494318Y-73811605D01*
X112590732Y-73667310D01*
X112657144Y-73506978D01*
X112691000Y-73336771D01*
X112691000Y-73163229D01*
X112657144Y-72993022D01*
X112590732Y-72832690D01*
X112494318Y-72688395D01*
X112371605Y-72565682D01*
X112227310Y-72469268D01*
X112066978Y-72402856D01*
X111896771Y-72369000D01*
X111723229Y-72369000D01*
X111553022Y-72402856D01*
X111392690Y-72469268D01*
X111248395Y-72565682D01*
X111125682Y-72688395D01*
X111029268Y-72832690D01*
X110962856Y-72993022D01*
X110929000Y-73163229D01*
X110929000Y-73336771D01*
X110962856Y-73506978D01*
X111029268Y-73667310D01*
X111125682Y-73811605D01*
X111248395Y-73934318D01*
X111392690Y-74030732D01*
X111545432Y-74094000D01*
X89906000Y-74094000D01*
X89906000Y-69799964D01*
X101719000Y-69799964D01*
X101719000Y-70200036D01*
X101797050Y-70592421D01*
X101950151Y-70962039D01*
X102172419Y-71294687D01*
X102455313Y-71577581D01*
X102787961Y-71799849D01*
X103157579Y-71952950D01*
X103549964Y-72031000D01*
X103950036Y-72031000D01*
X104342421Y-71952950D01*
X104712039Y-71799849D01*
X105044687Y-71577581D01*
X105327581Y-71294687D01*
X105549849Y-70962039D01*
X105702950Y-70592421D01*
X105781000Y-70200036D01*
X105781000Y-69846747D01*
X107444000Y-69846747D01*
X107444000Y-70153253D01*
X107503796Y-70453869D01*
X107621091Y-70737042D01*
X107791376Y-70991892D01*
X108008108Y-71208624D01*
X108262958Y-71378909D01*
X108546131Y-71496204D01*
X108846747Y-71556000D01*
X109153253Y-71556000D01*
X109453869Y-71496204D01*
X109737042Y-71378909D01*
X109991892Y-71208624D01*
X110037287Y-71163229D01*
X111929000Y-71163229D01*
X111929000Y-71336771D01*
X111962856Y-71506978D01*
X112029268Y-71667310D01*
X112125682Y-71811605D01*
X112248395Y-71934318D01*
X112392690Y-72030732D01*
X112553022Y-72097144D01*
X112723229Y-72131000D01*
X112896771Y-72131000D01*
X113066978Y-72097144D01*
X113227310Y-72030732D01*
X113371605Y-71934318D01*
X113494318Y-71811605D01*
X113590732Y-71667310D01*
X113657144Y-71506978D01*
X113691000Y-71336771D01*
X113691000Y-71163229D01*
X115929000Y-71163229D01*
X115929000Y-71336771D01*
X115962856Y-71506978D01*
X116029268Y-71667310D01*
X116125682Y-71811605D01*
X116248395Y-71934318D01*
X116392690Y-72030732D01*
X116553022Y-72097144D01*
X116723229Y-72131000D01*
X116896771Y-72131000D01*
X117066978Y-72097144D01*
X117227310Y-72030732D01*
X117371605Y-71934318D01*
X117494318Y-71811605D01*
X117590732Y-71667310D01*
X117657144Y-71506978D01*
X117691000Y-71336771D01*
X117691000Y-71163229D01*
X119929000Y-71163229D01*
X119929000Y-71336771D01*
X119962856Y-71506978D01*
X120029268Y-71667310D01*
X120125682Y-71811605D01*
X120248395Y-71934318D01*
X120392690Y-72030732D01*
X120553022Y-72097144D01*
X120723229Y-72131000D01*
X120896771Y-72131000D01*
X121066978Y-72097144D01*
X121227310Y-72030732D01*
X121371605Y-71934318D01*
X121494318Y-71811605D01*
X121590732Y-71667310D01*
X121657144Y-71506978D01*
X121691000Y-71336771D01*
X121691000Y-71163229D01*
X123929000Y-71163229D01*
X123929000Y-71336771D01*
X123962856Y-71506978D01*
X124029268Y-71667310D01*
X124125682Y-71811605D01*
X124248395Y-71934318D01*
X124392690Y-72030732D01*
X124553022Y-72097144D01*
X124723229Y-72131000D01*
X124896771Y-72131000D01*
X125066978Y-72097144D01*
X125227310Y-72030732D01*
X125371605Y-71934318D01*
X125494318Y-71811605D01*
X125590732Y-71667310D01*
X125657144Y-71506978D01*
X125691000Y-71336771D01*
X125691000Y-71163229D01*
X125929000Y-71163229D01*
X125929000Y-71336771D01*
X125962856Y-71506978D01*
X126029268Y-71667310D01*
X126125682Y-71811605D01*
X126248395Y-71934318D01*
X126392690Y-72030732D01*
X126553022Y-72097144D01*
X126723229Y-72131000D01*
X126896771Y-72131000D01*
X127066978Y-72097144D01*
X127227310Y-72030732D01*
X127371605Y-71934318D01*
X127494318Y-71811605D01*
X127590732Y-71667310D01*
X127657144Y-71506978D01*
X127691000Y-71336771D01*
X127691000Y-71163229D01*
X129929000Y-71163229D01*
X129929000Y-71336771D01*
X129962856Y-71506978D01*
X130029268Y-71667310D01*
X130125682Y-71811605D01*
X130248395Y-71934318D01*
X130392690Y-72030732D01*
X130553022Y-72097144D01*
X130723229Y-72131000D01*
X130896771Y-72131000D01*
X131066978Y-72097144D01*
X131227310Y-72030732D01*
X131371605Y-71934318D01*
X131494318Y-71811605D01*
X131590732Y-71667310D01*
X131657144Y-71506978D01*
X131691000Y-71336771D01*
X131691000Y-71163229D01*
X133929000Y-71163229D01*
X133929000Y-71336771D01*
X133962856Y-71506978D01*
X134029268Y-71667310D01*
X134125682Y-71811605D01*
X134248395Y-71934318D01*
X134392690Y-72030732D01*
X134553022Y-72097144D01*
X134723229Y-72131000D01*
X134896771Y-72131000D01*
X135066978Y-72097144D01*
X135227310Y-72030732D01*
X135371605Y-71934318D01*
X135494318Y-71811605D01*
X135590732Y-71667310D01*
X135657144Y-71506978D01*
X135691000Y-71336771D01*
X135691000Y-71163229D01*
X137929000Y-71163229D01*
X137929000Y-71336771D01*
X137962856Y-71506978D01*
X138029268Y-71667310D01*
X138125682Y-71811605D01*
X138248395Y-71934318D01*
X138392690Y-72030732D01*
X138553022Y-72097144D01*
X138723229Y-72131000D01*
X138896771Y-72131000D01*
X139066978Y-72097144D01*
X139227310Y-72030732D01*
X139371605Y-71934318D01*
X139494318Y-71811605D01*
X139590732Y-71667310D01*
X139657144Y-71506978D01*
X139691000Y-71336771D01*
X139691000Y-71163229D01*
X139929000Y-71163229D01*
X139929000Y-71336771D01*
X139962856Y-71506978D01*
X140029268Y-71667310D01*
X140125682Y-71811605D01*
X140248395Y-71934318D01*
X140392690Y-72030732D01*
X140553022Y-72097144D01*
X140723229Y-72131000D01*
X140896771Y-72131000D01*
X141066978Y-72097144D01*
X141227310Y-72030732D01*
X141371605Y-71934318D01*
X141494318Y-71811605D01*
X141590732Y-71667310D01*
X141657144Y-71506978D01*
X141691000Y-71336771D01*
X141691000Y-71163229D01*
X141929000Y-71163229D01*
X141929000Y-71336771D01*
X141962856Y-71506978D01*
X142029268Y-71667310D01*
X142125682Y-71811605D01*
X142248395Y-71934318D01*
X142392690Y-72030732D01*
X142553022Y-72097144D01*
X142723229Y-72131000D01*
X142896771Y-72131000D01*
X143066978Y-72097144D01*
X143227310Y-72030732D01*
X143371605Y-71934318D01*
X143494318Y-71811605D01*
X143590732Y-71667310D01*
X143657144Y-71506978D01*
X143691000Y-71336771D01*
X143691000Y-71163229D01*
X145929000Y-71163229D01*
X145929000Y-71336771D01*
X145962856Y-71506978D01*
X146029268Y-71667310D01*
X146125682Y-71811605D01*
X146248395Y-71934318D01*
X146392690Y-72030732D01*
X146553022Y-72097144D01*
X146723229Y-72131000D01*
X146896771Y-72131000D01*
X147066978Y-72097144D01*
X147227310Y-72030732D01*
X147371605Y-71934318D01*
X147494318Y-71811605D01*
X147590732Y-71667310D01*
X147657144Y-71506978D01*
X147691000Y-71336771D01*
X147691000Y-71163229D01*
X147657144Y-70993022D01*
X147590732Y-70832690D01*
X147494318Y-70688395D01*
X147371605Y-70565682D01*
X147227310Y-70469268D01*
X147066978Y-70402856D01*
X146896771Y-70369000D01*
X146723229Y-70369000D01*
X146553022Y-70402856D01*
X146392690Y-70469268D01*
X146248395Y-70565682D01*
X146125682Y-70688395D01*
X146029268Y-70832690D01*
X145962856Y-70993022D01*
X145929000Y-71163229D01*
X143691000Y-71163229D01*
X143657144Y-70993022D01*
X143590732Y-70832690D01*
X143494318Y-70688395D01*
X143371605Y-70565682D01*
X143227310Y-70469268D01*
X143066978Y-70402856D01*
X142896771Y-70369000D01*
X142723229Y-70369000D01*
X142553022Y-70402856D01*
X142392690Y-70469268D01*
X142248395Y-70565682D01*
X142125682Y-70688395D01*
X142029268Y-70832690D01*
X141962856Y-70993022D01*
X141929000Y-71163229D01*
X141691000Y-71163229D01*
X141657144Y-70993022D01*
X141590732Y-70832690D01*
X141494318Y-70688395D01*
X141371605Y-70565682D01*
X141227310Y-70469268D01*
X141066978Y-70402856D01*
X140896771Y-70369000D01*
X140723229Y-70369000D01*
X140553022Y-70402856D01*
X140392690Y-70469268D01*
X140248395Y-70565682D01*
X140125682Y-70688395D01*
X140029268Y-70832690D01*
X139962856Y-70993022D01*
X139929000Y-71163229D01*
X139691000Y-71163229D01*
X139657144Y-70993022D01*
X139590732Y-70832690D01*
X139494318Y-70688395D01*
X139371605Y-70565682D01*
X139227310Y-70469268D01*
X139066978Y-70402856D01*
X138896771Y-70369000D01*
X138723229Y-70369000D01*
X138553022Y-70402856D01*
X138392690Y-70469268D01*
X138248395Y-70565682D01*
X138125682Y-70688395D01*
X138029268Y-70832690D01*
X137962856Y-70993022D01*
X137929000Y-71163229D01*
X135691000Y-71163229D01*
X135657144Y-70993022D01*
X135590732Y-70832690D01*
X135494318Y-70688395D01*
X135371605Y-70565682D01*
X135227310Y-70469268D01*
X135066978Y-70402856D01*
X134896771Y-70369000D01*
X134723229Y-70369000D01*
X134553022Y-70402856D01*
X134392690Y-70469268D01*
X134248395Y-70565682D01*
X134125682Y-70688395D01*
X134029268Y-70832690D01*
X133962856Y-70993022D01*
X133929000Y-71163229D01*
X131691000Y-71163229D01*
X131657144Y-70993022D01*
X131590732Y-70832690D01*
X131494318Y-70688395D01*
X131371605Y-70565682D01*
X131227310Y-70469268D01*
X131066978Y-70402856D01*
X130896771Y-70369000D01*
X130723229Y-70369000D01*
X130553022Y-70402856D01*
X130392690Y-70469268D01*
X130248395Y-70565682D01*
X130125682Y-70688395D01*
X130029268Y-70832690D01*
X129962856Y-70993022D01*
X129929000Y-71163229D01*
X127691000Y-71163229D01*
X127657144Y-70993022D01*
X127590732Y-70832690D01*
X127494318Y-70688395D01*
X127371605Y-70565682D01*
X127227310Y-70469268D01*
X127066978Y-70402856D01*
X126896771Y-70369000D01*
X126723229Y-70369000D01*
X126553022Y-70402856D01*
X126392690Y-70469268D01*
X126248395Y-70565682D01*
X126125682Y-70688395D01*
X126029268Y-70832690D01*
X125962856Y-70993022D01*
X125929000Y-71163229D01*
X125691000Y-71163229D01*
X125657144Y-70993022D01*
X125590732Y-70832690D01*
X125494318Y-70688395D01*
X125371605Y-70565682D01*
X125227310Y-70469268D01*
X125066978Y-70402856D01*
X124896771Y-70369000D01*
X124723229Y-70369000D01*
X124553022Y-70402856D01*
X124392690Y-70469268D01*
X124248395Y-70565682D01*
X124125682Y-70688395D01*
X124029268Y-70832690D01*
X123962856Y-70993022D01*
X123929000Y-71163229D01*
X121691000Y-71163229D01*
X121657144Y-70993022D01*
X121590732Y-70832690D01*
X121494318Y-70688395D01*
X121371605Y-70565682D01*
X121227310Y-70469268D01*
X121066978Y-70402856D01*
X120896771Y-70369000D01*
X120723229Y-70369000D01*
X120553022Y-70402856D01*
X120392690Y-70469268D01*
X120248395Y-70565682D01*
X120125682Y-70688395D01*
X120029268Y-70832690D01*
X119962856Y-70993022D01*
X119929000Y-71163229D01*
X117691000Y-71163229D01*
X117657144Y-70993022D01*
X117590732Y-70832690D01*
X117494318Y-70688395D01*
X117371605Y-70565682D01*
X117227310Y-70469268D01*
X117066978Y-70402856D01*
X116896771Y-70369000D01*
X116723229Y-70369000D01*
X116553022Y-70402856D01*
X116392690Y-70469268D01*
X116248395Y-70565682D01*
X116125682Y-70688395D01*
X116029268Y-70832690D01*
X115962856Y-70993022D01*
X115929000Y-71163229D01*
X113691000Y-71163229D01*
X113657144Y-70993022D01*
X113590732Y-70832690D01*
X113494318Y-70688395D01*
X113371605Y-70565682D01*
X113227310Y-70469268D01*
X113066978Y-70402856D01*
X112896771Y-70369000D01*
X112723229Y-70369000D01*
X112553022Y-70402856D01*
X112392690Y-70469268D01*
X112248395Y-70565682D01*
X112125682Y-70688395D01*
X112029268Y-70832690D01*
X111962856Y-70993022D01*
X111929000Y-71163229D01*
X110037287Y-71163229D01*
X110208624Y-70991892D01*
X110378909Y-70737042D01*
X110496204Y-70453869D01*
X110556000Y-70153253D01*
X110556000Y-69846747D01*
X110496204Y-69546131D01*
X110378909Y-69262958D01*
X110208624Y-69008108D01*
X109991892Y-68791376D01*
X109800107Y-68663229D01*
X113929000Y-68663229D01*
X113929000Y-68836771D01*
X113962856Y-69006978D01*
X114029268Y-69167310D01*
X114125682Y-69311605D01*
X114248395Y-69434318D01*
X114392690Y-69530732D01*
X114553022Y-69597144D01*
X114723229Y-69631000D01*
X114896771Y-69631000D01*
X115066978Y-69597144D01*
X115227310Y-69530732D01*
X115371605Y-69434318D01*
X115494318Y-69311605D01*
X115590732Y-69167310D01*
X115657144Y-69006978D01*
X115691000Y-68836771D01*
X115691000Y-68663229D01*
X117929000Y-68663229D01*
X117929000Y-68836771D01*
X117962856Y-69006978D01*
X118029268Y-69167310D01*
X118125682Y-69311605D01*
X118248395Y-69434318D01*
X118392690Y-69530732D01*
X118553022Y-69597144D01*
X118723229Y-69631000D01*
X118896771Y-69631000D01*
X119066978Y-69597144D01*
X119227310Y-69530732D01*
X119371605Y-69434318D01*
X119494318Y-69311605D01*
X119590732Y-69167310D01*
X119657144Y-69006978D01*
X119691000Y-68836771D01*
X119691000Y-68663229D01*
X121929000Y-68663229D01*
X121929000Y-68836771D01*
X121962856Y-69006978D01*
X122029268Y-69167310D01*
X122125682Y-69311605D01*
X122248395Y-69434318D01*
X122392690Y-69530732D01*
X122553022Y-69597144D01*
X122723229Y-69631000D01*
X122896771Y-69631000D01*
X123066978Y-69597144D01*
X123227310Y-69530732D01*
X123371605Y-69434318D01*
X123494318Y-69311605D01*
X123590732Y-69167310D01*
X123657144Y-69006978D01*
X123691000Y-68836771D01*
X123691000Y-68663229D01*
X125929000Y-68663229D01*
X125929000Y-68836771D01*
X125962856Y-69006978D01*
X126029268Y-69167310D01*
X126125682Y-69311605D01*
X126248395Y-69434318D01*
X126392690Y-69530732D01*
X126553022Y-69597144D01*
X126723229Y-69631000D01*
X126896771Y-69631000D01*
X127066978Y-69597144D01*
X127227310Y-69530732D01*
X127371605Y-69434318D01*
X127494318Y-69311605D01*
X127590732Y-69167310D01*
X127657144Y-69006978D01*
X127691000Y-68836771D01*
X127691000Y-68663229D01*
X127929000Y-68663229D01*
X127929000Y-68836771D01*
X127962856Y-69006978D01*
X128029268Y-69167310D01*
X128125682Y-69311605D01*
X128248395Y-69434318D01*
X128392690Y-69530732D01*
X128553022Y-69597144D01*
X128723229Y-69631000D01*
X128896771Y-69631000D01*
X129066978Y-69597144D01*
X129227310Y-69530732D01*
X129371605Y-69434318D01*
X129494318Y-69311605D01*
X129590732Y-69167310D01*
X129657144Y-69006978D01*
X129691000Y-68836771D01*
X129691000Y-68663229D01*
X131929000Y-68663229D01*
X131929000Y-68836771D01*
X131962856Y-69006978D01*
X132029268Y-69167310D01*
X132125682Y-69311605D01*
X132248395Y-69434318D01*
X132392690Y-69530732D01*
X132553022Y-69597144D01*
X132723229Y-69631000D01*
X132896771Y-69631000D01*
X133066978Y-69597144D01*
X133227310Y-69530732D01*
X133371605Y-69434318D01*
X133494318Y-69311605D01*
X133590732Y-69167310D01*
X133657144Y-69006978D01*
X133691000Y-68836771D01*
X133691000Y-68663229D01*
X135929000Y-68663229D01*
X135929000Y-68836771D01*
X135962856Y-69006978D01*
X136029268Y-69167310D01*
X136125682Y-69311605D01*
X136248395Y-69434318D01*
X136392690Y-69530732D01*
X136553022Y-69597144D01*
X136723229Y-69631000D01*
X136896771Y-69631000D01*
X137066978Y-69597144D01*
X137227310Y-69530732D01*
X137371605Y-69434318D01*
X137494318Y-69311605D01*
X137590732Y-69167310D01*
X137657144Y-69006978D01*
X137691000Y-68836771D01*
X137691000Y-68663229D01*
X139929000Y-68663229D01*
X139929000Y-68836771D01*
X139962856Y-69006978D01*
X140029268Y-69167310D01*
X140125682Y-69311605D01*
X140248395Y-69434318D01*
X140392690Y-69530732D01*
X140553022Y-69597144D01*
X140723229Y-69631000D01*
X140896771Y-69631000D01*
X141066978Y-69597144D01*
X141227310Y-69530732D01*
X141371605Y-69434318D01*
X141494318Y-69311605D01*
X141590732Y-69167310D01*
X141657144Y-69006978D01*
X141691000Y-68836771D01*
X141691000Y-68663229D01*
X141929000Y-68663229D01*
X141929000Y-68836771D01*
X141962856Y-69006978D01*
X142029268Y-69167310D01*
X142125682Y-69311605D01*
X142248395Y-69434318D01*
X142392690Y-69530732D01*
X142553022Y-69597144D01*
X142723229Y-69631000D01*
X142896771Y-69631000D01*
X143066978Y-69597144D01*
X143227310Y-69530732D01*
X143371605Y-69434318D01*
X143494318Y-69311605D01*
X143590732Y-69167310D01*
X143657144Y-69006978D01*
X143691000Y-68836771D01*
X143691000Y-68663229D01*
X143929000Y-68663229D01*
X143929000Y-68836771D01*
X143962856Y-69006978D01*
X144029268Y-69167310D01*
X144125682Y-69311605D01*
X144248395Y-69434318D01*
X144392690Y-69530732D01*
X144553022Y-69597144D01*
X144723229Y-69631000D01*
X144896771Y-69631000D01*
X145066978Y-69597144D01*
X145227310Y-69530732D01*
X145371605Y-69434318D01*
X145494318Y-69311605D01*
X145590732Y-69167310D01*
X145657144Y-69006978D01*
X145691000Y-68836771D01*
X145691000Y-68663229D01*
X145657144Y-68493022D01*
X145590732Y-68332690D01*
X145494318Y-68188395D01*
X145371605Y-68065682D01*
X145227310Y-67969268D01*
X145066978Y-67902856D01*
X144896771Y-67869000D01*
X144723229Y-67869000D01*
X144553022Y-67902856D01*
X144392690Y-67969268D01*
X144248395Y-68065682D01*
X144125682Y-68188395D01*
X144029268Y-68332690D01*
X143962856Y-68493022D01*
X143929000Y-68663229D01*
X143691000Y-68663229D01*
X143657144Y-68493022D01*
X143590732Y-68332690D01*
X143494318Y-68188395D01*
X143371605Y-68065682D01*
X143227310Y-67969268D01*
X143066978Y-67902856D01*
X142896771Y-67869000D01*
X142723229Y-67869000D01*
X142553022Y-67902856D01*
X142392690Y-67969268D01*
X142248395Y-68065682D01*
X142125682Y-68188395D01*
X142029268Y-68332690D01*
X141962856Y-68493022D01*
X141929000Y-68663229D01*
X141691000Y-68663229D01*
X141657144Y-68493022D01*
X141590732Y-68332690D01*
X141494318Y-68188395D01*
X141371605Y-68065682D01*
X141227310Y-67969268D01*
X141066978Y-67902856D01*
X140896771Y-67869000D01*
X140723229Y-67869000D01*
X140553022Y-67902856D01*
X140392690Y-67969268D01*
X140248395Y-68065682D01*
X140125682Y-68188395D01*
X140029268Y-68332690D01*
X139962856Y-68493022D01*
X139929000Y-68663229D01*
X137691000Y-68663229D01*
X137657144Y-68493022D01*
X137590732Y-68332690D01*
X137494318Y-68188395D01*
X137371605Y-68065682D01*
X137227310Y-67969268D01*
X137066978Y-67902856D01*
X136896771Y-67869000D01*
X136723229Y-67869000D01*
X136553022Y-67902856D01*
X136392690Y-67969268D01*
X136248395Y-68065682D01*
X136125682Y-68188395D01*
X136029268Y-68332690D01*
X135962856Y-68493022D01*
X135929000Y-68663229D01*
X133691000Y-68663229D01*
X133657144Y-68493022D01*
X133590732Y-68332690D01*
X133494318Y-68188395D01*
X133371605Y-68065682D01*
X133227310Y-67969268D01*
X133066978Y-67902856D01*
X132896771Y-67869000D01*
X132723229Y-67869000D01*
X132553022Y-67902856D01*
X132392690Y-67969268D01*
X132248395Y-68065682D01*
X132125682Y-68188395D01*
X132029268Y-68332690D01*
X131962856Y-68493022D01*
X131929000Y-68663229D01*
X129691000Y-68663229D01*
X129657144Y-68493022D01*
X129590732Y-68332690D01*
X129494318Y-68188395D01*
X129371605Y-68065682D01*
X129227310Y-67969268D01*
X129066978Y-67902856D01*
X128896771Y-67869000D01*
X128723229Y-67869000D01*
X128553022Y-67902856D01*
X128392690Y-67969268D01*
X128248395Y-68065682D01*
X128125682Y-68188395D01*
X128029268Y-68332690D01*
X127962856Y-68493022D01*
X127929000Y-68663229D01*
X127691000Y-68663229D01*
X127657144Y-68493022D01*
X127590732Y-68332690D01*
X127494318Y-68188395D01*
X127371605Y-68065682D01*
X127227310Y-67969268D01*
X127066978Y-67902856D01*
X126896771Y-67869000D01*
X126723229Y-67869000D01*
X126553022Y-67902856D01*
X126392690Y-67969268D01*
X126248395Y-68065682D01*
X126125682Y-68188395D01*
X126029268Y-68332690D01*
X125962856Y-68493022D01*
X125929000Y-68663229D01*
X123691000Y-68663229D01*
X123657144Y-68493022D01*
X123590732Y-68332690D01*
X123494318Y-68188395D01*
X123371605Y-68065682D01*
X123227310Y-67969268D01*
X123066978Y-67902856D01*
X122896771Y-67869000D01*
X122723229Y-67869000D01*
X122553022Y-67902856D01*
X122392690Y-67969268D01*
X122248395Y-68065682D01*
X122125682Y-68188395D01*
X122029268Y-68332690D01*
X121962856Y-68493022D01*
X121929000Y-68663229D01*
X119691000Y-68663229D01*
X119657144Y-68493022D01*
X119590732Y-68332690D01*
X119494318Y-68188395D01*
X119371605Y-68065682D01*
X119227310Y-67969268D01*
X119066978Y-67902856D01*
X118896771Y-67869000D01*
X118723229Y-67869000D01*
X118553022Y-67902856D01*
X118392690Y-67969268D01*
X118248395Y-68065682D01*
X118125682Y-68188395D01*
X118029268Y-68332690D01*
X117962856Y-68493022D01*
X117929000Y-68663229D01*
X115691000Y-68663229D01*
X115657144Y-68493022D01*
X115590732Y-68332690D01*
X115494318Y-68188395D01*
X115371605Y-68065682D01*
X115227310Y-67969268D01*
X115066978Y-67902856D01*
X114896771Y-67869000D01*
X114723229Y-67869000D01*
X114553022Y-67902856D01*
X114392690Y-67969268D01*
X114248395Y-68065682D01*
X114125682Y-68188395D01*
X114029268Y-68332690D01*
X113962856Y-68493022D01*
X113929000Y-68663229D01*
X109800107Y-68663229D01*
X109737042Y-68621091D01*
X109453869Y-68503796D01*
X109153253Y-68444000D01*
X108846747Y-68444000D01*
X108546131Y-68503796D01*
X108262958Y-68621091D01*
X108008108Y-68791376D01*
X107791376Y-69008108D01*
X107621091Y-69262958D01*
X107503796Y-69546131D01*
X107444000Y-69846747D01*
X105781000Y-69846747D01*
X105781000Y-69799964D01*
X105702950Y-69407579D01*
X105549849Y-69037961D01*
X105327581Y-68705313D01*
X105044687Y-68422419D01*
X104712039Y-68200151D01*
X104342421Y-68047050D01*
X103950036Y-67969000D01*
X103549964Y-67969000D01*
X103157579Y-68047050D01*
X102787961Y-68200151D01*
X102455313Y-68422419D01*
X102172419Y-68705313D01*
X101950151Y-69037961D01*
X101797050Y-69407579D01*
X101719000Y-69799964D01*
X89906000Y-69799964D01*
X89906000Y-68368154D01*
X94629000Y-68368154D01*
X94629000Y-68531846D01*
X94660935Y-68692394D01*
X94723577Y-68843626D01*
X94814520Y-68979732D01*
X94930268Y-69095480D01*
X95066374Y-69186423D01*
X95217606Y-69249065D01*
X95378154Y-69281000D01*
X95541846Y-69281000D01*
X95702394Y-69249065D01*
X95853626Y-69186423D01*
X95989732Y-69095480D01*
X96105480Y-68979732D01*
X96196423Y-68843626D01*
X96259065Y-68692394D01*
X96291000Y-68531846D01*
X96291000Y-68368154D01*
X96259065Y-68207606D01*
X96196423Y-68056374D01*
X96105480Y-67920268D01*
X95989732Y-67804520D01*
X95853626Y-67713577D01*
X95702394Y-67650935D01*
X95541846Y-67619000D01*
X95378154Y-67619000D01*
X95217606Y-67650935D01*
X95066374Y-67713577D01*
X94930268Y-67804520D01*
X94814520Y-67920268D01*
X94723577Y-68056374D01*
X94660935Y-68207606D01*
X94629000Y-68368154D01*
X89906000Y-68368154D01*
X89906000Y-61195270D01*
X93566470Y-61195270D01*
X93566470Y-61349114D01*
X93596483Y-61500001D01*
X93655357Y-61642134D01*
X93736111Y-61762992D01*
X93657891Y-61880058D01*
X93599017Y-62022191D01*
X93569004Y-62173078D01*
X93569004Y-62326922D01*
X93599017Y-62477809D01*
X93657891Y-62619942D01*
X93743362Y-62747859D01*
X93745501Y-62749998D01*
X93743358Y-62752141D01*
X93657887Y-62880058D01*
X93599013Y-63022191D01*
X93569000Y-63173078D01*
X93569000Y-63326922D01*
X93599013Y-63477809D01*
X93657887Y-63619942D01*
X93737373Y-63738901D01*
X93657887Y-63857861D01*
X93599013Y-63999994D01*
X93569000Y-64150881D01*
X93569000Y-64304725D01*
X93599013Y-64455612D01*
X93657887Y-64597745D01*
X93743358Y-64725662D01*
X93852141Y-64834445D01*
X93980058Y-64919916D01*
X94122191Y-64978790D01*
X94273078Y-65008803D01*
X94426922Y-65008803D01*
X94577809Y-64978790D01*
X94719942Y-64919916D01*
X94847859Y-64834445D01*
X94956642Y-64725662D01*
X95042113Y-64597745D01*
X95080478Y-64505124D01*
X96569000Y-64505124D01*
X96569000Y-64639270D01*
X96595171Y-64770837D01*
X96646506Y-64894771D01*
X96690824Y-64961099D01*
X96646506Y-65027426D01*
X96595171Y-65151360D01*
X96569000Y-65282927D01*
X96569000Y-65417073D01*
X96595171Y-65548640D01*
X96646506Y-65672574D01*
X96698240Y-65750000D01*
X96646506Y-65827426D01*
X96595171Y-65951360D01*
X96569000Y-66082927D01*
X96569000Y-66217073D01*
X96595171Y-66348640D01*
X96646506Y-66472574D01*
X96690824Y-66538902D01*
X96646506Y-66605229D01*
X96595171Y-66729163D01*
X96569000Y-66860730D01*
X96569000Y-66994876D01*
X96595171Y-67126443D01*
X96646506Y-67250377D01*
X96721033Y-67361915D01*
X96815888Y-67456770D01*
X96927426Y-67531297D01*
X97051360Y-67582632D01*
X97182927Y-67608803D01*
X97317073Y-67608803D01*
X97448640Y-67582632D01*
X97572574Y-67531297D01*
X97684112Y-67456770D01*
X97778967Y-67361915D01*
X97853494Y-67250377D01*
X97904829Y-67126443D01*
X97931000Y-66994876D01*
X97931000Y-66860730D01*
X97904829Y-66729163D01*
X97877519Y-66663229D01*
X110929000Y-66663229D01*
X110929000Y-66836771D01*
X110962856Y-67006978D01*
X111029268Y-67167310D01*
X111125682Y-67311605D01*
X111248395Y-67434318D01*
X111392690Y-67530732D01*
X111553022Y-67597144D01*
X111723229Y-67631000D01*
X111896771Y-67631000D01*
X112066978Y-67597144D01*
X112227310Y-67530732D01*
X112371605Y-67434318D01*
X112494318Y-67311605D01*
X112590732Y-67167310D01*
X112657144Y-67006978D01*
X112691000Y-66836771D01*
X112691000Y-66663229D01*
X112929000Y-66663229D01*
X112929000Y-66836771D01*
X112962856Y-67006978D01*
X113029268Y-67167310D01*
X113125682Y-67311605D01*
X113248395Y-67434318D01*
X113392690Y-67530732D01*
X113553022Y-67597144D01*
X113723229Y-67631000D01*
X113896771Y-67631000D01*
X114066978Y-67597144D01*
X114227310Y-67530732D01*
X114371605Y-67434318D01*
X114494318Y-67311605D01*
X114590732Y-67167310D01*
X114657144Y-67006978D01*
X114691000Y-66836771D01*
X114691000Y-66663229D01*
X116929000Y-66663229D01*
X116929000Y-66836771D01*
X116962856Y-67006978D01*
X117029268Y-67167310D01*
X117125682Y-67311605D01*
X117248395Y-67434318D01*
X117392690Y-67530732D01*
X117553022Y-67597144D01*
X117723229Y-67631000D01*
X117896771Y-67631000D01*
X118066978Y-67597144D01*
X118227310Y-67530732D01*
X118371605Y-67434318D01*
X118494318Y-67311605D01*
X118590732Y-67167310D01*
X118657144Y-67006978D01*
X118691000Y-66836771D01*
X118691000Y-66663229D01*
X120929000Y-66663229D01*
X120929000Y-66836771D01*
X120962856Y-67006978D01*
X121029268Y-67167310D01*
X121125682Y-67311605D01*
X121248395Y-67434318D01*
X121392690Y-67530732D01*
X121553022Y-67597144D01*
X121723229Y-67631000D01*
X121896771Y-67631000D01*
X122066978Y-67597144D01*
X122227310Y-67530732D01*
X122371605Y-67434318D01*
X122494318Y-67311605D01*
X122590732Y-67167310D01*
X122657144Y-67006978D01*
X122691000Y-66836771D01*
X122691000Y-66663229D01*
X124929000Y-66663229D01*
X124929000Y-66836771D01*
X124962856Y-67006978D01*
X125029268Y-67167310D01*
X125125682Y-67311605D01*
X125248395Y-67434318D01*
X125392690Y-67530732D01*
X125553022Y-67597144D01*
X125723229Y-67631000D01*
X125896771Y-67631000D01*
X126066978Y-67597144D01*
X126227310Y-67530732D01*
X126371605Y-67434318D01*
X126494318Y-67311605D01*
X126590732Y-67167310D01*
X126657144Y-67006978D01*
X126691000Y-66836771D01*
X126691000Y-66663229D01*
X128929000Y-66663229D01*
X128929000Y-66836771D01*
X128962856Y-67006978D01*
X129029268Y-67167310D01*
X129125682Y-67311605D01*
X129248395Y-67434318D01*
X129392690Y-67530732D01*
X129553022Y-67597144D01*
X129723229Y-67631000D01*
X129896771Y-67631000D01*
X130066978Y-67597144D01*
X130227310Y-67530732D01*
X130371605Y-67434318D01*
X130494318Y-67311605D01*
X130590732Y-67167310D01*
X130657144Y-67006978D01*
X130691000Y-66836771D01*
X130691000Y-66663229D01*
X130929000Y-66663229D01*
X130929000Y-66836771D01*
X130962856Y-67006978D01*
X131029268Y-67167310D01*
X131125682Y-67311605D01*
X131248395Y-67434318D01*
X131392690Y-67530732D01*
X131553022Y-67597144D01*
X131723229Y-67631000D01*
X131896771Y-67631000D01*
X132066978Y-67597144D01*
X132227310Y-67530732D01*
X132371605Y-67434318D01*
X132494318Y-67311605D01*
X132590732Y-67167310D01*
X132657144Y-67006978D01*
X132691000Y-66836771D01*
X132691000Y-66663229D01*
X134929000Y-66663229D01*
X134929000Y-66836771D01*
X134962856Y-67006978D01*
X135029268Y-67167310D01*
X135125682Y-67311605D01*
X135248395Y-67434318D01*
X135392690Y-67530732D01*
X135553022Y-67597144D01*
X135723229Y-67631000D01*
X135896771Y-67631000D01*
X136066978Y-67597144D01*
X136227310Y-67530732D01*
X136371605Y-67434318D01*
X136494318Y-67311605D01*
X136590732Y-67167310D01*
X136657144Y-67006978D01*
X136691000Y-66836771D01*
X136691000Y-66663229D01*
X138929000Y-66663229D01*
X138929000Y-66836771D01*
X138962856Y-67006978D01*
X139029268Y-67167310D01*
X139125682Y-67311605D01*
X139248395Y-67434318D01*
X139392690Y-67530732D01*
X139553022Y-67597144D01*
X139723229Y-67631000D01*
X139896771Y-67631000D01*
X140066978Y-67597144D01*
X140227310Y-67530732D01*
X140371605Y-67434318D01*
X140494318Y-67311605D01*
X140590732Y-67167310D01*
X140657144Y-67006978D01*
X140691000Y-66836771D01*
X140691000Y-66663229D01*
X144929000Y-66663229D01*
X144929000Y-66836771D01*
X144962856Y-67006978D01*
X145029268Y-67167310D01*
X145125682Y-67311605D01*
X145248395Y-67434318D01*
X145392690Y-67530732D01*
X145553022Y-67597144D01*
X145723229Y-67631000D01*
X145896771Y-67631000D01*
X146066978Y-67597144D01*
X146227310Y-67530732D01*
X146371605Y-67434318D01*
X146494318Y-67311605D01*
X146590732Y-67167310D01*
X146657144Y-67006978D01*
X146691000Y-66836771D01*
X146691000Y-66663229D01*
X146929000Y-66663229D01*
X146929000Y-66836771D01*
X146962856Y-67006978D01*
X147029268Y-67167310D01*
X147125682Y-67311605D01*
X147248395Y-67434318D01*
X147392690Y-67530732D01*
X147553022Y-67597144D01*
X147723229Y-67631000D01*
X147896771Y-67631000D01*
X148066978Y-67597144D01*
X148227310Y-67530732D01*
X148371605Y-67434318D01*
X148494318Y-67311605D01*
X148590732Y-67167310D01*
X148657144Y-67006978D01*
X148691000Y-66836771D01*
X148691000Y-66663229D01*
X148657144Y-66493022D01*
X148590732Y-66332690D01*
X148494318Y-66188395D01*
X148371605Y-66065682D01*
X148227310Y-65969268D01*
X148066978Y-65902856D01*
X147896771Y-65869000D01*
X147723229Y-65869000D01*
X147553022Y-65902856D01*
X147392690Y-65969268D01*
X147248395Y-66065682D01*
X147125682Y-66188395D01*
X147029268Y-66332690D01*
X146962856Y-66493022D01*
X146929000Y-66663229D01*
X146691000Y-66663229D01*
X146657144Y-66493022D01*
X146590732Y-66332690D01*
X146494318Y-66188395D01*
X146371605Y-66065682D01*
X146227310Y-65969268D01*
X146066978Y-65902856D01*
X145896771Y-65869000D01*
X145723229Y-65869000D01*
X145553022Y-65902856D01*
X145392690Y-65969268D01*
X145248395Y-66065682D01*
X145125682Y-66188395D01*
X145029268Y-66332690D01*
X144962856Y-66493022D01*
X144929000Y-66663229D01*
X140691000Y-66663229D01*
X140657144Y-66493022D01*
X140590732Y-66332690D01*
X140494318Y-66188395D01*
X140371605Y-66065682D01*
X140227310Y-65969268D01*
X140066978Y-65902856D01*
X139896771Y-65869000D01*
X139723229Y-65869000D01*
X139553022Y-65902856D01*
X139392690Y-65969268D01*
X139248395Y-66065682D01*
X139125682Y-66188395D01*
X139029268Y-66332690D01*
X138962856Y-66493022D01*
X138929000Y-66663229D01*
X136691000Y-66663229D01*
X136657144Y-66493022D01*
X136590732Y-66332690D01*
X136494318Y-66188395D01*
X136371605Y-66065682D01*
X136227310Y-65969268D01*
X136066978Y-65902856D01*
X135896771Y-65869000D01*
X135723229Y-65869000D01*
X135553022Y-65902856D01*
X135392690Y-65969268D01*
X135248395Y-66065682D01*
X135125682Y-66188395D01*
X135029268Y-66332690D01*
X134962856Y-66493022D01*
X134929000Y-66663229D01*
X132691000Y-66663229D01*
X132657144Y-66493022D01*
X132590732Y-66332690D01*
X132494318Y-66188395D01*
X132371605Y-66065682D01*
X132227310Y-65969268D01*
X132066978Y-65902856D01*
X131896771Y-65869000D01*
X131723229Y-65869000D01*
X131553022Y-65902856D01*
X131392690Y-65969268D01*
X131248395Y-66065682D01*
X131125682Y-66188395D01*
X131029268Y-66332690D01*
X130962856Y-66493022D01*
X130929000Y-66663229D01*
X130691000Y-66663229D01*
X130657144Y-66493022D01*
X130590732Y-66332690D01*
X130494318Y-66188395D01*
X130371605Y-66065682D01*
X130227310Y-65969268D01*
X130066978Y-65902856D01*
X129896771Y-65869000D01*
X129723229Y-65869000D01*
X129553022Y-65902856D01*
X129392690Y-65969268D01*
X129248395Y-66065682D01*
X129125682Y-66188395D01*
X129029268Y-66332690D01*
X128962856Y-66493022D01*
X128929000Y-66663229D01*
X126691000Y-66663229D01*
X126657144Y-66493022D01*
X126590732Y-66332690D01*
X126494318Y-66188395D01*
X126371605Y-66065682D01*
X126227310Y-65969268D01*
X126066978Y-65902856D01*
X125896771Y-65869000D01*
X125723229Y-65869000D01*
X125553022Y-65902856D01*
X125392690Y-65969268D01*
X125248395Y-66065682D01*
X125125682Y-66188395D01*
X125029268Y-66332690D01*
X124962856Y-66493022D01*
X124929000Y-66663229D01*
X122691000Y-66663229D01*
X122657144Y-66493022D01*
X122590732Y-66332690D01*
X122494318Y-66188395D01*
X122371605Y-66065682D01*
X122227310Y-65969268D01*
X122066978Y-65902856D01*
X121896771Y-65869000D01*
X121723229Y-65869000D01*
X121553022Y-65902856D01*
X121392690Y-65969268D01*
X121248395Y-66065682D01*
X121125682Y-66188395D01*
X121029268Y-66332690D01*
X120962856Y-66493022D01*
X120929000Y-66663229D01*
X118691000Y-66663229D01*
X118657144Y-66493022D01*
X118590732Y-66332690D01*
X118494318Y-66188395D01*
X118371605Y-66065682D01*
X118227310Y-65969268D01*
X118066978Y-65902856D01*
X117896771Y-65869000D01*
X117723229Y-65869000D01*
X117553022Y-65902856D01*
X117392690Y-65969268D01*
X117248395Y-66065682D01*
X117125682Y-66188395D01*
X117029268Y-66332690D01*
X116962856Y-66493022D01*
X116929000Y-66663229D01*
X114691000Y-66663229D01*
X114657144Y-66493022D01*
X114590732Y-66332690D01*
X114494318Y-66188395D01*
X114371605Y-66065682D01*
X114227310Y-65969268D01*
X114066978Y-65902856D01*
X113896771Y-65869000D01*
X113723229Y-65869000D01*
X113553022Y-65902856D01*
X113392690Y-65969268D01*
X113248395Y-66065682D01*
X113125682Y-66188395D01*
X113029268Y-66332690D01*
X112962856Y-66493022D01*
X112929000Y-66663229D01*
X112691000Y-66663229D01*
X112657144Y-66493022D01*
X112590732Y-66332690D01*
X112494318Y-66188395D01*
X112371605Y-66065682D01*
X112227310Y-65969268D01*
X112066978Y-65902856D01*
X111896771Y-65869000D01*
X111723229Y-65869000D01*
X111553022Y-65902856D01*
X111392690Y-65969268D01*
X111248395Y-66065682D01*
X111125682Y-66188395D01*
X111029268Y-66332690D01*
X110962856Y-66493022D01*
X110929000Y-66663229D01*
X97877519Y-66663229D01*
X97853494Y-66605229D01*
X97809176Y-66538902D01*
X97853494Y-66472574D01*
X97904829Y-66348640D01*
X97931000Y-66217073D01*
X97931000Y-66082927D01*
X97904829Y-65951360D01*
X97853494Y-65827426D01*
X97801760Y-65750000D01*
X97853494Y-65672574D01*
X97904829Y-65548640D01*
X97931000Y-65417073D01*
X97931000Y-65282927D01*
X97904829Y-65151360D01*
X97853494Y-65027426D01*
X97809176Y-64961099D01*
X97853494Y-64894771D01*
X97904829Y-64770837D01*
X97931000Y-64639270D01*
X97931000Y-64505124D01*
X97904829Y-64373557D01*
X97853494Y-64249623D01*
X97778967Y-64138085D01*
X97684112Y-64043230D01*
X97572574Y-63968703D01*
X97448640Y-63917368D01*
X97317073Y-63891197D01*
X97182927Y-63891197D01*
X97051360Y-63917368D01*
X96927426Y-63968703D01*
X96815888Y-64043230D01*
X96721033Y-64138085D01*
X96646506Y-64249623D01*
X96595171Y-64373557D01*
X96569000Y-64505124D01*
X95080478Y-64505124D01*
X95100987Y-64455612D01*
X95131000Y-64304725D01*
X95131000Y-64150881D01*
X95100987Y-63999994D01*
X95042113Y-63857861D01*
X94962627Y-63738902D01*
X95042113Y-63619942D01*
X95100987Y-63477809D01*
X95131000Y-63326922D01*
X95131000Y-63173078D01*
X95100987Y-63022191D01*
X95042113Y-62880058D01*
X94956642Y-62752141D01*
X94954503Y-62750002D01*
X94956646Y-62747859D01*
X95042117Y-62619942D01*
X95100991Y-62477809D01*
X95131004Y-62326922D01*
X95131004Y-62173078D01*
X95100991Y-62022191D01*
X95042117Y-61880058D01*
X94961363Y-61759200D01*
X95039583Y-61642134D01*
X95098457Y-61500001D01*
X95128470Y-61349114D01*
X95128470Y-61195270D01*
X95098457Y-61044383D01*
X95039583Y-60902250D01*
X94954112Y-60774333D01*
X94845329Y-60665550D01*
X94717412Y-60580079D01*
X94575279Y-60521205D01*
X94424392Y-60491192D01*
X94270548Y-60491192D01*
X94119661Y-60521205D01*
X93977528Y-60580079D01*
X93849611Y-60665550D01*
X93740828Y-60774333D01*
X93655357Y-60902250D01*
X93596483Y-61044383D01*
X93566470Y-61195270D01*
X89906000Y-61195270D01*
X89906000Y-58505124D01*
X96594000Y-58505124D01*
X96594000Y-58639270D01*
X96620171Y-58770837D01*
X96671506Y-58894771D01*
X96715824Y-58961098D01*
X96671506Y-59027426D01*
X96620171Y-59151360D01*
X96594000Y-59282927D01*
X96594000Y-59417073D01*
X96620171Y-59548640D01*
X96671506Y-59672574D01*
X96723240Y-59750000D01*
X96671506Y-59827426D01*
X96620171Y-59951360D01*
X96594000Y-60082927D01*
X96594000Y-60217073D01*
X96620171Y-60348640D01*
X96671506Y-60472574D01*
X96715824Y-60538901D01*
X96671506Y-60605229D01*
X96620171Y-60729163D01*
X96594000Y-60860730D01*
X96594000Y-60994876D01*
X96620171Y-61126443D01*
X96671506Y-61250377D01*
X96746033Y-61361915D01*
X96748020Y-61363902D01*
X96746033Y-61365888D01*
X96671506Y-61477426D01*
X96620171Y-61601360D01*
X96594000Y-61732927D01*
X96594000Y-61867073D01*
X96620171Y-61998640D01*
X96671506Y-62122574D01*
X96746033Y-62234112D01*
X96840888Y-62328967D01*
X96952426Y-62403494D01*
X97076360Y-62454829D01*
X97207927Y-62481000D01*
X97342073Y-62481000D01*
X97473640Y-62454829D01*
X97597574Y-62403494D01*
X97709112Y-62328967D01*
X97803967Y-62234112D01*
X97878494Y-62122574D01*
X97929829Y-61998640D01*
X97956000Y-61867073D01*
X97956000Y-61732927D01*
X97929829Y-61601360D01*
X97878494Y-61477426D01*
X97803967Y-61365888D01*
X97801981Y-61363902D01*
X97803967Y-61361915D01*
X97878494Y-61250377D01*
X97929829Y-61126443D01*
X97956000Y-60994876D01*
X97956000Y-60860730D01*
X97929829Y-60729163D01*
X97878494Y-60605229D01*
X97834176Y-60538901D01*
X97878494Y-60472574D01*
X97929829Y-60348640D01*
X97956000Y-60217073D01*
X97956000Y-60082927D01*
X97929829Y-59951360D01*
X97878494Y-59827426D01*
X97826760Y-59750000D01*
X97878494Y-59672574D01*
X97929829Y-59548640D01*
X97956000Y-59417073D01*
X97956000Y-59282927D01*
X97929829Y-59151360D01*
X97878494Y-59027426D01*
X97837567Y-58966173D01*
X133816848Y-58966173D01*
X133816848Y-59100319D01*
X133843019Y-59231886D01*
X133894354Y-59355820D01*
X133947157Y-59434846D01*
X133894354Y-59513872D01*
X133843019Y-59637806D01*
X133816848Y-59769373D01*
X133816848Y-59903519D01*
X133843019Y-60035086D01*
X133894354Y-60159020D01*
X133968881Y-60270558D01*
X134063736Y-60365413D01*
X134175274Y-60439940D01*
X134299208Y-60491275D01*
X134430775Y-60517446D01*
X134564921Y-60517446D01*
X134696488Y-60491275D01*
X134820422Y-60439940D01*
X134931960Y-60365413D01*
X135026815Y-60270558D01*
X135101342Y-60159020D01*
X135152677Y-60035086D01*
X135178848Y-59903519D01*
X135178848Y-59769373D01*
X135152677Y-59637806D01*
X135101342Y-59513872D01*
X135048539Y-59434846D01*
X135101342Y-59355820D01*
X135118358Y-59314738D01*
X144969000Y-59314738D01*
X144969000Y-59685262D01*
X145041286Y-60048667D01*
X145183080Y-60390987D01*
X145388932Y-60699067D01*
X145650933Y-60961068D01*
X145959013Y-61166920D01*
X146301333Y-61308714D01*
X146664738Y-61381000D01*
X147035262Y-61381000D01*
X147398667Y-61308714D01*
X147740987Y-61166920D01*
X148049067Y-60961068D01*
X148311068Y-60699067D01*
X148516920Y-60390987D01*
X148658714Y-60048667D01*
X148731000Y-59685262D01*
X148731000Y-59314738D01*
X148658714Y-58951333D01*
X148516920Y-58609013D01*
X148311068Y-58300933D01*
X148049067Y-58038932D01*
X147740987Y-57833080D01*
X147398667Y-57691286D01*
X147035262Y-57619000D01*
X146664738Y-57619000D01*
X146301333Y-57691286D01*
X145959013Y-57833080D01*
X145650933Y-58038932D01*
X145388932Y-58300933D01*
X145183080Y-58609013D01*
X145041286Y-58951333D01*
X144969000Y-59314738D01*
X135118358Y-59314738D01*
X135152677Y-59231886D01*
X135178848Y-59100319D01*
X135178848Y-58966173D01*
X135152677Y-58834606D01*
X135101342Y-58710672D01*
X135026815Y-58599134D01*
X134931960Y-58504279D01*
X134820422Y-58429752D01*
X134696488Y-58378417D01*
X134564921Y-58352246D01*
X134430775Y-58352246D01*
X134299208Y-58378417D01*
X134175274Y-58429752D01*
X134063736Y-58504279D01*
X133968881Y-58599134D01*
X133894354Y-58710672D01*
X133843019Y-58834606D01*
X133816848Y-58966173D01*
X97837567Y-58966173D01*
X97834176Y-58961098D01*
X97878494Y-58894771D01*
X97929829Y-58770837D01*
X97956000Y-58639270D01*
X97956000Y-58505124D01*
X97929829Y-58373557D01*
X97878494Y-58249623D01*
X97803967Y-58138085D01*
X97709112Y-58043230D01*
X97597574Y-57968703D01*
X97473640Y-57917368D01*
X97342073Y-57891197D01*
X97207927Y-57891197D01*
X97076360Y-57917368D01*
X96952426Y-57968703D01*
X96840888Y-58043230D01*
X96746033Y-58138085D01*
X96671506Y-58249623D01*
X96620171Y-58373557D01*
X96594000Y-58505124D01*
X89906000Y-58505124D01*
X89906000Y-56998154D01*
X94629000Y-56998154D01*
X94629000Y-57161846D01*
X94660935Y-57322394D01*
X94723577Y-57473626D01*
X94814520Y-57609732D01*
X94930268Y-57725480D01*
X95066374Y-57816423D01*
X95217606Y-57879065D01*
X95378154Y-57911000D01*
X95541846Y-57911000D01*
X95702394Y-57879065D01*
X95853626Y-57816423D01*
X95989732Y-57725480D01*
X96105480Y-57609732D01*
X96196423Y-57473626D01*
X96259065Y-57322394D01*
X96291000Y-57161846D01*
X96291000Y-56998154D01*
X96259065Y-56837606D01*
X96196423Y-56686374D01*
X96105480Y-56550268D01*
X95989732Y-56434520D01*
X95853626Y-56343577D01*
X95702394Y-56280935D01*
X95541846Y-56249000D01*
X95378154Y-56249000D01*
X95217606Y-56280935D01*
X95066374Y-56343577D01*
X94930268Y-56434520D01*
X94814520Y-56550268D01*
X94723577Y-56686374D01*
X94660935Y-56837606D01*
X94629000Y-56998154D01*
X89906000Y-56998154D01*
X89906000Y-54906000D01*
X149369000Y-54906000D01*
X149369000Y-56076501D01*
%TA.AperFunction,Conductor*%
D17*
G36*
X149369000Y-56076501D02*
G01*
X149293359Y-56152142D01*
X149207888Y-56280059D01*
X149149014Y-56422192D01*
X149119001Y-56573079D01*
X149119001Y-56726923D01*
X149149014Y-56877810D01*
X149207888Y-57019943D01*
X149293359Y-57147860D01*
X149369000Y-57223501D01*
X149369000Y-58826501D01*
X149293359Y-58902142D01*
X149207888Y-59030059D01*
X149149014Y-59172192D01*
X149119001Y-59323079D01*
X149119001Y-59476923D01*
X149149014Y-59627810D01*
X149207888Y-59769943D01*
X149293359Y-59897860D01*
X149369000Y-59973501D01*
X149369000Y-65250000D01*
X149373000Y-65290611D01*
X149373000Y-65459389D01*
X149369000Y-65500000D01*
X149369000Y-68455089D01*
X149313253Y-68444000D01*
X149006747Y-68444000D01*
X148706131Y-68503796D01*
X148422958Y-68621091D01*
X148168108Y-68791376D01*
X147951376Y-69008108D01*
X147781091Y-69262958D01*
X147663796Y-69546131D01*
X147604000Y-69846747D01*
X147604000Y-70153253D01*
X147663796Y-70453869D01*
X147781091Y-70737042D01*
X147951376Y-70991892D01*
X148168108Y-71208624D01*
X148422958Y-71378909D01*
X148706131Y-71496204D01*
X149006747Y-71556000D01*
X149313253Y-71556000D01*
X149369000Y-71544911D01*
X149369000Y-74094000D01*
X146074568Y-74094000D01*
X146227310Y-74030732D01*
X146371605Y-73934318D01*
X146494318Y-73811605D01*
X146590732Y-73667310D01*
X146657144Y-73506978D01*
X146691000Y-73336771D01*
X146691000Y-73163229D01*
X146657144Y-72993022D01*
X146590732Y-72832690D01*
X146494318Y-72688395D01*
X146371605Y-72565682D01*
X146227310Y-72469268D01*
X146066978Y-72402856D01*
X145896771Y-72369000D01*
X145723229Y-72369000D01*
X145553022Y-72402856D01*
X145392690Y-72469268D01*
X145248395Y-72565682D01*
X145125682Y-72688395D01*
X145029268Y-72832690D01*
X144962856Y-72993022D01*
X144929000Y-73163229D01*
X144929000Y-73336771D01*
X144962856Y-73506978D01*
X145029268Y-73667310D01*
X145125682Y-73811605D01*
X145248395Y-73934318D01*
X145392690Y-74030732D01*
X145545432Y-74094000D01*
X144074568Y-74094000D01*
X144227310Y-74030732D01*
X144371605Y-73934318D01*
X144494318Y-73811605D01*
X144590732Y-73667310D01*
X144657144Y-73506978D01*
X144691000Y-73336771D01*
X144691000Y-73163229D01*
X144657144Y-72993022D01*
X144590732Y-72832690D01*
X144494318Y-72688395D01*
X144371605Y-72565682D01*
X144227310Y-72469268D01*
X144066978Y-72402856D01*
X143896771Y-72369000D01*
X143723229Y-72369000D01*
X143553022Y-72402856D01*
X143392690Y-72469268D01*
X143248395Y-72565682D01*
X143125682Y-72688395D01*
X143029268Y-72832690D01*
X142962856Y-72993022D01*
X142929000Y-73163229D01*
X142929000Y-73336771D01*
X142962856Y-73506978D01*
X143029268Y-73667310D01*
X143125682Y-73811605D01*
X143248395Y-73934318D01*
X143392690Y-74030732D01*
X143545432Y-74094000D01*
X138074568Y-74094000D01*
X138227310Y-74030732D01*
X138371605Y-73934318D01*
X138494318Y-73811605D01*
X138590732Y-73667310D01*
X138657144Y-73506978D01*
X138691000Y-73336771D01*
X138691000Y-73163229D01*
X138657144Y-72993022D01*
X138590732Y-72832690D01*
X138494318Y-72688395D01*
X138371605Y-72565682D01*
X138227310Y-72469268D01*
X138066978Y-72402856D01*
X137896771Y-72369000D01*
X137723229Y-72369000D01*
X137553022Y-72402856D01*
X137392690Y-72469268D01*
X137248395Y-72565682D01*
X137125682Y-72688395D01*
X137029268Y-72832690D01*
X136962856Y-72993022D01*
X136929000Y-73163229D01*
X136929000Y-73336771D01*
X136962856Y-73506978D01*
X137029268Y-73667310D01*
X137125682Y-73811605D01*
X137248395Y-73934318D01*
X137392690Y-74030732D01*
X137545432Y-74094000D01*
X134074568Y-74094000D01*
X134227310Y-74030732D01*
X134371605Y-73934318D01*
X134494318Y-73811605D01*
X134590732Y-73667310D01*
X134657144Y-73506978D01*
X134691000Y-73336771D01*
X134691000Y-73163229D01*
X134657144Y-72993022D01*
X134590732Y-72832690D01*
X134494318Y-72688395D01*
X134371605Y-72565682D01*
X134227310Y-72469268D01*
X134066978Y-72402856D01*
X133896771Y-72369000D01*
X133723229Y-72369000D01*
X133553022Y-72402856D01*
X133392690Y-72469268D01*
X133248395Y-72565682D01*
X133125682Y-72688395D01*
X133029268Y-72832690D01*
X132962856Y-72993022D01*
X132929000Y-73163229D01*
X132929000Y-73336771D01*
X132962856Y-73506978D01*
X133029268Y-73667310D01*
X133125682Y-73811605D01*
X133248395Y-73934318D01*
X133392690Y-74030732D01*
X133545432Y-74094000D01*
X130074568Y-74094000D01*
X130227310Y-74030732D01*
X130371605Y-73934318D01*
X130494318Y-73811605D01*
X130590732Y-73667310D01*
X130657144Y-73506978D01*
X130691000Y-73336771D01*
X130691000Y-73163229D01*
X130657144Y-72993022D01*
X130590732Y-72832690D01*
X130494318Y-72688395D01*
X130371605Y-72565682D01*
X130227310Y-72469268D01*
X130066978Y-72402856D01*
X129896771Y-72369000D01*
X129723229Y-72369000D01*
X129553022Y-72402856D01*
X129392690Y-72469268D01*
X129248395Y-72565682D01*
X129125682Y-72688395D01*
X129029268Y-72832690D01*
X128962856Y-72993022D01*
X128929000Y-73163229D01*
X128929000Y-73336771D01*
X128962856Y-73506978D01*
X129029268Y-73667310D01*
X129125682Y-73811605D01*
X129248395Y-73934318D01*
X129392690Y-74030732D01*
X129545432Y-74094000D01*
X128074568Y-74094000D01*
X128227310Y-74030732D01*
X128371605Y-73934318D01*
X128494318Y-73811605D01*
X128590732Y-73667310D01*
X128657144Y-73506978D01*
X128691000Y-73336771D01*
X128691000Y-73163229D01*
X128657144Y-72993022D01*
X128590732Y-72832690D01*
X128494318Y-72688395D01*
X128371605Y-72565682D01*
X128227310Y-72469268D01*
X128066978Y-72402856D01*
X127896771Y-72369000D01*
X127723229Y-72369000D01*
X127553022Y-72402856D01*
X127392690Y-72469268D01*
X127248395Y-72565682D01*
X127125682Y-72688395D01*
X127029268Y-72832690D01*
X126962856Y-72993022D01*
X126929000Y-73163229D01*
X126929000Y-73336771D01*
X126962856Y-73506978D01*
X127029268Y-73667310D01*
X127125682Y-73811605D01*
X127248395Y-73934318D01*
X127392690Y-74030732D01*
X127545432Y-74094000D01*
X124074568Y-74094000D01*
X124227310Y-74030732D01*
X124371605Y-73934318D01*
X124494318Y-73811605D01*
X124590732Y-73667310D01*
X124657144Y-73506978D01*
X124691000Y-73336771D01*
X124691000Y-73163229D01*
X124657144Y-72993022D01*
X124590732Y-72832690D01*
X124494318Y-72688395D01*
X124371605Y-72565682D01*
X124227310Y-72469268D01*
X124066978Y-72402856D01*
X123896771Y-72369000D01*
X123723229Y-72369000D01*
X123553022Y-72402856D01*
X123392690Y-72469268D01*
X123248395Y-72565682D01*
X123125682Y-72688395D01*
X123029268Y-72832690D01*
X122962856Y-72993022D01*
X122929000Y-73163229D01*
X122929000Y-73336771D01*
X122962856Y-73506978D01*
X123029268Y-73667310D01*
X123125682Y-73811605D01*
X123248395Y-73934318D01*
X123392690Y-74030732D01*
X123545432Y-74094000D01*
X120074568Y-74094000D01*
X120227310Y-74030732D01*
X120371605Y-73934318D01*
X120494318Y-73811605D01*
X120590732Y-73667310D01*
X120657144Y-73506978D01*
X120691000Y-73336771D01*
X120691000Y-73163229D01*
X120657144Y-72993022D01*
X120590732Y-72832690D01*
X120494318Y-72688395D01*
X120371605Y-72565682D01*
X120227310Y-72469268D01*
X120066978Y-72402856D01*
X119896771Y-72369000D01*
X119723229Y-72369000D01*
X119553022Y-72402856D01*
X119392690Y-72469268D01*
X119248395Y-72565682D01*
X119125682Y-72688395D01*
X119029268Y-72832690D01*
X118962856Y-72993022D01*
X118929000Y-73163229D01*
X118929000Y-73336771D01*
X118962856Y-73506978D01*
X119029268Y-73667310D01*
X119125682Y-73811605D01*
X119248395Y-73934318D01*
X119392690Y-74030732D01*
X119545432Y-74094000D01*
X116074568Y-74094000D01*
X116227310Y-74030732D01*
X116371605Y-73934318D01*
X116494318Y-73811605D01*
X116590732Y-73667310D01*
X116657144Y-73506978D01*
X116691000Y-73336771D01*
X116691000Y-73163229D01*
X116657144Y-72993022D01*
X116590732Y-72832690D01*
X116494318Y-72688395D01*
X116371605Y-72565682D01*
X116227310Y-72469268D01*
X116066978Y-72402856D01*
X115896771Y-72369000D01*
X115723229Y-72369000D01*
X115553022Y-72402856D01*
X115392690Y-72469268D01*
X115248395Y-72565682D01*
X115125682Y-72688395D01*
X115029268Y-72832690D01*
X114962856Y-72993022D01*
X114929000Y-73163229D01*
X114929000Y-73336771D01*
X114962856Y-73506978D01*
X115029268Y-73667310D01*
X115125682Y-73811605D01*
X115248395Y-73934318D01*
X115392690Y-74030732D01*
X115545432Y-74094000D01*
X112074568Y-74094000D01*
X112227310Y-74030732D01*
X112371605Y-73934318D01*
X112494318Y-73811605D01*
X112590732Y-73667310D01*
X112657144Y-73506978D01*
X112691000Y-73336771D01*
X112691000Y-73163229D01*
X112657144Y-72993022D01*
X112590732Y-72832690D01*
X112494318Y-72688395D01*
X112371605Y-72565682D01*
X112227310Y-72469268D01*
X112066978Y-72402856D01*
X111896771Y-72369000D01*
X111723229Y-72369000D01*
X111553022Y-72402856D01*
X111392690Y-72469268D01*
X111248395Y-72565682D01*
X111125682Y-72688395D01*
X111029268Y-72832690D01*
X110962856Y-72993022D01*
X110929000Y-73163229D01*
X110929000Y-73336771D01*
X110962856Y-73506978D01*
X111029268Y-73667310D01*
X111125682Y-73811605D01*
X111248395Y-73934318D01*
X111392690Y-74030732D01*
X111545432Y-74094000D01*
X89906000Y-74094000D01*
X89906000Y-69799964D01*
X101719000Y-69799964D01*
X101719000Y-70200036D01*
X101797050Y-70592421D01*
X101950151Y-70962039D01*
X102172419Y-71294687D01*
X102455313Y-71577581D01*
X102787961Y-71799849D01*
X103157579Y-71952950D01*
X103549964Y-72031000D01*
X103950036Y-72031000D01*
X104342421Y-71952950D01*
X104712039Y-71799849D01*
X105044687Y-71577581D01*
X105327581Y-71294687D01*
X105549849Y-70962039D01*
X105702950Y-70592421D01*
X105781000Y-70200036D01*
X105781000Y-69846747D01*
X107444000Y-69846747D01*
X107444000Y-70153253D01*
X107503796Y-70453869D01*
X107621091Y-70737042D01*
X107791376Y-70991892D01*
X108008108Y-71208624D01*
X108262958Y-71378909D01*
X108546131Y-71496204D01*
X108846747Y-71556000D01*
X109153253Y-71556000D01*
X109453869Y-71496204D01*
X109737042Y-71378909D01*
X109991892Y-71208624D01*
X110037287Y-71163229D01*
X111929000Y-71163229D01*
X111929000Y-71336771D01*
X111962856Y-71506978D01*
X112029268Y-71667310D01*
X112125682Y-71811605D01*
X112248395Y-71934318D01*
X112392690Y-72030732D01*
X112553022Y-72097144D01*
X112723229Y-72131000D01*
X112896771Y-72131000D01*
X113066978Y-72097144D01*
X113227310Y-72030732D01*
X113371605Y-71934318D01*
X113494318Y-71811605D01*
X113590732Y-71667310D01*
X113657144Y-71506978D01*
X113691000Y-71336771D01*
X113691000Y-71163229D01*
X115929000Y-71163229D01*
X115929000Y-71336771D01*
X115962856Y-71506978D01*
X116029268Y-71667310D01*
X116125682Y-71811605D01*
X116248395Y-71934318D01*
X116392690Y-72030732D01*
X116553022Y-72097144D01*
X116723229Y-72131000D01*
X116896771Y-72131000D01*
X117066978Y-72097144D01*
X117227310Y-72030732D01*
X117371605Y-71934318D01*
X117494318Y-71811605D01*
X117590732Y-71667310D01*
X117657144Y-71506978D01*
X117691000Y-71336771D01*
X117691000Y-71163229D01*
X119929000Y-71163229D01*
X119929000Y-71336771D01*
X119962856Y-71506978D01*
X120029268Y-71667310D01*
X120125682Y-71811605D01*
X120248395Y-71934318D01*
X120392690Y-72030732D01*
X120553022Y-72097144D01*
X120723229Y-72131000D01*
X120896771Y-72131000D01*
X121066978Y-72097144D01*
X121227310Y-72030732D01*
X121371605Y-71934318D01*
X121494318Y-71811605D01*
X121590732Y-71667310D01*
X121657144Y-71506978D01*
X121691000Y-71336771D01*
X121691000Y-71163229D01*
X123929000Y-71163229D01*
X123929000Y-71336771D01*
X123962856Y-71506978D01*
X124029268Y-71667310D01*
X124125682Y-71811605D01*
X124248395Y-71934318D01*
X124392690Y-72030732D01*
X124553022Y-72097144D01*
X124723229Y-72131000D01*
X124896771Y-72131000D01*
X125066978Y-72097144D01*
X125227310Y-72030732D01*
X125371605Y-71934318D01*
X125494318Y-71811605D01*
X125590732Y-71667310D01*
X125657144Y-71506978D01*
X125691000Y-71336771D01*
X125691000Y-71163229D01*
X125929000Y-71163229D01*
X125929000Y-71336771D01*
X125962856Y-71506978D01*
X126029268Y-71667310D01*
X126125682Y-71811605D01*
X126248395Y-71934318D01*
X126392690Y-72030732D01*
X126553022Y-72097144D01*
X126723229Y-72131000D01*
X126896771Y-72131000D01*
X127066978Y-72097144D01*
X127227310Y-72030732D01*
X127371605Y-71934318D01*
X127494318Y-71811605D01*
X127590732Y-71667310D01*
X127657144Y-71506978D01*
X127691000Y-71336771D01*
X127691000Y-71163229D01*
X129929000Y-71163229D01*
X129929000Y-71336771D01*
X129962856Y-71506978D01*
X130029268Y-71667310D01*
X130125682Y-71811605D01*
X130248395Y-71934318D01*
X130392690Y-72030732D01*
X130553022Y-72097144D01*
X130723229Y-72131000D01*
X130896771Y-72131000D01*
X131066978Y-72097144D01*
X131227310Y-72030732D01*
X131371605Y-71934318D01*
X131494318Y-71811605D01*
X131590732Y-71667310D01*
X131657144Y-71506978D01*
X131691000Y-71336771D01*
X131691000Y-71163229D01*
X133929000Y-71163229D01*
X133929000Y-71336771D01*
X133962856Y-71506978D01*
X134029268Y-71667310D01*
X134125682Y-71811605D01*
X134248395Y-71934318D01*
X134392690Y-72030732D01*
X134553022Y-72097144D01*
X134723229Y-72131000D01*
X134896771Y-72131000D01*
X135066978Y-72097144D01*
X135227310Y-72030732D01*
X135371605Y-71934318D01*
X135494318Y-71811605D01*
X135590732Y-71667310D01*
X135657144Y-71506978D01*
X135691000Y-71336771D01*
X135691000Y-71163229D01*
X137929000Y-71163229D01*
X137929000Y-71336771D01*
X137962856Y-71506978D01*
X138029268Y-71667310D01*
X138125682Y-71811605D01*
X138248395Y-71934318D01*
X138392690Y-72030732D01*
X138553022Y-72097144D01*
X138723229Y-72131000D01*
X138896771Y-72131000D01*
X139066978Y-72097144D01*
X139227310Y-72030732D01*
X139371605Y-71934318D01*
X139494318Y-71811605D01*
X139590732Y-71667310D01*
X139657144Y-71506978D01*
X139691000Y-71336771D01*
X139691000Y-71163229D01*
X139929000Y-71163229D01*
X139929000Y-71336771D01*
X139962856Y-71506978D01*
X140029268Y-71667310D01*
X140125682Y-71811605D01*
X140248395Y-71934318D01*
X140392690Y-72030732D01*
X140553022Y-72097144D01*
X140723229Y-72131000D01*
X140896771Y-72131000D01*
X141066978Y-72097144D01*
X141227310Y-72030732D01*
X141371605Y-71934318D01*
X141494318Y-71811605D01*
X141590732Y-71667310D01*
X141657144Y-71506978D01*
X141691000Y-71336771D01*
X141691000Y-71163229D01*
X141929000Y-71163229D01*
X141929000Y-71336771D01*
X141962856Y-71506978D01*
X142029268Y-71667310D01*
X142125682Y-71811605D01*
X142248395Y-71934318D01*
X142392690Y-72030732D01*
X142553022Y-72097144D01*
X142723229Y-72131000D01*
X142896771Y-72131000D01*
X143066978Y-72097144D01*
X143227310Y-72030732D01*
X143371605Y-71934318D01*
X143494318Y-71811605D01*
X143590732Y-71667310D01*
X143657144Y-71506978D01*
X143691000Y-71336771D01*
X143691000Y-71163229D01*
X145929000Y-71163229D01*
X145929000Y-71336771D01*
X145962856Y-71506978D01*
X146029268Y-71667310D01*
X146125682Y-71811605D01*
X146248395Y-71934318D01*
X146392690Y-72030732D01*
X146553022Y-72097144D01*
X146723229Y-72131000D01*
X146896771Y-72131000D01*
X147066978Y-72097144D01*
X147227310Y-72030732D01*
X147371605Y-71934318D01*
X147494318Y-71811605D01*
X147590732Y-71667310D01*
X147657144Y-71506978D01*
X147691000Y-71336771D01*
X147691000Y-71163229D01*
X147657144Y-70993022D01*
X147590732Y-70832690D01*
X147494318Y-70688395D01*
X147371605Y-70565682D01*
X147227310Y-70469268D01*
X147066978Y-70402856D01*
X146896771Y-70369000D01*
X146723229Y-70369000D01*
X146553022Y-70402856D01*
X146392690Y-70469268D01*
X146248395Y-70565682D01*
X146125682Y-70688395D01*
X146029268Y-70832690D01*
X145962856Y-70993022D01*
X145929000Y-71163229D01*
X143691000Y-71163229D01*
X143657144Y-70993022D01*
X143590732Y-70832690D01*
X143494318Y-70688395D01*
X143371605Y-70565682D01*
X143227310Y-70469268D01*
X143066978Y-70402856D01*
X142896771Y-70369000D01*
X142723229Y-70369000D01*
X142553022Y-70402856D01*
X142392690Y-70469268D01*
X142248395Y-70565682D01*
X142125682Y-70688395D01*
X142029268Y-70832690D01*
X141962856Y-70993022D01*
X141929000Y-71163229D01*
X141691000Y-71163229D01*
X141657144Y-70993022D01*
X141590732Y-70832690D01*
X141494318Y-70688395D01*
X141371605Y-70565682D01*
X141227310Y-70469268D01*
X141066978Y-70402856D01*
X140896771Y-70369000D01*
X140723229Y-70369000D01*
X140553022Y-70402856D01*
X140392690Y-70469268D01*
X140248395Y-70565682D01*
X140125682Y-70688395D01*
X140029268Y-70832690D01*
X139962856Y-70993022D01*
X139929000Y-71163229D01*
X139691000Y-71163229D01*
X139657144Y-70993022D01*
X139590732Y-70832690D01*
X139494318Y-70688395D01*
X139371605Y-70565682D01*
X139227310Y-70469268D01*
X139066978Y-70402856D01*
X138896771Y-70369000D01*
X138723229Y-70369000D01*
X138553022Y-70402856D01*
X138392690Y-70469268D01*
X138248395Y-70565682D01*
X138125682Y-70688395D01*
X138029268Y-70832690D01*
X137962856Y-70993022D01*
X137929000Y-71163229D01*
X135691000Y-71163229D01*
X135657144Y-70993022D01*
X135590732Y-70832690D01*
X135494318Y-70688395D01*
X135371605Y-70565682D01*
X135227310Y-70469268D01*
X135066978Y-70402856D01*
X134896771Y-70369000D01*
X134723229Y-70369000D01*
X134553022Y-70402856D01*
X134392690Y-70469268D01*
X134248395Y-70565682D01*
X134125682Y-70688395D01*
X134029268Y-70832690D01*
X133962856Y-70993022D01*
X133929000Y-71163229D01*
X131691000Y-71163229D01*
X131657144Y-70993022D01*
X131590732Y-70832690D01*
X131494318Y-70688395D01*
X131371605Y-70565682D01*
X131227310Y-70469268D01*
X131066978Y-70402856D01*
X130896771Y-70369000D01*
X130723229Y-70369000D01*
X130553022Y-70402856D01*
X130392690Y-70469268D01*
X130248395Y-70565682D01*
X130125682Y-70688395D01*
X130029268Y-70832690D01*
X129962856Y-70993022D01*
X129929000Y-71163229D01*
X127691000Y-71163229D01*
X127657144Y-70993022D01*
X127590732Y-70832690D01*
X127494318Y-70688395D01*
X127371605Y-70565682D01*
X127227310Y-70469268D01*
X127066978Y-70402856D01*
X126896771Y-70369000D01*
X126723229Y-70369000D01*
X126553022Y-70402856D01*
X126392690Y-70469268D01*
X126248395Y-70565682D01*
X126125682Y-70688395D01*
X126029268Y-70832690D01*
X125962856Y-70993022D01*
X125929000Y-71163229D01*
X125691000Y-71163229D01*
X125657144Y-70993022D01*
X125590732Y-70832690D01*
X125494318Y-70688395D01*
X125371605Y-70565682D01*
X125227310Y-70469268D01*
X125066978Y-70402856D01*
X124896771Y-70369000D01*
X124723229Y-70369000D01*
X124553022Y-70402856D01*
X124392690Y-70469268D01*
X124248395Y-70565682D01*
X124125682Y-70688395D01*
X124029268Y-70832690D01*
X123962856Y-70993022D01*
X123929000Y-71163229D01*
X121691000Y-71163229D01*
X121657144Y-70993022D01*
X121590732Y-70832690D01*
X121494318Y-70688395D01*
X121371605Y-70565682D01*
X121227310Y-70469268D01*
X121066978Y-70402856D01*
X120896771Y-70369000D01*
X120723229Y-70369000D01*
X120553022Y-70402856D01*
X120392690Y-70469268D01*
X120248395Y-70565682D01*
X120125682Y-70688395D01*
X120029268Y-70832690D01*
X119962856Y-70993022D01*
X119929000Y-71163229D01*
X117691000Y-71163229D01*
X117657144Y-70993022D01*
X117590732Y-70832690D01*
X117494318Y-70688395D01*
X117371605Y-70565682D01*
X117227310Y-70469268D01*
X117066978Y-70402856D01*
X116896771Y-70369000D01*
X116723229Y-70369000D01*
X116553022Y-70402856D01*
X116392690Y-70469268D01*
X116248395Y-70565682D01*
X116125682Y-70688395D01*
X116029268Y-70832690D01*
X115962856Y-70993022D01*
X115929000Y-71163229D01*
X113691000Y-71163229D01*
X113657144Y-70993022D01*
X113590732Y-70832690D01*
X113494318Y-70688395D01*
X113371605Y-70565682D01*
X113227310Y-70469268D01*
X113066978Y-70402856D01*
X112896771Y-70369000D01*
X112723229Y-70369000D01*
X112553022Y-70402856D01*
X112392690Y-70469268D01*
X112248395Y-70565682D01*
X112125682Y-70688395D01*
X112029268Y-70832690D01*
X111962856Y-70993022D01*
X111929000Y-71163229D01*
X110037287Y-71163229D01*
X110208624Y-70991892D01*
X110378909Y-70737042D01*
X110496204Y-70453869D01*
X110556000Y-70153253D01*
X110556000Y-69846747D01*
X110496204Y-69546131D01*
X110378909Y-69262958D01*
X110208624Y-69008108D01*
X109991892Y-68791376D01*
X109800107Y-68663229D01*
X113929000Y-68663229D01*
X113929000Y-68836771D01*
X113962856Y-69006978D01*
X114029268Y-69167310D01*
X114125682Y-69311605D01*
X114248395Y-69434318D01*
X114392690Y-69530732D01*
X114553022Y-69597144D01*
X114723229Y-69631000D01*
X114896771Y-69631000D01*
X115066978Y-69597144D01*
X115227310Y-69530732D01*
X115371605Y-69434318D01*
X115494318Y-69311605D01*
X115590732Y-69167310D01*
X115657144Y-69006978D01*
X115691000Y-68836771D01*
X115691000Y-68663229D01*
X117929000Y-68663229D01*
X117929000Y-68836771D01*
X117962856Y-69006978D01*
X118029268Y-69167310D01*
X118125682Y-69311605D01*
X118248395Y-69434318D01*
X118392690Y-69530732D01*
X118553022Y-69597144D01*
X118723229Y-69631000D01*
X118896771Y-69631000D01*
X119066978Y-69597144D01*
X119227310Y-69530732D01*
X119371605Y-69434318D01*
X119494318Y-69311605D01*
X119590732Y-69167310D01*
X119657144Y-69006978D01*
X119691000Y-68836771D01*
X119691000Y-68663229D01*
X121929000Y-68663229D01*
X121929000Y-68836771D01*
X121962856Y-69006978D01*
X122029268Y-69167310D01*
X122125682Y-69311605D01*
X122248395Y-69434318D01*
X122392690Y-69530732D01*
X122553022Y-69597144D01*
X122723229Y-69631000D01*
X122896771Y-69631000D01*
X123066978Y-69597144D01*
X123227310Y-69530732D01*
X123371605Y-69434318D01*
X123494318Y-69311605D01*
X123590732Y-69167310D01*
X123657144Y-69006978D01*
X123691000Y-68836771D01*
X123691000Y-68663229D01*
X125929000Y-68663229D01*
X125929000Y-68836771D01*
X125962856Y-69006978D01*
X126029268Y-69167310D01*
X126125682Y-69311605D01*
X126248395Y-69434318D01*
X126392690Y-69530732D01*
X126553022Y-69597144D01*
X126723229Y-69631000D01*
X126896771Y-69631000D01*
X127066978Y-69597144D01*
X127227310Y-69530732D01*
X127371605Y-69434318D01*
X127494318Y-69311605D01*
X127590732Y-69167310D01*
X127657144Y-69006978D01*
X127691000Y-68836771D01*
X127691000Y-68663229D01*
X127929000Y-68663229D01*
X127929000Y-68836771D01*
X127962856Y-69006978D01*
X128029268Y-69167310D01*
X128125682Y-69311605D01*
X128248395Y-69434318D01*
X128392690Y-69530732D01*
X128553022Y-69597144D01*
X128723229Y-69631000D01*
X128896771Y-69631000D01*
X129066978Y-69597144D01*
X129227310Y-69530732D01*
X129371605Y-69434318D01*
X129494318Y-69311605D01*
X129590732Y-69167310D01*
X129657144Y-69006978D01*
X129691000Y-68836771D01*
X129691000Y-68663229D01*
X131929000Y-68663229D01*
X131929000Y-68836771D01*
X131962856Y-69006978D01*
X132029268Y-69167310D01*
X132125682Y-69311605D01*
X132248395Y-69434318D01*
X132392690Y-69530732D01*
X132553022Y-69597144D01*
X132723229Y-69631000D01*
X132896771Y-69631000D01*
X133066978Y-69597144D01*
X133227310Y-69530732D01*
X133371605Y-69434318D01*
X133494318Y-69311605D01*
X133590732Y-69167310D01*
X133657144Y-69006978D01*
X133691000Y-68836771D01*
X133691000Y-68663229D01*
X135929000Y-68663229D01*
X135929000Y-68836771D01*
X135962856Y-69006978D01*
X136029268Y-69167310D01*
X136125682Y-69311605D01*
X136248395Y-69434318D01*
X136392690Y-69530732D01*
X136553022Y-69597144D01*
X136723229Y-69631000D01*
X136896771Y-69631000D01*
X137066978Y-69597144D01*
X137227310Y-69530732D01*
X137371605Y-69434318D01*
X137494318Y-69311605D01*
X137590732Y-69167310D01*
X137657144Y-69006978D01*
X137691000Y-68836771D01*
X137691000Y-68663229D01*
X139929000Y-68663229D01*
X139929000Y-68836771D01*
X139962856Y-69006978D01*
X140029268Y-69167310D01*
X140125682Y-69311605D01*
X140248395Y-69434318D01*
X140392690Y-69530732D01*
X140553022Y-69597144D01*
X140723229Y-69631000D01*
X140896771Y-69631000D01*
X141066978Y-69597144D01*
X141227310Y-69530732D01*
X141371605Y-69434318D01*
X141494318Y-69311605D01*
X141590732Y-69167310D01*
X141657144Y-69006978D01*
X141691000Y-68836771D01*
X141691000Y-68663229D01*
X141929000Y-68663229D01*
X141929000Y-68836771D01*
X141962856Y-69006978D01*
X142029268Y-69167310D01*
X142125682Y-69311605D01*
X142248395Y-69434318D01*
X142392690Y-69530732D01*
X142553022Y-69597144D01*
X142723229Y-69631000D01*
X142896771Y-69631000D01*
X143066978Y-69597144D01*
X143227310Y-69530732D01*
X143371605Y-69434318D01*
X143494318Y-69311605D01*
X143590732Y-69167310D01*
X143657144Y-69006978D01*
X143691000Y-68836771D01*
X143691000Y-68663229D01*
X143929000Y-68663229D01*
X143929000Y-68836771D01*
X143962856Y-69006978D01*
X144029268Y-69167310D01*
X144125682Y-69311605D01*
X144248395Y-69434318D01*
X144392690Y-69530732D01*
X144553022Y-69597144D01*
X144723229Y-69631000D01*
X144896771Y-69631000D01*
X145066978Y-69597144D01*
X145227310Y-69530732D01*
X145371605Y-69434318D01*
X145494318Y-69311605D01*
X145590732Y-69167310D01*
X145657144Y-69006978D01*
X145691000Y-68836771D01*
X145691000Y-68663229D01*
X145657144Y-68493022D01*
X145590732Y-68332690D01*
X145494318Y-68188395D01*
X145371605Y-68065682D01*
X145227310Y-67969268D01*
X145066978Y-67902856D01*
X144896771Y-67869000D01*
X144723229Y-67869000D01*
X144553022Y-67902856D01*
X144392690Y-67969268D01*
X144248395Y-68065682D01*
X144125682Y-68188395D01*
X144029268Y-68332690D01*
X143962856Y-68493022D01*
X143929000Y-68663229D01*
X143691000Y-68663229D01*
X143657144Y-68493022D01*
X143590732Y-68332690D01*
X143494318Y-68188395D01*
X143371605Y-68065682D01*
X143227310Y-67969268D01*
X143066978Y-67902856D01*
X142896771Y-67869000D01*
X142723229Y-67869000D01*
X142553022Y-67902856D01*
X142392690Y-67969268D01*
X142248395Y-68065682D01*
X142125682Y-68188395D01*
X142029268Y-68332690D01*
X141962856Y-68493022D01*
X141929000Y-68663229D01*
X141691000Y-68663229D01*
X141657144Y-68493022D01*
X141590732Y-68332690D01*
X141494318Y-68188395D01*
X141371605Y-68065682D01*
X141227310Y-67969268D01*
X141066978Y-67902856D01*
X140896771Y-67869000D01*
X140723229Y-67869000D01*
X140553022Y-67902856D01*
X140392690Y-67969268D01*
X140248395Y-68065682D01*
X140125682Y-68188395D01*
X140029268Y-68332690D01*
X139962856Y-68493022D01*
X139929000Y-68663229D01*
X137691000Y-68663229D01*
X137657144Y-68493022D01*
X137590732Y-68332690D01*
X137494318Y-68188395D01*
X137371605Y-68065682D01*
X137227310Y-67969268D01*
X137066978Y-67902856D01*
X136896771Y-67869000D01*
X136723229Y-67869000D01*
X136553022Y-67902856D01*
X136392690Y-67969268D01*
X136248395Y-68065682D01*
X136125682Y-68188395D01*
X136029268Y-68332690D01*
X135962856Y-68493022D01*
X135929000Y-68663229D01*
X133691000Y-68663229D01*
X133657144Y-68493022D01*
X133590732Y-68332690D01*
X133494318Y-68188395D01*
X133371605Y-68065682D01*
X133227310Y-67969268D01*
X133066978Y-67902856D01*
X132896771Y-67869000D01*
X132723229Y-67869000D01*
X132553022Y-67902856D01*
X132392690Y-67969268D01*
X132248395Y-68065682D01*
X132125682Y-68188395D01*
X132029268Y-68332690D01*
X131962856Y-68493022D01*
X131929000Y-68663229D01*
X129691000Y-68663229D01*
X129657144Y-68493022D01*
X129590732Y-68332690D01*
X129494318Y-68188395D01*
X129371605Y-68065682D01*
X129227310Y-67969268D01*
X129066978Y-67902856D01*
X128896771Y-67869000D01*
X128723229Y-67869000D01*
X128553022Y-67902856D01*
X128392690Y-67969268D01*
X128248395Y-68065682D01*
X128125682Y-68188395D01*
X128029268Y-68332690D01*
X127962856Y-68493022D01*
X127929000Y-68663229D01*
X127691000Y-68663229D01*
X127657144Y-68493022D01*
X127590732Y-68332690D01*
X127494318Y-68188395D01*
X127371605Y-68065682D01*
X127227310Y-67969268D01*
X127066978Y-67902856D01*
X126896771Y-67869000D01*
X126723229Y-67869000D01*
X126553022Y-67902856D01*
X126392690Y-67969268D01*
X126248395Y-68065682D01*
X126125682Y-68188395D01*
X126029268Y-68332690D01*
X125962856Y-68493022D01*
X125929000Y-68663229D01*
X123691000Y-68663229D01*
X123657144Y-68493022D01*
X123590732Y-68332690D01*
X123494318Y-68188395D01*
X123371605Y-68065682D01*
X123227310Y-67969268D01*
X123066978Y-67902856D01*
X122896771Y-67869000D01*
X122723229Y-67869000D01*
X122553022Y-67902856D01*
X122392690Y-67969268D01*
X122248395Y-68065682D01*
X122125682Y-68188395D01*
X122029268Y-68332690D01*
X121962856Y-68493022D01*
X121929000Y-68663229D01*
X119691000Y-68663229D01*
X119657144Y-68493022D01*
X119590732Y-68332690D01*
X119494318Y-68188395D01*
X119371605Y-68065682D01*
X119227310Y-67969268D01*
X119066978Y-67902856D01*
X118896771Y-67869000D01*
X118723229Y-67869000D01*
X118553022Y-67902856D01*
X118392690Y-67969268D01*
X118248395Y-68065682D01*
X118125682Y-68188395D01*
X118029268Y-68332690D01*
X117962856Y-68493022D01*
X117929000Y-68663229D01*
X115691000Y-68663229D01*
X115657144Y-68493022D01*
X115590732Y-68332690D01*
X115494318Y-68188395D01*
X115371605Y-68065682D01*
X115227310Y-67969268D01*
X115066978Y-67902856D01*
X114896771Y-67869000D01*
X114723229Y-67869000D01*
X114553022Y-67902856D01*
X114392690Y-67969268D01*
X114248395Y-68065682D01*
X114125682Y-68188395D01*
X114029268Y-68332690D01*
X113962856Y-68493022D01*
X113929000Y-68663229D01*
X109800107Y-68663229D01*
X109737042Y-68621091D01*
X109453869Y-68503796D01*
X109153253Y-68444000D01*
X108846747Y-68444000D01*
X108546131Y-68503796D01*
X108262958Y-68621091D01*
X108008108Y-68791376D01*
X107791376Y-69008108D01*
X107621091Y-69262958D01*
X107503796Y-69546131D01*
X107444000Y-69846747D01*
X105781000Y-69846747D01*
X105781000Y-69799964D01*
X105702950Y-69407579D01*
X105549849Y-69037961D01*
X105327581Y-68705313D01*
X105044687Y-68422419D01*
X104712039Y-68200151D01*
X104342421Y-68047050D01*
X103950036Y-67969000D01*
X103549964Y-67969000D01*
X103157579Y-68047050D01*
X102787961Y-68200151D01*
X102455313Y-68422419D01*
X102172419Y-68705313D01*
X101950151Y-69037961D01*
X101797050Y-69407579D01*
X101719000Y-69799964D01*
X89906000Y-69799964D01*
X89906000Y-68368154D01*
X94629000Y-68368154D01*
X94629000Y-68531846D01*
X94660935Y-68692394D01*
X94723577Y-68843626D01*
X94814520Y-68979732D01*
X94930268Y-69095480D01*
X95066374Y-69186423D01*
X95217606Y-69249065D01*
X95378154Y-69281000D01*
X95541846Y-69281000D01*
X95702394Y-69249065D01*
X95853626Y-69186423D01*
X95989732Y-69095480D01*
X96105480Y-68979732D01*
X96196423Y-68843626D01*
X96259065Y-68692394D01*
X96291000Y-68531846D01*
X96291000Y-68368154D01*
X96259065Y-68207606D01*
X96196423Y-68056374D01*
X96105480Y-67920268D01*
X95989732Y-67804520D01*
X95853626Y-67713577D01*
X95702394Y-67650935D01*
X95541846Y-67619000D01*
X95378154Y-67619000D01*
X95217606Y-67650935D01*
X95066374Y-67713577D01*
X94930268Y-67804520D01*
X94814520Y-67920268D01*
X94723577Y-68056374D01*
X94660935Y-68207606D01*
X94629000Y-68368154D01*
X89906000Y-68368154D01*
X89906000Y-61195270D01*
X93566470Y-61195270D01*
X93566470Y-61349114D01*
X93596483Y-61500001D01*
X93655357Y-61642134D01*
X93736111Y-61762992D01*
X93657891Y-61880058D01*
X93599017Y-62022191D01*
X93569004Y-62173078D01*
X93569004Y-62326922D01*
X93599017Y-62477809D01*
X93657891Y-62619942D01*
X93743362Y-62747859D01*
X93745501Y-62749998D01*
X93743358Y-62752141D01*
X93657887Y-62880058D01*
X93599013Y-63022191D01*
X93569000Y-63173078D01*
X93569000Y-63326922D01*
X93599013Y-63477809D01*
X93657887Y-63619942D01*
X93737373Y-63738901D01*
X93657887Y-63857861D01*
X93599013Y-63999994D01*
X93569000Y-64150881D01*
X93569000Y-64304725D01*
X93599013Y-64455612D01*
X93657887Y-64597745D01*
X93743358Y-64725662D01*
X93852141Y-64834445D01*
X93980058Y-64919916D01*
X94122191Y-64978790D01*
X94273078Y-65008803D01*
X94426922Y-65008803D01*
X94577809Y-64978790D01*
X94719942Y-64919916D01*
X94847859Y-64834445D01*
X94956642Y-64725662D01*
X95042113Y-64597745D01*
X95080478Y-64505124D01*
X96569000Y-64505124D01*
X96569000Y-64639270D01*
X96595171Y-64770837D01*
X96646506Y-64894771D01*
X96690824Y-64961099D01*
X96646506Y-65027426D01*
X96595171Y-65151360D01*
X96569000Y-65282927D01*
X96569000Y-65417073D01*
X96595171Y-65548640D01*
X96646506Y-65672574D01*
X96698240Y-65750000D01*
X96646506Y-65827426D01*
X96595171Y-65951360D01*
X96569000Y-66082927D01*
X96569000Y-66217073D01*
X96595171Y-66348640D01*
X96646506Y-66472574D01*
X96690824Y-66538902D01*
X96646506Y-66605229D01*
X96595171Y-66729163D01*
X96569000Y-66860730D01*
X96569000Y-66994876D01*
X96595171Y-67126443D01*
X96646506Y-67250377D01*
X96721033Y-67361915D01*
X96815888Y-67456770D01*
X96927426Y-67531297D01*
X97051360Y-67582632D01*
X97182927Y-67608803D01*
X97317073Y-67608803D01*
X97448640Y-67582632D01*
X97572574Y-67531297D01*
X97684112Y-67456770D01*
X97778967Y-67361915D01*
X97853494Y-67250377D01*
X97904829Y-67126443D01*
X97931000Y-66994876D01*
X97931000Y-66860730D01*
X97904829Y-66729163D01*
X97877519Y-66663229D01*
X110929000Y-66663229D01*
X110929000Y-66836771D01*
X110962856Y-67006978D01*
X111029268Y-67167310D01*
X111125682Y-67311605D01*
X111248395Y-67434318D01*
X111392690Y-67530732D01*
X111553022Y-67597144D01*
X111723229Y-67631000D01*
X111896771Y-67631000D01*
X112066978Y-67597144D01*
X112227310Y-67530732D01*
X112371605Y-67434318D01*
X112494318Y-67311605D01*
X112590732Y-67167310D01*
X112657144Y-67006978D01*
X112691000Y-66836771D01*
X112691000Y-66663229D01*
X112929000Y-66663229D01*
X112929000Y-66836771D01*
X112962856Y-67006978D01*
X113029268Y-67167310D01*
X113125682Y-67311605D01*
X113248395Y-67434318D01*
X113392690Y-67530732D01*
X113553022Y-67597144D01*
X113723229Y-67631000D01*
X113896771Y-67631000D01*
X114066978Y-67597144D01*
X114227310Y-67530732D01*
X114371605Y-67434318D01*
X114494318Y-67311605D01*
X114590732Y-67167310D01*
X114657144Y-67006978D01*
X114691000Y-66836771D01*
X114691000Y-66663229D01*
X116929000Y-66663229D01*
X116929000Y-66836771D01*
X116962856Y-67006978D01*
X117029268Y-67167310D01*
X117125682Y-67311605D01*
X117248395Y-67434318D01*
X117392690Y-67530732D01*
X117553022Y-67597144D01*
X117723229Y-67631000D01*
X117896771Y-67631000D01*
X118066978Y-67597144D01*
X118227310Y-67530732D01*
X118371605Y-67434318D01*
X118494318Y-67311605D01*
X118590732Y-67167310D01*
X118657144Y-67006978D01*
X118691000Y-66836771D01*
X118691000Y-66663229D01*
X120929000Y-66663229D01*
X120929000Y-66836771D01*
X120962856Y-67006978D01*
X121029268Y-67167310D01*
X121125682Y-67311605D01*
X121248395Y-67434318D01*
X121392690Y-67530732D01*
X121553022Y-67597144D01*
X121723229Y-67631000D01*
X121896771Y-67631000D01*
X122066978Y-67597144D01*
X122227310Y-67530732D01*
X122371605Y-67434318D01*
X122494318Y-67311605D01*
X122590732Y-67167310D01*
X122657144Y-67006978D01*
X122691000Y-66836771D01*
X122691000Y-66663229D01*
X124929000Y-66663229D01*
X124929000Y-66836771D01*
X124962856Y-67006978D01*
X125029268Y-67167310D01*
X125125682Y-67311605D01*
X125248395Y-67434318D01*
X125392690Y-67530732D01*
X125553022Y-67597144D01*
X125723229Y-67631000D01*
X125896771Y-67631000D01*
X126066978Y-67597144D01*
X126227310Y-67530732D01*
X126371605Y-67434318D01*
X126494318Y-67311605D01*
X126590732Y-67167310D01*
X126657144Y-67006978D01*
X126691000Y-66836771D01*
X126691000Y-66663229D01*
X128929000Y-66663229D01*
X128929000Y-66836771D01*
X128962856Y-67006978D01*
X129029268Y-67167310D01*
X129125682Y-67311605D01*
X129248395Y-67434318D01*
X129392690Y-67530732D01*
X129553022Y-67597144D01*
X129723229Y-67631000D01*
X129896771Y-67631000D01*
X130066978Y-67597144D01*
X130227310Y-67530732D01*
X130371605Y-67434318D01*
X130494318Y-67311605D01*
X130590732Y-67167310D01*
X130657144Y-67006978D01*
X130691000Y-66836771D01*
X130691000Y-66663229D01*
X130929000Y-66663229D01*
X130929000Y-66836771D01*
X130962856Y-67006978D01*
X131029268Y-67167310D01*
X131125682Y-67311605D01*
X131248395Y-67434318D01*
X131392690Y-67530732D01*
X131553022Y-67597144D01*
X131723229Y-67631000D01*
X131896771Y-67631000D01*
X132066978Y-67597144D01*
X132227310Y-67530732D01*
X132371605Y-67434318D01*
X132494318Y-67311605D01*
X132590732Y-67167310D01*
X132657144Y-67006978D01*
X132691000Y-66836771D01*
X132691000Y-66663229D01*
X134929000Y-66663229D01*
X134929000Y-66836771D01*
X134962856Y-67006978D01*
X135029268Y-67167310D01*
X135125682Y-67311605D01*
X135248395Y-67434318D01*
X135392690Y-67530732D01*
X135553022Y-67597144D01*
X135723229Y-67631000D01*
X135896771Y-67631000D01*
X136066978Y-67597144D01*
X136227310Y-67530732D01*
X136371605Y-67434318D01*
X136494318Y-67311605D01*
X136590732Y-67167310D01*
X136657144Y-67006978D01*
X136691000Y-66836771D01*
X136691000Y-66663229D01*
X138929000Y-66663229D01*
X138929000Y-66836771D01*
X138962856Y-67006978D01*
X139029268Y-67167310D01*
X139125682Y-67311605D01*
X139248395Y-67434318D01*
X139392690Y-67530732D01*
X139553022Y-67597144D01*
X139723229Y-67631000D01*
X139896771Y-67631000D01*
X140066978Y-67597144D01*
X140227310Y-67530732D01*
X140371605Y-67434318D01*
X140494318Y-67311605D01*
X140590732Y-67167310D01*
X140657144Y-67006978D01*
X140691000Y-66836771D01*
X140691000Y-66663229D01*
X144929000Y-66663229D01*
X144929000Y-66836771D01*
X144962856Y-67006978D01*
X145029268Y-67167310D01*
X145125682Y-67311605D01*
X145248395Y-67434318D01*
X145392690Y-67530732D01*
X145553022Y-67597144D01*
X145723229Y-67631000D01*
X145896771Y-67631000D01*
X146066978Y-67597144D01*
X146227310Y-67530732D01*
X146371605Y-67434318D01*
X146494318Y-67311605D01*
X146590732Y-67167310D01*
X146657144Y-67006978D01*
X146691000Y-66836771D01*
X146691000Y-66663229D01*
X146929000Y-66663229D01*
X146929000Y-66836771D01*
X146962856Y-67006978D01*
X147029268Y-67167310D01*
X147125682Y-67311605D01*
X147248395Y-67434318D01*
X147392690Y-67530732D01*
X147553022Y-67597144D01*
X147723229Y-67631000D01*
X147896771Y-67631000D01*
X148066978Y-67597144D01*
X148227310Y-67530732D01*
X148371605Y-67434318D01*
X148494318Y-67311605D01*
X148590732Y-67167310D01*
X148657144Y-67006978D01*
X148691000Y-66836771D01*
X148691000Y-66663229D01*
X148657144Y-66493022D01*
X148590732Y-66332690D01*
X148494318Y-66188395D01*
X148371605Y-66065682D01*
X148227310Y-65969268D01*
X148066978Y-65902856D01*
X147896771Y-65869000D01*
X147723229Y-65869000D01*
X147553022Y-65902856D01*
X147392690Y-65969268D01*
X147248395Y-66065682D01*
X147125682Y-66188395D01*
X147029268Y-66332690D01*
X146962856Y-66493022D01*
X146929000Y-66663229D01*
X146691000Y-66663229D01*
X146657144Y-66493022D01*
X146590732Y-66332690D01*
X146494318Y-66188395D01*
X146371605Y-66065682D01*
X146227310Y-65969268D01*
X146066978Y-65902856D01*
X145896771Y-65869000D01*
X145723229Y-65869000D01*
X145553022Y-65902856D01*
X145392690Y-65969268D01*
X145248395Y-66065682D01*
X145125682Y-66188395D01*
X145029268Y-66332690D01*
X144962856Y-66493022D01*
X144929000Y-66663229D01*
X140691000Y-66663229D01*
X140657144Y-66493022D01*
X140590732Y-66332690D01*
X140494318Y-66188395D01*
X140371605Y-66065682D01*
X140227310Y-65969268D01*
X140066978Y-65902856D01*
X139896771Y-65869000D01*
X139723229Y-65869000D01*
X139553022Y-65902856D01*
X139392690Y-65969268D01*
X139248395Y-66065682D01*
X139125682Y-66188395D01*
X139029268Y-66332690D01*
X138962856Y-66493022D01*
X138929000Y-66663229D01*
X136691000Y-66663229D01*
X136657144Y-66493022D01*
X136590732Y-66332690D01*
X136494318Y-66188395D01*
X136371605Y-66065682D01*
X136227310Y-65969268D01*
X136066978Y-65902856D01*
X135896771Y-65869000D01*
X135723229Y-65869000D01*
X135553022Y-65902856D01*
X135392690Y-65969268D01*
X135248395Y-66065682D01*
X135125682Y-66188395D01*
X135029268Y-66332690D01*
X134962856Y-66493022D01*
X134929000Y-66663229D01*
X132691000Y-66663229D01*
X132657144Y-66493022D01*
X132590732Y-66332690D01*
X132494318Y-66188395D01*
X132371605Y-66065682D01*
X132227310Y-65969268D01*
X132066978Y-65902856D01*
X131896771Y-65869000D01*
X131723229Y-65869000D01*
X131553022Y-65902856D01*
X131392690Y-65969268D01*
X131248395Y-66065682D01*
X131125682Y-66188395D01*
X131029268Y-66332690D01*
X130962856Y-66493022D01*
X130929000Y-66663229D01*
X130691000Y-66663229D01*
X130657144Y-66493022D01*
X130590732Y-66332690D01*
X130494318Y-66188395D01*
X130371605Y-66065682D01*
X130227310Y-65969268D01*
X130066978Y-65902856D01*
X129896771Y-65869000D01*
X129723229Y-65869000D01*
X129553022Y-65902856D01*
X129392690Y-65969268D01*
X129248395Y-66065682D01*
X129125682Y-66188395D01*
X129029268Y-66332690D01*
X128962856Y-66493022D01*
X128929000Y-66663229D01*
X126691000Y-66663229D01*
X126657144Y-66493022D01*
X126590732Y-66332690D01*
X126494318Y-66188395D01*
X126371605Y-66065682D01*
X126227310Y-65969268D01*
X126066978Y-65902856D01*
X125896771Y-65869000D01*
X125723229Y-65869000D01*
X125553022Y-65902856D01*
X125392690Y-65969268D01*
X125248395Y-66065682D01*
X125125682Y-66188395D01*
X125029268Y-66332690D01*
X124962856Y-66493022D01*
X124929000Y-66663229D01*
X122691000Y-66663229D01*
X122657144Y-66493022D01*
X122590732Y-66332690D01*
X122494318Y-66188395D01*
X122371605Y-66065682D01*
X122227310Y-65969268D01*
X122066978Y-65902856D01*
X121896771Y-65869000D01*
X121723229Y-65869000D01*
X121553022Y-65902856D01*
X121392690Y-65969268D01*
X121248395Y-66065682D01*
X121125682Y-66188395D01*
X121029268Y-66332690D01*
X120962856Y-66493022D01*
X120929000Y-66663229D01*
X118691000Y-66663229D01*
X118657144Y-66493022D01*
X118590732Y-66332690D01*
X118494318Y-66188395D01*
X118371605Y-66065682D01*
X118227310Y-65969268D01*
X118066978Y-65902856D01*
X117896771Y-65869000D01*
X117723229Y-65869000D01*
X117553022Y-65902856D01*
X117392690Y-65969268D01*
X117248395Y-66065682D01*
X117125682Y-66188395D01*
X117029268Y-66332690D01*
X116962856Y-66493022D01*
X116929000Y-66663229D01*
X114691000Y-66663229D01*
X114657144Y-66493022D01*
X114590732Y-66332690D01*
X114494318Y-66188395D01*
X114371605Y-66065682D01*
X114227310Y-65969268D01*
X114066978Y-65902856D01*
X113896771Y-65869000D01*
X113723229Y-65869000D01*
X113553022Y-65902856D01*
X113392690Y-65969268D01*
X113248395Y-66065682D01*
X113125682Y-66188395D01*
X113029268Y-66332690D01*
X112962856Y-66493022D01*
X112929000Y-66663229D01*
X112691000Y-66663229D01*
X112657144Y-66493022D01*
X112590732Y-66332690D01*
X112494318Y-66188395D01*
X112371605Y-66065682D01*
X112227310Y-65969268D01*
X112066978Y-65902856D01*
X111896771Y-65869000D01*
X111723229Y-65869000D01*
X111553022Y-65902856D01*
X111392690Y-65969268D01*
X111248395Y-66065682D01*
X111125682Y-66188395D01*
X111029268Y-66332690D01*
X110962856Y-66493022D01*
X110929000Y-66663229D01*
X97877519Y-66663229D01*
X97853494Y-66605229D01*
X97809176Y-66538902D01*
X97853494Y-66472574D01*
X97904829Y-66348640D01*
X97931000Y-66217073D01*
X97931000Y-66082927D01*
X97904829Y-65951360D01*
X97853494Y-65827426D01*
X97801760Y-65750000D01*
X97853494Y-65672574D01*
X97904829Y-65548640D01*
X97931000Y-65417073D01*
X97931000Y-65282927D01*
X97904829Y-65151360D01*
X97853494Y-65027426D01*
X97809176Y-64961099D01*
X97853494Y-64894771D01*
X97904829Y-64770837D01*
X97931000Y-64639270D01*
X97931000Y-64505124D01*
X97904829Y-64373557D01*
X97853494Y-64249623D01*
X97778967Y-64138085D01*
X97684112Y-64043230D01*
X97572574Y-63968703D01*
X97448640Y-63917368D01*
X97317073Y-63891197D01*
X97182927Y-63891197D01*
X97051360Y-63917368D01*
X96927426Y-63968703D01*
X96815888Y-64043230D01*
X96721033Y-64138085D01*
X96646506Y-64249623D01*
X96595171Y-64373557D01*
X96569000Y-64505124D01*
X95080478Y-64505124D01*
X95100987Y-64455612D01*
X95131000Y-64304725D01*
X95131000Y-64150881D01*
X95100987Y-63999994D01*
X95042113Y-63857861D01*
X94962627Y-63738902D01*
X95042113Y-63619942D01*
X95100987Y-63477809D01*
X95131000Y-63326922D01*
X95131000Y-63173078D01*
X95100987Y-63022191D01*
X95042113Y-62880058D01*
X94956642Y-62752141D01*
X94954503Y-62750002D01*
X94956646Y-62747859D01*
X95042117Y-62619942D01*
X95100991Y-62477809D01*
X95131004Y-62326922D01*
X95131004Y-62173078D01*
X95100991Y-62022191D01*
X95042117Y-61880058D01*
X94961363Y-61759200D01*
X95039583Y-61642134D01*
X95098457Y-61500001D01*
X95128470Y-61349114D01*
X95128470Y-61195270D01*
X95098457Y-61044383D01*
X95039583Y-60902250D01*
X94954112Y-60774333D01*
X94845329Y-60665550D01*
X94717412Y-60580079D01*
X94575279Y-60521205D01*
X94424392Y-60491192D01*
X94270548Y-60491192D01*
X94119661Y-60521205D01*
X93977528Y-60580079D01*
X93849611Y-60665550D01*
X93740828Y-60774333D01*
X93655357Y-60902250D01*
X93596483Y-61044383D01*
X93566470Y-61195270D01*
X89906000Y-61195270D01*
X89906000Y-58505124D01*
X96594000Y-58505124D01*
X96594000Y-58639270D01*
X96620171Y-58770837D01*
X96671506Y-58894771D01*
X96715824Y-58961098D01*
X96671506Y-59027426D01*
X96620171Y-59151360D01*
X96594000Y-59282927D01*
X96594000Y-59417073D01*
X96620171Y-59548640D01*
X96671506Y-59672574D01*
X96723240Y-59750000D01*
X96671506Y-59827426D01*
X96620171Y-59951360D01*
X96594000Y-60082927D01*
X96594000Y-60217073D01*
X96620171Y-60348640D01*
X96671506Y-60472574D01*
X96715824Y-60538901D01*
X96671506Y-60605229D01*
X96620171Y-60729163D01*
X96594000Y-60860730D01*
X96594000Y-60994876D01*
X96620171Y-61126443D01*
X96671506Y-61250377D01*
X96746033Y-61361915D01*
X96748020Y-61363902D01*
X96746033Y-61365888D01*
X96671506Y-61477426D01*
X96620171Y-61601360D01*
X96594000Y-61732927D01*
X96594000Y-61867073D01*
X96620171Y-61998640D01*
X96671506Y-62122574D01*
X96746033Y-62234112D01*
X96840888Y-62328967D01*
X96952426Y-62403494D01*
X97076360Y-62454829D01*
X97207927Y-62481000D01*
X97342073Y-62481000D01*
X97473640Y-62454829D01*
X97597574Y-62403494D01*
X97709112Y-62328967D01*
X97803967Y-62234112D01*
X97878494Y-62122574D01*
X97929829Y-61998640D01*
X97956000Y-61867073D01*
X97956000Y-61732927D01*
X97929829Y-61601360D01*
X97878494Y-61477426D01*
X97803967Y-61365888D01*
X97801981Y-61363902D01*
X97803967Y-61361915D01*
X97878494Y-61250377D01*
X97929829Y-61126443D01*
X97956000Y-60994876D01*
X97956000Y-60860730D01*
X97929829Y-60729163D01*
X97878494Y-60605229D01*
X97834176Y-60538901D01*
X97878494Y-60472574D01*
X97929829Y-60348640D01*
X97956000Y-60217073D01*
X97956000Y-60082927D01*
X97929829Y-59951360D01*
X97878494Y-59827426D01*
X97826760Y-59750000D01*
X97878494Y-59672574D01*
X97929829Y-59548640D01*
X97956000Y-59417073D01*
X97956000Y-59282927D01*
X97929829Y-59151360D01*
X97878494Y-59027426D01*
X97837567Y-58966173D01*
X133816848Y-58966173D01*
X133816848Y-59100319D01*
X133843019Y-59231886D01*
X133894354Y-59355820D01*
X133947157Y-59434846D01*
X133894354Y-59513872D01*
X133843019Y-59637806D01*
X133816848Y-59769373D01*
X133816848Y-59903519D01*
X133843019Y-60035086D01*
X133894354Y-60159020D01*
X133968881Y-60270558D01*
X134063736Y-60365413D01*
X134175274Y-60439940D01*
X134299208Y-60491275D01*
X134430775Y-60517446D01*
X134564921Y-60517446D01*
X134696488Y-60491275D01*
X134820422Y-60439940D01*
X134931960Y-60365413D01*
X135026815Y-60270558D01*
X135101342Y-60159020D01*
X135152677Y-60035086D01*
X135178848Y-59903519D01*
X135178848Y-59769373D01*
X135152677Y-59637806D01*
X135101342Y-59513872D01*
X135048539Y-59434846D01*
X135101342Y-59355820D01*
X135118358Y-59314738D01*
X144969000Y-59314738D01*
X144969000Y-59685262D01*
X145041286Y-60048667D01*
X145183080Y-60390987D01*
X145388932Y-60699067D01*
X145650933Y-60961068D01*
X145959013Y-61166920D01*
X146301333Y-61308714D01*
X146664738Y-61381000D01*
X147035262Y-61381000D01*
X147398667Y-61308714D01*
X147740987Y-61166920D01*
X148049067Y-60961068D01*
X148311068Y-60699067D01*
X148516920Y-60390987D01*
X148658714Y-60048667D01*
X148731000Y-59685262D01*
X148731000Y-59314738D01*
X148658714Y-58951333D01*
X148516920Y-58609013D01*
X148311068Y-58300933D01*
X148049067Y-58038932D01*
X147740987Y-57833080D01*
X147398667Y-57691286D01*
X147035262Y-57619000D01*
X146664738Y-57619000D01*
X146301333Y-57691286D01*
X145959013Y-57833080D01*
X145650933Y-58038932D01*
X145388932Y-58300933D01*
X145183080Y-58609013D01*
X145041286Y-58951333D01*
X144969000Y-59314738D01*
X135118358Y-59314738D01*
X135152677Y-59231886D01*
X135178848Y-59100319D01*
X135178848Y-58966173D01*
X135152677Y-58834606D01*
X135101342Y-58710672D01*
X135026815Y-58599134D01*
X134931960Y-58504279D01*
X134820422Y-58429752D01*
X134696488Y-58378417D01*
X134564921Y-58352246D01*
X134430775Y-58352246D01*
X134299208Y-58378417D01*
X134175274Y-58429752D01*
X134063736Y-58504279D01*
X133968881Y-58599134D01*
X133894354Y-58710672D01*
X133843019Y-58834606D01*
X133816848Y-58966173D01*
X97837567Y-58966173D01*
X97834176Y-58961098D01*
X97878494Y-58894771D01*
X97929829Y-58770837D01*
X97956000Y-58639270D01*
X97956000Y-58505124D01*
X97929829Y-58373557D01*
X97878494Y-58249623D01*
X97803967Y-58138085D01*
X97709112Y-58043230D01*
X97597574Y-57968703D01*
X97473640Y-57917368D01*
X97342073Y-57891197D01*
X97207927Y-57891197D01*
X97076360Y-57917368D01*
X96952426Y-57968703D01*
X96840888Y-58043230D01*
X96746033Y-58138085D01*
X96671506Y-58249623D01*
X96620171Y-58373557D01*
X96594000Y-58505124D01*
X89906000Y-58505124D01*
X89906000Y-56998154D01*
X94629000Y-56998154D01*
X94629000Y-57161846D01*
X94660935Y-57322394D01*
X94723577Y-57473626D01*
X94814520Y-57609732D01*
X94930268Y-57725480D01*
X95066374Y-57816423D01*
X95217606Y-57879065D01*
X95378154Y-57911000D01*
X95541846Y-57911000D01*
X95702394Y-57879065D01*
X95853626Y-57816423D01*
X95989732Y-57725480D01*
X96105480Y-57609732D01*
X96196423Y-57473626D01*
X96259065Y-57322394D01*
X96291000Y-57161846D01*
X96291000Y-56998154D01*
X96259065Y-56837606D01*
X96196423Y-56686374D01*
X96105480Y-56550268D01*
X95989732Y-56434520D01*
X95853626Y-56343577D01*
X95702394Y-56280935D01*
X95541846Y-56249000D01*
X95378154Y-56249000D01*
X95217606Y-56280935D01*
X95066374Y-56343577D01*
X94930268Y-56434520D01*
X94814520Y-56550268D01*
X94723577Y-56686374D01*
X94660935Y-56837606D01*
X94629000Y-56998154D01*
X89906000Y-56998154D01*
X89906000Y-54906000D01*
X149369000Y-54906000D01*
X149369000Y-56076501D01*
G37*
%TD.AperFunction*%
%TD*%
D16*
%TO.N,GND*%
X189094000Y-74094000D02*
X181881000Y-74094000D01*
X181881000Y-71526061D01*
X181900987Y-71477809D01*
X181931000Y-71326922D01*
X181931000Y-71173078D01*
X181900987Y-71022191D01*
X181881000Y-70973939D01*
X181881000Y-69799964D01*
X183469000Y-69799964D01*
X183469000Y-70200036D01*
X183547050Y-70592421D01*
X183700151Y-70962039D01*
X183922419Y-71294687D01*
X184205313Y-71577581D01*
X184537961Y-71799849D01*
X184907579Y-71952950D01*
X185299964Y-72031000D01*
X185700036Y-72031000D01*
X186092421Y-71952950D01*
X186462039Y-71799849D01*
X186794687Y-71577581D01*
X187077581Y-71294687D01*
X187299849Y-70962039D01*
X187452950Y-70592421D01*
X187531000Y-70200036D01*
X187531000Y-69799964D01*
X187452950Y-69407579D01*
X187299849Y-69037961D01*
X187077581Y-68705313D01*
X186794687Y-68422419D01*
X186462039Y-68200151D01*
X186092421Y-68047050D01*
X185700036Y-67969000D01*
X185299964Y-67969000D01*
X184907579Y-68047050D01*
X184537961Y-68200151D01*
X184205313Y-68422419D01*
X183922419Y-68705313D01*
X183700151Y-69037961D01*
X183547050Y-69407579D01*
X183469000Y-69799964D01*
X181881000Y-69799964D01*
X181881000Y-68881000D01*
X181900000Y-68881000D01*
X181974329Y-68873679D01*
X182045802Y-68851998D01*
X182111672Y-68816790D01*
X182169408Y-68769408D01*
X182216790Y-68711672D01*
X182251998Y-68645802D01*
X182273679Y-68574329D01*
X182281000Y-68500000D01*
X182281000Y-65631000D01*
X189094000Y-65631000D01*
X189094000Y-74094000D01*
%TA.AperFunction,Conductor*%
D17*
G36*
X189094000Y-74094000D02*
G01*
X181881000Y-74094000D01*
X181881000Y-71526061D01*
X181900987Y-71477809D01*
X181931000Y-71326922D01*
X181931000Y-71173078D01*
X181900987Y-71022191D01*
X181881000Y-70973939D01*
X181881000Y-69799964D01*
X183469000Y-69799964D01*
X183469000Y-70200036D01*
X183547050Y-70592421D01*
X183700151Y-70962039D01*
X183922419Y-71294687D01*
X184205313Y-71577581D01*
X184537961Y-71799849D01*
X184907579Y-71952950D01*
X185299964Y-72031000D01*
X185700036Y-72031000D01*
X186092421Y-71952950D01*
X186462039Y-71799849D01*
X186794687Y-71577581D01*
X187077581Y-71294687D01*
X187299849Y-70962039D01*
X187452950Y-70592421D01*
X187531000Y-70200036D01*
X187531000Y-69799964D01*
X187452950Y-69407579D01*
X187299849Y-69037961D01*
X187077581Y-68705313D01*
X186794687Y-68422419D01*
X186462039Y-68200151D01*
X186092421Y-68047050D01*
X185700036Y-67969000D01*
X185299964Y-67969000D01*
X184907579Y-68047050D01*
X184537961Y-68200151D01*
X184205313Y-68422419D01*
X183922419Y-68705313D01*
X183700151Y-69037961D01*
X183547050Y-69407579D01*
X183469000Y-69799964D01*
X181881000Y-69799964D01*
X181881000Y-68881000D01*
X181900000Y-68881000D01*
X181974329Y-68873679D01*
X182045802Y-68851998D01*
X182111672Y-68816790D01*
X182169408Y-68769408D01*
X182216790Y-68711672D01*
X182251998Y-68645802D01*
X182273679Y-68574329D01*
X182281000Y-68500000D01*
X182281000Y-65631000D01*
X189094000Y-65631000D01*
X189094000Y-74094000D01*
G37*
%TD.AperFunction*%
%TD*%
D16*
%TO.N,/SW*%
X170785932Y-65741897D02*
X170871403Y-65869814D01*
X170980186Y-65978597D01*
X171108103Y-66064068D01*
X171250236Y-66122942D01*
X171401123Y-66152955D01*
X171554967Y-66152955D01*
X171705854Y-66122942D01*
X171847987Y-66064068D01*
X171975904Y-65978597D01*
X172084687Y-65869814D01*
X172170158Y-65741897D01*
X172217750Y-65627000D01*
X180128961Y-65627000D01*
X180149013Y-65727809D01*
X180207887Y-65869942D01*
X180293358Y-65997859D01*
X180402141Y-66106642D01*
X180530058Y-66192113D01*
X180672191Y-66250987D01*
X180823078Y-66281000D01*
X180976922Y-66281000D01*
X181127809Y-66250987D01*
X181269942Y-66192113D01*
X181397859Y-66106642D01*
X181506642Y-65997859D01*
X181592113Y-65869942D01*
X181650000Y-65730192D01*
X181707887Y-65869942D01*
X181773000Y-65967391D01*
X181773000Y-68373000D01*
X179171039Y-68373000D01*
X179150987Y-68272191D01*
X179092113Y-68130058D01*
X179006642Y-68002141D01*
X178897859Y-67893358D01*
X178769942Y-67807887D01*
X178627809Y-67749013D01*
X178476922Y-67719000D01*
X178323078Y-67719000D01*
X178172191Y-67749013D01*
X178030058Y-67807887D01*
X177902141Y-67893358D01*
X177793358Y-68002141D01*
X177707887Y-68130058D01*
X177649013Y-68272191D01*
X177628961Y-68373000D01*
X175671039Y-68373000D01*
X175650987Y-68272191D01*
X175592113Y-68130058D01*
X175506642Y-68002141D01*
X175397859Y-67893358D01*
X175269942Y-67807887D01*
X175127809Y-67749013D01*
X174976922Y-67719000D01*
X174823078Y-67719000D01*
X174672191Y-67749013D01*
X174530058Y-67807887D01*
X174402141Y-67893358D01*
X174293358Y-68002141D01*
X174207887Y-68130058D01*
X174149013Y-68272191D01*
X174128961Y-68373000D01*
X164127000Y-68373000D01*
X164127000Y-65627000D01*
X170738340Y-65627000D01*
X170785932Y-65741897D01*
%TA.AperFunction,Conductor*%
D17*
G36*
X170785932Y-65741897D02*
G01*
X170871403Y-65869814D01*
X170980186Y-65978597D01*
X171108103Y-66064068D01*
X171250236Y-66122942D01*
X171401123Y-66152955D01*
X171554967Y-66152955D01*
X171705854Y-66122942D01*
X171847987Y-66064068D01*
X171975904Y-65978597D01*
X172084687Y-65869814D01*
X172170158Y-65741897D01*
X172217750Y-65627000D01*
X180128961Y-65627000D01*
X180149013Y-65727809D01*
X180207887Y-65869942D01*
X180293358Y-65997859D01*
X180402141Y-66106642D01*
X180530058Y-66192113D01*
X180672191Y-66250987D01*
X180823078Y-66281000D01*
X180976922Y-66281000D01*
X181127809Y-66250987D01*
X181269942Y-66192113D01*
X181397859Y-66106642D01*
X181506642Y-65997859D01*
X181592113Y-65869942D01*
X181650000Y-65730192D01*
X181707887Y-65869942D01*
X181773000Y-65967391D01*
X181773000Y-68373000D01*
X179171039Y-68373000D01*
X179150987Y-68272191D01*
X179092113Y-68130058D01*
X179006642Y-68002141D01*
X178897859Y-67893358D01*
X178769942Y-67807887D01*
X178627809Y-67749013D01*
X178476922Y-67719000D01*
X178323078Y-67719000D01*
X178172191Y-67749013D01*
X178030058Y-67807887D01*
X177902141Y-67893358D01*
X177793358Y-68002141D01*
X177707887Y-68130058D01*
X177649013Y-68272191D01*
X177628961Y-68373000D01*
X175671039Y-68373000D01*
X175650987Y-68272191D01*
X175592113Y-68130058D01*
X175506642Y-68002141D01*
X175397859Y-67893358D01*
X175269942Y-67807887D01*
X175127809Y-67749013D01*
X174976922Y-67719000D01*
X174823078Y-67719000D01*
X174672191Y-67749013D01*
X174530058Y-67807887D01*
X174402141Y-67893358D01*
X174293358Y-68002141D01*
X174207887Y-68130058D01*
X174149013Y-68272191D01*
X174128961Y-68373000D01*
X164127000Y-68373000D01*
X164127000Y-65627000D01*
X170738340Y-65627000D01*
X170785932Y-65741897D01*
G37*
%TD.AperFunction*%
%TD*%
M02*
