%TF.GenerationSoftware,KiCad,Pcbnew,(5.1.10)-1*%
%TF.CreationDate,2021-08-10T11:15:44+01:00*%
%TF.ProjectId,ocu2pciex8,6f637532-7063-4696-9578-382e6b696361,rev?*%
%TF.SameCoordinates,Original*%
%TF.FileFunction,Legend,Top*%
%TF.FilePolarity,Positive*%
%FSLAX46Y46*%
G04 Gerber Fmt 4.6, Leading zero omitted, Abs format (unit mm)*
G04 Created by KiCad (PCBNEW (5.1.10)-1) date 2021-08-10 11:15:44*
%MOMM*%
%LPD*%
G01*
G04 APERTURE LIST*
%ADD10C,0.150000*%
%ADD11C,0.180000*%
%ADD12C,0.152400*%
G04 APERTURE END LIST*
D10*
%TO.C,J1*%
X91000000Y-55775000D02*
X92160000Y-55775000D01*
X91000000Y-69225000D02*
X92160000Y-69225000D01*
X94360000Y-55775000D02*
X97090000Y-55775000D01*
X94360000Y-69225000D02*
X97090000Y-69225000D01*
X100000000Y-55775000D02*
X98870000Y-55775000D01*
X100000000Y-69225000D02*
X100000000Y-55775000D01*
X98870000Y-69225000D02*
X100000000Y-69225000D01*
D11*
%TO.C,R10*%
X92912258Y-71477500D02*
X92437742Y-71477500D01*
X92912258Y-72522500D02*
X92437742Y-72522500D01*
%TO.C,U1*%
X176285000Y-63015000D02*
X176760000Y-63015000D01*
X176760000Y-63015000D02*
X176760000Y-63490000D01*
X173015000Y-67235000D02*
X172540000Y-67235000D01*
X172540000Y-67235000D02*
X172540000Y-66760000D01*
X176285000Y-67235000D02*
X176760000Y-67235000D01*
X176760000Y-67235000D02*
X176760000Y-66760000D01*
X173015000Y-63015000D02*
X172540000Y-63015000D01*
%TO.C,J3*%
X140250000Y-64300000D02*
X140250000Y-54700000D01*
X153050000Y-64300000D02*
X140250000Y-64300000D01*
X153050000Y-54700000D02*
X153050000Y-64300000D01*
X140250000Y-54700000D02*
X153050000Y-54700000D01*
X143250000Y-57750000D02*
X140250000Y-57750000D01*
X143250000Y-61250000D02*
X143250000Y-57750000D01*
X140250000Y-61250000D02*
X143250000Y-61250000D01*
%TO.C,R9*%
X167672500Y-60237258D02*
X167672500Y-59762742D01*
X166627500Y-60237258D02*
X166627500Y-59762742D01*
%TO.C,R8*%
X169172500Y-63237258D02*
X169172500Y-62762742D01*
X168127500Y-63237258D02*
X168127500Y-62762742D01*
%TO.C,R7*%
X172172500Y-60237258D02*
X172172500Y-59762742D01*
X171127500Y-60237258D02*
X171127500Y-59762742D01*
%TO.C,R6*%
X177127500Y-59762742D02*
X177127500Y-60237258D01*
X178172500Y-59762742D02*
X178172500Y-60237258D01*
%TO.C,R5*%
X176672500Y-60237258D02*
X176672500Y-59762742D01*
X175627500Y-60237258D02*
X175627500Y-59762742D01*
%TO.C,R4*%
X175172500Y-60237258D02*
X175172500Y-59762742D01*
X174127500Y-60237258D02*
X174127500Y-59762742D01*
%TO.C,R3*%
X181627500Y-57012742D02*
X181627500Y-57487258D01*
X182672500Y-57012742D02*
X182672500Y-57487258D01*
%TO.C,R2*%
X181172500Y-57487258D02*
X181172500Y-57012742D01*
X180127500Y-57487258D02*
X180127500Y-57012742D01*
%TO.C,R1*%
X163912742Y-59772500D02*
X164387258Y-59772500D01*
X163912742Y-58727500D02*
X164387258Y-58727500D01*
%TO.C,Q3*%
X186730000Y-56490000D02*
X186730000Y-57950000D01*
X183570000Y-56490000D02*
X183570000Y-58650000D01*
X183570000Y-56490000D02*
X184500000Y-56490000D01*
X186730000Y-56490000D02*
X185800000Y-56490000D01*
%TO.C,Q2*%
X165730000Y-61240000D02*
X165730000Y-62700000D01*
X162570000Y-61240000D02*
X162570000Y-63400000D01*
X162570000Y-61240000D02*
X163500000Y-61240000D01*
X165730000Y-61240000D02*
X164800000Y-61240000D01*
%TO.C,Q1*%
X161460000Y-60500000D02*
X161460000Y-57050000D01*
X161460000Y-60500000D02*
X161460000Y-62450000D01*
X156340000Y-60500000D02*
X156340000Y-58550000D01*
X156340000Y-60500000D02*
X156340000Y-62450000D01*
%TO.C,L1*%
X164375000Y-72275000D02*
X165635500Y-72275000D01*
X164375000Y-65725000D02*
X164375000Y-72275000D01*
X165635500Y-65725000D02*
X164375000Y-65725000D01*
X170925000Y-72275000D02*
X169664500Y-72275000D01*
X170925000Y-65725000D02*
X170925000Y-72275000D01*
X169664500Y-65725000D02*
X170925000Y-65725000D01*
%TO.C,J2*%
X107610000Y-66250000D02*
X107610000Y-73750000D01*
X163610000Y-66250000D02*
X163610000Y-73750000D01*
X164332540Y-71258000D02*
G75*
G03*
X164332540Y-71258000I-73540J0D01*
G01*
%TO.C,C8*%
X174510000Y-71711252D02*
X174510000Y-70288748D01*
X171790000Y-71711252D02*
X171790000Y-70288748D01*
%TO.C,C7*%
X168140000Y-59859420D02*
X168140000Y-60140580D01*
X169160000Y-59859420D02*
X169160000Y-60140580D01*
%TO.C,C10*%
X181510000Y-71711252D02*
X181510000Y-70288748D01*
X178790000Y-71711252D02*
X178790000Y-70288748D01*
%TO.C,C9*%
X178010000Y-71711252D02*
X178010000Y-70288748D01*
X175290000Y-71711252D02*
X175290000Y-70288748D01*
%TO.C,C6*%
X170660000Y-60140580D02*
X170660000Y-59859420D01*
X169640000Y-60140580D02*
X169640000Y-59859420D01*
%TO.C,C5*%
X178140000Y-66109420D02*
X178140000Y-66390580D01*
X179160000Y-66109420D02*
X179160000Y-66390580D01*
%TO.C,C4*%
X173660000Y-60140580D02*
X173660000Y-59859420D01*
X172640000Y-60140580D02*
X172640000Y-59859420D01*
%TO.C,C3*%
X169640000Y-62859420D02*
X169640000Y-63140580D01*
X170660000Y-62859420D02*
X170660000Y-63140580D01*
%TO.C,C2*%
X183790000Y-62288748D02*
X183790000Y-63711252D01*
X186510000Y-62288748D02*
X186510000Y-63711252D01*
%TO.C,C1*%
X180290000Y-62288748D02*
X180290000Y-63711252D01*
X183010000Y-62288748D02*
X183010000Y-63711252D01*
%TO.C,R10*%
D12*
X92185142Y-73744714D02*
X91931142Y-73381857D01*
X91749714Y-73744714D02*
X91749714Y-72982714D01*
X92040000Y-72982714D01*
X92112571Y-73019000D01*
X92148857Y-73055285D01*
X92185142Y-73127857D01*
X92185142Y-73236714D01*
X92148857Y-73309285D01*
X92112571Y-73345571D01*
X92040000Y-73381857D01*
X91749714Y-73381857D01*
X92910857Y-73744714D02*
X92475428Y-73744714D01*
X92693142Y-73744714D02*
X92693142Y-72982714D01*
X92620571Y-73091571D01*
X92548000Y-73164142D01*
X92475428Y-73200428D01*
X93382571Y-72982714D02*
X93455142Y-72982714D01*
X93527714Y-73019000D01*
X93564000Y-73055285D01*
X93600285Y-73127857D01*
X93636571Y-73273000D01*
X93636571Y-73454428D01*
X93600285Y-73599571D01*
X93564000Y-73672142D01*
X93527714Y-73708428D01*
X93455142Y-73744714D01*
X93382571Y-73744714D01*
X93310000Y-73708428D01*
X93273714Y-73672142D01*
X93237428Y-73599571D01*
X93201142Y-73454428D01*
X93201142Y-73273000D01*
X93237428Y-73127857D01*
X93273714Y-73055285D01*
X93310000Y-73019000D01*
X93382571Y-72982714D01*
%TO.C,U1*%
X174069428Y-61582714D02*
X174069428Y-62199571D01*
X174105714Y-62272142D01*
X174142000Y-62308428D01*
X174214571Y-62344714D01*
X174359714Y-62344714D01*
X174432285Y-62308428D01*
X174468571Y-62272142D01*
X174504857Y-62199571D01*
X174504857Y-61582714D01*
X175266857Y-62344714D02*
X174831428Y-62344714D01*
X175049142Y-62344714D02*
X175049142Y-61582714D01*
X174976571Y-61691571D01*
X174904000Y-61764142D01*
X174831428Y-61800428D01*
%TO.C,J3*%
X139304428Y-61713428D02*
X139304428Y-61132857D01*
X139594714Y-61423142D02*
X139014142Y-61423142D01*
X139594714Y-60370857D02*
X139594714Y-60806285D01*
X139594714Y-60588571D02*
X138832714Y-60588571D01*
X138941571Y-60661142D01*
X139014142Y-60733714D01*
X139050428Y-60806285D01*
X138905285Y-60080571D02*
X138869000Y-60044285D01*
X138832714Y-59971714D01*
X138832714Y-59790285D01*
X138869000Y-59717714D01*
X138905285Y-59681428D01*
X138977857Y-59645142D01*
X139050428Y-59645142D01*
X139159285Y-59681428D01*
X139594714Y-60116857D01*
X139594714Y-59645142D01*
X138832714Y-59427428D02*
X139594714Y-59173428D01*
X138832714Y-58919428D01*
X139594714Y-58084857D02*
X138832714Y-58084857D01*
X139594714Y-57722000D02*
X138832714Y-57722000D01*
X139594714Y-57286571D01*
X138832714Y-57286571D01*
%TO.C,R9*%
X167494714Y-57877000D02*
X167131857Y-58131000D01*
X167494714Y-58312428D02*
X166732714Y-58312428D01*
X166732714Y-58022142D01*
X166769000Y-57949571D01*
X166805285Y-57913285D01*
X166877857Y-57877000D01*
X166986714Y-57877000D01*
X167059285Y-57913285D01*
X167095571Y-57949571D01*
X167131857Y-58022142D01*
X167131857Y-58312428D01*
X167494714Y-57514142D02*
X167494714Y-57369000D01*
X167458428Y-57296428D01*
X167422142Y-57260142D01*
X167313285Y-57187571D01*
X167168142Y-57151285D01*
X166877857Y-57151285D01*
X166805285Y-57187571D01*
X166769000Y-57223857D01*
X166732714Y-57296428D01*
X166732714Y-57441571D01*
X166769000Y-57514142D01*
X166805285Y-57550428D01*
X166877857Y-57586714D01*
X167059285Y-57586714D01*
X167131857Y-57550428D01*
X167168142Y-57514142D01*
X167204428Y-57441571D01*
X167204428Y-57296428D01*
X167168142Y-57223857D01*
X167131857Y-57187571D01*
X167059285Y-57151285D01*
%TO.C,R8*%
X167744714Y-63127000D02*
X167381857Y-63381000D01*
X167744714Y-63562428D02*
X166982714Y-63562428D01*
X166982714Y-63272142D01*
X167019000Y-63199571D01*
X167055285Y-63163285D01*
X167127857Y-63127000D01*
X167236714Y-63127000D01*
X167309285Y-63163285D01*
X167345571Y-63199571D01*
X167381857Y-63272142D01*
X167381857Y-63562428D01*
X167309285Y-62691571D02*
X167273000Y-62764142D01*
X167236714Y-62800428D01*
X167164142Y-62836714D01*
X167127857Y-62836714D01*
X167055285Y-62800428D01*
X167019000Y-62764142D01*
X166982714Y-62691571D01*
X166982714Y-62546428D01*
X167019000Y-62473857D01*
X167055285Y-62437571D01*
X167127857Y-62401285D01*
X167164142Y-62401285D01*
X167236714Y-62437571D01*
X167273000Y-62473857D01*
X167309285Y-62546428D01*
X167309285Y-62691571D01*
X167345571Y-62764142D01*
X167381857Y-62800428D01*
X167454428Y-62836714D01*
X167599571Y-62836714D01*
X167672142Y-62800428D01*
X167708428Y-62764142D01*
X167744714Y-62691571D01*
X167744714Y-62546428D01*
X167708428Y-62473857D01*
X167672142Y-62437571D01*
X167599571Y-62401285D01*
X167454428Y-62401285D01*
X167381857Y-62437571D01*
X167345571Y-62473857D01*
X167309285Y-62546428D01*
%TO.C,R7*%
X171994714Y-57877000D02*
X171631857Y-58131000D01*
X171994714Y-58312428D02*
X171232714Y-58312428D01*
X171232714Y-58022142D01*
X171269000Y-57949571D01*
X171305285Y-57913285D01*
X171377857Y-57877000D01*
X171486714Y-57877000D01*
X171559285Y-57913285D01*
X171595571Y-57949571D01*
X171631857Y-58022142D01*
X171631857Y-58312428D01*
X171232714Y-57623000D02*
X171232714Y-57115000D01*
X171994714Y-57441571D01*
%TO.C,R6*%
X177994714Y-57877000D02*
X177631857Y-58131000D01*
X177994714Y-58312428D02*
X177232714Y-58312428D01*
X177232714Y-58022142D01*
X177269000Y-57949571D01*
X177305285Y-57913285D01*
X177377857Y-57877000D01*
X177486714Y-57877000D01*
X177559285Y-57913285D01*
X177595571Y-57949571D01*
X177631857Y-58022142D01*
X177631857Y-58312428D01*
X177232714Y-57223857D02*
X177232714Y-57369000D01*
X177269000Y-57441571D01*
X177305285Y-57477857D01*
X177414142Y-57550428D01*
X177559285Y-57586714D01*
X177849571Y-57586714D01*
X177922142Y-57550428D01*
X177958428Y-57514142D01*
X177994714Y-57441571D01*
X177994714Y-57296428D01*
X177958428Y-57223857D01*
X177922142Y-57187571D01*
X177849571Y-57151285D01*
X177668142Y-57151285D01*
X177595571Y-57187571D01*
X177559285Y-57223857D01*
X177523000Y-57296428D01*
X177523000Y-57441571D01*
X177559285Y-57514142D01*
X177595571Y-57550428D01*
X177668142Y-57586714D01*
%TO.C,R5*%
X176494714Y-57877000D02*
X176131857Y-58131000D01*
X176494714Y-58312428D02*
X175732714Y-58312428D01*
X175732714Y-58022142D01*
X175769000Y-57949571D01*
X175805285Y-57913285D01*
X175877857Y-57877000D01*
X175986714Y-57877000D01*
X176059285Y-57913285D01*
X176095571Y-57949571D01*
X176131857Y-58022142D01*
X176131857Y-58312428D01*
X175732714Y-57187571D02*
X175732714Y-57550428D01*
X176095571Y-57586714D01*
X176059285Y-57550428D01*
X176023000Y-57477857D01*
X176023000Y-57296428D01*
X176059285Y-57223857D01*
X176095571Y-57187571D01*
X176168142Y-57151285D01*
X176349571Y-57151285D01*
X176422142Y-57187571D01*
X176458428Y-57223857D01*
X176494714Y-57296428D01*
X176494714Y-57477857D01*
X176458428Y-57550428D01*
X176422142Y-57586714D01*
%TO.C,R4*%
X174994714Y-57877000D02*
X174631857Y-58131000D01*
X174994714Y-58312428D02*
X174232714Y-58312428D01*
X174232714Y-58022142D01*
X174269000Y-57949571D01*
X174305285Y-57913285D01*
X174377857Y-57877000D01*
X174486714Y-57877000D01*
X174559285Y-57913285D01*
X174595571Y-57949571D01*
X174631857Y-58022142D01*
X174631857Y-58312428D01*
X174486714Y-57223857D02*
X174994714Y-57223857D01*
X174196428Y-57405285D02*
X174740714Y-57586714D01*
X174740714Y-57115000D01*
%TO.C,R3*%
X182494714Y-59627000D02*
X182131857Y-59881000D01*
X182494714Y-60062428D02*
X181732714Y-60062428D01*
X181732714Y-59772142D01*
X181769000Y-59699571D01*
X181805285Y-59663285D01*
X181877857Y-59627000D01*
X181986714Y-59627000D01*
X182059285Y-59663285D01*
X182095571Y-59699571D01*
X182131857Y-59772142D01*
X182131857Y-60062428D01*
X181732714Y-59373000D02*
X181732714Y-58901285D01*
X182023000Y-59155285D01*
X182023000Y-59046428D01*
X182059285Y-58973857D01*
X182095571Y-58937571D01*
X182168142Y-58901285D01*
X182349571Y-58901285D01*
X182422142Y-58937571D01*
X182458428Y-58973857D01*
X182494714Y-59046428D01*
X182494714Y-59264142D01*
X182458428Y-59336714D01*
X182422142Y-59373000D01*
%TO.C,R2*%
X180994714Y-59627000D02*
X180631857Y-59881000D01*
X180994714Y-60062428D02*
X180232714Y-60062428D01*
X180232714Y-59772142D01*
X180269000Y-59699571D01*
X180305285Y-59663285D01*
X180377857Y-59627000D01*
X180486714Y-59627000D01*
X180559285Y-59663285D01*
X180595571Y-59699571D01*
X180631857Y-59772142D01*
X180631857Y-60062428D01*
X180305285Y-59336714D02*
X180269000Y-59300428D01*
X180232714Y-59227857D01*
X180232714Y-59046428D01*
X180269000Y-58973857D01*
X180305285Y-58937571D01*
X180377857Y-58901285D01*
X180450428Y-58901285D01*
X180559285Y-58937571D01*
X180994714Y-59373000D01*
X180994714Y-58901285D01*
%TO.C,R1*%
X164023000Y-58164714D02*
X163769000Y-57801857D01*
X163587571Y-58164714D02*
X163587571Y-57402714D01*
X163877857Y-57402714D01*
X163950428Y-57439000D01*
X163986714Y-57475285D01*
X164023000Y-57547857D01*
X164023000Y-57656714D01*
X163986714Y-57729285D01*
X163950428Y-57765571D01*
X163877857Y-57801857D01*
X163587571Y-57801857D01*
X164748714Y-58164714D02*
X164313285Y-58164714D01*
X164531000Y-58164714D02*
X164531000Y-57402714D01*
X164458428Y-57511571D01*
X164385857Y-57584142D01*
X164313285Y-57620428D01*
%TO.C,Q3*%
X185077428Y-59917285D02*
X185004857Y-59881000D01*
X184932285Y-59808428D01*
X184823428Y-59699571D01*
X184750857Y-59663285D01*
X184678285Y-59663285D01*
X184714571Y-59844714D02*
X184642000Y-59808428D01*
X184569428Y-59735857D01*
X184533142Y-59590714D01*
X184533142Y-59336714D01*
X184569428Y-59191571D01*
X184642000Y-59119000D01*
X184714571Y-59082714D01*
X184859714Y-59082714D01*
X184932285Y-59119000D01*
X185004857Y-59191571D01*
X185041142Y-59336714D01*
X185041142Y-59590714D01*
X185004857Y-59735857D01*
X184932285Y-59808428D01*
X184859714Y-59844714D01*
X184714571Y-59844714D01*
X185295142Y-59082714D02*
X185766857Y-59082714D01*
X185512857Y-59373000D01*
X185621714Y-59373000D01*
X185694285Y-59409285D01*
X185730571Y-59445571D01*
X185766857Y-59518142D01*
X185766857Y-59699571D01*
X185730571Y-59772142D01*
X185694285Y-59808428D01*
X185621714Y-59844714D01*
X185404000Y-59844714D01*
X185331428Y-59808428D01*
X185295142Y-59772142D01*
%TO.C,Q2*%
X162827428Y-64917285D02*
X162754857Y-64881000D01*
X162682285Y-64808428D01*
X162573428Y-64699571D01*
X162500857Y-64663285D01*
X162428285Y-64663285D01*
X162464571Y-64844714D02*
X162392000Y-64808428D01*
X162319428Y-64735857D01*
X162283142Y-64590714D01*
X162283142Y-64336714D01*
X162319428Y-64191571D01*
X162392000Y-64119000D01*
X162464571Y-64082714D01*
X162609714Y-64082714D01*
X162682285Y-64119000D01*
X162754857Y-64191571D01*
X162791142Y-64336714D01*
X162791142Y-64590714D01*
X162754857Y-64735857D01*
X162682285Y-64808428D01*
X162609714Y-64844714D01*
X162464571Y-64844714D01*
X163081428Y-64155285D02*
X163117714Y-64119000D01*
X163190285Y-64082714D01*
X163371714Y-64082714D01*
X163444285Y-64119000D01*
X163480571Y-64155285D01*
X163516857Y-64227857D01*
X163516857Y-64300428D01*
X163480571Y-64409285D01*
X163045142Y-64844714D01*
X163516857Y-64844714D01*
%TO.C,Q1*%
X156827428Y-56417285D02*
X156754857Y-56381000D01*
X156682285Y-56308428D01*
X156573428Y-56199571D01*
X156500857Y-56163285D01*
X156428285Y-56163285D01*
X156464571Y-56344714D02*
X156392000Y-56308428D01*
X156319428Y-56235857D01*
X156283142Y-56090714D01*
X156283142Y-55836714D01*
X156319428Y-55691571D01*
X156392000Y-55619000D01*
X156464571Y-55582714D01*
X156609714Y-55582714D01*
X156682285Y-55619000D01*
X156754857Y-55691571D01*
X156791142Y-55836714D01*
X156791142Y-56090714D01*
X156754857Y-56235857D01*
X156682285Y-56308428D01*
X156609714Y-56344714D01*
X156464571Y-56344714D01*
X157516857Y-56344714D02*
X157081428Y-56344714D01*
X157299142Y-56344714D02*
X157299142Y-55582714D01*
X157226571Y-55691571D01*
X157154000Y-55764142D01*
X157081428Y-55800428D01*
%TO.C,L1*%
X164773000Y-65344714D02*
X164410142Y-65344714D01*
X164410142Y-64582714D01*
X165426142Y-65344714D02*
X164990714Y-65344714D01*
X165208428Y-65344714D02*
X165208428Y-64582714D01*
X165135857Y-64691571D01*
X165063285Y-64764142D01*
X164990714Y-64800428D01*
%TO.C,C8*%
X173023000Y-68522142D02*
X172986714Y-68558428D01*
X172877857Y-68594714D01*
X172805285Y-68594714D01*
X172696428Y-68558428D01*
X172623857Y-68485857D01*
X172587571Y-68413285D01*
X172551285Y-68268142D01*
X172551285Y-68159285D01*
X172587571Y-68014142D01*
X172623857Y-67941571D01*
X172696428Y-67869000D01*
X172805285Y-67832714D01*
X172877857Y-67832714D01*
X172986714Y-67869000D01*
X173023000Y-67905285D01*
X173458428Y-68159285D02*
X173385857Y-68123000D01*
X173349571Y-68086714D01*
X173313285Y-68014142D01*
X173313285Y-67977857D01*
X173349571Y-67905285D01*
X173385857Y-67869000D01*
X173458428Y-67832714D01*
X173603571Y-67832714D01*
X173676142Y-67869000D01*
X173712428Y-67905285D01*
X173748714Y-67977857D01*
X173748714Y-68014142D01*
X173712428Y-68086714D01*
X173676142Y-68123000D01*
X173603571Y-68159285D01*
X173458428Y-68159285D01*
X173385857Y-68195571D01*
X173349571Y-68231857D01*
X173313285Y-68304428D01*
X173313285Y-68449571D01*
X173349571Y-68522142D01*
X173385857Y-68558428D01*
X173458428Y-68594714D01*
X173603571Y-68594714D01*
X173676142Y-68558428D01*
X173712428Y-68522142D01*
X173748714Y-68449571D01*
X173748714Y-68304428D01*
X173712428Y-68231857D01*
X173676142Y-68195571D01*
X173603571Y-68159285D01*
%TO.C,C7*%
X168922142Y-57877000D02*
X168958428Y-57913285D01*
X168994714Y-58022142D01*
X168994714Y-58094714D01*
X168958428Y-58203571D01*
X168885857Y-58276142D01*
X168813285Y-58312428D01*
X168668142Y-58348714D01*
X168559285Y-58348714D01*
X168414142Y-58312428D01*
X168341571Y-58276142D01*
X168269000Y-58203571D01*
X168232714Y-58094714D01*
X168232714Y-58022142D01*
X168269000Y-57913285D01*
X168305285Y-57877000D01*
X168232714Y-57623000D02*
X168232714Y-57115000D01*
X168994714Y-57441571D01*
%TO.C,C10*%
X179660142Y-68522142D02*
X179623857Y-68558428D01*
X179515000Y-68594714D01*
X179442428Y-68594714D01*
X179333571Y-68558428D01*
X179261000Y-68485857D01*
X179224714Y-68413285D01*
X179188428Y-68268142D01*
X179188428Y-68159285D01*
X179224714Y-68014142D01*
X179261000Y-67941571D01*
X179333571Y-67869000D01*
X179442428Y-67832714D01*
X179515000Y-67832714D01*
X179623857Y-67869000D01*
X179660142Y-67905285D01*
X180385857Y-68594714D02*
X179950428Y-68594714D01*
X180168142Y-68594714D02*
X180168142Y-67832714D01*
X180095571Y-67941571D01*
X180023000Y-68014142D01*
X179950428Y-68050428D01*
X180857571Y-67832714D02*
X180930142Y-67832714D01*
X181002714Y-67869000D01*
X181039000Y-67905285D01*
X181075285Y-67977857D01*
X181111571Y-68123000D01*
X181111571Y-68304428D01*
X181075285Y-68449571D01*
X181039000Y-68522142D01*
X181002714Y-68558428D01*
X180930142Y-68594714D01*
X180857571Y-68594714D01*
X180785000Y-68558428D01*
X180748714Y-68522142D01*
X180712428Y-68449571D01*
X180676142Y-68304428D01*
X180676142Y-68123000D01*
X180712428Y-67977857D01*
X180748714Y-67905285D01*
X180785000Y-67869000D01*
X180857571Y-67832714D01*
%TO.C,C9*%
X176523000Y-68522142D02*
X176486714Y-68558428D01*
X176377857Y-68594714D01*
X176305285Y-68594714D01*
X176196428Y-68558428D01*
X176123857Y-68485857D01*
X176087571Y-68413285D01*
X176051285Y-68268142D01*
X176051285Y-68159285D01*
X176087571Y-68014142D01*
X176123857Y-67941571D01*
X176196428Y-67869000D01*
X176305285Y-67832714D01*
X176377857Y-67832714D01*
X176486714Y-67869000D01*
X176523000Y-67905285D01*
X176885857Y-68594714D02*
X177031000Y-68594714D01*
X177103571Y-68558428D01*
X177139857Y-68522142D01*
X177212428Y-68413285D01*
X177248714Y-68268142D01*
X177248714Y-67977857D01*
X177212428Y-67905285D01*
X177176142Y-67869000D01*
X177103571Y-67832714D01*
X176958428Y-67832714D01*
X176885857Y-67869000D01*
X176849571Y-67905285D01*
X176813285Y-67977857D01*
X176813285Y-68159285D01*
X176849571Y-68231857D01*
X176885857Y-68268142D01*
X176958428Y-68304428D01*
X177103571Y-68304428D01*
X177176142Y-68268142D01*
X177212428Y-68231857D01*
X177248714Y-68159285D01*
%TO.C,C6*%
X170422142Y-57877000D02*
X170458428Y-57913285D01*
X170494714Y-58022142D01*
X170494714Y-58094714D01*
X170458428Y-58203571D01*
X170385857Y-58276142D01*
X170313285Y-58312428D01*
X170168142Y-58348714D01*
X170059285Y-58348714D01*
X169914142Y-58312428D01*
X169841571Y-58276142D01*
X169769000Y-58203571D01*
X169732714Y-58094714D01*
X169732714Y-58022142D01*
X169769000Y-57913285D01*
X169805285Y-57877000D01*
X169732714Y-57223857D02*
X169732714Y-57369000D01*
X169769000Y-57441571D01*
X169805285Y-57477857D01*
X169914142Y-57550428D01*
X170059285Y-57586714D01*
X170349571Y-57586714D01*
X170422142Y-57550428D01*
X170458428Y-57514142D01*
X170494714Y-57441571D01*
X170494714Y-57296428D01*
X170458428Y-57223857D01*
X170422142Y-57187571D01*
X170349571Y-57151285D01*
X170168142Y-57151285D01*
X170095571Y-57187571D01*
X170059285Y-57223857D01*
X170023000Y-57296428D01*
X170023000Y-57441571D01*
X170059285Y-57514142D01*
X170095571Y-57550428D01*
X170168142Y-57586714D01*
%TO.C,C5*%
X180352142Y-66377000D02*
X180388428Y-66413285D01*
X180424714Y-66522142D01*
X180424714Y-66594714D01*
X180388428Y-66703571D01*
X180315857Y-66776142D01*
X180243285Y-66812428D01*
X180098142Y-66848714D01*
X179989285Y-66848714D01*
X179844142Y-66812428D01*
X179771571Y-66776142D01*
X179699000Y-66703571D01*
X179662714Y-66594714D01*
X179662714Y-66522142D01*
X179699000Y-66413285D01*
X179735285Y-66377000D01*
X179662714Y-65687571D02*
X179662714Y-66050428D01*
X180025571Y-66086714D01*
X179989285Y-66050428D01*
X179953000Y-65977857D01*
X179953000Y-65796428D01*
X179989285Y-65723857D01*
X180025571Y-65687571D01*
X180098142Y-65651285D01*
X180279571Y-65651285D01*
X180352142Y-65687571D01*
X180388428Y-65723857D01*
X180424714Y-65796428D01*
X180424714Y-65977857D01*
X180388428Y-66050428D01*
X180352142Y-66086714D01*
%TO.C,C4*%
X173422142Y-57877000D02*
X173458428Y-57913285D01*
X173494714Y-58022142D01*
X173494714Y-58094714D01*
X173458428Y-58203571D01*
X173385857Y-58276142D01*
X173313285Y-58312428D01*
X173168142Y-58348714D01*
X173059285Y-58348714D01*
X172914142Y-58312428D01*
X172841571Y-58276142D01*
X172769000Y-58203571D01*
X172732714Y-58094714D01*
X172732714Y-58022142D01*
X172769000Y-57913285D01*
X172805285Y-57877000D01*
X172986714Y-57223857D02*
X173494714Y-57223857D01*
X172696428Y-57405285D02*
X173240714Y-57586714D01*
X173240714Y-57115000D01*
%TO.C,C3*%
X171772142Y-63127000D02*
X171808428Y-63163285D01*
X171844714Y-63272142D01*
X171844714Y-63344714D01*
X171808428Y-63453571D01*
X171735857Y-63526142D01*
X171663285Y-63562428D01*
X171518142Y-63598714D01*
X171409285Y-63598714D01*
X171264142Y-63562428D01*
X171191571Y-63526142D01*
X171119000Y-63453571D01*
X171082714Y-63344714D01*
X171082714Y-63272142D01*
X171119000Y-63163285D01*
X171155285Y-63127000D01*
X171082714Y-62873000D02*
X171082714Y-62401285D01*
X171373000Y-62655285D01*
X171373000Y-62546428D01*
X171409285Y-62473857D01*
X171445571Y-62437571D01*
X171518142Y-62401285D01*
X171699571Y-62401285D01*
X171772142Y-62437571D01*
X171808428Y-62473857D01*
X171844714Y-62546428D01*
X171844714Y-62764142D01*
X171808428Y-62836714D01*
X171772142Y-62873000D01*
%TO.C,C2*%
X187672142Y-63127000D02*
X187708428Y-63163285D01*
X187744714Y-63272142D01*
X187744714Y-63344714D01*
X187708428Y-63453571D01*
X187635857Y-63526142D01*
X187563285Y-63562428D01*
X187418142Y-63598714D01*
X187309285Y-63598714D01*
X187164142Y-63562428D01*
X187091571Y-63526142D01*
X187019000Y-63453571D01*
X186982714Y-63344714D01*
X186982714Y-63272142D01*
X187019000Y-63163285D01*
X187055285Y-63127000D01*
X187055285Y-62836714D02*
X187019000Y-62800428D01*
X186982714Y-62727857D01*
X186982714Y-62546428D01*
X187019000Y-62473857D01*
X187055285Y-62437571D01*
X187127857Y-62401285D01*
X187200428Y-62401285D01*
X187309285Y-62437571D01*
X187744714Y-62873000D01*
X187744714Y-62401285D01*
%TO.C,C1*%
X179672142Y-63127000D02*
X179708428Y-63163285D01*
X179744714Y-63272142D01*
X179744714Y-63344714D01*
X179708428Y-63453571D01*
X179635857Y-63526142D01*
X179563285Y-63562428D01*
X179418142Y-63598714D01*
X179309285Y-63598714D01*
X179164142Y-63562428D01*
X179091571Y-63526142D01*
X179019000Y-63453571D01*
X178982714Y-63344714D01*
X178982714Y-63272142D01*
X179019000Y-63163285D01*
X179055285Y-63127000D01*
X179744714Y-62401285D02*
X179744714Y-62836714D01*
X179744714Y-62619000D02*
X178982714Y-62619000D01*
X179091571Y-62691571D01*
X179164142Y-62764142D01*
X179200428Y-62836714D01*
%TD*%
M02*
