%TF.GenerationSoftware,KiCad,Pcbnew,(5.1.10)-1*%
%TF.CreationDate,2021-08-10T11:15:44+01:00*%
%TF.ProjectId,ocu2pciex8,6f637532-7063-4696-9578-382e6b696361,rev?*%
%TF.SameCoordinates,Original*%
%TF.FileFunction,Copper,L4,Bot*%
%TF.FilePolarity,Positive*%
%FSLAX46Y46*%
G04 Gerber Fmt 4.6, Leading zero omitted, Abs format (unit mm)*
G04 Created by KiCad (PCBNEW (5.1.10)-1) date 2021-08-10 11:15:44*
%MOMM*%
%LPD*%
G01*
G04 APERTURE LIST*
%TA.AperFunction,NonConductor*%
%ADD10C,0.300000*%
%TD*%
%TA.AperFunction,EtchedComponent*%
%ADD11C,1.400000*%
%TD*%
%TA.AperFunction,ComponentPad*%
%ADD12C,0.800000*%
%TD*%
%TA.AperFunction,ComponentPad*%
%ADD13C,3.000000*%
%TD*%
%TA.AperFunction,ComponentPad*%
%ADD14C,1.000000*%
%TD*%
%TA.AperFunction,ViaPad*%
%ADD15C,0.600000*%
%TD*%
%TA.AperFunction,ViaPad*%
%ADD16C,0.800000*%
%TD*%
%TA.AperFunction,Conductor*%
%ADD17C,0.152400*%
%TD*%
%TA.AperFunction,Conductor*%
%ADD18C,0.250000*%
%TD*%
G04 APERTURE END LIST*
D10*
X175571428Y-57678571D02*
X175571428Y-56178571D01*
X175071428Y-57250000D01*
X174571428Y-56178571D01*
X174571428Y-57678571D01*
X173214285Y-57678571D02*
X173214285Y-56892857D01*
X173285714Y-56750000D01*
X173428571Y-56678571D01*
X173714285Y-56678571D01*
X173857142Y-56750000D01*
X173214285Y-57607142D02*
X173357142Y-57678571D01*
X173714285Y-57678571D01*
X173857142Y-57607142D01*
X173928571Y-57464285D01*
X173928571Y-57321428D01*
X173857142Y-57178571D01*
X173714285Y-57107142D01*
X173357142Y-57107142D01*
X173214285Y-57035714D01*
X172714285Y-56678571D02*
X172142857Y-56678571D01*
X172500000Y-56178571D02*
X172500000Y-57464285D01*
X172428571Y-57607142D01*
X172285714Y-57678571D01*
X172142857Y-57678571D01*
X171857142Y-56678571D02*
X171285714Y-56678571D01*
X171642857Y-56178571D02*
X171642857Y-57464285D01*
X171571428Y-57607142D01*
X171428571Y-57678571D01*
X171285714Y-57678571D01*
X170785714Y-57678571D02*
X170785714Y-56178571D01*
X170142857Y-57678571D02*
X170142857Y-56892857D01*
X170214285Y-56750000D01*
X170357142Y-56678571D01*
X170571428Y-56678571D01*
X170714285Y-56750000D01*
X170785714Y-56821428D01*
X168857142Y-57607142D02*
X169000000Y-57678571D01*
X169285714Y-57678571D01*
X169428571Y-57607142D01*
X169500000Y-57464285D01*
X169500000Y-56892857D01*
X169428571Y-56750000D01*
X169285714Y-56678571D01*
X169000000Y-56678571D01*
X168857142Y-56750000D01*
X168785714Y-56892857D01*
X168785714Y-57035714D01*
X169500000Y-57178571D01*
X168285714Y-56678571D02*
X168000000Y-57678571D01*
X167714285Y-56964285D01*
X167428571Y-57678571D01*
X167142857Y-56678571D01*
X165428571Y-57678571D02*
X165428571Y-56178571D01*
X164928571Y-57250000D01*
X164428571Y-56178571D01*
X164428571Y-57678571D01*
X163714285Y-57678571D02*
X163714285Y-56678571D01*
X163714285Y-56178571D02*
X163785714Y-56250000D01*
X163714285Y-56321428D01*
X163642857Y-56250000D01*
X163714285Y-56178571D01*
X163714285Y-56321428D01*
X162785714Y-57678571D02*
X162928571Y-57607142D01*
X163000000Y-57464285D01*
X163000000Y-56178571D01*
X162000000Y-57678571D02*
X162142857Y-57607142D01*
X162214285Y-57464285D01*
X162214285Y-56178571D01*
X161428571Y-57678571D02*
X161428571Y-56678571D01*
X161428571Y-56821428D02*
X161357142Y-56750000D01*
X161214285Y-56678571D01*
X161000000Y-56678571D01*
X160857142Y-56750000D01*
X160785714Y-56892857D01*
X160785714Y-57678571D01*
X160785714Y-56892857D02*
X160714285Y-56750000D01*
X160571428Y-56678571D01*
X160357142Y-56678571D01*
X160214285Y-56750000D01*
X160142857Y-56892857D01*
X160142857Y-57678571D01*
X158785714Y-57678571D02*
X158785714Y-56892857D01*
X158857142Y-56750000D01*
X159000000Y-56678571D01*
X159285714Y-56678571D01*
X159428571Y-56750000D01*
X158785714Y-57607142D02*
X158928571Y-57678571D01*
X159285714Y-57678571D01*
X159428571Y-57607142D01*
X159500000Y-57464285D01*
X159500000Y-57321428D01*
X159428571Y-57178571D01*
X159285714Y-57107142D01*
X158928571Y-57107142D01*
X158785714Y-57035714D01*
X158071428Y-56678571D02*
X158071428Y-57678571D01*
X158071428Y-56821428D02*
X158000000Y-56750000D01*
X157857142Y-56678571D01*
X157642857Y-56678571D01*
X157500000Y-56750000D01*
X157428571Y-56892857D01*
X157428571Y-57678571D01*
D11*
%TO.C,J5*%
X106300000Y-70000000D02*
G75*
G03*
X106300000Y-70000000I-2550000J0D01*
G01*
%TO.C,J4*%
X188050000Y-70000000D02*
G75*
G03*
X188050000Y-70000000I-2550000J0D01*
G01*
%TD*%
D12*
%TO.P,J5,1*%
%TO.N,GND*%
X103750000Y-67500000D03*
X106250000Y-70000000D03*
X103750000Y-72500000D03*
X101250000Y-70000000D03*
X102000000Y-68250000D03*
X105500000Y-68250000D03*
X105500000Y-71750000D03*
X102000000Y-71750000D03*
%TD*%
%TO.P,J4,1*%
%TO.N,GND*%
X185500000Y-67500000D03*
X188000000Y-70000000D03*
X185500000Y-72500000D03*
X183000000Y-70000000D03*
X183750000Y-68250000D03*
X187250000Y-68250000D03*
X187250000Y-71750000D03*
X183750000Y-71750000D03*
%TD*%
D13*
%TO.P,J3,1*%
%TO.N,GND*%
X154150000Y-61600000D03*
%TO.P,J3,2*%
%TO.N,+12VA*%
X154150000Y-57400000D03*
%TD*%
D14*
%TO.P,J2,A49*%
%TO.N,GND*%
X110810000Y-71250000D03*
%TO.P,J2,B49*%
X110810000Y-68750000D03*
%TO.P,J2,A48*%
%TO.N,Net-(J2-PadA48)*%
X111810000Y-73250000D03*
%TO.P,J2,B48*%
%TO.N,Net-(J2-PadB48)*%
X111810000Y-66750000D03*
%TO.P,J2,A47*%
%TO.N,Net-(J2-PadA47)*%
X112810000Y-71250000D03*
%TO.P,J2,B47*%
%TO.N,GND*%
X112810000Y-68750000D03*
%TO.P,J2,A46*%
X113810000Y-73250000D03*
%TO.P,J2,B46*%
%TO.N,Net-(J2-PadB46)*%
X113810000Y-66750000D03*
%TO.P,J2,A45*%
%TO.N,GND*%
X114810000Y-71250000D03*
%TO.P,J2,B45*%
%TO.N,Net-(J2-PadB45)*%
X114810000Y-68750000D03*
%TO.P,J2,A44*%
%TO.N,Net-(J2-PadA44)*%
X115810000Y-73250000D03*
%TO.P,J2,B44*%
%TO.N,GND*%
X115810000Y-66750000D03*
%TO.P,J2,A43*%
%TO.N,Net-(J2-PadA43)*%
X116810000Y-71250000D03*
%TO.P,J2,B43*%
%TO.N,GND*%
X116810000Y-68750000D03*
%TO.P,J2,A42*%
X117810000Y-73250000D03*
%TO.P,J2,B42*%
%TO.N,Net-(J2-PadB42)*%
X117810000Y-66750000D03*
%TO.P,J2,A41*%
%TO.N,GND*%
X118810000Y-71250000D03*
%TO.P,J2,B41*%
%TO.N,Net-(J2-PadB41)*%
X118810000Y-68750000D03*
%TO.P,J2,A40*%
%TO.N,Net-(J2-PadA40)*%
X119810000Y-73250000D03*
%TO.P,J2,B40*%
%TO.N,GND*%
X119810000Y-66750000D03*
%TO.P,J2,A39*%
%TO.N,Net-(J2-PadA39)*%
X120810000Y-71250000D03*
%TO.P,J2,B39*%
%TO.N,GND*%
X120810000Y-68750000D03*
%TO.P,J2,A38*%
X121810000Y-73250000D03*
%TO.P,J2,B38*%
%TO.N,Net-(J2-PadB38)*%
X121810000Y-66750000D03*
%TO.P,J2,A37*%
%TO.N,GND*%
X122810000Y-71250000D03*
%TO.P,J2,B37*%
%TO.N,Net-(J2-PadB37)*%
X122810000Y-68750000D03*
%TO.P,J2,A36*%
%TO.N,Net-(J2-PadA36)*%
X123810000Y-73250000D03*
%TO.P,J2,B36*%
%TO.N,GND*%
X123810000Y-66750000D03*
%TO.P,J2,A35*%
%TO.N,Net-(J2-PadA35)*%
X124810000Y-71250000D03*
%TO.P,J2,B35*%
%TO.N,GND*%
X124810000Y-68750000D03*
%TO.P,J2,A34*%
X125810000Y-73250000D03*
%TO.P,J2,B34*%
%TO.N,Net-(J2-PadB34)*%
X125810000Y-66750000D03*
%TO.P,J2,A33*%
%TO.N,Net-(J2-PadA33)*%
X126810000Y-71250000D03*
%TO.P,J2,B33*%
%TO.N,Net-(J2-PadB33)*%
X126810000Y-68750000D03*
%TO.P,J2,A32*%
%TO.N,Net-(J2-PadA32)*%
X127810000Y-73250000D03*
%TO.P,J2,B32*%
%TO.N,GND*%
X127810000Y-66750000D03*
%TO.P,J2,A31*%
X128810000Y-71250000D03*
%TO.P,J2,B31*%
%TO.N,Net-(J2-PadB31)*%
X128810000Y-68750000D03*
%TO.P,J2,A30*%
%TO.N,/X8_PER3_N*%
X129810000Y-73250000D03*
%TO.P,J2,B30*%
%TO.N,Net-(J2-PadB30)*%
X129810000Y-66750000D03*
%TO.P,J2,A29*%
%TO.N,/X8_PER3_P*%
X130810000Y-71250000D03*
%TO.P,J2,B29*%
%TO.N,GND*%
X130810000Y-68750000D03*
%TO.P,J2,A28*%
X131810000Y-73250000D03*
%TO.P,J2,B28*%
%TO.N,/X8_PET3_N*%
X131810000Y-66750000D03*
%TO.P,J2,A27*%
%TO.N,GND*%
X132810000Y-71250000D03*
%TO.P,J2,B27*%
%TO.N,/X8_PET3_P*%
X132810000Y-68750000D03*
%TO.P,J2,A26*%
%TO.N,/X8_PER2_N*%
X133810000Y-73250000D03*
%TO.P,J2,B26*%
%TO.N,GND*%
X133810000Y-66750000D03*
%TO.P,J2,A25*%
%TO.N,/X8_PER2_P*%
X134810000Y-71250000D03*
%TO.P,J2,B25*%
%TO.N,GND*%
X134810000Y-68750000D03*
%TO.P,J2,A24*%
X135810000Y-73250000D03*
%TO.P,J2,B24*%
%TO.N,/X8_PET2_N*%
X135810000Y-66750000D03*
%TO.P,J2,A23*%
%TO.N,GND*%
X136810000Y-71250000D03*
%TO.P,J2,B23*%
%TO.N,/X8_PET2_P*%
X136810000Y-68750000D03*
%TO.P,J2,A22*%
%TO.N,/X8_PER1_N*%
X137810000Y-73250000D03*
%TO.P,J2,B22*%
%TO.N,GND*%
X137810000Y-66750000D03*
%TO.P,J2,A21*%
%TO.N,/X8_PER1_P*%
X138810000Y-71250000D03*
%TO.P,J2,B21*%
%TO.N,GND*%
X138810000Y-68750000D03*
%TO.P,J2,A20*%
X139810000Y-73250000D03*
%TO.P,J2,B20*%
%TO.N,/X8_PET1_N*%
X139810000Y-66750000D03*
%TO.P,J2,A19*%
%TO.N,Net-(J2-PadA19)*%
X140810000Y-71250000D03*
%TO.P,J2,B19*%
%TO.N,/X8_PET1_P*%
X140810000Y-68750000D03*
%TO.P,J2,A18*%
%TO.N,GND*%
X141810000Y-73250000D03*
%TO.P,J2,B18*%
X141810000Y-66750000D03*
%TO.P,J2,A17*%
%TO.N,/X8_PER0_N*%
X142810000Y-71250000D03*
%TO.P,J2,B17*%
%TO.N,Net-(J2-PadB17)*%
X142810000Y-68750000D03*
%TO.P,J2,A16*%
%TO.N,/X8_PER0_P*%
X143810000Y-73250000D03*
%TO.P,J2,B16*%
%TO.N,GND*%
X143810000Y-66750000D03*
%TO.P,J2,A15*%
X144810000Y-71250000D03*
%TO.P,J2,B15*%
%TO.N,/X8_PET0_N*%
X144810000Y-68750000D03*
%TO.P,J2,A14*%
%TO.N,/REFCLK_0_N*%
X145810000Y-73250000D03*
%TO.P,J2,B14*%
%TO.N,/X8_PET0_P*%
X145810000Y-66750000D03*
%TO.P,J2,A13*%
%TO.N,/REFCLK_0_P*%
X146810000Y-71250000D03*
%TO.P,J2,B13*%
%TO.N,GND*%
X146810000Y-68750000D03*
%TO.P,J2,A12*%
X147810000Y-73250000D03*
%TO.P,J2,B12*%
%TO.N,Net-(J2-PadB12)*%
X147810000Y-66750000D03*
%TO.P,J2,B11*%
%TO.N,/~WAKE*%
X150810000Y-68750000D03*
%TO.P,J2,B10*%
%TO.N,+3V3*%
X151810000Y-66750000D03*
%TO.P,J2,B9*%
%TO.N,Net-(J2-PadB9)*%
X152810000Y-68750000D03*
%TO.P,J2,B8*%
%TO.N,+3V3*%
X153810000Y-66750000D03*
%TO.P,J2,B7*%
%TO.N,GND*%
X154810000Y-68750000D03*
%TO.P,J2,B6*%
%TO.N,/SMDAT*%
X155810000Y-66750000D03*
%TO.P,J2,B5*%
%TO.N,/SMCLK*%
X156810000Y-68750000D03*
%TO.P,J2,B4*%
%TO.N,GND*%
X157810000Y-66750000D03*
%TO.P,J2,B3*%
%TO.N,+12V*%
X158810000Y-68750000D03*
%TO.P,J2,B2*%
X159810000Y-66750000D03*
%TO.P,J2,B1*%
X160810000Y-68750000D03*
%TO.P,J2,A11*%
%TO.N,/~PERST*%
X150810000Y-71250000D03*
%TO.P,J2,A10*%
%TO.N,+3V3*%
X151810000Y-73250000D03*
%TO.P,J2,A9*%
X152810000Y-71250000D03*
%TO.P,J2,A8*%
%TO.N,Net-(J2-PadA8)*%
X153810000Y-73250000D03*
%TO.P,J2,A7*%
%TO.N,Net-(J2-PadA7)*%
X154810000Y-71250000D03*
%TO.P,J2,A6*%
%TO.N,Net-(J2-PadA6)*%
X155810000Y-73250000D03*
%TO.P,J2,A5*%
%TO.N,Net-(J2-PadA5)*%
X156810000Y-71250000D03*
%TO.P,J2,A4*%
%TO.N,GND*%
X157810000Y-73250000D03*
%TO.P,J2,A3*%
%TO.N,+12V*%
X158810000Y-71250000D03*
%TO.P,J2,A2*%
X159810000Y-73250000D03*
%TO.P,J2,A1*%
%TO.N,Net-(J2-PadA1)*%
X160810000Y-71250000D03*
%TD*%
D15*
%TO.N,GND*%
X99500000Y-61270701D03*
X99500000Y-62250000D03*
X99500000Y-57750000D03*
X99500000Y-63750000D03*
X95250000Y-59750000D03*
X97250000Y-62750000D03*
X95250000Y-64500000D03*
X95250000Y-65750000D03*
X95250000Y-67250000D03*
X99500000Y-67270701D03*
D16*
X171478045Y-65371955D03*
X173900000Y-59200000D03*
X185900000Y-65500000D03*
X184400000Y-65500000D03*
X182400000Y-65500000D03*
X180900000Y-65500000D03*
X174900000Y-69500000D03*
X178400000Y-69500000D03*
X178400000Y-68500000D03*
X174900000Y-68500000D03*
X187150000Y-58250000D03*
D15*
X95250000Y-61000000D03*
X95247176Y-58900000D03*
X173650000Y-64100000D03*
X173650000Y-64900000D03*
X174650000Y-64900000D03*
X175650000Y-64900000D03*
X175650000Y-64100000D03*
X174650000Y-64100000D03*
D16*
X144250000Y-58750000D03*
X148000000Y-62000000D03*
X94500000Y-72000000D03*
X165550000Y-62300000D03*
D15*
X99500000Y-59250000D03*
X99500026Y-65250000D03*
D16*
X170900000Y-62225000D03*
X167150000Y-58450000D03*
%TO.N,+12VA*%
X177650000Y-57750000D03*
X180900000Y-60000000D03*
X182400000Y-60000000D03*
X185900000Y-60000000D03*
X184400000Y-60000000D03*
X160900000Y-60250000D03*
X156900000Y-60250000D03*
X159650015Y-60250000D03*
X158150030Y-60250000D03*
X177400000Y-64500000D03*
X177400000Y-63500000D03*
X177400000Y-62500000D03*
X176400000Y-62500000D03*
%TO.N,+3V3*%
X181150000Y-71250000D03*
X179150000Y-71250000D03*
X177650000Y-71250000D03*
X175650000Y-71250000D03*
X174150000Y-71250000D03*
X172150000Y-71250000D03*
X169900000Y-71250000D03*
X167650000Y-70000000D03*
X169150000Y-70000000D03*
X166150000Y-70000000D03*
X165399994Y-71250000D03*
X165400000Y-72750000D03*
X169900000Y-72750000D03*
D15*
%TO.N,/X8_PET0_P*%
X97275000Y-58572197D03*
%TO.N,/X8_PET0_N*%
X97275000Y-59350000D03*
%TO.N,/X8_PET1_P*%
X97275000Y-60150000D03*
%TO.N,/X8_PET1_N*%
X97275000Y-60927803D03*
D16*
%TO.N,/SMCLK*%
X94347470Y-61272192D03*
%TO.N,/SMDAT*%
X94350004Y-62250000D03*
%TO.N,/~PERST*%
X149900001Y-56650001D03*
X149900001Y-59400001D03*
X94350000Y-63250000D03*
%TO.N,/~CPRSNT*%
X94350000Y-64227803D03*
X184149988Y-56250000D03*
D15*
%TO.N,/X8_PET2_P*%
X97250000Y-64572197D03*
%TO.N,/X8_PET2_N*%
X97250000Y-65350000D03*
%TO.N,/X8_PET3_P*%
X97250000Y-66150000D03*
%TO.N,/X8_PET3_N*%
X97250000Y-66927803D03*
%TO.N,/REFCLK_0_P*%
X134497848Y-59033246D03*
%TO.N,/REFCLK_0_N*%
X134497848Y-59836446D03*
%TO.N,/~WAKE*%
X97275000Y-61800000D03*
%TO.N,/SW*%
X174650000Y-65975000D03*
D16*
X169900000Y-66250000D03*
X169900000Y-67749958D03*
X167650000Y-67750000D03*
X165400000Y-67750000D03*
X165400000Y-66250000D03*
D15*
X173650000Y-65975000D03*
X175650000Y-65975004D03*
D16*
X172381090Y-67268910D03*
%TD*%
D17*
%TO.N,/X8_PET0_P*%
X144012621Y-63302293D02*
X144008460Y-63308521D01*
X143625041Y-62873856D02*
X143618386Y-62877293D01*
X143915262Y-63452417D02*
X143912987Y-63459553D01*
X143185256Y-62414173D02*
X143182197Y-62421010D01*
X143001391Y-62019019D02*
X143008228Y-62022078D01*
X143177624Y-62924686D02*
X143183290Y-62929608D01*
X143990176Y-62981823D02*
X143994937Y-62987625D01*
X142352172Y-62095367D02*
X142358157Y-62099872D01*
X143071879Y-62589822D02*
X143069208Y-62596820D01*
X143821793Y-62857259D02*
X143828930Y-62859534D01*
X143929583Y-63656305D02*
X143933021Y-63662960D01*
X142832676Y-62004787D02*
X142825423Y-62006657D01*
X143981662Y-63729320D02*
X143986747Y-63734852D01*
X143762985Y-62846416D02*
X143770449Y-62847046D01*
X142929364Y-61999357D02*
X142936781Y-62000404D01*
X142526963Y-62151078D02*
X142519476Y-62151289D01*
X142958815Y-62004786D02*
X142966068Y-62006657D01*
X142389843Y-62119781D02*
X142396498Y-62123219D01*
X143111384Y-62099904D02*
X143116622Y-62105291D01*
X143098985Y-62087654D02*
X143104372Y-62092892D01*
X142364266Y-62104206D02*
X142370494Y-62108368D01*
X132824545Y-59951335D02*
X132942432Y-60014347D01*
X101142499Y-58451335D02*
X101260386Y-58514347D01*
X143991908Y-63740312D02*
X143997146Y-63745699D01*
X102728291Y-59744216D02*
X102856206Y-59783019D01*
X143081055Y-62807777D02*
X143084493Y-62814432D01*
X143353024Y-62999606D02*
X143360511Y-62999817D01*
X143913707Y-62906394D02*
X143919509Y-62911156D01*
X142459963Y-62145426D02*
X142467309Y-62146887D01*
X143933022Y-63411188D02*
X143929584Y-63417843D01*
X143053196Y-62677312D02*
X143052987Y-62684799D01*
X143740528Y-62845788D02*
X143733041Y-62845997D01*
X143197616Y-62238207D02*
X143199487Y-62245460D01*
X97582429Y-58779826D02*
X97617666Y-58783298D01*
X143725562Y-62846417D02*
X143718098Y-62847047D01*
X142691041Y-62085994D02*
X142685169Y-62090676D01*
X143476740Y-62974997D02*
X143469903Y-62978057D01*
X143338082Y-62998556D02*
X143345545Y-62999186D01*
X142541906Y-62150028D02*
X142534442Y-62150658D01*
X143947513Y-62936182D02*
X143952900Y-62941420D01*
X143901515Y-63540820D02*
X143901724Y-63548307D01*
X143225364Y-62960880D02*
X143231816Y-62964686D01*
X144055545Y-63160804D02*
X144055334Y-63168291D01*
X143903613Y-63570693D02*
X143904660Y-63578110D01*
X143944434Y-63682308D02*
X143948595Y-63688536D01*
X143053319Y-62048676D02*
X143059304Y-62053181D01*
X143920407Y-63438350D02*
X143917736Y-63445348D01*
X143087993Y-62077408D02*
X143093525Y-62082493D01*
X145387275Y-66312511D02*
X145454843Y-66394843D01*
X145277893Y-66130020D02*
X145328101Y-66223952D01*
X142862127Y-61999357D02*
X142854710Y-62000404D01*
X144054284Y-63130882D02*
X144054914Y-63138345D01*
X143971724Y-63718042D02*
X143976646Y-63723708D01*
X143792694Y-62850187D02*
X143800040Y-62851648D01*
X143952930Y-63694645D02*
X143957435Y-63700630D01*
X144138238Y-63886790D02*
X144157027Y-63905579D01*
X143159933Y-62157066D02*
X143164095Y-62163294D01*
X134169356Y-60809097D02*
X134302384Y-60822200D01*
X142340495Y-62085921D02*
X142346297Y-62090682D01*
X141092499Y-60951335D02*
X141210386Y-61014347D01*
X142628212Y-62126468D02*
X142621375Y-62129528D01*
X143999623Y-62993500D02*
X144004127Y-62999485D01*
X97393067Y-58690264D02*
X97420438Y-58712727D01*
X142417006Y-62132396D02*
X142424004Y-62135067D01*
X143203870Y-62267494D02*
X143204917Y-62274910D01*
X143563091Y-62915763D02*
X143557220Y-62920445D01*
X143057387Y-62736967D02*
X143058848Y-62744313D01*
X143195542Y-62386049D02*
X143193268Y-62393186D01*
X144033784Y-63262701D02*
X144030725Y-63269538D01*
X142847325Y-62001659D02*
X142839979Y-62003120D01*
X98860905Y-58344868D02*
X98786895Y-58367318D01*
X143912988Y-63614596D02*
X143915263Y-63621732D01*
X143052987Y-62692292D02*
X143053196Y-62699779D01*
X143171885Y-62440970D02*
X143168079Y-62447422D01*
X143100068Y-62537082D02*
X143095907Y-62543310D01*
X142641616Y-62119780D02*
X142634961Y-62123218D01*
X133454480Y-60470986D02*
X133557809Y-60555786D01*
X144048015Y-63220127D02*
X144046144Y-63227380D01*
X143490144Y-62968308D02*
X143483489Y-62971746D01*
X143164095Y-62453765D02*
X143159933Y-62459993D01*
X143178946Y-62427760D02*
X143175508Y-62434415D01*
X145206217Y-65929697D02*
X145237135Y-66031619D01*
X143091922Y-62549653D02*
X143088116Y-62556105D01*
X143910913Y-63466751D02*
X143909042Y-63474004D01*
X97513818Y-58762640D02*
X97547701Y-58772918D01*
X143251777Y-62974998D02*
X143258614Y-62978057D01*
X142906978Y-61997469D02*
X142899491Y-61997260D01*
X143936644Y-63669516D02*
X143940450Y-63675967D01*
X143574833Y-62906399D02*
X143568962Y-62911082D01*
X143141648Y-62133295D02*
X143146409Y-62139097D01*
X143207017Y-62312276D02*
X143206806Y-62319763D01*
X144054914Y-63175770D02*
X144054284Y-63183233D01*
X143055085Y-62722165D02*
X143056132Y-62729582D01*
X143166480Y-62914585D02*
X143172012Y-62919670D01*
X144036652Y-63058334D02*
X144039323Y-63065332D01*
X144024037Y-63031172D02*
X144027475Y-63037827D01*
X143836001Y-62862008D02*
X143842999Y-62864679D01*
X143202616Y-62356950D02*
X143201154Y-62364296D01*
X143201154Y-62252763D02*
X143202615Y-62260109D01*
X102272434Y-59470986D02*
X102375763Y-59555786D01*
X143205756Y-62282354D02*
X143206386Y-62289817D01*
X143917736Y-63628801D02*
X143920407Y-63635799D01*
X142714563Y-62067236D02*
X142708691Y-62071918D01*
X143849919Y-62867546D02*
X143856756Y-62870606D01*
X102987310Y-59809097D02*
X103120338Y-59822200D01*
X142914457Y-61997889D02*
X142921921Y-61998518D01*
X143193268Y-62223873D02*
X143195543Y-62231009D01*
X142987473Y-62013480D02*
X142994471Y-62016152D01*
X143925243Y-62915998D02*
X143930909Y-62920920D01*
X143060516Y-62751617D02*
X143062386Y-62758870D01*
X143666754Y-62857259D02*
X143659617Y-62859534D01*
X142600388Y-62137540D02*
X142593251Y-62139814D01*
X143503151Y-62960879D02*
X143496699Y-62964685D01*
X142667193Y-62104204D02*
X142660965Y-62108366D01*
X143182198Y-62196049D02*
X143185257Y-62202886D01*
X143957435Y-63373516D02*
X143952931Y-63379501D01*
X143926333Y-63424593D02*
X143923274Y-63431430D01*
X142431073Y-62137540D02*
X142438210Y-62139814D01*
X98204707Y-58738177D02*
X98130698Y-58760628D01*
X143293935Y-62990416D02*
X143301188Y-62992287D01*
X144039322Y-63248783D02*
X144036651Y-63255781D01*
X143058847Y-62632779D02*
X143057386Y-62640125D01*
X140841088Y-60861380D02*
X140969003Y-60900182D01*
X142702784Y-62076629D02*
X142696913Y-62081312D01*
X143420025Y-62993954D02*
X143412679Y-62995415D01*
X144020413Y-63289498D02*
X144016607Y-63295950D01*
X142586054Y-62141888D02*
X142578801Y-62143759D01*
X143206386Y-62327242D02*
X143205756Y-62334705D01*
X101371530Y-58588611D02*
X101474859Y-58673411D01*
X144982850Y-64786811D02*
X145045862Y-64904698D01*
X145161897Y-65287214D02*
X145175000Y-65420242D01*
X143923274Y-63642719D02*
X143926333Y-63649556D01*
X143909043Y-63600145D02*
X143910915Y-63607398D01*
X144063081Y-63811633D02*
X144081870Y-63830422D01*
X143551312Y-62925157D02*
X143545441Y-62929839D01*
X144027474Y-63276288D02*
X144024036Y-63282943D01*
X143962121Y-63706506D02*
X143966882Y-63712308D01*
X98715443Y-58396915D02*
X98647235Y-58433372D01*
X143062385Y-62618223D02*
X143060514Y-62625476D01*
X99013725Y-58322200D02*
X98936758Y-58329780D01*
X143069208Y-62780273D02*
X143071879Y-62787271D01*
X143168080Y-62169637D02*
X143171886Y-62176089D01*
X144049682Y-63101291D02*
X144051144Y-63108637D01*
X143131884Y-62121895D02*
X143136806Y-62127561D01*
X143065179Y-62057866D02*
X143070981Y-62062628D01*
X143279601Y-62986068D02*
X143286737Y-62988343D01*
X98468457Y-58580091D02*
X98408673Y-58629155D01*
X142474694Y-62148142D02*
X142482110Y-62149189D01*
X143904659Y-63496038D02*
X143903612Y-63503454D01*
X142317952Y-62066056D02*
X142323484Y-62071141D01*
X143028188Y-62032390D02*
X143034640Y-62036196D01*
X133668953Y-60630050D02*
X133786840Y-60693062D01*
X142892000Y-61997260D02*
X142884513Y-61997469D01*
X143901724Y-63525840D02*
X143901515Y-63533327D01*
X142504496Y-62151078D02*
X142511983Y-62151289D01*
X144823786Y-64572338D02*
X144908586Y-64675667D01*
X143638628Y-62867545D02*
X143631791Y-62870605D01*
X143104402Y-62846117D02*
X143108907Y-62852102D01*
X143265534Y-62980924D02*
X143272532Y-62983595D01*
X142571497Y-62145426D02*
X142564151Y-62146887D01*
X98582930Y-58476340D02*
X98523146Y-58525403D01*
X142763302Y-62032389D02*
X142756851Y-62036195D01*
X143940450Y-63398181D02*
X143936645Y-63404633D01*
X132573134Y-59861380D02*
X132701049Y-59900182D01*
X143076715Y-62067470D02*
X143082381Y-62072392D01*
X143448916Y-62986068D02*
X143441779Y-62988342D01*
X143190794Y-62400255D02*
X143188123Y-62407253D01*
X143681204Y-62853315D02*
X143673951Y-62855186D01*
X143901847Y-62897204D02*
X143907832Y-62901709D01*
X143188124Y-62209806D02*
X143190795Y-62216804D01*
X143375491Y-62999606D02*
X143368004Y-62999817D01*
X142944166Y-62001658D02*
X142951512Y-62003119D01*
X143077805Y-62576065D02*
X143074746Y-62582902D01*
X143905915Y-63585495D02*
X143907376Y-63592841D01*
X143755506Y-62845997D02*
X143748019Y-62845788D01*
X143066734Y-62603889D02*
X143064459Y-62611025D01*
X144016608Y-63018165D02*
X144020414Y-63024617D01*
X144046144Y-63086735D02*
X144048015Y-63093988D01*
X143980412Y-62970423D02*
X143985334Y-62976089D01*
X143876715Y-62880918D02*
X143883167Y-62884723D01*
X144053445Y-63190677D02*
X144052398Y-63198093D01*
X100759985Y-58335301D02*
X100626958Y-58322200D01*
X143095906Y-62833780D02*
X143100067Y-62840008D01*
X143515721Y-62952733D02*
X143509493Y-62956895D01*
X143323222Y-62996670D02*
X143330638Y-62997717D01*
X143599037Y-62888707D02*
X143592809Y-62892868D01*
X144100660Y-63849212D02*
X144119449Y-63868001D01*
X143527815Y-62943895D02*
X143521830Y-62948399D01*
X142654623Y-62112351D02*
X142648171Y-62116157D01*
X143777892Y-62847885D02*
X143785309Y-62848932D01*
X142776513Y-62025328D02*
X142769858Y-62028766D01*
X140709985Y-60835302D02*
X140576957Y-60822200D01*
X142403249Y-62126470D02*
X142410086Y-62129529D01*
X143121783Y-62110751D02*
X143126868Y-62116283D01*
X142790100Y-62019017D02*
X142783263Y-62022077D01*
X143959912Y-62948432D02*
X143965150Y-62953819D01*
X145097016Y-65028195D02*
X145135819Y-65156110D01*
X142556766Y-62148143D02*
X142549349Y-62149190D01*
X143902773Y-63510898D02*
X143902144Y-63518361D01*
X102486907Y-59630050D02*
X102604794Y-59693062D01*
X144030726Y-63044577D02*
X144033785Y-63051414D01*
X143113593Y-62857978D02*
X143118354Y-62863780D01*
X143200700Y-62943896D02*
X143206685Y-62948400D01*
X143143380Y-62891784D02*
X143148618Y-62897171D01*
X142614455Y-62132395D02*
X142607457Y-62135066D01*
X143189023Y-62934449D02*
X143194824Y-62939210D01*
X142877034Y-61997889D02*
X142869570Y-61998518D01*
X143056131Y-62647510D02*
X143055084Y-62654926D01*
X143889510Y-62888708D02*
X143895738Y-62892870D01*
X145175000Y-65719240D02*
X145185439Y-65825235D01*
X142489554Y-62150028D02*
X142497017Y-62150658D01*
X143970311Y-62959279D02*
X143975396Y-62964811D01*
X143064460Y-62766068D02*
X143066735Y-62773204D01*
X143807343Y-62853315D02*
X143814596Y-62855186D01*
X98054845Y-58775717D02*
X97977878Y-58783298D01*
X143390434Y-62998556D02*
X143382970Y-62999186D01*
X143088116Y-62820988D02*
X143091922Y-62827439D01*
X144044071Y-63234577D02*
X144041796Y-63241714D01*
X98344368Y-58672123D02*
X98276160Y-58708580D01*
X144052398Y-63116022D02*
X144053445Y-63123438D01*
X143054246Y-62662370D02*
X143053616Y-62669833D01*
X143462983Y-62980923D02*
X143455985Y-62983594D01*
X143948597Y-63385610D02*
X143944435Y-63391838D01*
X143204918Y-62342149D02*
X143203871Y-62349565D01*
X143308491Y-62993954D02*
X143315837Y-62995415D01*
X142818226Y-62008731D02*
X142811089Y-62011006D01*
X143108907Y-62524988D02*
X143104403Y-62530973D01*
X143434582Y-62990416D02*
X143427329Y-62992287D01*
X143206806Y-62297296D02*
X143207017Y-62304783D01*
X132442031Y-59835302D02*
X132309003Y-59822200D01*
X143084494Y-62562660D02*
X143081056Y-62569315D01*
X142738173Y-62048676D02*
X142732188Y-62053180D01*
X143863505Y-62873856D02*
X143870160Y-62877294D01*
X143175509Y-62182644D02*
X143178947Y-62189299D01*
X143238371Y-62968309D02*
X143245026Y-62971747D01*
X142726306Y-62057871D02*
X142720435Y-62062554D01*
X144055334Y-63145824D02*
X144055545Y-63153311D01*
X143212794Y-62952734D02*
X143219022Y-62956896D01*
X143611831Y-62880916D02*
X143605379Y-62884722D01*
X143155632Y-62904185D02*
X143161020Y-62909423D01*
X142329096Y-62076157D02*
X142334762Y-62081079D01*
X143652546Y-62862008D02*
X143645548Y-62864679D01*
X143539569Y-62934522D02*
X143533698Y-62939204D01*
X143936521Y-62925936D02*
X143942053Y-62931021D01*
X143151095Y-62144972D02*
X143155599Y-62150957D01*
X144051143Y-63205478D02*
X144049682Y-63212824D01*
X133910337Y-60744216D02*
X134038252Y-60783019D01*
X143133134Y-62880792D02*
X143138219Y-62886324D01*
X142445407Y-62141888D02*
X142452660Y-62143759D01*
X143902144Y-63555786D02*
X143902774Y-63563250D01*
X143040982Y-62040180D02*
X143047210Y-62044342D01*
X143405294Y-62996671D02*
X143397877Y-62997718D01*
X144041796Y-63072401D02*
X144044071Y-63079537D01*
X144008462Y-63005594D02*
X144012623Y-63011822D01*
X143199487Y-62371599D02*
X143197616Y-62378852D01*
X143074746Y-62794191D02*
X143077805Y-62801028D01*
X142973265Y-62008731D02*
X142980402Y-62011006D01*
X144175817Y-63924369D02*
X144194606Y-63943158D01*
X141321530Y-61088611D02*
X141424859Y-61173411D01*
X143014978Y-62025329D02*
X143021633Y-62028767D01*
X143123196Y-62869514D02*
X143128118Y-62875180D01*
X144004126Y-63314630D02*
X143999623Y-63320615D01*
X143695853Y-62850187D02*
X143688507Y-62851648D01*
X143907375Y-63481307D02*
X143905914Y-63488653D01*
X143586700Y-62897203D02*
X143580715Y-62901708D01*
X142376836Y-62112352D02*
X142383288Y-62116158D01*
X142307105Y-62055657D02*
X142312492Y-62060895D01*
X143155599Y-62466102D02*
X143151094Y-62472087D01*
X133053576Y-60088611D02*
X133156905Y-60173411D01*
X143053616Y-62707258D02*
X143054246Y-62714722D01*
X100891088Y-58361379D02*
X101019003Y-58400181D01*
X142679287Y-62095367D02*
X142673302Y-62099870D01*
X142750510Y-62040180D02*
X142744282Y-62044342D01*
X143710655Y-62847885D02*
X143703238Y-62848932D01*
X97449879Y-58732399D02*
X97481106Y-58749090D01*
X142804018Y-62013480D02*
X142797020Y-62016151D01*
X143618386Y-62877293D02*
X143611831Y-62880916D01*
X142467309Y-62146887D02*
X142474694Y-62148142D01*
X143071879Y-62589822D02*
X143074746Y-62582902D01*
X144033784Y-63262701D02*
X144036651Y-63255781D01*
X142667193Y-62104204D02*
X142673302Y-62099870D01*
X143375491Y-62999606D02*
X143382970Y-62999186D01*
X132942432Y-60014347D02*
X133053576Y-60088611D01*
X143965150Y-62953819D02*
X143970311Y-62959279D01*
X143762985Y-62846416D02*
X143755506Y-62845997D01*
X143001391Y-62019019D02*
X142994471Y-62016152D01*
X143206806Y-62319763D02*
X143206386Y-62327242D01*
X143323222Y-62996670D02*
X143315837Y-62995415D01*
X143171885Y-62440970D02*
X143175508Y-62434415D01*
X143206386Y-62289817D02*
X143206806Y-62297296D01*
X142621375Y-62129528D02*
X142614455Y-62132395D01*
X143258614Y-62978057D02*
X143265534Y-62980924D01*
X143141648Y-62133295D02*
X143136806Y-62127561D01*
X143293935Y-62990416D02*
X143286737Y-62988343D01*
X144004127Y-62999485D02*
X144008462Y-63005594D01*
X144157027Y-63905579D02*
X144175817Y-63924369D01*
X143971724Y-63718042D02*
X143966882Y-63712308D01*
X142884513Y-61997469D02*
X142877034Y-61997889D01*
X143062385Y-62618223D02*
X143064459Y-62611025D01*
X143116622Y-62105291D02*
X143121783Y-62110751D01*
X143933021Y-63662960D02*
X143936644Y-63669516D01*
X143098985Y-62087654D02*
X143093525Y-62082493D01*
X100759985Y-58335301D02*
X100891088Y-58361379D01*
X143057387Y-62736967D02*
X143056132Y-62729582D01*
X142966068Y-62006657D02*
X142973265Y-62008731D01*
X142906978Y-61997469D02*
X142914457Y-61997889D01*
X143057386Y-62640125D02*
X143056131Y-62647510D01*
X144046144Y-63086735D02*
X144044071Y-63079537D01*
X142763302Y-62032389D02*
X142769858Y-62028766D01*
X143920407Y-63438350D02*
X143923274Y-63431430D01*
X102856206Y-59783019D02*
X102987310Y-59809097D01*
X143143380Y-62891784D02*
X143138219Y-62886324D01*
X144052398Y-63198093D02*
X144051143Y-63205478D01*
X143666754Y-62857259D02*
X143673951Y-62855186D01*
X102375763Y-59555786D02*
X102486907Y-59630050D01*
X143821793Y-62857259D02*
X143814596Y-62855186D01*
X142438210Y-62139814D02*
X142445407Y-62141888D01*
X143901724Y-63525840D02*
X143902144Y-63518361D01*
X141210386Y-61014347D02*
X141321530Y-61088611D01*
X143947513Y-62936182D02*
X143942053Y-62931021D01*
X143053196Y-62699779D02*
X143053616Y-62707258D01*
X143490144Y-62968308D02*
X143496699Y-62964685D01*
X143166480Y-62914585D02*
X143161020Y-62909423D01*
X143920407Y-63635799D02*
X143923274Y-63642719D01*
X143952931Y-63379501D02*
X143948597Y-63385610D01*
X143904660Y-63578110D02*
X143905915Y-63585495D01*
X143901724Y-63548307D02*
X143902144Y-63555786D01*
X143912987Y-63459553D02*
X143910913Y-63466751D01*
X98130698Y-58760628D02*
X98054845Y-58775717D01*
X98860905Y-58344868D02*
X98936758Y-58329780D01*
X98647235Y-58433372D02*
X98582930Y-58476340D01*
X143203870Y-62267494D02*
X143202615Y-62260109D01*
X144051144Y-63108637D02*
X144052398Y-63116022D01*
X97582429Y-58779826D02*
X97547701Y-58772918D01*
X143088116Y-62556105D02*
X143084494Y-62562660D01*
X144024037Y-63031172D02*
X144020414Y-63024617D01*
X143197616Y-62238207D02*
X143195543Y-62231009D01*
X143071879Y-62787271D02*
X143074746Y-62794191D01*
X143515721Y-62952733D02*
X143521830Y-62948399D01*
X142340495Y-62085921D02*
X142334762Y-62081079D01*
X144036652Y-63058334D02*
X144033785Y-63051414D01*
X143159933Y-62157066D02*
X143155599Y-62150957D01*
X143933022Y-63411188D02*
X143936645Y-63404633D01*
X143053319Y-62048676D02*
X143047210Y-62044342D01*
X143231816Y-62964686D02*
X143238371Y-62968309D01*
X142691041Y-62085994D02*
X142696913Y-62081312D01*
X142504496Y-62151078D02*
X142497017Y-62150658D01*
X143638628Y-62867545D02*
X143645548Y-62864679D01*
X143195542Y-62386049D02*
X143197616Y-62378852D01*
X142417006Y-62132396D02*
X142410086Y-62129529D01*
X142526963Y-62151078D02*
X142534442Y-62150658D01*
X143062386Y-62758870D02*
X143064460Y-62766068D01*
X143904659Y-63496038D02*
X143905914Y-63488653D01*
X132573134Y-59861380D02*
X132442031Y-59835302D01*
X143695853Y-62850187D02*
X143703238Y-62848932D01*
X143733041Y-62845997D02*
X143725562Y-62846417D01*
X133557809Y-60555786D02*
X133668953Y-60630050D01*
X142936781Y-62000404D02*
X142944166Y-62001658D01*
X143104402Y-62846117D02*
X143100067Y-62840008D01*
X144982850Y-64786811D02*
X144908586Y-64675667D01*
X142317952Y-62066056D02*
X142312492Y-62060895D01*
X142389843Y-62119781D02*
X142383288Y-62116158D01*
X143563091Y-62915763D02*
X143568962Y-62911082D01*
X144054914Y-63138345D02*
X144055334Y-63145824D01*
X145161897Y-65287214D02*
X145135819Y-65156110D01*
X143053196Y-62677312D02*
X143053616Y-62669833D01*
X143028188Y-62032390D02*
X143021633Y-62028767D01*
X143919509Y-62911156D02*
X143925243Y-62915998D01*
X142825423Y-62006657D02*
X142818226Y-62008731D01*
X143206685Y-62948400D02*
X143212794Y-62952734D01*
X143171886Y-62176089D02*
X143175509Y-62182644D01*
X145387275Y-66312511D02*
X145328101Y-66223952D01*
X143592809Y-62892868D02*
X143586700Y-62897203D01*
X143792694Y-62850187D02*
X143785309Y-62848932D01*
X143185257Y-62202886D02*
X143188124Y-62209806D01*
X97420438Y-58712727D02*
X97449879Y-58732399D01*
X143412679Y-62995415D02*
X143405294Y-62996671D01*
X143948595Y-63688536D02*
X143952930Y-63694645D01*
X143070981Y-62062628D02*
X143076715Y-62067470D01*
X145206217Y-65929697D02*
X145185439Y-65825235D01*
X143986747Y-63734852D02*
X143991908Y-63740312D01*
X101260386Y-58514347D02*
X101371530Y-58588611D01*
X143100068Y-62537082D02*
X143104403Y-62530973D01*
X143183290Y-62929608D02*
X143189023Y-62934449D01*
X142564151Y-62146887D02*
X142556766Y-62148143D01*
X143185256Y-62414173D02*
X143188123Y-62407253D01*
X144008460Y-63308521D02*
X144004126Y-63314630D01*
X143901847Y-62897204D02*
X143895738Y-62892870D01*
X140841088Y-60861380D02*
X140709985Y-60835302D01*
X142854710Y-62000404D02*
X142847325Y-62001659D01*
X143545441Y-62929839D02*
X143539569Y-62934522D01*
X144046144Y-63227380D02*
X144044071Y-63234577D01*
X143469903Y-62978057D02*
X143462983Y-62980923D01*
X142790100Y-62019017D02*
X142797020Y-62016151D01*
X143159933Y-62459993D02*
X143155599Y-62466102D01*
X134169356Y-60809097D02*
X134038252Y-60783019D01*
X143202616Y-62356950D02*
X143203871Y-62349565D01*
X142738173Y-62048676D02*
X142744282Y-62044342D01*
X142593251Y-62139814D02*
X142586054Y-62141888D01*
X143084493Y-62814432D02*
X143088116Y-62820988D01*
X143912988Y-63614596D02*
X143910915Y-63607398D01*
X144020413Y-63289498D02*
X144024036Y-63282943D01*
X98408673Y-58629155D02*
X98344368Y-58672123D01*
X143990176Y-62981823D02*
X143985334Y-62976089D01*
X143876715Y-62880918D02*
X143870160Y-62877294D01*
X143118354Y-62863780D02*
X143123196Y-62869514D01*
X142641616Y-62119780D02*
X142648171Y-62116157D01*
X143441779Y-62988342D02*
X143434582Y-62990416D01*
X143353024Y-62999606D02*
X143345545Y-62999186D01*
X142714563Y-62067236D02*
X142720435Y-62062554D01*
X144055334Y-63168291D02*
X144054914Y-63175770D01*
X144081870Y-63830422D02*
X144100660Y-63849212D01*
X142358157Y-62099872D02*
X142364266Y-62104206D01*
X143842999Y-62864679D02*
X143849919Y-62867546D01*
X144039323Y-63065332D02*
X144041796Y-63072401D01*
X143279601Y-62986068D02*
X143272532Y-62983595D01*
X143204917Y-62274910D02*
X143205756Y-62282354D01*
X145277893Y-66130020D02*
X145237135Y-66031619D01*
X143069208Y-62780273D02*
X143066735Y-62773204D01*
X143599037Y-62888707D02*
X143605379Y-62884722D01*
X143133134Y-62880792D02*
X143128118Y-62875180D01*
X101142499Y-58451335D02*
X101019003Y-58400181D01*
X143177624Y-62924686D02*
X143172012Y-62919670D01*
X143503151Y-62960879D02*
X143509493Y-62956895D01*
X143069208Y-62596820D02*
X143066734Y-62603889D01*
X142541906Y-62150028D02*
X142549349Y-62149190D01*
X142370494Y-62108368D02*
X142376836Y-62112352D01*
X143659617Y-62859534D02*
X143652546Y-62862008D01*
X143225364Y-62960880D02*
X143219022Y-62956896D01*
X143168079Y-62447422D02*
X143164095Y-62453765D01*
X144054284Y-63130882D02*
X144053445Y-63123438D01*
X144138238Y-63886790D02*
X144119449Y-63868001D01*
X143055084Y-62654926D02*
X143054246Y-62662370D01*
X98786895Y-58367318D02*
X98715443Y-58396915D01*
X142424004Y-62135067D02*
X142431073Y-62137540D01*
X143828930Y-62859534D02*
X143836001Y-62862008D01*
X143205756Y-62334705D02*
X143204918Y-62342149D01*
X142708691Y-62071918D02*
X142702784Y-62076629D01*
X143944434Y-63682308D02*
X143940450Y-63675967D01*
X143131884Y-62121895D02*
X143126868Y-62116283D01*
X143034640Y-62036196D02*
X143040982Y-62040180D01*
X97513818Y-58762640D02*
X97481106Y-58749090D01*
X143903613Y-63570693D02*
X143902774Y-63563250D01*
X143095907Y-62543310D02*
X143091922Y-62549653D01*
X144016608Y-63018165D02*
X144012623Y-63011822D01*
X143087993Y-62077408D02*
X143082381Y-62072392D01*
X142756851Y-62036195D02*
X142750510Y-62040180D01*
X143193268Y-62223873D02*
X143190795Y-62216804D01*
X144039322Y-63248783D02*
X144041796Y-63241714D01*
X142600388Y-62137540D02*
X142607457Y-62135066D01*
X142929364Y-61999357D02*
X142921921Y-61998518D01*
X132824545Y-59951335D02*
X132701049Y-59900182D01*
X143903612Y-63503454D02*
X143902773Y-63510898D01*
X145045862Y-64904698D02*
X145097016Y-65028195D01*
X133786840Y-60693062D02*
X133910337Y-60744216D01*
X143095906Y-62833780D02*
X143091922Y-62827439D01*
X143055085Y-62722165D02*
X143054246Y-62714722D01*
X142862127Y-61999357D02*
X142869570Y-61998518D01*
X143557220Y-62920445D02*
X143551312Y-62925157D01*
X143915263Y-63621732D02*
X143917736Y-63628801D01*
X143980412Y-62970423D02*
X143975396Y-62964811D01*
X142482110Y-62149189D02*
X142489554Y-62150028D01*
X143390434Y-62998556D02*
X143397877Y-62997718D01*
X142323484Y-62071141D02*
X142329096Y-62076157D01*
X143448916Y-62986068D02*
X143455985Y-62983594D01*
X143164095Y-62163294D02*
X143168080Y-62169637D01*
X143770449Y-62847046D02*
X143777892Y-62847885D01*
X143940450Y-63398181D02*
X143944435Y-63391838D01*
X142660965Y-62108366D02*
X142654623Y-62112351D01*
X143915262Y-63452417D02*
X143917736Y-63445348D01*
X102728291Y-59744216D02*
X102604794Y-59693062D01*
X142987473Y-62013480D02*
X142980402Y-62011006D01*
X144054284Y-63183233D02*
X144053445Y-63190677D01*
X141092499Y-60951335D02*
X140969003Y-60900182D01*
X143718098Y-62847047D02*
X143710655Y-62847885D01*
X143883167Y-62884723D02*
X143889510Y-62888708D01*
X143338082Y-62998556D02*
X143330638Y-62997717D01*
X143981662Y-63729320D02*
X143976646Y-63723708D01*
X98204707Y-58738177D02*
X98276160Y-58708580D01*
X142811089Y-62011006D02*
X142804018Y-62013480D01*
X143930909Y-62920920D02*
X143936521Y-62925936D01*
X144012621Y-63302293D02*
X144016607Y-63295950D01*
X143193268Y-62393186D02*
X143190794Y-62400255D01*
X145454843Y-66394843D02*
X145810000Y-66750000D01*
X145175000Y-65420242D02*
X145175000Y-65719240D01*
X144823786Y-64572338D02*
X144194606Y-63943158D01*
X143997146Y-63745699D02*
X144063081Y-63811633D01*
X143957435Y-63700630D02*
X143962121Y-63706506D01*
X143929583Y-63656305D02*
X143926333Y-63649556D01*
X143909043Y-63600145D02*
X143907376Y-63592841D01*
X143901515Y-63540820D02*
X143901515Y-63533327D01*
X143909042Y-63474004D02*
X143907375Y-63481307D01*
X143929584Y-63417843D02*
X143926333Y-63424593D01*
X143957435Y-63373516D02*
X143999623Y-63320615D01*
X143146409Y-62139097D02*
X143151095Y-62144972D01*
X143952900Y-62941420D02*
X143959912Y-62948432D01*
X143111384Y-62099904D02*
X143104372Y-62092892D01*
X143108907Y-62852102D02*
X143113593Y-62857978D01*
X142958815Y-62004786D02*
X142951512Y-62003119D01*
X143059304Y-62053181D02*
X143065179Y-62057866D01*
X143058848Y-62744313D02*
X143060516Y-62751617D01*
X142832676Y-62004787D02*
X142839979Y-62003120D01*
X144048015Y-63220127D02*
X144049682Y-63212824D01*
X142732188Y-62053180D02*
X142726306Y-62057871D01*
X143207017Y-62312276D02*
X143207017Y-62304783D01*
X142685169Y-62090676D02*
X142679287Y-62095367D01*
X143527815Y-62943895D02*
X143533698Y-62939204D01*
X142628212Y-62126468D02*
X142634961Y-62123218D01*
X143182197Y-62421010D02*
X143178946Y-62427760D01*
X142776513Y-62025328D02*
X142783263Y-62022077D01*
X142578801Y-62143759D02*
X142571497Y-62145426D01*
X142899491Y-61997260D02*
X142892000Y-61997260D01*
X97393067Y-58690264D02*
X97275000Y-58572197D01*
X97617666Y-58783298D02*
X97977878Y-58783298D01*
X143420025Y-62993954D02*
X143427329Y-62992287D01*
X98468457Y-58580091D02*
X98523146Y-58525403D01*
X103120338Y-59822200D02*
X132309003Y-59822200D01*
X143199487Y-62245460D02*
X143201154Y-62252763D01*
X143008228Y-62022078D02*
X143014978Y-62025329D01*
X143077805Y-62576065D02*
X143081056Y-62569315D01*
X134302384Y-60822200D02*
X140576957Y-60822200D01*
X99013725Y-58322200D02*
X100626958Y-58322200D01*
X142459963Y-62145426D02*
X142452660Y-62143759D01*
X143251777Y-62974998D02*
X143245026Y-62971747D01*
X142519476Y-62151289D02*
X142511983Y-62151289D01*
X102272434Y-59470986D02*
X101474859Y-58673411D01*
X143625041Y-62873856D02*
X143631791Y-62870605D01*
X133454480Y-60470986D02*
X133156905Y-60173411D01*
X143800040Y-62851648D02*
X143807343Y-62853315D01*
X143182198Y-62196049D02*
X143178947Y-62189299D01*
X143301188Y-62992287D02*
X143308491Y-62993954D01*
X141424859Y-61173411D02*
X142307105Y-62055657D01*
X143201154Y-62364296D02*
X143199487Y-62371599D01*
X142352172Y-62095367D02*
X142346297Y-62090682D01*
X142396498Y-62123219D02*
X142403249Y-62126470D01*
X143360511Y-62999817D02*
X143368004Y-62999817D01*
X143108907Y-62524988D02*
X143151094Y-62472087D01*
X143058847Y-62632779D02*
X143060514Y-62625476D01*
X143052987Y-62684799D02*
X143052987Y-62692292D01*
X143081055Y-62807777D02*
X143077805Y-62801028D01*
X143148618Y-62897171D02*
X143155632Y-62904185D01*
X143200700Y-62943896D02*
X143194824Y-62939210D01*
X143476740Y-62974997D02*
X143483489Y-62971746D01*
X143574833Y-62906399D02*
X143580715Y-62901708D01*
X143681204Y-62853315D02*
X143688507Y-62851648D01*
X144027475Y-63037827D02*
X144030726Y-63044577D01*
X143740528Y-62845788D02*
X143748019Y-62845788D01*
X143856756Y-62870606D02*
X143863505Y-62873856D01*
X143913707Y-62906394D02*
X143907832Y-62901709D01*
X143994937Y-62987625D02*
X143999623Y-62993500D01*
X144049682Y-63101291D02*
X144048015Y-63093988D01*
X144055545Y-63160804D02*
X144055545Y-63153311D01*
X144030725Y-63269538D02*
X144027474Y-63276288D01*
%TO.N,/X8_PET0_N*%
X140945203Y-61306935D02*
X141063090Y-61369947D01*
X100612689Y-58690902D02*
X100479661Y-58677800D01*
X100743792Y-58716980D02*
X100871707Y-58755782D01*
X102840014Y-60164697D02*
X102973042Y-60177800D01*
X98615753Y-58935691D02*
X98555969Y-58984755D01*
X134041462Y-61164697D02*
X134174490Y-61177800D01*
X99161021Y-58677800D02*
X99084054Y-58685380D01*
X97617666Y-59138898D02*
X97582429Y-59142368D01*
X98352003Y-59093777D02*
X98277994Y-59116228D01*
X132925682Y-60444211D02*
X133029011Y-60529011D01*
X97547701Y-59149275D02*
X97513818Y-59159553D01*
X100995203Y-58806935D02*
X101113090Y-58869947D01*
X98730226Y-58831940D02*
X98670442Y-58881003D01*
X132445240Y-60216979D02*
X132573155Y-60255781D01*
X132314137Y-60190901D02*
X132181110Y-60177800D01*
X97340323Y-59284671D02*
X97340323Y-59284671D01*
X97275000Y-59349994D02*
X97275000Y-59349996D01*
X97275000Y-59349997D02*
X97275000Y-59349994D01*
X97275000Y-59349997D02*
X97275000Y-59349997D01*
X97275000Y-59349996D02*
X97275000Y-59349997D01*
X97275000Y-59349996D02*
X97275000Y-59349996D01*
X102580995Y-60099816D02*
X102708910Y-60138619D01*
X141174234Y-61444211D02*
X141277563Y-61529011D01*
X133782443Y-61099816D02*
X133910358Y-61138619D01*
X133541059Y-60985650D02*
X133658946Y-61048662D01*
X98491664Y-59027723D02*
X98423456Y-59064180D01*
X102339611Y-59985650D02*
X102457498Y-60048662D01*
X132696651Y-60306935D02*
X132814538Y-60369947D01*
X97275000Y-59349997D02*
X97275000Y-59349996D01*
X97275000Y-59349997D02*
X97275000Y-59349997D01*
X97275000Y-59349996D02*
X97275000Y-59349997D01*
X97275000Y-59349996D02*
X97275000Y-59349996D01*
X97275000Y-59349995D02*
X97275000Y-59349996D01*
X97275000Y-59349998D02*
X97275000Y-59349995D01*
X97275000Y-59349998D02*
X97275000Y-59349998D01*
X97275000Y-59349997D02*
X97275000Y-59349998D01*
X97275000Y-59349997D02*
X97275000Y-59349997D01*
X97275000Y-59349996D02*
X97275000Y-59349997D01*
X97275000Y-59349996D02*
X97275000Y-59349996D01*
X144617850Y-64924707D02*
X144680862Y-65042594D01*
X98862738Y-58752514D02*
X98794531Y-58788972D01*
X101224234Y-58944211D02*
X101327563Y-59029011D01*
X102125138Y-59826586D02*
X102228467Y-59911386D01*
X97481106Y-59173103D02*
X97449879Y-59189794D01*
X140693792Y-61216980D02*
X140821707Y-61255782D01*
X144458786Y-64710234D02*
X144543586Y-64813563D01*
X144732016Y-65166091D02*
X144770819Y-65294006D01*
X140562689Y-61190902D02*
X140429661Y-61177800D01*
X144796897Y-65425110D02*
X144810000Y-65558138D01*
X98202141Y-59131317D02*
X98125174Y-59138898D01*
X133326586Y-60826586D02*
X133429915Y-60911386D01*
X99008201Y-58700468D02*
X98934191Y-58722918D01*
X97420438Y-59209466D02*
X97393067Y-59231929D01*
X141063090Y-61369947D02*
X141174234Y-61444211D01*
X102339611Y-59985650D02*
X102228467Y-59911386D01*
X132445240Y-60216979D02*
X132314137Y-60190901D01*
X97449879Y-59189794D02*
X97420438Y-59209466D01*
X97582429Y-59142368D02*
X97547701Y-59149275D01*
X97275000Y-59349996D02*
X97275000Y-59349996D01*
X97275000Y-59349996D02*
X97275000Y-59349996D01*
X97275000Y-59349998D02*
X97275000Y-59349998D01*
X102840014Y-60164697D02*
X102708910Y-60138619D01*
X133541059Y-60985650D02*
X133429915Y-60911386D01*
X140693792Y-61216980D02*
X140562689Y-61190902D01*
X97275000Y-59349998D02*
X97275000Y-59349998D01*
X97275000Y-59349998D02*
X97275000Y-59349998D01*
X97275000Y-59349997D02*
X97275000Y-59349997D01*
X97275000Y-59349997D02*
X97275000Y-59349997D01*
X97275000Y-59349999D02*
X97275000Y-59349999D01*
X97275000Y-59349998D02*
X97275000Y-59349998D01*
X97275000Y-59349998D02*
X97275000Y-59349998D01*
X144770819Y-65294006D02*
X144796897Y-65425110D01*
X132925682Y-60444211D02*
X132814538Y-60369947D01*
X98277994Y-59116228D02*
X98202141Y-59131317D01*
X99084054Y-58685380D02*
X99008201Y-58700468D01*
X134041462Y-61164697D02*
X133910358Y-61138619D01*
X98730226Y-58831940D02*
X98794531Y-58788972D01*
X101113090Y-58869947D02*
X101224234Y-58944211D01*
X98555969Y-58984755D02*
X98491664Y-59027723D01*
X144617850Y-64924707D02*
X144543586Y-64813563D01*
X100612689Y-58690902D02*
X100743792Y-58716980D01*
X97513818Y-59159553D02*
X97481106Y-59173103D01*
X102580995Y-60099816D02*
X102457498Y-60048662D01*
X98862738Y-58752514D02*
X98934191Y-58722918D01*
X144680862Y-65042594D02*
X144732016Y-65166091D01*
X132573155Y-60255781D02*
X132696651Y-60306935D01*
X97275000Y-59349998D02*
X97275000Y-59349998D01*
X97275000Y-59349999D02*
X97275000Y-59349999D01*
X97275000Y-59349998D02*
X97275000Y-59349998D01*
X140945203Y-61306935D02*
X140821707Y-61255782D01*
X98352003Y-59093777D02*
X98423456Y-59064180D01*
X133782443Y-61099816D02*
X133658946Y-61048662D01*
X100871707Y-58755782D02*
X100995203Y-58806935D01*
X141277563Y-61529011D02*
X144458786Y-64710234D01*
X134174490Y-61177800D02*
X140429661Y-61177800D01*
X133029011Y-60529011D02*
X133326586Y-60826586D01*
X102973042Y-60177800D02*
X132181110Y-60177800D01*
X101327563Y-59029011D02*
X102125138Y-59826586D01*
X100479661Y-58677800D02*
X99161021Y-58677800D01*
X98615753Y-58935691D02*
X98670442Y-58881003D01*
X97617666Y-59138898D02*
X98125174Y-59138898D01*
X144810000Y-65558138D02*
X144810000Y-68750000D01*
X97275000Y-59349999D02*
X97275000Y-59349999D01*
X97340323Y-59284671D02*
X97393067Y-59231929D01*
%TO.N,/X8_PET1_P*%
X101772434Y-60970986D02*
X101875763Y-61055786D01*
X131959985Y-61335302D02*
X131826957Y-61322200D01*
X97513818Y-60340442D02*
X97547701Y-60350721D01*
X133428291Y-62244216D02*
X133556206Y-62283019D01*
X140796897Y-64322938D02*
X140810000Y-64455966D01*
X97449879Y-60310201D02*
X97481106Y-60326892D01*
X97393067Y-60268067D02*
X97420438Y-60290530D01*
X133186907Y-62130050D02*
X133304794Y-62193062D01*
X132571530Y-61588611D02*
X132674859Y-61673411D01*
X102487310Y-61309097D02*
X102620338Y-61322200D01*
X140732016Y-64063919D02*
X140770819Y-64191834D01*
X132972434Y-61970986D02*
X133075763Y-62055786D01*
X132342499Y-61451335D02*
X132460386Y-61514347D01*
X140458786Y-63608062D02*
X140543586Y-63711391D01*
X101410431Y-60627512D02*
X101513760Y-60712312D01*
X140617850Y-63822535D02*
X140680862Y-63940422D01*
X138940364Y-62361379D02*
X139068279Y-62400181D01*
X132091088Y-61361380D02*
X132219003Y-61400182D01*
X138809261Y-62335301D02*
X138676234Y-62322200D01*
X139420806Y-62588611D02*
X139524135Y-62673411D01*
X102228291Y-61244216D02*
X102356206Y-61283019D01*
X100798886Y-60374202D02*
X100665859Y-60361101D01*
X101181400Y-60490236D02*
X101299287Y-60553248D01*
X100929989Y-60400280D02*
X101057904Y-60439082D01*
X101986907Y-61130050D02*
X102104794Y-61193062D01*
X97582429Y-60357630D02*
X97617666Y-60361101D01*
X133687310Y-62309097D02*
X133820338Y-62322200D01*
X139191775Y-62451335D02*
X139309662Y-62514347D01*
X140543586Y-63711391D02*
X140617850Y-63822535D01*
X133186907Y-62130050D02*
X133075763Y-62055786D01*
X97449879Y-60310201D02*
X97420438Y-60290530D01*
X133556206Y-62283019D02*
X133687310Y-62309097D01*
X100798886Y-60374202D02*
X100929989Y-60400280D01*
X132571530Y-61588611D02*
X132460386Y-61514347D01*
X140796897Y-64322938D02*
X140770819Y-64191834D01*
X131959985Y-61335302D02*
X132091088Y-61361380D01*
X101875763Y-61055786D02*
X101986907Y-61130050D01*
X97547701Y-60350721D02*
X97582429Y-60357630D01*
X138940364Y-62361379D02*
X138809261Y-62335301D01*
X102487310Y-61309097D02*
X102356206Y-61283019D01*
X101410431Y-60627512D02*
X101299287Y-60553248D01*
X139420806Y-62588611D02*
X139309662Y-62514347D01*
X139068279Y-62400181D02*
X139191775Y-62451335D01*
X97513818Y-60340442D02*
X97481106Y-60326892D01*
X140732016Y-64063919D02*
X140680862Y-63940422D01*
X102228291Y-61244216D02*
X102104794Y-61193062D01*
X101181400Y-60490236D02*
X101057904Y-60439082D01*
X132342499Y-61451335D02*
X132219003Y-61400182D01*
X133428291Y-62244216D02*
X133304794Y-62193062D01*
X97393067Y-60268067D02*
X97275000Y-60150000D01*
X100665859Y-60361101D02*
X97617666Y-60361101D01*
X101772434Y-60970986D02*
X101513760Y-60712312D01*
X131826957Y-61322200D02*
X102620338Y-61322200D01*
X132674859Y-61673411D02*
X132972434Y-61970986D01*
X138676234Y-62322200D02*
X133820338Y-62322200D01*
X140458786Y-63608062D02*
X139524135Y-62673411D01*
X140810000Y-64455966D02*
X140810000Y-68750000D01*
%TO.N,/X8_PET1_N*%
X139141072Y-63635084D02*
X139141775Y-63643417D01*
X139933159Y-63748749D02*
X139941256Y-63750837D01*
X140336999Y-64841527D02*
X140330317Y-64846556D01*
X139392668Y-63908795D02*
X139400948Y-63909965D01*
X139921797Y-65441528D02*
X139928479Y-65446557D01*
X137452218Y-63298203D02*
X137459851Y-63301618D01*
X137467577Y-63304819D02*
X137475390Y-63307801D01*
X140058584Y-65500448D02*
X140066864Y-65501618D01*
X137890177Y-62899287D02*
X137888089Y-62907384D01*
X139965153Y-63758454D02*
X139972966Y-63761436D01*
X139809796Y-65160032D02*
X139808627Y-65168312D01*
X138044683Y-62711021D02*
X138037253Y-62714860D01*
X138091251Y-62692492D02*
X138083283Y-62695032D01*
X137179562Y-62758297D02*
X137185638Y-62764042D01*
X139890642Y-64998005D02*
X139884897Y-65004081D01*
X140082657Y-65503397D02*
X140088871Y-65504009D01*
X140176140Y-64903397D02*
X140169926Y-64904009D01*
X137125662Y-62718905D02*
X137132864Y-62723153D01*
X136981948Y-62678976D02*
X136990306Y-62679562D01*
X137277273Y-62980954D02*
X137277536Y-62987192D01*
X139814689Y-65276259D02*
X139816777Y-65284357D01*
X140447599Y-64659905D02*
X140445968Y-64668106D01*
X137875961Y-63043326D02*
X137875349Y-63049540D01*
X139150861Y-63535684D02*
X139148772Y-63543781D01*
X140302262Y-65546953D02*
X140309464Y-65551202D01*
X139808687Y-63745256D02*
X139800486Y-63746887D01*
X139228453Y-62981564D02*
X139233948Y-62987890D01*
X140038665Y-63797748D02*
X140045347Y-63802776D01*
X140399948Y-65636747D02*
X140404594Y-65643700D01*
X139451023Y-63912073D02*
X139442664Y-63912309D01*
X139294220Y-63292337D02*
X139291238Y-63300150D01*
X139760339Y-63758454D02*
X139752526Y-63761436D01*
X137976034Y-62758297D02*
X137969957Y-62764042D01*
X137347329Y-63216937D02*
X137352725Y-63223326D01*
X137358297Y-63229562D02*
X137364042Y-63235638D01*
X140216658Y-64897415D02*
X140208457Y-64899047D01*
X137923153Y-62822732D02*
X137918904Y-62829934D01*
X140356162Y-65586345D02*
X140362238Y-65592090D01*
X137278062Y-63018405D02*
X137278324Y-63024643D01*
X137265418Y-62899287D02*
X137267507Y-62907385D01*
X137303977Y-63145745D02*
X137307393Y-63153378D01*
X139188286Y-63776340D02*
X139192932Y-63783293D01*
X140169926Y-65507684D02*
X140176140Y-65508296D01*
X139841459Y-65065301D02*
X139837620Y-65072731D01*
X139873929Y-65394985D02*
X139879325Y-65401374D01*
X139175542Y-63473650D02*
X139171704Y-63481080D01*
X140452635Y-65793339D02*
X140453221Y-65801697D01*
X140409043Y-65650780D02*
X140413291Y-65657982D01*
X140404593Y-64767992D02*
X140399948Y-64774944D01*
X139197771Y-63790113D02*
X139202799Y-63796795D01*
X139532996Y-63896958D02*
X139525028Y-63899497D01*
X140449749Y-64334913D02*
X140454400Y-64382126D01*
X137836691Y-63175661D02*
X137832442Y-63182863D01*
X137408699Y-63273348D02*
X137415652Y-63277994D01*
X137213480Y-62795197D02*
X137218509Y-62801879D01*
X139854202Y-65367992D02*
X139858848Y-65374945D01*
X137870999Y-63081857D02*
X137869367Y-63090058D01*
X137590339Y-63325678D02*
X137581980Y-63325913D01*
X139579025Y-63877132D02*
X139571596Y-63880970D01*
X137275349Y-62956057D02*
X137275961Y-62962271D01*
X137914860Y-62837254D02*
X137911021Y-62844683D01*
X139208015Y-63803335D02*
X139213410Y-63809724D01*
X140421174Y-64738961D02*
X140417336Y-64746390D01*
X140309463Y-64860491D02*
X140302260Y-64864739D01*
X137718342Y-63290736D02*
X137710913Y-63294574D01*
X137640058Y-63319368D02*
X137631857Y-63320999D01*
X137223347Y-62808699D02*
X137227993Y-62815652D01*
X139254928Y-63365849D02*
X139249899Y-63372531D01*
X138173649Y-62678976D02*
X138165291Y-62679562D01*
X140051908Y-63808008D02*
X140058385Y-63813324D01*
X139255881Y-63849875D02*
X139262563Y-63854904D01*
X139807690Y-65176624D02*
X139806987Y-65184957D01*
X138156941Y-62680266D02*
X138148603Y-62681087D01*
X138933448Y-62726411D02*
X138977825Y-62750131D01*
X140033984Y-64916137D02*
X140025887Y-64918225D01*
X139140604Y-63601653D02*
X139140370Y-63610012D01*
X137277800Y-63005920D02*
X137277887Y-63012163D01*
X137202871Y-62782270D02*
X137208266Y-62788659D01*
X137844574Y-63160913D02*
X137840736Y-63168342D01*
X140077379Y-63829824D02*
X140083555Y-63835502D01*
X137932248Y-62808698D02*
X137927603Y-62815651D01*
X139830577Y-65323793D02*
X139833993Y-65331426D01*
X139307418Y-63243989D02*
X139305787Y-63252190D01*
X102340014Y-61664697D02*
X102473042Y-61677800D01*
X139928479Y-64965136D02*
X139921797Y-64970164D01*
X139827376Y-65095625D02*
X139824394Y-65103438D01*
X139824395Y-65308255D02*
X139827377Y-65316067D01*
X140449000Y-65760032D02*
X140450170Y-65768312D01*
X139269383Y-63859744D02*
X139276336Y-63864390D01*
X139205565Y-62957013D02*
X139211414Y-62963028D01*
X139140370Y-63618376D02*
X139140604Y-63626735D01*
X140454046Y-64593225D02*
X140453693Y-64601607D01*
X140042137Y-65497416D02*
X140050339Y-65499047D01*
X139288038Y-63307876D02*
X139284622Y-63315509D01*
X139806519Y-65193306D02*
X139806285Y-65201665D01*
X140025887Y-65493466D02*
X140033985Y-65495555D01*
X140395108Y-64781765D02*
X140390079Y-64788447D01*
X100651590Y-60729802D02*
X100518563Y-60716701D01*
X140050339Y-64912645D02*
X140042137Y-64914276D01*
X101839611Y-61485650D02*
X101957498Y-61548662D01*
X140294941Y-64868784D02*
X140287512Y-64872622D01*
X140120034Y-65505760D02*
X140126277Y-65505848D01*
X139949292Y-63753153D02*
X139957260Y-63755692D01*
X137565258Y-63325678D02*
X137573617Y-63325913D01*
X140138763Y-65505935D02*
X140132520Y-65505848D01*
X137688019Y-63304818D02*
X137680206Y-63307801D01*
X139230641Y-63827950D02*
X139236718Y-63833694D01*
X139301837Y-63111420D02*
X139303926Y-63119517D01*
X137191554Y-62769958D02*
X137197299Y-62776034D01*
X97547701Y-60727078D02*
X97513818Y-60737356D01*
X139879325Y-65010317D02*
X139873929Y-65016706D01*
X137153717Y-62737088D02*
X137160399Y-62742116D01*
X137886228Y-62915537D02*
X137884597Y-62923739D01*
X139833992Y-65080266D02*
X139830577Y-65087899D01*
X138001879Y-62737087D02*
X137995197Y-62742115D01*
X137276486Y-62968492D02*
X137276924Y-62974721D01*
X140089650Y-63841265D02*
X140095665Y-63847113D01*
X140010608Y-63779564D02*
X140017811Y-63783813D01*
X97481106Y-60750906D02*
X97449879Y-60767597D01*
X97340323Y-60862474D02*
X97340323Y-60862474D01*
X137015332Y-62682026D02*
X137023612Y-62683195D01*
X137746896Y-63273348D02*
X137739944Y-63277993D01*
X140088871Y-64907684D02*
X140082657Y-64908296D01*
X97275000Y-60927797D02*
X97275000Y-60927799D01*
X97275000Y-60927800D02*
X97275000Y-60927797D01*
X97275000Y-60927800D02*
X97275000Y-60927800D01*
X97275000Y-60927799D02*
X97275000Y-60927800D01*
X97275000Y-60927799D02*
X97275000Y-60927799D01*
X139467705Y-63910901D02*
X139459372Y-63911604D01*
X138207194Y-62677800D02*
X138198806Y-62677917D01*
X137422732Y-63282443D02*
X137429934Y-63286691D01*
X139686827Y-63797748D02*
X139680145Y-63802777D01*
X139296983Y-63095416D02*
X139299522Y-63103384D01*
X138838806Y-62692547D02*
X138886958Y-62707154D01*
X139249900Y-63007329D02*
X139254928Y-63014011D01*
X137880248Y-62956057D02*
X137879636Y-62962271D01*
X137292492Y-63114345D02*
X137295032Y-63122313D01*
X140001990Y-64925842D02*
X139994177Y-64928824D01*
X140454281Y-65826854D02*
X140454400Y-65835242D01*
X139280994Y-63323044D02*
X139277156Y-63330473D01*
X137773326Y-63252870D02*
X137766937Y-63258265D01*
X138140264Y-62682026D02*
X138131984Y-62683195D01*
X137288089Y-63098211D02*
X137290177Y-63106309D01*
X139883636Y-63741048D02*
X139891969Y-63741751D01*
X140439703Y-64692393D02*
X140437163Y-64700361D01*
X140126277Y-64905848D02*
X140120034Y-64905934D01*
X101625138Y-61326586D02*
X101728467Y-61411386D01*
X140138763Y-64905759D02*
X140132520Y-64905848D01*
X139283417Y-63868839D02*
X139290620Y-63873087D01*
X140279977Y-64876251D02*
X140272344Y-64879666D01*
X132424234Y-61944211D02*
X132527563Y-62029011D01*
X140113792Y-64906109D02*
X140107554Y-64906371D01*
X137110913Y-62711022D02*
X137118342Y-62714860D01*
X137808266Y-63216937D02*
X137802871Y-63223326D01*
X139343968Y-63896959D02*
X139351936Y-63899499D01*
X137382270Y-63252871D02*
X137388659Y-63258267D01*
X138075390Y-62697794D02*
X138067577Y-62700776D01*
X137531984Y-63322400D02*
X137540264Y-63323569D01*
X139155716Y-63519680D02*
X139153177Y-63527648D01*
X140163705Y-64904534D02*
X140157476Y-64904971D01*
X139142711Y-63651728D02*
X139143880Y-63660008D01*
X139825212Y-63742687D02*
X139816932Y-63743856D01*
X140264618Y-64882867D02*
X140256805Y-64885849D01*
X137876923Y-63030876D02*
X137876486Y-63037105D01*
X139019663Y-62778086D02*
X139058560Y-62810008D01*
X139980692Y-63764637D02*
X139988325Y-63768053D01*
X139986451Y-64932025D02*
X139978818Y-64935440D01*
X137867506Y-63098211D02*
X137865418Y-63106309D01*
X138059851Y-62703977D02*
X138052218Y-62707393D01*
X139312097Y-63177389D02*
X139312333Y-63185748D01*
X136956792Y-62677917D02*
X136948404Y-62677800D01*
X140451109Y-65776651D02*
X140451931Y-65784989D01*
X139729632Y-63771680D02*
X139722202Y-63775519D01*
X139949332Y-65460490D02*
X139956534Y-65464739D01*
X139908870Y-65430919D02*
X139915259Y-65436314D01*
X136965177Y-62678152D02*
X136973559Y-62678505D01*
X137877536Y-63018405D02*
X137877273Y-63024643D01*
X139312903Y-63884599D02*
X139320536Y-63888014D01*
X97420438Y-60787269D02*
X97393067Y-60809732D01*
X140454400Y-64576452D02*
X140454282Y-64584840D01*
X139171705Y-63747308D02*
X139175543Y-63754738D01*
X139268863Y-63034865D02*
X139273111Y-63042068D01*
X137760399Y-63263479D02*
X137753717Y-63268508D01*
X137260564Y-62883284D02*
X137263103Y-62891251D01*
X139845505Y-65353710D02*
X139849753Y-65360912D01*
X97275000Y-60927800D02*
X97275000Y-60927799D01*
X97275000Y-60927800D02*
X97275000Y-60927800D01*
X97275000Y-60927799D02*
X97275000Y-60927800D01*
X97275000Y-60927799D02*
X97275000Y-60927799D01*
X97275000Y-60927798D02*
X97275000Y-60927799D01*
X97275000Y-60927801D02*
X97275000Y-60927798D01*
X97275000Y-60927801D02*
X97275000Y-60927801D01*
X97275000Y-60927800D02*
X97275000Y-60927801D01*
X97275000Y-60927800D02*
X97275000Y-60927800D01*
X97275000Y-60927799D02*
X97275000Y-60927800D01*
X97275000Y-60927799D02*
X97275000Y-60927799D01*
X140157476Y-65506721D02*
X140163705Y-65507159D01*
X101034104Y-60845836D02*
X101151991Y-60908848D01*
X139484296Y-63908795D02*
X139476016Y-63909964D01*
X133039611Y-62485650D02*
X133157498Y-62548662D01*
X139858849Y-65036746D02*
X139854203Y-65043699D01*
X137877800Y-63005920D02*
X137877712Y-63012163D01*
X137883196Y-62931984D02*
X137882027Y-62940264D01*
X139242953Y-63839266D02*
X139249342Y-63844661D01*
X139868716Y-65023244D02*
X139863688Y-65029926D01*
X137369958Y-63241554D02*
X137376034Y-63247299D01*
X140413291Y-64753709D02*
X140409042Y-64760911D01*
X137437254Y-63290736D02*
X137444683Y-63294574D01*
X137318905Y-63175662D02*
X137323153Y-63182864D01*
X139548702Y-63891214D02*
X139540889Y-63894196D01*
X140232909Y-64893466D02*
X140224811Y-64895554D01*
X137907392Y-62852219D02*
X137903976Y-62859852D01*
X140437164Y-65711331D02*
X140439704Y-65719299D01*
X139915259Y-64975378D02*
X139908869Y-64980772D01*
X139978818Y-65476251D02*
X139986451Y-65479666D01*
X139806285Y-65210028D02*
X139806519Y-65218387D01*
X137607021Y-63324506D02*
X137598688Y-63325209D01*
X139299522Y-63276476D02*
X139296983Y-63284444D01*
X137732863Y-63282442D02*
X137725661Y-63286691D01*
X139158479Y-63716602D02*
X139161461Y-63724414D01*
X139425941Y-63912073D02*
X139434300Y-63912309D01*
X140445968Y-65743585D02*
X140447599Y-65751787D01*
X139179588Y-63762057D02*
X139183837Y-63769259D01*
X139808627Y-65243380D02*
X139809796Y-65251660D01*
X139217177Y-62969123D02*
X139222854Y-62975299D01*
X139309988Y-63227464D02*
X139308819Y-63235744D01*
X139884897Y-65407610D02*
X139890642Y-65413686D01*
X140287513Y-65539070D02*
X140294942Y-65542908D01*
X137139944Y-62727602D02*
X137146897Y-62732248D01*
X137031857Y-62684597D02*
X137040059Y-62686228D01*
X140420053Y-66110612D02*
X140403294Y-66141966D01*
X137048211Y-62688089D02*
X137056309Y-62690177D01*
X137988659Y-62747330D02*
X137982270Y-62752725D01*
X140384865Y-64794985D02*
X140379470Y-64801374D01*
X139714883Y-63779564D02*
X139707681Y-63783813D01*
X132825138Y-62326586D02*
X132928467Y-62411386D01*
X138107384Y-62688088D02*
X138099287Y-62690177D01*
X137851619Y-63145745D02*
X137848203Y-63153378D01*
X139359972Y-63901814D02*
X139368069Y-63903902D01*
X140101321Y-64906721D02*
X140095092Y-64907159D01*
X140373898Y-64807610D02*
X140368153Y-64813686D01*
X139168076Y-63488615D02*
X139164660Y-63496248D01*
X140151243Y-64905321D02*
X140145005Y-64905584D01*
X140064786Y-63818729D02*
X140071112Y-63824224D01*
X138789455Y-62682731D02*
X138739379Y-62677800D01*
X137483283Y-63310564D02*
X137491251Y-63313104D01*
X137297795Y-63130206D02*
X137300777Y-63138019D01*
X140329750Y-64081198D02*
X140359847Y-64117871D01*
X139875287Y-63740580D02*
X139866928Y-63740346D01*
X140248913Y-64888612D02*
X140240945Y-64891151D01*
X139700600Y-63788262D02*
X139693647Y-63792908D01*
X131812689Y-61690902D02*
X131679661Y-61677800D01*
X139607581Y-63859743D02*
X139600628Y-63864389D01*
X137900776Y-62867578D02*
X137897794Y-62875390D01*
X139328262Y-63891215D02*
X139336075Y-63894197D01*
X140066864Y-64910075D02*
X140058584Y-64911244D01*
X131943792Y-61716980D02*
X132071707Y-61755782D01*
X137284597Y-63081857D02*
X137286228Y-63090059D01*
X139816777Y-65127335D02*
X139814688Y-65135432D01*
X139409259Y-63910901D02*
X139417592Y-63911604D01*
X139500742Y-63905763D02*
X139492541Y-63907394D01*
X137080206Y-62697794D02*
X137088019Y-62700776D01*
X137327602Y-63189944D02*
X137332248Y-63196897D01*
X139841856Y-63741048D02*
X139833523Y-63741751D01*
X139218982Y-63815960D02*
X139224727Y-63822036D01*
X136998656Y-62680266D02*
X137006994Y-62681087D01*
X139971283Y-64939069D02*
X139963853Y-64942907D01*
X100782693Y-60755880D02*
X100910608Y-60794682D01*
X140240945Y-65520540D02*
X140248913Y-65523080D01*
X140316544Y-65555651D02*
X140323497Y-65560297D01*
X140208457Y-65512645D02*
X140216659Y-65514276D01*
X139821632Y-65111331D02*
X139819093Y-65119299D01*
X137785638Y-63241553D02*
X137779562Y-63247298D01*
X139264413Y-63352076D02*
X139259768Y-63359029D01*
X139896558Y-65419602D02*
X139902634Y-65425347D01*
X139146911Y-63551934D02*
X139145280Y-63560135D01*
X140431419Y-65695625D02*
X140434401Y-65703438D01*
X137818508Y-63203717D02*
X137813480Y-63210399D01*
X139297939Y-63877132D02*
X139305368Y-63880970D01*
X137797299Y-63229562D02*
X137791554Y-63235638D01*
X137827994Y-63189944D02*
X137823348Y-63196897D01*
X137879111Y-62968492D02*
X137878673Y-62974721D01*
X140424803Y-65680266D02*
X140428219Y-65687899D01*
X137672313Y-63310564D02*
X137664345Y-63313103D01*
X140450170Y-64643380D02*
X140449001Y-64651660D01*
X139183836Y-63459129D02*
X139179587Y-63466331D01*
X137656309Y-63315419D02*
X137648211Y-63317507D01*
X140453222Y-64609996D02*
X140452635Y-64618354D01*
X139311628Y-63210820D02*
X139310925Y-63219153D01*
X140095092Y-65504534D02*
X140101321Y-65504971D01*
X137254819Y-62867578D02*
X137257801Y-62875391D01*
X140451931Y-64626704D02*
X140451109Y-64635042D01*
X133540014Y-62664697D02*
X133673042Y-62677800D01*
X139812827Y-65143586D02*
X139811196Y-65151787D01*
X139849753Y-65050780D02*
X139845504Y-65057982D01*
X137279636Y-63043326D02*
X137280248Y-63049540D01*
X139621083Y-63849876D02*
X139614401Y-63854904D01*
X139956534Y-64946952D02*
X139949332Y-64951201D01*
X139148773Y-63684607D02*
X139150861Y-63692704D01*
X140443978Y-66043746D02*
X140433658Y-66077767D01*
X139145281Y-63668253D02*
X139146912Y-63676454D01*
X139858564Y-63740346D02*
X139850205Y-63740580D01*
X102080995Y-61599816D02*
X102208910Y-61638619D01*
X140444107Y-64676259D02*
X140442019Y-64684357D01*
X137282027Y-63065332D02*
X137283196Y-63073612D01*
X139277156Y-63049387D02*
X139280994Y-63056816D01*
X137166937Y-62747330D02*
X137173326Y-62752725D01*
X140024892Y-63788262D02*
X140031845Y-63792908D01*
X140017851Y-64920541D02*
X140009883Y-64923080D01*
X137857801Y-63130206D02*
X137854819Y-63138019D01*
X139837622Y-65338961D02*
X139841460Y-65346390D01*
X139744800Y-63764637D02*
X139737167Y-63768052D01*
X139593547Y-63868839D02*
X139586345Y-63873088D01*
X139284623Y-63064351D02*
X139288038Y-63071984D01*
X139942252Y-64955650D02*
X139935299Y-64960296D01*
X137952725Y-62782268D02*
X137947329Y-62788658D01*
X139192932Y-63445094D02*
X139188286Y-63452047D01*
X139310925Y-63160707D02*
X139311628Y-63169040D01*
X137272400Y-62931984D02*
X137273569Y-62940264D01*
X139935299Y-65451395D02*
X139942252Y-65456041D01*
X139776200Y-63753152D02*
X139768232Y-63755692D01*
X137278674Y-63030876D02*
X137279111Y-63037104D01*
X139153177Y-63700740D02*
X139155716Y-63708708D01*
X140330317Y-65565135D02*
X140336999Y-65570163D01*
X140323497Y-64851395D02*
X140316544Y-64856041D01*
X140009883Y-65488612D02*
X140017851Y-65491151D01*
X140417336Y-65665302D02*
X140421174Y-65672731D01*
X139141775Y-63584971D02*
X139141072Y-63593304D01*
X137095745Y-62703977D02*
X137103378Y-62707393D01*
X139376222Y-63905763D02*
X139384423Y-63907394D01*
X139963854Y-65468784D02*
X139971283Y-65472622D01*
X140200212Y-64900449D02*
X140191932Y-64901618D01*
X140442019Y-65727335D02*
X140444107Y-65735433D01*
X140379471Y-65610318D02*
X140384865Y-65616707D01*
X139202801Y-63431592D02*
X139197772Y-63438274D01*
X140386203Y-64157316D02*
X140408567Y-64199155D01*
X140362238Y-64819602D02*
X140356161Y-64825347D01*
X140145005Y-65506109D02*
X140151243Y-65506372D01*
X132195203Y-61806935D02*
X132313090Y-61869947D01*
X139819093Y-65292393D02*
X139821632Y-65300361D01*
X139902634Y-64986345D02*
X139896558Y-64992090D01*
X137240736Y-62837254D02*
X137244574Y-62844683D01*
X139303926Y-63260343D02*
X139301838Y-63268440D01*
X139811197Y-65259905D02*
X139812828Y-65268107D01*
X139239353Y-62994291D02*
X139244669Y-63000768D01*
X140224811Y-65516137D02*
X140232909Y-65518225D01*
X138190421Y-62678152D02*
X138182039Y-62678505D01*
X137248204Y-62852219D02*
X137251619Y-62859852D01*
X137942115Y-62795196D02*
X137937087Y-62801878D01*
X137337087Y-63203717D02*
X137342115Y-63210399D01*
X137873570Y-63065332D02*
X137872401Y-63073612D01*
X137878324Y-62980954D02*
X137878061Y-62987192D01*
X101263135Y-60983112D02*
X101366464Y-61067912D01*
X137064345Y-62692493D02*
X137072313Y-62695032D01*
X139792333Y-63748749D02*
X139784236Y-63750837D01*
X139161460Y-63503974D02*
X139158478Y-63511787D01*
X140454400Y-65973498D02*
X140450915Y-66008878D01*
X137623612Y-63322400D02*
X137615332Y-63323569D01*
X140256806Y-65525842D02*
X140264619Y-65528824D01*
X139312333Y-63194112D02*
X139312098Y-63202471D01*
X140191932Y-65510075D02*
X140200212Y-65511244D01*
X137232442Y-62822732D02*
X137236691Y-62829934D01*
X137895032Y-62883283D02*
X137892493Y-62891251D01*
X139259768Y-63020831D02*
X139264414Y-63027784D01*
X138029934Y-62718905D02*
X138022732Y-62723153D01*
X137863103Y-63114345D02*
X137860564Y-63122313D01*
X137395197Y-63263481D02*
X137401879Y-63268509D01*
X140107554Y-65505321D02*
X140113792Y-65505584D01*
X140428218Y-64723793D02*
X140424803Y-64731426D01*
X140453693Y-65810087D02*
X140454046Y-65818469D01*
X139143880Y-63568380D02*
X139142711Y-63576660D01*
X137877887Y-62993434D02*
X137877800Y-62999677D01*
X139900280Y-63742687D02*
X139908560Y-63743856D01*
X140349926Y-64830919D02*
X140343537Y-64836314D01*
X139806987Y-65226736D02*
X139807690Y-65235069D01*
X133280995Y-62599816D02*
X133408910Y-62638619D01*
X138123739Y-62684596D02*
X138115537Y-62686227D01*
X140272345Y-65532025D02*
X140279978Y-65535441D01*
X137964042Y-62769957D02*
X137958297Y-62776033D01*
X139291239Y-63079710D02*
X139294221Y-63087523D01*
X137277712Y-62993434D02*
X137277800Y-62999677D01*
X137548576Y-63324506D02*
X137556909Y-63325209D01*
X140343537Y-65575378D02*
X140349926Y-65580773D01*
X138015651Y-62727602D02*
X138008698Y-62732248D01*
X139564061Y-63884599D02*
X139556428Y-63888014D01*
X140368154Y-65598006D02*
X140373899Y-65604082D01*
X140390079Y-65623245D02*
X140395108Y-65629927D01*
X139916805Y-63745257D02*
X139925006Y-63746888D01*
X137499287Y-63315419D02*
X137507385Y-63317507D01*
X137515537Y-63319368D02*
X137523739Y-63320999D01*
X139164661Y-63732140D02*
X139168076Y-63739773D01*
X140426722Y-64242986D02*
X140440494Y-64288384D01*
X139995860Y-63771682D02*
X140003289Y-63775520D01*
X140434401Y-64708254D02*
X140431419Y-64716067D01*
X139994177Y-65482867D02*
X140001990Y-65485849D01*
X137703378Y-63298203D02*
X137695745Y-63301618D01*
X97617666Y-60716701D02*
X97582429Y-60720171D01*
X139273111Y-63337793D02*
X139268862Y-63344995D01*
X139516992Y-63901813D02*
X139508895Y-63903902D01*
X140383543Y-66171526D02*
X140360989Y-66199008D01*
X137311022Y-63160913D02*
X137314860Y-63168342D01*
X137269368Y-62915537D02*
X137270999Y-62923739D01*
X139305787Y-63127670D02*
X139307418Y-63135871D01*
X139863687Y-65381765D02*
X139868715Y-65388447D01*
X139308820Y-63144116D02*
X139309989Y-63152396D01*
X140379470Y-64801374D02*
X140373898Y-64807610D01*
X139963853Y-64942907D02*
X139956534Y-64946952D01*
X139192932Y-63783293D02*
X139197771Y-63790113D01*
X138977825Y-62750131D02*
X139019663Y-62778086D01*
X137292492Y-63114345D02*
X137290177Y-63106309D01*
X139752526Y-63761436D02*
X139744800Y-63764637D01*
X139150861Y-63692704D02*
X139153177Y-63700740D01*
X137531984Y-63322400D02*
X137523739Y-63320999D01*
X139312097Y-63177389D02*
X139311628Y-63169040D01*
X140264619Y-65528824D02*
X140272345Y-65532025D01*
X137903976Y-62859852D02*
X137900776Y-62867578D01*
X139307418Y-63135871D02*
X139308820Y-63144116D01*
X140403294Y-66141966D02*
X140383543Y-66171526D01*
X139233948Y-62987890D02*
X139239353Y-62994291D01*
X140449000Y-65760032D02*
X140447599Y-65751787D01*
X139277156Y-63330473D02*
X139273111Y-63337793D01*
X137878061Y-62987192D02*
X137877887Y-62993434D01*
X140272344Y-64879666D02*
X140264618Y-64882867D01*
X139307418Y-63243989D02*
X139308819Y-63235744D01*
X139143880Y-63660008D02*
X139145281Y-63668253D01*
X140447599Y-64659905D02*
X140449001Y-64651660D01*
X137218509Y-62801879D02*
X137223347Y-62808699D01*
X140120034Y-65505760D02*
X140113792Y-65505584D01*
X137240736Y-62837254D02*
X137236691Y-62829934D01*
X139884897Y-65004081D02*
X139879325Y-65010317D01*
X139211414Y-62963028D02*
X139217177Y-62969123D01*
X139986451Y-65479666D02*
X139994177Y-65482867D01*
X140138763Y-64905759D02*
X140145005Y-64905584D01*
X140323497Y-65560297D02*
X140330317Y-65565135D01*
X137088019Y-62700776D02*
X137095745Y-62703977D01*
X137918904Y-62829934D02*
X137914860Y-62837254D01*
X137459851Y-63301618D02*
X137467577Y-63304819D01*
X140449749Y-64334913D02*
X140440494Y-64288384D01*
X139175543Y-63754738D02*
X139179588Y-63762057D01*
X137023612Y-62683195D02*
X137031857Y-62684597D01*
X137932248Y-62808698D02*
X137937087Y-62801878D01*
X137429934Y-63286691D02*
X137437254Y-63290736D01*
X139883636Y-63741048D02*
X139875287Y-63740580D01*
X139845505Y-65353710D02*
X139841460Y-65346390D01*
X139288038Y-63071984D02*
X139291239Y-63079710D01*
X137773326Y-63252870D02*
X137779562Y-63247298D01*
X137877536Y-63018405D02*
X137877712Y-63012163D01*
X137277536Y-62987192D02*
X137277712Y-62993434D01*
X137836691Y-63175661D02*
X137840736Y-63168342D01*
X139254928Y-63014011D02*
X139259768Y-63020831D01*
X139806987Y-65184957D02*
X139806519Y-65193306D01*
X139858848Y-65374945D02*
X139863687Y-65381765D01*
X97275000Y-60927799D02*
X97275000Y-60927799D01*
X97275000Y-60927799D02*
X97275000Y-60927799D01*
X97275000Y-60927801D02*
X97275000Y-60927801D01*
X139841856Y-63741048D02*
X139850205Y-63740580D01*
X137818508Y-63203717D02*
X137823348Y-63196897D01*
X137851619Y-63145745D02*
X137854819Y-63138019D01*
X139972966Y-63761436D02*
X139980692Y-63764637D01*
X138067577Y-62700776D02*
X138059851Y-62703977D01*
X139686827Y-63797748D02*
X139693647Y-63792908D01*
X137890177Y-62899287D02*
X137892493Y-62891251D01*
X139425941Y-63912073D02*
X139417592Y-63911604D01*
X139301837Y-63111420D02*
X139299522Y-63103384D01*
X136956792Y-62677917D02*
X136965177Y-62678152D01*
X137875961Y-63043326D02*
X137876486Y-63037105D01*
X140428218Y-64723793D02*
X140431419Y-64716067D01*
X139351936Y-63899499D02*
X139359972Y-63901814D01*
X140083555Y-63835502D02*
X140089650Y-63841265D01*
X140439703Y-64692393D02*
X140442019Y-64684357D01*
X139808687Y-63745256D02*
X139816932Y-63743856D01*
X139164660Y-63496248D02*
X139161460Y-63503974D01*
X139140604Y-63601653D02*
X139141072Y-63593304D01*
X139145280Y-63560135D02*
X139143880Y-63568380D01*
X140413291Y-65657982D02*
X140417336Y-65665302D01*
X139841459Y-65065301D02*
X139845504Y-65057982D01*
X138838806Y-62692547D02*
X138789455Y-62682731D01*
X139254928Y-63365849D02*
X139259768Y-63359029D01*
X133540014Y-62664697D02*
X133408910Y-62638619D01*
X140454046Y-64593225D02*
X140454282Y-64584840D01*
X137631857Y-63320999D02*
X137623612Y-63322400D01*
X139607581Y-63859743D02*
X139614401Y-63854904D01*
X139816777Y-65284357D02*
X139819093Y-65292393D01*
X137318905Y-63175662D02*
X137314860Y-63168342D01*
X139484296Y-63908795D02*
X139492541Y-63907394D01*
X137688019Y-63304818D02*
X137695745Y-63301618D01*
X139928479Y-65446557D02*
X139935299Y-65451395D01*
X139579025Y-63877132D02*
X139586345Y-63873088D01*
X140452635Y-64618354D02*
X140451931Y-64626704D01*
X140088871Y-65504009D02*
X140095092Y-65504534D01*
X139806519Y-65218387D02*
X139806987Y-65226736D01*
X137718342Y-63290736D02*
X137725661Y-63286691D01*
X138131984Y-62683195D02*
X138123739Y-62684596D01*
X137664345Y-63313103D02*
X137656309Y-63315419D01*
X140169926Y-64904009D02*
X140163705Y-64904534D01*
X139908870Y-65430919D02*
X139902634Y-65425347D01*
X97449879Y-60767597D02*
X97420438Y-60787269D01*
X137952725Y-62782268D02*
X137958297Y-62776033D01*
X140120034Y-64905934D02*
X140113792Y-64906109D01*
X139809796Y-65251660D02*
X139811197Y-65259905D01*
X139722202Y-63775519D02*
X139714883Y-63779564D01*
X140302262Y-65546953D02*
X140294942Y-65542908D01*
X137284597Y-63081857D02*
X137283196Y-63073612D01*
X140058584Y-65500448D02*
X140050339Y-65499047D01*
X97275000Y-60927801D02*
X97275000Y-60927801D01*
X97275000Y-60927801D02*
X97275000Y-60927801D01*
X97275000Y-60927800D02*
X97275000Y-60927800D01*
X97275000Y-60927800D02*
X97275000Y-60927800D01*
X97275000Y-60927802D02*
X97275000Y-60927802D01*
X97275000Y-60927801D02*
X97275000Y-60927801D01*
X97275000Y-60927801D02*
X97275000Y-60927801D01*
X140417336Y-64746390D02*
X140413291Y-64753709D01*
X137179562Y-62758297D02*
X137173326Y-62752725D01*
X139320536Y-63888014D02*
X139328262Y-63891215D01*
X132424234Y-61944211D02*
X132313090Y-61869947D01*
X140431419Y-65695625D02*
X140428219Y-65687899D01*
X139879325Y-65401374D02*
X139884897Y-65407610D01*
X139175542Y-63473650D02*
X139179587Y-63466331D01*
X140443978Y-66043746D02*
X140450915Y-66008878D01*
X139941256Y-63750837D02*
X139949292Y-63753153D01*
X140330317Y-64846556D02*
X140323497Y-64851395D01*
X137802871Y-63223326D02*
X137797299Y-63229562D01*
X137125662Y-62718905D02*
X137118342Y-62714860D01*
X139908869Y-64980772D02*
X139902634Y-64986345D01*
X139311628Y-63210820D02*
X139312098Y-63202471D01*
X140399948Y-64774944D02*
X140395108Y-64781765D01*
X137279636Y-63043326D02*
X137279111Y-63037104D01*
X137254819Y-62867578D02*
X137251619Y-62859852D01*
X137884597Y-62923739D02*
X137883196Y-62931984D01*
X138165291Y-62679562D02*
X138156941Y-62680266D01*
X138001879Y-62737087D02*
X138008698Y-62732248D01*
X139150861Y-63535684D02*
X139153177Y-63527648D01*
X137332248Y-63196897D02*
X137337087Y-63203717D01*
X139908560Y-63743856D02*
X139916805Y-63745257D01*
X97547701Y-60727078D02*
X97582429Y-60720171D01*
X139994177Y-64928824D02*
X139986451Y-64932025D01*
X138198806Y-62677917D02*
X138190421Y-62678152D01*
X140240945Y-65520540D02*
X140232909Y-65518225D01*
X138091251Y-62692492D02*
X138099287Y-62690177D01*
X139141072Y-63635084D02*
X139140604Y-63626735D01*
X100651590Y-60729802D02*
X100782693Y-60755880D01*
X139213410Y-63809724D02*
X139218982Y-63815960D01*
X137865418Y-63106309D02*
X137863103Y-63114345D01*
X140379471Y-65610318D02*
X140373899Y-65604082D01*
X140439704Y-65719299D02*
X140442019Y-65727335D01*
X133039611Y-62485650D02*
X132928467Y-62411386D01*
X139451023Y-63912073D02*
X139459372Y-63911604D01*
X140356161Y-64825347D02*
X140349926Y-64830919D01*
X137565258Y-63325678D02*
X137556909Y-63325209D01*
X101151991Y-60908848D02*
X101263135Y-60983112D01*
X140452635Y-65793339D02*
X140451931Y-65784989D01*
X137303977Y-63145745D02*
X137300777Y-63138019D01*
X137590339Y-63325678D02*
X137598688Y-63325209D01*
X139236718Y-63833694D02*
X139242953Y-63839266D01*
X137272400Y-62931984D02*
X137270999Y-62923739D01*
X131812689Y-61690902D02*
X131943792Y-61716980D01*
X137153717Y-62737088D02*
X137146897Y-62732248D01*
X140138763Y-65505935D02*
X140145005Y-65506109D01*
X137265418Y-62899287D02*
X137263103Y-62891251D01*
X102340014Y-61664697D02*
X102208910Y-61638619D01*
X138037253Y-62714860D02*
X138029934Y-62718905D01*
X139858849Y-65036746D02*
X139863688Y-65029926D01*
X140302260Y-64864739D02*
X140294941Y-64868784D01*
X140232909Y-64893466D02*
X140240945Y-64891151D01*
X139525028Y-63899497D02*
X139516992Y-63901813D01*
X140088871Y-64907684D02*
X140095092Y-64907159D01*
X140010608Y-63779564D02*
X140003289Y-63775520D01*
X137278062Y-63018405D02*
X137277887Y-63012163D01*
X101839611Y-61485650D02*
X101728467Y-61411386D01*
X139392668Y-63908795D02*
X139384423Y-63907394D01*
X137408699Y-63273348D02*
X137401879Y-63268509D01*
X139827376Y-65095625D02*
X139830577Y-65087899D01*
X137870999Y-63081857D02*
X137872401Y-63073612D01*
X139776200Y-63753152D02*
X139784236Y-63750837D01*
X139273111Y-63042068D02*
X139277156Y-63049387D01*
X139830577Y-65323793D02*
X139827377Y-65316067D01*
X137202871Y-62782270D02*
X137197299Y-62776034D01*
X140169926Y-65507684D02*
X140163705Y-65507159D01*
X139291238Y-63300150D02*
X139288038Y-63307876D01*
X139809796Y-65160032D02*
X139811196Y-65151787D01*
X139548702Y-63891214D02*
X139556428Y-63888014D01*
X137491251Y-63313104D02*
X137499287Y-63315419D01*
X139192932Y-63445094D02*
X139197772Y-63438274D01*
X140399948Y-65636747D02*
X140395108Y-65629927D01*
X140359847Y-64117871D02*
X140386203Y-64157316D01*
X140025887Y-65493466D02*
X140017851Y-65491151D01*
X137879636Y-62962271D02*
X137879111Y-62968492D01*
X136990306Y-62679562D02*
X136998656Y-62680266D01*
X139299522Y-63276476D02*
X139301838Y-63268440D01*
X139956534Y-65464739D02*
X139963854Y-65468784D01*
X137275961Y-62962271D02*
X137276486Y-62968492D01*
X140356162Y-65586345D02*
X140349926Y-65580773D01*
X140058385Y-63813324D02*
X140064786Y-63818729D01*
X140025887Y-64918225D02*
X140017851Y-64920541D01*
X137746896Y-63273348D02*
X137753717Y-63268508D01*
X139290620Y-63873087D02*
X139297939Y-63877132D01*
X137352725Y-63223326D02*
X137358297Y-63229562D01*
X139816777Y-65127335D02*
X139819093Y-65119299D01*
X139262563Y-63854904D02*
X139269383Y-63859744D01*
X140050339Y-64912645D02*
X140058584Y-64911244D01*
X140454281Y-65826854D02*
X140454046Y-65818469D01*
X137382270Y-63252871D02*
X137376034Y-63247299D01*
X137976034Y-62758297D02*
X137982270Y-62752725D01*
X139928479Y-64965136D02*
X139935299Y-64960296D01*
X140208457Y-64899047D02*
X140200212Y-64900449D01*
X140038665Y-63797748D02*
X140031845Y-63792908D01*
X140208457Y-65512645D02*
X140200212Y-65511244D01*
X137056309Y-62690177D02*
X137064345Y-62692493D01*
X139161461Y-63724414D02*
X139164661Y-63732140D01*
X137947329Y-62788658D02*
X137942115Y-62795196D01*
X139141775Y-63584971D02*
X139142711Y-63576660D01*
X139296983Y-63095416D02*
X139294221Y-63087523D01*
X140408567Y-64199155D02*
X140426722Y-64242986D01*
X139183836Y-63459129D02*
X139188286Y-63452047D01*
X137766937Y-63258265D02*
X137760399Y-63263479D01*
X97513818Y-60737356D02*
X97481106Y-60750906D01*
X139532996Y-63896958D02*
X139540889Y-63894196D01*
X137388659Y-63258267D02*
X137395197Y-63263481D01*
X140287512Y-64872622D02*
X140279977Y-64876251D01*
X138933448Y-62726411D02*
X138886958Y-62707154D01*
X137869367Y-63090058D02*
X137867506Y-63098211D01*
X139294220Y-63292337D02*
X139296983Y-63284444D01*
X137278324Y-63024643D02*
X137278674Y-63030876D01*
X139806285Y-65201665D02*
X139806285Y-65210028D01*
X138044683Y-62711021D02*
X138052218Y-62707393D01*
X139978818Y-64935440D02*
X139971283Y-64939069D01*
X140390079Y-64788447D02*
X140384865Y-64794985D01*
X101034104Y-60845836D02*
X100910608Y-60794682D01*
X140077379Y-63829824D02*
X140071112Y-63824224D01*
X132071707Y-61755782D02*
X132195203Y-61806935D01*
X137640058Y-63319368D02*
X137648211Y-63317507D01*
X139873929Y-65016706D02*
X139868716Y-65023244D01*
X140042137Y-65497416D02*
X140033985Y-65495555D01*
X139837620Y-65072731D02*
X139833992Y-65080266D01*
X138173649Y-62678976D02*
X138182039Y-62678505D01*
X137995197Y-62742115D02*
X137988659Y-62747330D01*
X97275000Y-60927801D02*
X97275000Y-60927801D01*
X97275000Y-60927802D02*
X97275000Y-60927802D01*
X97275000Y-60927801D02*
X97275000Y-60927801D01*
X137808266Y-63216937D02*
X137813480Y-63210399D01*
X139141775Y-63643417D02*
X139142711Y-63651728D01*
X140445968Y-65743585D02*
X140444107Y-65735433D01*
X140287513Y-65539070D02*
X140279978Y-65535441D01*
X140445968Y-64668106D02*
X140444107Y-64676259D01*
X137307393Y-63153378D02*
X137311022Y-63160913D01*
X140157476Y-65506721D02*
X140151243Y-65506372D01*
X139891969Y-63741751D02*
X139900280Y-63742687D01*
X137277273Y-62980954D02*
X137276924Y-62974721D01*
X139264413Y-63352076D02*
X139268862Y-63344995D01*
X140101321Y-65504971D02*
X140107554Y-65505321D01*
X139228453Y-62981564D02*
X139222854Y-62975299D01*
X139467705Y-63910901D02*
X139476016Y-63909964D01*
X139600628Y-63864389D02*
X139593547Y-63868839D01*
X140216659Y-65514276D02*
X140224811Y-65516137D01*
X140453693Y-64601607D02*
X140453222Y-64609996D01*
X137507385Y-63317507D02*
X137515537Y-63319368D01*
X139276336Y-63864390D02*
X139283417Y-63868839D01*
X139310925Y-63160707D02*
X139309989Y-63152396D01*
X137244574Y-62844683D02*
X137248204Y-62852219D01*
X139825212Y-63742687D02*
X139833523Y-63741751D01*
X137878673Y-62974721D02*
X137878324Y-62980954D01*
X139155716Y-63519680D02*
X139158478Y-63511787D01*
X137888089Y-62907384D02*
X137886228Y-62915537D01*
X139309988Y-63227464D02*
X139310925Y-63219153D01*
X139158479Y-63716602D02*
X139155716Y-63708708D01*
X137581980Y-63325913D02*
X137573617Y-63325913D01*
X138107384Y-62688088D02*
X138115537Y-62686227D01*
X137911021Y-62844683D02*
X137907392Y-62852219D01*
X139230641Y-63827950D02*
X139224727Y-63822036D01*
X140336999Y-64841527D02*
X140343537Y-64836314D01*
X140216658Y-64897415D02*
X140224811Y-64895554D01*
X140336999Y-65570163D02*
X140343537Y-65575378D01*
X137213480Y-62795197D02*
X137208266Y-62788659D01*
X139343968Y-63896959D02*
X139336075Y-63894197D01*
X139707681Y-63783813D02*
X139700600Y-63788262D01*
X137040059Y-62686228D02*
X137048211Y-62688089D01*
X140420053Y-66110612D02*
X140433658Y-66077767D01*
X139965153Y-63758454D02*
X139957260Y-63755692D01*
X139873929Y-65394985D02*
X139868715Y-65388447D01*
X140157476Y-64904971D02*
X140151243Y-64905321D01*
X139760339Y-63758454D02*
X139768232Y-63755692D01*
X139400948Y-63909965D02*
X139409259Y-63910901D01*
X140421174Y-64738961D02*
X140424803Y-64731426D01*
X133157498Y-62548662D02*
X133280995Y-62599816D01*
X137844574Y-63160913D02*
X137848203Y-63153378D01*
X140384865Y-65616707D02*
X140390079Y-65623245D01*
X139268863Y-63034865D02*
X139264414Y-63027784D01*
X139814688Y-65135432D02*
X139812827Y-65143586D01*
X139921797Y-65441528D02*
X139915259Y-65436314D01*
X137452218Y-63298203D02*
X137444683Y-63294574D01*
X140107554Y-64906371D02*
X140101321Y-64906721D01*
X136981948Y-62678976D02*
X136973559Y-62678505D01*
X137267507Y-62907385D02*
X137269368Y-62915537D01*
X137288089Y-63098211D02*
X137286228Y-63090059D01*
X139921797Y-64970164D02*
X139915259Y-64975378D01*
X139814689Y-65276259D02*
X139812828Y-65268107D01*
X140017811Y-63783813D02*
X140024892Y-63788262D01*
X140033984Y-64916137D02*
X140042137Y-64914276D01*
X101957498Y-61548662D02*
X102080995Y-61599816D01*
X137110913Y-62711022D02*
X137103378Y-62707393D01*
X140424803Y-65680266D02*
X140421174Y-65672731D01*
X137347329Y-63216937D02*
X137342115Y-63210399D01*
X139833993Y-65331426D02*
X139837622Y-65338961D01*
X137710913Y-63294574D02*
X137703378Y-63298203D01*
X139188286Y-63776340D02*
X139183837Y-63769259D01*
X139978818Y-65476251D02*
X139971283Y-65472622D01*
X137876923Y-63030876D02*
X137877273Y-63024643D01*
X137160399Y-62742116D02*
X137166937Y-62747330D01*
X140453221Y-65801697D02*
X140453693Y-65810087D01*
X140360989Y-66199008D02*
X139810000Y-66750000D01*
X140450170Y-65768312D02*
X140451109Y-65776651D01*
X140437164Y-65711331D02*
X140434401Y-65703438D01*
X140404594Y-65643700D02*
X140409043Y-65650780D01*
X140362238Y-65592090D02*
X140368154Y-65598006D01*
X140309464Y-65551202D02*
X140316544Y-65555651D01*
X140248913Y-65523080D02*
X140256806Y-65525842D01*
X140176140Y-65508296D02*
X140191932Y-65510075D01*
X140126277Y-65505848D02*
X140132520Y-65505848D01*
X140066864Y-65501618D02*
X140082657Y-65503397D01*
X140009883Y-65488612D02*
X140001990Y-65485849D01*
X139949332Y-65460490D02*
X139942252Y-65456041D01*
X139890642Y-65413686D02*
X139896558Y-65419602D01*
X139854202Y-65367992D02*
X139849753Y-65360912D01*
X139824395Y-65308255D02*
X139821632Y-65300361D01*
X139808627Y-65243380D02*
X139807690Y-65235069D01*
X139808627Y-65168312D02*
X139807690Y-65176624D01*
X139824394Y-65103438D02*
X139821632Y-65111331D01*
X139854203Y-65043699D02*
X139849753Y-65050780D01*
X139890642Y-64998005D02*
X139896558Y-64992090D01*
X139949332Y-64951201D02*
X139942252Y-64955650D01*
X140001990Y-64925842D02*
X140009883Y-64923080D01*
X140082657Y-64908296D02*
X140066864Y-64910075D01*
X140126277Y-64905848D02*
X140132520Y-64905848D01*
X140176140Y-64903397D02*
X140191932Y-64901618D01*
X140256805Y-64885849D02*
X140248913Y-64888612D01*
X140309463Y-64860491D02*
X140316544Y-64856041D01*
X140368153Y-64813686D02*
X140362238Y-64819602D01*
X140404593Y-64767992D02*
X140409042Y-64760911D01*
X140437163Y-64700361D02*
X140434401Y-64708254D01*
X140450170Y-64643380D02*
X140451109Y-64635042D01*
X140454400Y-64382126D02*
X140454400Y-64576452D01*
X140095665Y-63847113D02*
X140329750Y-64081198D01*
X140045347Y-63802776D02*
X140051908Y-63808008D01*
X139988325Y-63768053D02*
X139995860Y-63771682D01*
X139933159Y-63748749D02*
X139925006Y-63746888D01*
X139866928Y-63740346D02*
X139858564Y-63740346D01*
X139800486Y-63746887D02*
X139792333Y-63748749D01*
X139729632Y-63771680D02*
X139737167Y-63768052D01*
X137857801Y-63130206D02*
X137860564Y-63122313D01*
X139255881Y-63849875D02*
X139249342Y-63844661D01*
X137785638Y-63241553D02*
X137791554Y-63235638D01*
X137832442Y-63182863D02*
X137827994Y-63189944D01*
X137680206Y-63307801D02*
X137672313Y-63310564D01*
X137607021Y-63324506D02*
X137615332Y-63323569D01*
X137475390Y-63307801D02*
X137483283Y-63310564D01*
X137875349Y-63049540D02*
X137873570Y-63065332D01*
X137415652Y-63277994D02*
X137422732Y-63282443D01*
X137323153Y-63182864D02*
X137327602Y-63189944D01*
X137295032Y-63122313D02*
X137297795Y-63130206D01*
X137364042Y-63235638D02*
X137369958Y-63241554D01*
X137277800Y-63005920D02*
X137277800Y-62999677D01*
X137260564Y-62883284D02*
X137257801Y-62875391D01*
X139148773Y-63684607D02*
X139146912Y-63676454D01*
X137540264Y-63323569D02*
X137548576Y-63324506D01*
X137080206Y-62697794D02*
X137072313Y-62695032D01*
X100518563Y-60716701D02*
X97617666Y-60716701D01*
X97340323Y-60862474D02*
X97393067Y-60809732D01*
X102473042Y-61677800D02*
X131679661Y-61677800D01*
X137275349Y-62956057D02*
X137273569Y-62940264D01*
X101625138Y-61326586D02*
X101366464Y-61067912D01*
X139305787Y-63252190D02*
X139303926Y-63260343D01*
X139202799Y-63796795D02*
X139208015Y-63803335D01*
X132527563Y-62029011D02*
X132825138Y-62326586D01*
X139500742Y-63905763D02*
X139508895Y-63903902D01*
X136948404Y-62677800D02*
X133673042Y-62677800D01*
X137015332Y-62682026D02*
X137006994Y-62681087D01*
X137739944Y-63277993D02*
X137732863Y-63282442D01*
X137132864Y-62723153D02*
X137139944Y-62727602D01*
X137280248Y-63049540D02*
X137282027Y-63065332D01*
X137227993Y-62815652D02*
X137232442Y-62822732D01*
X97275000Y-60927802D02*
X97275000Y-60927802D01*
X137185638Y-62764042D02*
X137191554Y-62769958D01*
X139680145Y-63802777D02*
X139621083Y-63849876D01*
X137877800Y-63005920D02*
X137877800Y-62999677D01*
X139368069Y-63903902D02*
X139376222Y-63905763D01*
X137880248Y-62956057D02*
X137882027Y-62940264D01*
X137897794Y-62875390D02*
X137895032Y-62883283D01*
X137923153Y-62822732D02*
X137927603Y-62815651D01*
X137969957Y-62764042D02*
X137964042Y-62769957D01*
X138022732Y-62723153D02*
X138015651Y-62727602D01*
X138083283Y-62695032D02*
X138075390Y-62697794D01*
X138148603Y-62681087D02*
X138140264Y-62682026D01*
X138207194Y-62677800D02*
X138739379Y-62677800D01*
X139205565Y-62957013D02*
X139058560Y-62810008D01*
X139249900Y-63007329D02*
X139244669Y-63000768D01*
X139442664Y-63912309D02*
X139434300Y-63912309D01*
X139280994Y-63056816D02*
X139284623Y-63064351D01*
X139148772Y-63543781D02*
X139146911Y-63551934D01*
X139312903Y-63884599D02*
X139305368Y-63880970D01*
X139303926Y-63119517D02*
X139305787Y-63127670D01*
X139571596Y-63880970D02*
X139564061Y-63884599D01*
X139312333Y-63185748D02*
X139312333Y-63194112D01*
X139284622Y-63315509D02*
X139280994Y-63323044D01*
X139249899Y-63372531D02*
X139202801Y-63431592D01*
X139171705Y-63747308D02*
X139168076Y-63739773D01*
X139171704Y-63481080D02*
X139168076Y-63488615D01*
X139140370Y-63610012D02*
X139140370Y-63618376D01*
X140454400Y-65835242D02*
X140454400Y-65973498D01*
D18*
%TO.N,/SMCLK*%
X154800000Y-66500000D02*
X154800000Y-67250000D01*
X150900000Y-62600000D02*
X154800000Y-66500000D01*
X150900000Y-59350000D02*
X150900000Y-62600000D01*
X148200000Y-56650000D02*
X150900000Y-59350000D01*
X156300000Y-68750000D02*
X156810000Y-68750000D01*
X97125000Y-56650000D02*
X148200000Y-56650000D01*
X95675000Y-58100000D02*
X97125000Y-56650000D01*
X154800000Y-67250000D02*
X156300000Y-68750000D01*
X94250000Y-58950000D02*
X95100000Y-58100000D01*
X94250000Y-61174722D02*
X94250000Y-58950000D01*
X95100000Y-58100000D02*
X95675000Y-58100000D01*
X94347470Y-61272192D02*
X94250000Y-61174722D01*
%TO.N,/SMDAT*%
X151400000Y-62340000D02*
X155810000Y-66750000D01*
X148450000Y-56200000D02*
X151400000Y-59150000D01*
X94450000Y-56200000D02*
X148450000Y-56200000D01*
X93547200Y-57102800D02*
X94450000Y-56200000D01*
X93547200Y-61647200D02*
X93547200Y-57102800D01*
X94150000Y-62250000D02*
X93547200Y-61647200D01*
X151400000Y-59150000D02*
X151400000Y-62340000D01*
X94350004Y-62250000D02*
X94150000Y-62250000D01*
%TO.N,/~PERST*%
X151725000Y-70335000D02*
X150810000Y-71250000D01*
X151725000Y-68150000D02*
X151725000Y-70335000D01*
X149600000Y-66025000D02*
X151725000Y-68150000D01*
X149600000Y-59700002D02*
X149600000Y-66025000D01*
X149900001Y-59400001D02*
X149600000Y-59700002D01*
X94250000Y-63250000D02*
X94350000Y-63250000D01*
X93050000Y-56900000D02*
X93050000Y-62050000D01*
X94200000Y-55750000D02*
X93050000Y-56900000D01*
X93050000Y-62050000D02*
X94250000Y-63250000D01*
X149000000Y-55750000D02*
X94200000Y-55750000D01*
X149900001Y-56650001D02*
X149000000Y-55750000D01*
%TO.N,/~CPRSNT*%
X184250000Y-56250000D02*
X184149988Y-56250000D01*
X94227803Y-64227803D02*
X94350000Y-64227803D01*
X92550000Y-62550000D02*
X94227803Y-64227803D01*
X94000000Y-55300000D02*
X92550000Y-56750000D01*
X183700000Y-55300000D02*
X94000000Y-55300000D01*
X184150000Y-55750000D02*
X183700000Y-55300000D01*
X184149988Y-55750012D02*
X184150000Y-55750000D01*
X92550000Y-56750000D02*
X92550000Y-62550000D01*
X184149988Y-56250000D02*
X184149988Y-55750012D01*
D17*
%TO.N,/X8_PET2_P*%
X132688951Y-63630050D02*
X132806838Y-63693062D01*
X98865442Y-64396914D02*
X98797235Y-64433372D01*
X98618457Y-64580091D02*
X98558673Y-64629155D01*
X99812689Y-64309097D02*
X99679661Y-64322200D01*
X97424879Y-64732398D02*
X97456106Y-64749089D01*
X100527563Y-63970986D02*
X100424234Y-64055786D01*
X101657498Y-62951335D02*
X101539611Y-63014347D01*
X131462029Y-62835301D02*
X131329002Y-62822200D01*
X102173041Y-62822200D02*
X102040013Y-62835301D01*
X97488818Y-64762640D02*
X97522701Y-64772918D01*
X136091065Y-63941516D02*
X136199989Y-63999737D01*
X100313090Y-64130050D02*
X100195203Y-64193062D01*
X135737634Y-63834305D02*
X135614721Y-63822200D01*
X97557429Y-64779827D02*
X97592666Y-64783298D01*
X99010905Y-64344868D02*
X98936895Y-64367318D01*
X132930335Y-63744216D02*
X133058250Y-63783019D01*
X101908910Y-62861379D02*
X101780995Y-62900182D01*
X100071707Y-64244216D02*
X99943792Y-64283019D01*
X136737945Y-64655238D02*
X136773797Y-64773428D01*
X98732930Y-64476340D02*
X98673146Y-64525403D01*
X99163725Y-64322200D02*
X99086758Y-64329780D01*
X136485490Y-64234042D02*
X136563842Y-64329515D01*
X98204845Y-64775716D02*
X98127878Y-64783298D01*
X97368067Y-64690264D02*
X97395438Y-64712727D01*
X136797893Y-64894563D02*
X136810000Y-65017476D01*
X98354707Y-64738177D02*
X98280698Y-64760628D01*
X132073574Y-63088611D02*
X132176903Y-63173411D01*
X131593132Y-62861379D02*
X131721047Y-62900181D01*
X135858769Y-63858400D02*
X135976959Y-63894252D01*
X136302683Y-64068355D02*
X136398155Y-64146707D01*
X133189354Y-63809097D02*
X133322382Y-63822200D01*
X101428467Y-63088611D02*
X101325138Y-63173411D01*
X132474478Y-63470986D02*
X132577807Y-63555786D01*
X136632459Y-64432208D02*
X136690680Y-64541132D01*
X98494368Y-64672123D02*
X98426160Y-64708580D01*
X131844543Y-62951335D02*
X131962430Y-63014347D01*
X132688951Y-63630050D02*
X132577807Y-63555786D01*
X101539611Y-63014347D02*
X101428467Y-63088611D01*
X136199989Y-63999737D02*
X136302683Y-64068355D01*
X136563842Y-64329515D02*
X136632459Y-64432208D01*
X100424234Y-64055786D02*
X100313090Y-64130050D01*
X133058250Y-63783019D02*
X133189354Y-63809097D01*
X135737634Y-63834305D02*
X135858769Y-63858400D01*
X97424879Y-64732398D02*
X97395438Y-64712727D01*
X99812689Y-64309097D02*
X99943792Y-64283019D01*
X98797235Y-64433372D02*
X98732930Y-64476340D01*
X98204845Y-64775716D02*
X98280698Y-64760628D01*
X99010905Y-64344868D02*
X99086758Y-64329780D01*
X131462029Y-62835301D02*
X131593132Y-62861379D01*
X102040013Y-62835301D02*
X101908910Y-62861379D01*
X98558673Y-64629155D02*
X98494368Y-64672123D01*
X136773797Y-64773428D02*
X136797893Y-64894563D01*
X132073574Y-63088611D02*
X131962430Y-63014347D01*
X97522701Y-64772918D02*
X97557429Y-64779827D01*
X131721047Y-62900181D02*
X131844543Y-62951335D01*
X136091065Y-63941516D02*
X135976959Y-63894252D01*
X98354707Y-64738177D02*
X98426160Y-64708580D01*
X132806838Y-63693062D02*
X132930335Y-63744216D01*
X100195203Y-64193062D02*
X100071707Y-64244216D01*
X101657498Y-62951335D02*
X101780995Y-62900182D01*
X98865442Y-64396914D02*
X98936895Y-64367318D01*
X97456106Y-64749089D02*
X97488818Y-64762640D01*
X136737945Y-64655238D02*
X136690680Y-64541132D01*
X97368067Y-64690264D02*
X97250000Y-64572197D01*
X132176903Y-63173411D02*
X132474478Y-63470986D01*
X135614721Y-63822200D02*
X133322382Y-63822200D01*
X136485490Y-64234042D02*
X136398155Y-64146707D01*
X131329002Y-62822200D02*
X102173041Y-62822200D01*
X136810000Y-65017476D02*
X136810000Y-68750000D01*
X100527563Y-63970986D02*
X101325138Y-63173411D01*
X99679661Y-64322200D02*
X99163725Y-64322200D01*
X97592666Y-64783298D02*
X98127878Y-64783298D01*
X98618457Y-64580091D02*
X98673146Y-64525403D01*
%TO.N,/X8_PET2_N*%
X133992116Y-64295196D02*
X133987088Y-64301877D01*
X136238980Y-66306034D02*
X136170412Y-66389585D01*
X134014042Y-64269957D02*
X134008297Y-64276034D01*
X133517578Y-65002949D02*
X133525391Y-65005931D01*
X134687254Y-64988866D02*
X134694683Y-64992704D01*
X135140177Y-64399287D02*
X135138089Y-64407384D01*
X133835638Y-64939683D02*
X133829561Y-64945428D01*
X135127917Y-64498806D02*
X135127800Y-64507194D01*
X133315417Y-64399287D02*
X133317506Y-64407385D01*
X133927800Y-64696534D02*
X133927681Y-64704922D01*
X135440421Y-64178152D02*
X135432039Y-64178505D01*
X134526034Y-64465291D02*
X134526621Y-64473649D01*
X134441554Y-64269958D02*
X134447299Y-64276034D01*
X133950776Y-64367577D02*
X133947794Y-64375390D01*
X134717577Y-65002949D02*
X134725390Y-65005931D01*
X133290736Y-64337253D02*
X133294574Y-64344683D01*
X134079934Y-64218904D02*
X134072732Y-64223153D01*
X134173739Y-64184596D02*
X134165538Y-64186227D01*
X134452871Y-64282270D02*
X134458267Y-64288659D01*
X134416937Y-64247329D02*
X134423326Y-64252725D01*
X133823326Y-64951000D02*
X133816937Y-64956395D01*
X133657021Y-65022635D02*
X133648688Y-65023338D01*
X135127446Y-64713307D02*
X135127093Y-64721689D01*
X135035638Y-64939684D02*
X135029561Y-64945428D01*
X134240339Y-64179920D02*
X134231980Y-64179686D01*
X133098211Y-64188089D02*
X133106309Y-64190177D01*
X135010399Y-64961609D02*
X135003717Y-64966638D01*
X134608297Y-64927692D02*
X134614042Y-64933768D01*
X134765537Y-65017498D02*
X134773739Y-65019129D01*
X133397330Y-64915067D02*
X133402725Y-64921456D01*
X134389944Y-64227602D02*
X134396897Y-64232248D01*
X134645197Y-64961609D02*
X134651879Y-64966638D01*
X134815258Y-65023808D02*
X134823617Y-65024043D01*
X135423649Y-64178976D02*
X135415291Y-64179562D01*
X133982248Y-64308697D02*
X133977602Y-64315650D01*
X134527093Y-64482039D02*
X134527446Y-64490421D01*
X134561022Y-64859043D02*
X134564860Y-64866473D01*
X134702218Y-64996333D02*
X134709851Y-64999748D01*
X133931087Y-64448603D02*
X133930266Y-64456941D01*
X134026033Y-64258297D02*
X134019957Y-64264042D01*
X133203717Y-64237087D02*
X133210399Y-64242115D01*
X133445197Y-64961610D02*
X133451879Y-64966639D01*
X133581984Y-65020530D02*
X133590264Y-65021699D01*
X134527800Y-64696534D02*
X134527917Y-64704922D01*
X134522400Y-64431984D02*
X134523569Y-64440264D01*
X136454400Y-65703980D02*
X136443805Y-65811545D01*
X134619958Y-64939684D02*
X134626035Y-64945428D01*
X134922312Y-65008693D02*
X134914345Y-65011233D01*
X132791135Y-64173737D02*
X132832376Y-64177800D01*
X135129562Y-64465291D02*
X135128976Y-64473649D01*
X134873612Y-65020530D02*
X134865332Y-65021699D01*
X133598576Y-65022635D02*
X133606909Y-65023338D01*
X135373739Y-64184596D02*
X135365537Y-64186228D01*
X133334596Y-64779987D02*
X133336228Y-64788189D01*
X97315323Y-65284671D02*
X97315323Y-65284671D01*
X135094574Y-64859043D02*
X135090736Y-64866472D01*
X98641664Y-65027722D02*
X98573456Y-65064180D01*
X135136228Y-64415537D02*
X135134597Y-64423739D01*
X134519368Y-64415537D02*
X134520999Y-64423739D01*
X98880226Y-64831940D02*
X98820441Y-64881003D01*
X135117507Y-64796341D02*
X135115418Y-64804439D01*
X133868508Y-64901847D02*
X133863479Y-64908529D01*
X134672732Y-64980572D02*
X134679934Y-64984821D01*
X133145745Y-64203977D02*
X133153378Y-64207392D01*
X134890058Y-65017498D02*
X134881857Y-65019129D01*
X97522701Y-65149275D02*
X97488818Y-65159553D01*
X99012738Y-64752514D02*
X98944531Y-64788972D01*
X136221688Y-64473136D02*
X136277876Y-64541601D01*
X133252871Y-64282270D02*
X133258265Y-64288659D01*
X133298204Y-64352219D02*
X133301619Y-64359852D01*
X97395438Y-65209466D02*
X97368067Y-65231929D01*
X134597330Y-64915067D02*
X134602725Y-64921456D01*
X133940177Y-64399287D02*
X133938089Y-64407384D01*
X134528152Y-64713307D02*
X134528505Y-64721689D01*
X133706309Y-65013548D02*
X133698211Y-65015637D01*
X133338089Y-64796341D02*
X133340177Y-64804439D01*
X134265332Y-64182027D02*
X134273612Y-64183196D01*
X135325390Y-64197794D02*
X135317577Y-64200776D01*
X134360913Y-64211022D02*
X134368343Y-64214859D01*
X133241554Y-64269958D02*
X133247299Y-64276034D01*
X133015177Y-64178152D02*
X133023559Y-64178505D01*
X133419958Y-64939684D02*
X133426034Y-64945429D01*
X134038658Y-64247329D02*
X134032269Y-64252725D01*
X133858265Y-64915067D02*
X133852870Y-64921456D01*
X134658699Y-64971477D02*
X134665652Y-64976123D01*
X133216937Y-64247330D02*
X133223326Y-64252725D01*
X133957392Y-64352218D02*
X133953977Y-64359851D01*
X135765484Y-64183595D02*
X135706640Y-64177800D01*
X133928505Y-64482039D02*
X133928152Y-64490421D01*
X132569511Y-64068916D02*
X132601545Y-64095206D01*
X134528976Y-64730078D02*
X134529562Y-64738436D01*
X133926621Y-64730078D02*
X133926034Y-64738436D01*
X134781984Y-65020530D02*
X134790264Y-65021699D01*
X102320337Y-63177800D02*
X102187309Y-63190901D01*
X133810399Y-64961609D02*
X133803717Y-64966638D01*
X133533283Y-65008694D02*
X133541251Y-65011233D01*
X134473347Y-64308699D02*
X134477993Y-64315652D01*
X133565538Y-65017497D02*
X133573739Y-65019129D01*
X133273348Y-64308699D02*
X133277994Y-64315652D01*
X133549287Y-65013548D02*
X133557385Y-65015636D01*
X134532026Y-64763462D02*
X134533195Y-64771742D01*
X135126622Y-64730078D02*
X135126034Y-64738436D01*
X133768342Y-64988866D02*
X133760913Y-64992704D01*
X133615258Y-65023808D02*
X133623617Y-65024043D01*
X100460386Y-64485650D02*
X100342499Y-64548662D01*
X133722313Y-65008693D02*
X133714345Y-65011233D01*
X133322400Y-64431984D02*
X133323570Y-64440264D01*
X100674859Y-64326586D02*
X100571530Y-64411386D01*
X133327093Y-64482039D02*
X133327446Y-64490421D01*
X135058265Y-64915067D02*
X135052870Y-64921456D01*
X135131087Y-64448603D02*
X135130266Y-64456941D01*
X134403717Y-64237087D02*
X134410399Y-64242115D01*
X100219003Y-64599816D02*
X100091088Y-64638618D01*
X133894574Y-64859043D02*
X133890736Y-64866472D01*
X133327682Y-64498806D02*
X133327800Y-64507194D01*
X133945032Y-64383283D02*
X133942493Y-64391251D01*
X133327800Y-64696534D02*
X133327917Y-64704922D01*
X134733283Y-65008693D02*
X134741251Y-65011233D01*
X134206909Y-64180388D02*
X134198576Y-64181091D01*
X135309851Y-64203977D02*
X135302218Y-64207392D01*
X134190264Y-64182027D02*
X134181984Y-64183196D01*
X134330206Y-64197794D02*
X134338019Y-64200776D01*
X134314345Y-64192492D02*
X134322313Y-64195032D01*
X131697246Y-63306935D02*
X131815133Y-63369947D01*
X131926277Y-63444211D02*
X132029606Y-63529011D01*
X133673612Y-65020530D02*
X133665332Y-65021699D01*
X99311021Y-64677800D02*
X99234054Y-64685380D01*
X98502004Y-65093777D02*
X98427994Y-65116228D01*
X134534597Y-64779987D02*
X134536228Y-64788189D01*
X135214042Y-64269957D02*
X135208297Y-64276033D01*
X135202725Y-64282269D02*
X135197329Y-64288658D01*
X133690059Y-65017498D02*
X133681857Y-65019129D01*
X134530266Y-64746786D02*
X134531087Y-64755124D01*
X133936228Y-64415537D02*
X133934597Y-64423739D01*
X133319368Y-64415537D02*
X133320999Y-64423739D01*
X133640339Y-65023808D02*
X133631980Y-65024043D01*
X135125330Y-64746786D02*
X135124508Y-64755124D01*
X134553977Y-64843875D02*
X134557393Y-64851508D01*
X134938018Y-65002948D02*
X134930205Y-65005931D01*
X135145032Y-64383283D02*
X135142493Y-64391251D01*
X133324509Y-64448603D02*
X133325330Y-64456941D01*
X101575763Y-63444211D02*
X101472434Y-63529011D01*
X135238658Y-64247329D02*
X135232270Y-64252724D01*
X133310563Y-64383284D02*
X133313102Y-64391251D01*
X135182249Y-64308698D02*
X135177603Y-64315651D01*
X135251877Y-64237088D02*
X135245196Y-64242116D01*
X133738019Y-65002949D02*
X133730206Y-65005931D01*
X133487254Y-64988866D02*
X133494683Y-64992704D01*
X134498203Y-64352219D02*
X134501619Y-64359852D01*
X136349980Y-66120842D02*
X136299029Y-66216165D01*
X135341251Y-64192492D02*
X135333283Y-64195032D01*
X97250000Y-65349994D02*
X97250000Y-65349996D01*
X97250000Y-65349997D02*
X97250000Y-65349994D01*
X97250000Y-65349997D02*
X97250000Y-65349997D01*
X97250000Y-65349996D02*
X97250000Y-65349997D01*
X97250000Y-65349996D02*
X97250000Y-65349996D01*
X134504819Y-64367578D02*
X134507801Y-64375391D01*
X133917506Y-64796341D02*
X133915417Y-64804439D01*
X134906309Y-65013549D02*
X134898211Y-65015637D01*
X135823478Y-64195130D02*
X135880061Y-64212294D01*
X133229562Y-64258297D02*
X133235638Y-64264042D01*
X134490736Y-64337254D02*
X134494574Y-64344683D01*
X133973153Y-64322732D02*
X133968904Y-64329934D01*
X101804794Y-63306935D02*
X101686907Y-63369947D01*
X135192116Y-64295196D02*
X135187088Y-64301878D01*
X134094683Y-64211020D02*
X134087254Y-64214859D01*
X134587088Y-64901847D02*
X134592116Y-64908529D01*
X133189944Y-64227603D02*
X133196897Y-64232249D01*
X133432270Y-64951001D02*
X133438659Y-64956396D01*
X133081857Y-64184596D02*
X133090059Y-64186228D01*
X133175662Y-64218905D02*
X133182864Y-64223154D01*
X135390264Y-64182026D02*
X135381984Y-64183195D01*
X134547795Y-64828337D02*
X134550777Y-64836149D01*
X133796897Y-64971478D02*
X133789944Y-64976123D01*
X133458699Y-64971477D02*
X133465652Y-64976123D01*
X135128505Y-64482039D02*
X135128152Y-64490421D01*
X135023326Y-64951000D02*
X135016937Y-64956395D01*
X134463481Y-64295197D02*
X134468509Y-64301879D01*
X131445835Y-63216980D02*
X131573750Y-63255782D01*
X136445718Y-64946805D02*
X136454400Y-65034947D01*
X102056206Y-63216979D02*
X101928291Y-63255782D01*
X133361022Y-64859043D02*
X133364859Y-64866473D01*
X134577603Y-64888074D02*
X134582249Y-64895027D01*
X134996897Y-64971477D02*
X134989944Y-64976123D01*
X133753378Y-64996333D02*
X133745745Y-64999749D01*
X133048656Y-64180267D02*
X133056994Y-64181087D01*
X133263479Y-64295197D02*
X133268508Y-64301879D01*
X133328152Y-64713307D02*
X133328505Y-64721689D01*
X97456106Y-65173103D02*
X97424879Y-65189794D01*
X133933196Y-64431984D02*
X133932027Y-64440264D01*
X133920999Y-64779987D02*
X133919368Y-64788189D01*
X134798576Y-65022636D02*
X134806909Y-65023339D01*
X133332026Y-64763462D02*
X133333195Y-64771742D01*
X133964859Y-64337254D02*
X133961021Y-64344683D01*
X135457194Y-64177800D02*
X135448806Y-64177917D01*
X135406941Y-64180266D02*
X135398603Y-64181087D01*
X134968341Y-64988866D02*
X134960912Y-64992704D01*
X133065332Y-64182026D02*
X133073612Y-64183195D01*
X135934690Y-64234922D02*
X135986838Y-64262796D01*
X134632270Y-64951000D02*
X134638659Y-64956395D01*
X134051878Y-64237087D02*
X134045196Y-64242115D01*
X133130206Y-64197794D02*
X133138019Y-64200776D01*
X133114345Y-64192493D02*
X133122313Y-64195032D01*
X135077993Y-64888074D02*
X135073347Y-64895027D01*
X134982863Y-64980573D02*
X134975661Y-64984822D01*
X133907801Y-64828336D02*
X133904818Y-64836149D01*
X135133196Y-64431984D02*
X135132027Y-64440264D01*
X99959985Y-64664697D02*
X99826957Y-64677800D01*
X133877993Y-64888074D02*
X133873347Y-64895027D01*
X134510564Y-64383283D02*
X134513103Y-64391251D01*
X133886691Y-64873792D02*
X133882442Y-64880994D01*
X135150777Y-64367578D02*
X135147795Y-64375391D01*
X133330267Y-64746786D02*
X133331087Y-64755124D01*
X136402728Y-64775182D02*
X136428439Y-64859937D01*
X133925330Y-64746786D02*
X133924508Y-64755124D01*
X133353977Y-64843875D02*
X133357393Y-64851508D01*
X133472732Y-64980572D02*
X133479934Y-64984821D01*
X135113103Y-64812475D02*
X135110563Y-64820442D01*
X98352141Y-65131317D02*
X98275174Y-65138898D01*
X133347794Y-64828336D02*
X133350776Y-64836149D01*
X134542492Y-64812475D02*
X134545032Y-64820443D01*
X134109851Y-64203976D02*
X134102218Y-64207392D01*
X131314732Y-63190902D02*
X131181704Y-63177800D01*
X134248688Y-64180388D02*
X134257021Y-64181091D01*
X134568905Y-64873792D02*
X134573154Y-64880994D01*
X134953377Y-64996333D02*
X134945744Y-64999748D01*
X134223617Y-64179686D02*
X134215258Y-64179920D01*
X133282443Y-64322732D02*
X133286692Y-64329934D01*
X133927917Y-64498806D02*
X133927800Y-64507194D01*
X134429562Y-64258297D02*
X134435638Y-64264042D01*
X135127800Y-64696534D02*
X135127682Y-64704922D01*
X134857021Y-65022636D02*
X134848688Y-65023339D01*
X135173153Y-64322732D02*
X135168904Y-64329934D01*
X135101618Y-64843874D02*
X135098203Y-64851507D01*
X133326034Y-64465291D02*
X133326622Y-64473649D01*
X134157385Y-64188089D02*
X134149287Y-64190177D01*
X133387088Y-64901847D02*
X133392116Y-64908529D01*
X134141251Y-64192493D02*
X134133283Y-64195032D01*
X134281857Y-64184597D02*
X134290059Y-64186228D01*
X133782863Y-64980572D02*
X133775661Y-64984821D01*
X135279934Y-64218904D02*
X135272732Y-64223153D01*
X97250000Y-65349997D02*
X97250000Y-65349996D01*
X97250000Y-65349997D02*
X97250000Y-65349997D01*
X97250000Y-65349996D02*
X97250000Y-65349997D01*
X97250000Y-65349996D02*
X97250000Y-65349996D01*
X97250000Y-65349995D02*
X97250000Y-65349996D01*
X97250000Y-65349998D02*
X97250000Y-65349995D01*
X97250000Y-65349998D02*
X97250000Y-65349998D01*
X97250000Y-65349997D02*
X97250000Y-65349998D01*
X97250000Y-65349997D02*
X97250000Y-65349997D01*
X97250000Y-65349996D02*
X97250000Y-65349997D01*
X97250000Y-65349996D02*
X97250000Y-65349996D01*
X134515419Y-64399287D02*
X134517507Y-64407385D01*
X135265650Y-64227602D02*
X135258697Y-64232248D01*
X133927446Y-64713307D02*
X133927093Y-64721689D01*
X134524508Y-64448603D02*
X134525330Y-64456941D01*
X134298211Y-64188089D02*
X134306309Y-64190177D01*
X135107801Y-64828335D02*
X135104819Y-64836148D01*
X134482442Y-64322732D02*
X134486691Y-64329934D01*
X133408297Y-64927692D02*
X133414042Y-64933768D01*
X132710835Y-64153623D02*
X132750491Y-64165653D01*
X133923569Y-64763462D02*
X133922400Y-64771742D01*
X136327082Y-64615244D02*
X136368834Y-64693355D01*
X99158201Y-64700468D02*
X99084191Y-64722918D01*
X136036002Y-64295647D02*
X136081710Y-64333158D01*
X133160913Y-64211021D02*
X133168342Y-64214860D01*
X133031948Y-64178976D02*
X133040306Y-64179563D01*
X135357385Y-64188089D02*
X135349287Y-64190177D01*
X135294683Y-64211022D02*
X135287254Y-64214860D01*
X135120999Y-64779987D02*
X135119368Y-64788189D01*
X135123569Y-64763462D02*
X135122400Y-64771742D01*
X135164859Y-64337254D02*
X135161021Y-64344683D01*
X134527682Y-64498806D02*
X134527800Y-64507194D01*
X134002725Y-64282270D02*
X133997330Y-64288659D01*
X134125390Y-64197794D02*
X134117577Y-64200776D01*
X134749287Y-65013548D02*
X134757385Y-65015637D01*
X134345745Y-64203977D02*
X134353378Y-64207393D01*
X133006792Y-64177917D02*
X132998404Y-64177800D01*
X97592666Y-65138898D02*
X97557429Y-65142368D01*
X133929563Y-64465291D02*
X133928976Y-64473649D01*
X135226034Y-64258297D02*
X135219958Y-64264042D01*
X135157392Y-64352219D02*
X135153977Y-64359852D01*
X133328976Y-64730078D02*
X133329563Y-64738436D01*
X133368904Y-64873792D02*
X133373153Y-64880994D01*
X133377602Y-64888074D02*
X133382248Y-64895027D01*
X132636002Y-64118229D02*
X132672549Y-64137764D01*
X135086691Y-64873792D02*
X135082442Y-64880994D01*
X134065651Y-64227602D02*
X134058698Y-64232248D01*
X133304819Y-64367578D02*
X133307801Y-64375391D01*
X133901618Y-64843875D02*
X133898203Y-64851508D01*
X134538089Y-64796341D02*
X134540177Y-64804439D01*
X135047298Y-64927692D02*
X135041553Y-64933768D01*
X134840339Y-65023808D02*
X134831980Y-65024043D01*
X98765753Y-64935692D02*
X98705969Y-64984755D01*
X136422719Y-65917554D02*
X136391343Y-66020985D01*
X135068508Y-64901847D02*
X135063480Y-64908529D01*
X133502219Y-64996334D02*
X133509852Y-64999749D01*
X133913102Y-64812475D02*
X133910563Y-64820443D01*
X133847299Y-64927692D02*
X133841554Y-64933768D01*
X133342493Y-64812475D02*
X133345032Y-64820443D01*
X134375662Y-64218904D02*
X134382864Y-64223153D01*
X134542492Y-64812475D02*
X134540177Y-64804439D01*
X134873612Y-65020530D02*
X134881857Y-65019129D01*
X133768342Y-64988866D02*
X133775661Y-64984821D01*
X135317577Y-64200776D02*
X135309851Y-64203977D01*
X133402725Y-64921456D02*
X133408297Y-64927692D01*
X134008297Y-64276034D02*
X134002725Y-64282270D01*
X133738019Y-65002949D02*
X133745745Y-64999749D01*
X135232270Y-64252724D02*
X135226034Y-64258297D01*
X135440421Y-64178152D02*
X135448806Y-64177917D01*
X135208297Y-64276033D02*
X135202725Y-64282269D01*
X97250000Y-65349996D02*
X97250000Y-65349996D01*
X97250000Y-65349996D02*
X97250000Y-65349996D01*
X97250000Y-65349998D02*
X97250000Y-65349998D01*
X133290736Y-64337253D02*
X133286692Y-64329934D01*
X136238980Y-66306034D02*
X136299029Y-66216165D01*
X133364859Y-64866473D02*
X133368904Y-64873792D01*
X135140177Y-64399287D02*
X135142493Y-64391251D01*
X134533195Y-64771742D02*
X134534597Y-64779987D01*
X133915417Y-64804439D02*
X133913102Y-64812475D01*
X133928152Y-64490421D02*
X133927917Y-64498806D01*
X133926034Y-64738436D02*
X133925330Y-64746786D01*
X135168904Y-64329934D02*
X135164859Y-64337254D01*
X134473347Y-64308699D02*
X134468509Y-64301879D01*
X133606909Y-65023338D02*
X133615258Y-65023808D01*
X135127446Y-64713307D02*
X135127682Y-64704922D01*
X98641664Y-65027722D02*
X98705969Y-64984755D01*
X134741251Y-65011233D02*
X134749287Y-65013548D01*
X134526034Y-64465291D02*
X134525330Y-64456941D01*
X133353977Y-64843875D02*
X133350776Y-64836149D01*
X133987088Y-64301877D02*
X133982248Y-64308697D01*
X135341251Y-64192492D02*
X135349287Y-64190177D01*
X134447299Y-64276034D02*
X134452871Y-64282270D01*
X97250000Y-65349998D02*
X97250000Y-65349998D01*
X97250000Y-65349998D02*
X97250000Y-65349998D01*
X97250000Y-65349997D02*
X97250000Y-65349997D01*
X97250000Y-65349997D02*
X97250000Y-65349997D01*
X97250000Y-65349999D02*
X97250000Y-65349999D01*
X97250000Y-65349998D02*
X97250000Y-65349998D01*
X97250000Y-65349998D02*
X97250000Y-65349998D01*
X134368343Y-64214859D02*
X134375662Y-64218904D01*
X134717577Y-65002949D02*
X134709851Y-64999748D01*
X133203717Y-64237087D02*
X133196897Y-64232249D01*
X133829561Y-64945428D02*
X133823326Y-64951000D01*
X134527446Y-64490421D02*
X134527682Y-64498806D01*
X135129562Y-64465291D02*
X135130266Y-64456941D01*
X135251877Y-64237088D02*
X135258697Y-64232248D01*
X133803717Y-64966638D02*
X133796897Y-64971478D01*
X135120999Y-64779987D02*
X135122400Y-64771742D01*
X134608297Y-64927692D02*
X134602725Y-64921456D01*
X134587088Y-64901847D02*
X134582249Y-64895027D01*
X134396897Y-64232248D02*
X134403717Y-64237087D01*
X100091088Y-64638618D02*
X99959985Y-64664697D01*
X134240339Y-64179920D02*
X134248688Y-64180388D01*
X134501619Y-64359852D02*
X134504819Y-64367578D01*
X133081857Y-64184596D02*
X133073612Y-64183195D01*
X133048656Y-64180267D02*
X133040306Y-64179563D01*
X131815133Y-63369947D02*
X131926277Y-63444211D01*
X101575763Y-63444211D02*
X101686907Y-63369947D01*
X135029561Y-64945428D02*
X135023326Y-64951000D01*
X133334596Y-64779987D02*
X133333195Y-64771742D01*
X133387088Y-64901847D02*
X133382248Y-64895027D01*
X135115418Y-64804439D02*
X135113103Y-64812475D01*
X134938018Y-65002948D02*
X134945744Y-64999748D01*
X133517578Y-65002949D02*
X133509852Y-64999749D01*
X133325330Y-64456941D02*
X133326034Y-64465291D01*
X135126034Y-64738436D02*
X135125330Y-64746786D01*
X133968904Y-64329934D02*
X133964859Y-64337254D01*
X133451879Y-64966639D02*
X133458699Y-64971477D01*
X133223326Y-64252725D02*
X133229562Y-64258297D01*
X133852870Y-64921456D02*
X133847299Y-64927692D01*
X98880226Y-64831940D02*
X98944531Y-64788972D01*
X133927681Y-64704922D02*
X133927446Y-64713307D01*
X136277876Y-64541601D02*
X136327082Y-64615244D01*
X135986838Y-64262796D02*
X136036002Y-64295647D01*
X133541251Y-65011233D02*
X133549287Y-65013548D01*
X133315417Y-64399287D02*
X133313102Y-64391251D01*
X133330267Y-64746786D02*
X133329563Y-64738436D01*
X135765484Y-64183595D02*
X135823478Y-64195130D01*
X133252871Y-64282270D02*
X133247299Y-64276034D01*
X134206909Y-64180388D02*
X134215258Y-64179920D01*
X133327446Y-64490421D02*
X133327682Y-64498806D01*
X133904818Y-64836149D02*
X133901618Y-64843875D01*
X134626035Y-64945428D02*
X134632270Y-64951000D01*
X133930266Y-64456941D02*
X133929563Y-64465291D01*
X134051878Y-64237087D02*
X134058698Y-64232248D01*
X133950776Y-64367577D02*
X133953977Y-64359851D01*
X135182249Y-64308698D02*
X135187088Y-64301878D01*
X135003717Y-64966638D02*
X134996897Y-64971477D01*
X133920999Y-64779987D02*
X133922400Y-64771742D01*
X134527917Y-64704922D02*
X134528152Y-64713307D01*
X135073347Y-64895027D02*
X135068508Y-64901847D01*
X135101618Y-64843874D02*
X135104819Y-64836148D01*
X133581984Y-65020530D02*
X133573739Y-65019129D01*
X133301619Y-64359852D02*
X133304819Y-64367578D01*
X134273612Y-64183196D02*
X134281857Y-64184597D01*
X134914345Y-65011233D02*
X134906309Y-65013549D01*
X134564860Y-64866473D02*
X134568905Y-64873792D01*
X97395438Y-65209466D02*
X97424879Y-65189794D01*
X133648688Y-65023338D02*
X133640339Y-65023808D01*
X133145745Y-64203977D02*
X133138019Y-64200776D01*
X134079934Y-64218904D02*
X134087254Y-64214859D01*
X134651879Y-64966638D02*
X134658699Y-64971477D01*
X134423326Y-64252725D02*
X134429562Y-64258297D01*
X132791135Y-64173737D02*
X132750491Y-64165653D01*
X134522400Y-64431984D02*
X134520999Y-64423739D01*
X133106309Y-64190177D02*
X133114345Y-64192493D01*
X97522701Y-65149275D02*
X97557429Y-65142368D01*
X134173739Y-64184596D02*
X134181984Y-64183196D01*
X134968341Y-64988866D02*
X134975661Y-64984822D01*
X136443805Y-65811545D02*
X136422719Y-65917554D01*
X133868508Y-64901847D02*
X133873347Y-64895027D01*
X134513103Y-64391251D02*
X134515419Y-64399287D01*
X134687254Y-64988866D02*
X134679934Y-64984821D01*
X134529562Y-64738436D02*
X134530266Y-64746786D01*
X136445718Y-64946805D02*
X136428439Y-64859937D01*
X135373739Y-64184596D02*
X135381984Y-64183195D01*
X135134597Y-64423739D02*
X135133196Y-64431984D01*
X133426034Y-64945429D02*
X133432270Y-64951001D01*
X98427994Y-65116228D02*
X98352141Y-65131317D01*
X135150777Y-64367578D02*
X135153977Y-64359852D01*
X133340177Y-64804439D02*
X133342493Y-64812475D01*
X133673612Y-65020530D02*
X133681857Y-65019129D01*
X133327917Y-64704922D02*
X133328152Y-64713307D01*
X134109851Y-64203976D02*
X134117577Y-64200776D01*
X134773739Y-65019129D02*
X134781984Y-65020530D01*
X134848688Y-65023339D02*
X134840339Y-65023808D01*
X133890736Y-64866472D02*
X133886691Y-64873792D01*
X134490736Y-64337254D02*
X134486691Y-64329934D01*
X133706309Y-65013548D02*
X133714345Y-65011233D01*
X133940177Y-64399287D02*
X133942493Y-64391251D01*
X132601545Y-64095206D02*
X132636002Y-64118229D01*
X135127917Y-64498806D02*
X135128152Y-64490421D01*
X134338019Y-64200776D02*
X134345745Y-64203977D01*
X135279934Y-64218904D02*
X135287254Y-64214860D01*
X135090736Y-64866472D02*
X135086691Y-64873792D01*
X134815258Y-65023808D02*
X134806909Y-65023339D01*
X133322400Y-64431984D02*
X133320999Y-64423739D01*
X135415291Y-64179562D02*
X135406941Y-64180266D01*
X134314345Y-64192492D02*
X134306309Y-64190177D01*
X131445835Y-63216980D02*
X131314732Y-63190902D01*
X134553977Y-64843875D02*
X134550777Y-64836149D01*
X134026033Y-64258297D02*
X134032269Y-64252725D01*
X100460386Y-64485650D02*
X100571530Y-64411386D01*
X133487254Y-64988866D02*
X133479934Y-64984821D01*
X135052870Y-64921456D02*
X135047298Y-64927692D01*
X99234054Y-64685380D02*
X99158201Y-64700468D01*
X134149287Y-64190177D02*
X134141251Y-64192493D01*
X133175662Y-64218905D02*
X133168342Y-64214860D01*
X102187309Y-63190901D02*
X102056206Y-63216979D01*
X133934597Y-64423739D02*
X133933196Y-64431984D01*
X133273348Y-64308699D02*
X133268508Y-64301879D01*
X133015177Y-64178152D02*
X133006792Y-64177917D01*
X133328505Y-64721689D02*
X133328976Y-64730078D01*
X133445197Y-64961610D02*
X133438659Y-64956396D01*
X135138089Y-64407384D02*
X135136228Y-64415537D01*
X133926621Y-64730078D02*
X133927093Y-64721689D01*
X133816937Y-64956395D02*
X133810399Y-64961609D01*
X98573456Y-65064180D02*
X98502004Y-65093777D01*
X135058265Y-64915067D02*
X135063480Y-64908529D01*
X133294574Y-64344683D02*
X133298204Y-64352219D01*
X135197329Y-64288658D02*
X135192116Y-64295196D01*
X134038658Y-64247329D02*
X134045196Y-64242115D01*
X134765537Y-65017498D02*
X134757385Y-65015637D01*
X133494683Y-64992704D02*
X133502219Y-64996334D01*
X100342499Y-64548662D02*
X100219003Y-64599816D01*
X133397330Y-64915067D02*
X133392116Y-64908529D01*
X133565538Y-65017497D02*
X133557385Y-65015636D01*
X134498203Y-64352219D02*
X134494574Y-64344683D01*
X135432039Y-64178505D02*
X135423649Y-64178976D01*
X133153378Y-64207392D02*
X133160913Y-64211021D01*
X133917506Y-64796341D02*
X133919368Y-64788189D01*
X134561022Y-64859043D02*
X134557393Y-64851508D01*
X134290059Y-64186228D02*
X134298211Y-64188089D01*
X132710835Y-64153623D02*
X132672549Y-64137764D01*
X135238658Y-64247329D02*
X135245196Y-64242116D01*
X135127093Y-64721689D02*
X135126622Y-64730078D01*
X134597330Y-64915067D02*
X134592116Y-64908529D01*
X133928505Y-64482039D02*
X133928976Y-64473649D01*
X134823617Y-65024043D02*
X134831980Y-65024043D01*
X135161021Y-64344683D02*
X135157392Y-64352219D01*
X135302218Y-64207392D02*
X135294683Y-64211022D01*
X133098211Y-64188089D02*
X133090059Y-64186228D01*
X134526621Y-64473649D02*
X134527093Y-64482039D01*
X134458267Y-64288659D02*
X134463481Y-64295197D01*
X133023559Y-64178505D02*
X133031948Y-64178976D01*
X134360913Y-64211022D02*
X134353378Y-64207393D01*
X135094574Y-64859043D02*
X135098203Y-64851507D01*
X134645197Y-64961609D02*
X134638659Y-64956395D01*
X133317506Y-64407385D02*
X133319368Y-64415537D01*
X133623617Y-65024043D02*
X133631980Y-65024043D01*
X134094683Y-64211020D02*
X134102218Y-64207392D01*
X101804794Y-63306935D02*
X101928291Y-63255782D01*
X134528505Y-64721689D02*
X134528976Y-64730078D01*
X133336228Y-64788189D02*
X133338089Y-64796341D01*
X134694683Y-64992704D02*
X134702218Y-64996333D01*
X133361022Y-64859043D02*
X133357393Y-64851508D01*
X134519368Y-64415537D02*
X134517507Y-64407385D01*
X134960912Y-64992704D02*
X134953377Y-64996333D01*
X133698211Y-65015637D02*
X133690059Y-65017498D01*
X133863479Y-64908529D02*
X133858265Y-64915067D01*
X133760913Y-64992704D02*
X133753378Y-64996333D01*
X135880061Y-64212294D02*
X135934690Y-64234922D01*
X134890058Y-65017498D02*
X134898211Y-65015637D01*
X134165538Y-64186227D02*
X134157385Y-64188089D01*
X133210399Y-64242115D02*
X133216937Y-64247330D01*
X133258265Y-64288659D02*
X133263479Y-64295197D01*
X133894574Y-64859043D02*
X133898203Y-64851508D01*
X135010399Y-64961609D02*
X135016937Y-64956395D01*
X99012738Y-64752514D02*
X99084191Y-64722918D01*
X97250000Y-65349998D02*
X97250000Y-65349998D01*
X97250000Y-65349999D02*
X97250000Y-65349999D01*
X97250000Y-65349998D02*
X97250000Y-65349998D01*
X133992116Y-64295196D02*
X133997330Y-64288659D01*
X97488818Y-65159553D02*
X97456106Y-65173103D01*
X136349980Y-66120842D02*
X136391343Y-66020985D01*
X135128976Y-64473649D02*
X135128505Y-64482039D01*
X131697246Y-63306935D02*
X131573750Y-63255782D01*
X135117507Y-64796341D02*
X135119368Y-64788189D01*
X133957392Y-64352218D02*
X133961021Y-64344683D01*
X136402728Y-64775182D02*
X136368834Y-64693355D01*
X134536228Y-64788189D02*
X134538089Y-64796341D01*
X134231980Y-64179686D02*
X134223617Y-64179686D01*
X133938089Y-64407384D02*
X133936228Y-64415537D01*
X134416937Y-64247329D02*
X134410399Y-64242115D01*
X133327093Y-64482039D02*
X133326622Y-64473649D01*
X135365537Y-64186228D02*
X135357385Y-64188089D01*
X136170412Y-66389585D02*
X135810000Y-66750000D01*
X136221688Y-64473136D02*
X136081710Y-64333158D01*
X135325390Y-64197794D02*
X135333283Y-64195032D01*
X135131087Y-64448603D02*
X135132027Y-64440264D01*
X135706640Y-64177800D02*
X135457194Y-64177800D01*
X133877993Y-64888074D02*
X133882442Y-64880994D01*
X133835638Y-64939683D02*
X133841554Y-64933768D01*
X135390264Y-64182026D02*
X135398603Y-64181087D01*
X133590264Y-65021699D02*
X133598576Y-65022635D01*
X133525391Y-65005931D02*
X133533283Y-65008694D01*
X133373153Y-64880994D02*
X133377602Y-64888074D01*
X133056994Y-64181087D02*
X133065332Y-64182026D01*
X135177603Y-64315651D02*
X135173153Y-64322732D01*
X133347794Y-64828336D02*
X133345032Y-64820443D01*
X135110563Y-64820442D02*
X135107801Y-64828335D01*
X133332026Y-64763462D02*
X133331087Y-64755124D01*
X133130206Y-64197794D02*
X133122313Y-64195032D01*
X133327800Y-64507194D02*
X133327800Y-64696534D01*
X133310563Y-64383284D02*
X133307801Y-64375391D01*
X134532026Y-64763462D02*
X134531087Y-64755124D01*
X133277994Y-64315652D02*
X133282443Y-64322732D01*
X99311021Y-64677800D02*
X99826957Y-64677800D01*
X98275174Y-65138898D02*
X97592666Y-65138898D01*
X132832376Y-64177800D02*
X132998404Y-64177800D01*
X136454400Y-65703980D02*
X136454400Y-65034947D01*
X132569511Y-64068916D02*
X132029606Y-63529011D01*
X133657021Y-65022635D02*
X133665332Y-65021699D01*
X134989944Y-64976123D02*
X134982863Y-64980573D01*
X98820441Y-64881003D02*
X98765753Y-64935692D01*
X133789944Y-64976123D02*
X133782863Y-64980572D01*
X133189944Y-64227603D02*
X133182864Y-64223154D01*
X133241554Y-64269958D02*
X133235638Y-64264042D01*
X133907801Y-64828336D02*
X133910563Y-64820443D01*
X97250000Y-65349999D02*
X97250000Y-65349999D01*
X100674859Y-64326586D02*
X101472434Y-63529011D01*
X102320337Y-63177800D02*
X131181704Y-63177800D01*
X135214042Y-64269957D02*
X135219958Y-64264042D01*
X134265332Y-64182027D02*
X134257021Y-64181091D01*
X133465652Y-64976123D02*
X133472732Y-64980572D01*
X97315323Y-65284671D02*
X97368067Y-65231929D01*
X135124508Y-64755124D02*
X135123569Y-64763462D01*
X134441554Y-64269958D02*
X134435638Y-64264042D01*
X135127800Y-64507194D02*
X135127800Y-64696534D01*
X133323570Y-64440264D02*
X133324509Y-64448603D01*
X133924508Y-64755124D02*
X133923569Y-64763462D01*
X133927800Y-64696534D02*
X133927800Y-64507194D01*
X133931087Y-64448603D02*
X133932027Y-64440264D01*
X133947794Y-64375390D02*
X133945032Y-64383283D01*
X134922312Y-65008693D02*
X134930205Y-65005931D01*
X133977602Y-64315650D02*
X133973153Y-64322732D01*
X134014042Y-64269957D02*
X134019957Y-64264042D01*
X134133283Y-64195032D02*
X134125390Y-64197794D01*
X134198576Y-64181091D02*
X134190264Y-64182027D01*
X134330206Y-64197794D02*
X134322313Y-64195032D01*
X134389944Y-64227602D02*
X134382864Y-64223153D01*
X135035638Y-64939684D02*
X135041553Y-64933768D01*
X135272732Y-64223153D02*
X135265650Y-64227602D01*
X134477993Y-64315652D02*
X134482442Y-64322732D01*
X134523569Y-64440264D02*
X134524508Y-64448603D01*
X134547795Y-64828337D02*
X134545032Y-64820443D01*
X135145032Y-64383283D02*
X135147795Y-64375391D01*
X134577603Y-64888074D02*
X134573154Y-64880994D01*
X133419958Y-64939684D02*
X133414042Y-64933768D01*
X134614042Y-64933768D02*
X134619958Y-64939684D01*
X134507801Y-64375391D02*
X134510564Y-64383283D01*
X134672732Y-64980572D02*
X134665652Y-64976123D01*
X134072732Y-64223153D02*
X134065651Y-64227602D01*
X134725390Y-65005931D02*
X134733283Y-65008693D01*
X134790264Y-65021699D02*
X134798576Y-65022636D01*
X134527800Y-64696534D02*
X134527800Y-64507194D01*
X134865332Y-65021699D02*
X134857021Y-65022636D01*
X133722313Y-65008693D02*
X133730206Y-65005931D01*
X135077993Y-64888074D02*
X135082442Y-64880994D01*
%TO.N,/X8_PET3_P*%
X132458786Y-65458786D02*
X132543586Y-65562115D01*
X102329915Y-64588611D02*
X102226586Y-64673411D01*
X132732016Y-65914643D02*
X132770819Y-66042558D01*
X103074488Y-64322200D02*
X102941461Y-64335301D01*
X131089640Y-64361379D02*
X131217555Y-64400181D01*
X130958537Y-64335301D02*
X130825510Y-64322200D01*
X97557429Y-66357629D02*
X97592666Y-66361101D01*
X100175236Y-66347998D02*
X100042208Y-66361101D01*
X102558946Y-64451335D02*
X102441059Y-64514347D01*
X100890110Y-66009887D02*
X100786781Y-66094687D01*
X100434254Y-66283117D02*
X100306339Y-66321920D01*
X97368067Y-66268067D02*
X97395438Y-66290530D01*
X132617850Y-65673259D02*
X132680862Y-65791146D01*
X100675637Y-66168951D02*
X100557750Y-66231963D01*
X97424879Y-66310202D02*
X97456106Y-66326893D01*
X131341051Y-64451335D02*
X131458938Y-64514347D01*
X102810358Y-64361379D02*
X102682443Y-64400181D01*
X131570082Y-64588611D02*
X131673411Y-64673411D01*
X132796897Y-66173662D02*
X132810000Y-66306690D01*
X97488818Y-66340443D02*
X97522701Y-66350721D01*
X102941461Y-64335301D02*
X102810358Y-64361379D01*
X131089640Y-64361379D02*
X130958537Y-64335301D01*
X102329915Y-64588611D02*
X102441059Y-64514347D01*
X100175236Y-66347998D02*
X100306339Y-66321920D01*
X131458938Y-64514347D02*
X131570082Y-64588611D01*
X97557429Y-66357629D02*
X97522701Y-66350721D01*
X132770819Y-66042558D02*
X132796897Y-66173662D01*
X97395438Y-66290530D02*
X97424879Y-66310202D01*
X132543586Y-65562115D02*
X132617850Y-65673259D01*
X100786781Y-66094687D02*
X100675637Y-66168951D01*
X100434254Y-66283117D02*
X100557750Y-66231963D01*
X132732016Y-65914643D02*
X132680862Y-65791146D01*
X97456106Y-66326893D02*
X97488818Y-66340443D01*
X102558946Y-64451335D02*
X102682443Y-64400181D01*
X131217555Y-64400181D02*
X131341051Y-64451335D01*
X97368067Y-66268067D02*
X97250000Y-66150000D01*
X97592666Y-66361101D02*
X100042208Y-66361101D01*
X102226586Y-64673411D02*
X100890110Y-66009887D01*
X132458786Y-65458786D02*
X131673411Y-64673411D01*
X132810000Y-66306690D02*
X132810000Y-68750000D01*
X103074488Y-64322200D02*
X130825510Y-64322200D01*
%TO.N,/X8_PET3_N*%
X128630038Y-65374265D02*
X128623961Y-65380010D01*
X131196651Y-64806935D02*
X131314538Y-64869947D01*
X128085136Y-64837254D02*
X128088974Y-64844684D01*
X127576648Y-64808699D02*
X127572002Y-64815652D01*
X128717969Y-65198044D02*
X128716800Y-65206324D01*
X128984664Y-64682027D02*
X128976384Y-64683196D01*
X127545177Y-64867579D02*
X127542194Y-64875391D01*
X128296619Y-65430915D02*
X128304252Y-65434331D01*
X127801309Y-64680388D02*
X127792976Y-64681091D01*
X126932489Y-65230923D02*
X126934577Y-65239021D01*
X128662908Y-65336429D02*
X128657879Y-65343111D01*
X127496019Y-65278456D02*
X127492603Y-65286089D01*
X126909818Y-64899288D02*
X126911907Y-64907386D01*
X126740145Y-64703978D02*
X126747778Y-64707394D01*
X127970062Y-64718906D02*
X127977264Y-64723154D01*
X102703346Y-64806935D02*
X102585459Y-64869947D01*
X97456106Y-66750906D02*
X97424879Y-66767597D01*
X127521021Y-65164659D02*
X127520434Y-65173017D01*
X126601192Y-64677917D02*
X126592804Y-64677800D01*
X127362742Y-65423448D02*
X127355313Y-65427286D01*
X128126427Y-65198044D02*
X128127596Y-65206324D01*
X127300709Y-65448129D02*
X127292611Y-65450218D01*
X128722317Y-64998805D02*
X128722200Y-65007193D01*
X128820433Y-64758298D02*
X128814357Y-64764043D01*
X128311978Y-65437531D02*
X128319791Y-65440513D01*
X128719729Y-65181367D02*
X128718908Y-65189705D01*
X127452665Y-65349649D02*
X127447270Y-65356038D01*
X128124667Y-65181367D02*
X128125488Y-65189705D01*
X127551792Y-64852220D02*
X127548377Y-64859853D01*
X126942195Y-65262919D02*
X126945177Y-65270731D01*
X126963305Y-65308374D02*
X126967553Y-65315576D01*
X128281654Y-65423448D02*
X128289083Y-65427286D01*
X128696018Y-65278457D02*
X128692602Y-65286090D01*
X128702201Y-65262918D02*
X128699219Y-65270731D01*
X127559260Y-64837254D02*
X127555422Y-64844684D01*
X127192976Y-65457217D02*
X127201309Y-65457920D01*
X126626348Y-64678976D02*
X126634706Y-64679562D01*
X128239597Y-65396192D02*
X128246279Y-65401221D01*
X127039597Y-65396191D02*
X127046279Y-65401220D01*
X126928997Y-65214569D02*
X126930628Y-65222771D01*
X128191730Y-65349649D02*
X128197125Y-65356038D01*
X126981488Y-65336429D02*
X126986516Y-65343111D01*
X132297706Y-65827203D02*
X132331251Y-65889962D01*
X128113767Y-64915539D02*
X128115399Y-64923740D01*
X127002697Y-65362274D02*
X127008442Y-65368350D01*
X102474315Y-64944211D02*
X102370986Y-65029011D01*
X128226670Y-65385583D02*
X128233059Y-65390978D01*
X127859732Y-64682027D02*
X127868012Y-64683196D01*
X127014358Y-65374266D02*
X127020435Y-65380010D01*
X97592666Y-66716701D02*
X97557429Y-66720171D01*
X127404799Y-65396191D02*
X127398117Y-65401220D01*
X128376384Y-65455112D02*
X128384664Y-65456281D01*
X126948377Y-65278457D02*
X126951793Y-65286090D01*
X126916800Y-64931985D02*
X126917970Y-64940265D01*
X127472393Y-65322656D02*
X127467748Y-65329608D01*
X127251421Y-65457217D02*
X127243088Y-65457920D01*
X130945240Y-64716979D02*
X131073155Y-64755781D01*
X128935651Y-64692493D02*
X128927683Y-64695033D01*
X128122081Y-64998805D02*
X128122200Y-65007193D01*
X127481091Y-65308373D02*
X127476842Y-65315575D01*
X128409658Y-65458389D02*
X128418017Y-65458624D01*
X131425682Y-64944211D02*
X131529011Y-65029011D01*
X126918909Y-64948603D02*
X126919731Y-64956941D01*
X132255951Y-66644046D02*
X132224779Y-66669628D01*
X127522905Y-64982038D02*
X127522552Y-64990420D01*
X128121493Y-64982038D02*
X128121846Y-64990420D01*
X128919790Y-64697795D02*
X128911977Y-64700777D01*
X128751792Y-64852219D02*
X128748376Y-64859852D01*
X126835954Y-64769959D02*
X126841699Y-64776035D01*
X126885136Y-64837255D02*
X126888974Y-64844684D01*
X127620434Y-64758298D02*
X127614357Y-64764043D01*
X127053099Y-65406059D02*
X127060052Y-65410705D01*
X126811337Y-64747331D02*
X126817726Y-64752726D01*
X126922200Y-65131114D02*
X126922317Y-65139502D01*
X126847271Y-64782271D02*
X126852667Y-64788660D01*
X100319636Y-66703598D02*
X100186608Y-66716701D01*
X127567554Y-64822733D02*
X127563305Y-64829935D01*
X129001341Y-64680266D02*
X128993003Y-64681088D01*
X127127683Y-65443276D02*
X127135651Y-65445816D01*
X132359488Y-66505912D02*
X132339722Y-66542893D01*
X128617726Y-65385582D02*
X128611337Y-65390977D01*
X127026670Y-65385582D02*
X127033059Y-65390977D01*
X126770062Y-64718906D02*
X126777264Y-64723154D01*
X128122552Y-65147887D02*
X128122905Y-65156269D01*
X127784664Y-64682028D02*
X127776384Y-64683197D01*
X128721021Y-65164659D02*
X128720434Y-65173017D01*
X128057879Y-64795198D02*
X128062908Y-64801880D01*
X127768139Y-64684598D02*
X127759937Y-64686229D01*
X127998117Y-64737088D02*
X128004799Y-64742117D01*
X128343687Y-65448130D02*
X128351785Y-65450218D01*
X126991730Y-65349649D02*
X126997125Y-65356038D01*
X128047271Y-64782271D02*
X128052665Y-64788660D01*
X127519730Y-65181367D02*
X127518908Y-65189705D01*
X128725487Y-64948603D02*
X128724666Y-64956941D01*
X128652665Y-65349649D02*
X128647270Y-65356038D01*
X128109817Y-64899288D02*
X128111906Y-64907386D01*
X126924667Y-65181367D02*
X126925487Y-65189705D01*
X126922552Y-65147887D02*
X126922905Y-65156269D01*
X127586515Y-64795197D02*
X127581487Y-64801879D01*
X127081654Y-65423448D02*
X127089083Y-65427286D01*
X97395438Y-66787269D02*
X97368067Y-66809732D01*
X128484458Y-65452079D02*
X128476257Y-65453710D01*
X128067748Y-64808700D02*
X128072394Y-64815653D01*
X127316713Y-65443275D02*
X127308745Y-65445814D01*
X128136892Y-65247057D02*
X128139432Y-65255025D01*
X129034821Y-64678152D02*
X129026439Y-64678505D01*
X126798117Y-64737089D02*
X126804799Y-64742117D01*
X128128997Y-65214569D02*
X128130628Y-65222771D01*
X127660051Y-64727603D02*
X127653098Y-64732249D01*
X127892611Y-64688090D02*
X127900709Y-64690178D01*
X128202697Y-65362274D02*
X128208442Y-65368350D01*
X127719789Y-64697796D02*
X127711977Y-64700778D01*
X128267132Y-65415154D02*
X128274334Y-65419403D01*
X127955313Y-64711023D02*
X127962742Y-64714861D01*
X126659732Y-64682027D02*
X126668012Y-64683196D01*
X127234739Y-65458389D02*
X127226380Y-65458624D01*
X128214358Y-65374266D02*
X128220434Y-65380011D01*
X126784344Y-64727603D02*
X126791297Y-64732249D01*
X132040291Y-66746046D02*
X132000160Y-66750000D01*
X127511906Y-65230923D02*
X127509817Y-65239021D01*
X128092604Y-64852220D02*
X128096019Y-64859853D01*
X128468012Y-65455111D02*
X128459732Y-65456280D01*
X126955422Y-65293625D02*
X126959260Y-65301054D01*
X132400000Y-66344188D02*
X132395889Y-66385918D01*
X103218888Y-64677800D02*
X103085861Y-64690901D01*
X127502201Y-65262917D02*
X127499219Y-65270730D01*
X97315324Y-66862474D02*
X97315324Y-66862474D01*
X97522701Y-66727078D02*
X97488818Y-66737356D01*
X127924606Y-64697795D02*
X127932419Y-64700777D01*
X127517969Y-65198044D02*
X127516800Y-65206324D01*
X130814137Y-64690901D02*
X130681110Y-64677800D01*
X128739432Y-64883284D02*
X128736892Y-64891252D01*
X127268012Y-65455112D02*
X127259732Y-65456281D01*
X128591297Y-65406059D02*
X128584344Y-65410705D01*
X128833058Y-64747330D02*
X128826669Y-64752726D01*
X128532418Y-65437530D02*
X128524605Y-65440513D01*
X128253099Y-65406059D02*
X128260052Y-65410705D01*
X128672393Y-65322656D02*
X128667747Y-65329609D01*
X132316425Y-66577759D02*
X132289824Y-66610173D01*
X132191249Y-66692033D02*
X132155686Y-66711041D01*
X128767553Y-64822733D02*
X128763305Y-64829935D01*
X132358484Y-65955707D02*
X132379141Y-66023804D01*
X126876842Y-64822733D02*
X126881091Y-64829935D01*
X127534577Y-64899288D02*
X127532489Y-64907385D01*
X127527596Y-64931985D02*
X127526427Y-64940265D01*
X128846279Y-64737088D02*
X128839597Y-64742116D01*
X127515399Y-65214569D02*
X127513768Y-65222771D01*
X102954758Y-64716979D02*
X102826843Y-64755781D01*
X127159937Y-65452080D02*
X127168139Y-65453711D01*
X128142194Y-65262918D02*
X128145176Y-65270731D01*
X132387708Y-66427045D02*
X132375535Y-66467171D01*
X128104963Y-64883285D02*
X128107502Y-64891252D01*
X127608442Y-64769958D02*
X127602697Y-64776034D01*
X128516713Y-65443276D02*
X128508745Y-65445815D01*
X128076843Y-64822733D02*
X128081092Y-64829935D01*
X128172002Y-65322656D02*
X128176648Y-65329609D01*
X127522200Y-65131114D02*
X127522081Y-65139502D01*
X132118430Y-66726473D02*
X132079842Y-66738179D01*
X127704251Y-64703978D02*
X127696618Y-64707393D01*
X128723963Y-64965291D02*
X128723376Y-64973649D01*
X128099219Y-64867579D02*
X128102201Y-64875392D01*
X127430038Y-65374266D02*
X127423961Y-65380010D01*
X132393024Y-66093599D02*
X132400000Y-66164417D01*
X101034510Y-66365487D02*
X100931181Y-66450287D01*
X100820037Y-66524551D02*
X100702150Y-66587563D01*
X128745176Y-64867578D02*
X128742194Y-64875391D01*
X128118909Y-64948603D02*
X128119730Y-64956941D01*
X127818017Y-64679686D02*
X127809658Y-64679920D01*
X127417726Y-65385582D02*
X127411337Y-65390977D01*
X128148377Y-65278457D02*
X128151793Y-65286090D01*
X127096618Y-65430915D02*
X127104251Y-65434330D01*
X126857881Y-64795198D02*
X126862909Y-64801880D01*
X128860051Y-64727603D02*
X128853098Y-64732249D01*
X128116801Y-64931985D02*
X128117970Y-64940265D01*
X127377264Y-65415154D02*
X127370062Y-65419403D01*
X126913768Y-64915538D02*
X126915399Y-64923740D01*
X126692611Y-64688090D02*
X126700709Y-64690178D01*
X128011337Y-64747331D02*
X128017726Y-64752726D01*
X127834739Y-64679920D02*
X127826380Y-64679686D01*
X128681090Y-65308374D02*
X128676842Y-65315576D01*
X127332419Y-65437531D02*
X127324606Y-65440513D01*
X128759259Y-64837255D02*
X128755421Y-64844684D01*
X128434739Y-65458388D02*
X128426380Y-65458624D01*
X128874334Y-64718906D02*
X128867132Y-64723155D01*
X127984344Y-64727603D02*
X127991297Y-64732249D01*
X128688974Y-65293625D02*
X128685136Y-65301054D01*
X127523962Y-64965291D02*
X127523376Y-64973649D01*
X128451421Y-65457216D02*
X128443088Y-65457919D01*
X126936893Y-65247057D02*
X126939432Y-65255025D01*
X100578654Y-66638717D02*
X100450739Y-66677520D01*
X128155422Y-65293625D02*
X128159259Y-65301055D01*
X127441698Y-65362274D02*
X127435953Y-65368350D01*
X127507502Y-65247057D02*
X127504963Y-65255025D01*
X128707502Y-65247057D02*
X128704963Y-65255025D01*
X126899219Y-64867578D02*
X126902201Y-64875391D01*
X126923376Y-65164659D02*
X126923963Y-65173017D01*
X126823962Y-64758298D02*
X126830038Y-64764043D01*
X127521846Y-65147887D02*
X127521493Y-65156269D01*
X126724606Y-64697795D02*
X126732419Y-64700777D01*
X126708745Y-64692494D02*
X126716713Y-64695033D01*
X126676257Y-64684598D02*
X126684459Y-64686229D01*
X128734577Y-64899288D02*
X128732489Y-64907385D01*
X126643056Y-64680266D02*
X126651394Y-64681088D01*
X128547777Y-65430915D02*
X128540144Y-65434330D01*
X128123376Y-65164659D02*
X128123963Y-65173017D01*
X126755313Y-64711023D02*
X126762742Y-64714861D01*
X128776648Y-64808699D02*
X128772002Y-64815652D01*
X128500709Y-65448130D02*
X128492611Y-65450218D01*
X126904964Y-64883284D02*
X126907503Y-64891252D01*
X97250000Y-66927797D02*
X97250000Y-66927799D01*
X97250000Y-66927800D02*
X97250000Y-66927797D01*
X97250000Y-66927800D02*
X97250000Y-66927800D01*
X97250000Y-66927799D02*
X97250000Y-66927800D01*
X97250000Y-66927799D02*
X97250000Y-66927799D01*
X126921493Y-64982038D02*
X126921846Y-64990420D01*
X127597125Y-64782270D02*
X127591730Y-64788659D01*
X127462908Y-65336429D02*
X127457879Y-65343111D01*
X128641699Y-65362274D02*
X128635954Y-65368350D01*
X128327683Y-65443276D02*
X128335651Y-65445815D01*
X97250000Y-66927800D02*
X97250000Y-66927799D01*
X97250000Y-66927800D02*
X97250000Y-66927800D01*
X97250000Y-66927799D02*
X97250000Y-66927800D01*
X97250000Y-66927799D02*
X97250000Y-66927799D01*
X97250000Y-66927798D02*
X97250000Y-66927799D01*
X97250000Y-66927801D02*
X97250000Y-66927798D01*
X97250000Y-66927801D02*
X97250000Y-66927801D01*
X97250000Y-66927800D02*
X97250000Y-66927801D01*
X97250000Y-66927800D02*
X97250000Y-66927800D01*
X97250000Y-66927799D02*
X97250000Y-66927800D01*
X97250000Y-66927799D02*
X97250000Y-66927799D01*
X127347778Y-65430915D02*
X127340145Y-65434331D01*
X127633059Y-64747330D02*
X127626670Y-64752726D01*
X128132489Y-65230923D02*
X128134577Y-65239021D01*
X128786515Y-64795198D02*
X128781487Y-64801880D01*
X128715399Y-65214569D02*
X128713768Y-65222770D01*
X127488974Y-65293625D02*
X127485136Y-65301054D01*
X127940145Y-64703978D02*
X127947778Y-64707394D01*
X127751785Y-64688090D02*
X127743687Y-64690178D01*
X128951784Y-64688089D02*
X128943687Y-64690178D01*
X128808442Y-64769959D02*
X128802697Y-64776035D01*
X127843088Y-64680388D02*
X127851421Y-64681091D01*
X128562742Y-65423448D02*
X128555313Y-65427286D01*
X128181488Y-65336429D02*
X128186516Y-65343111D01*
X127522317Y-64998805D02*
X127522200Y-65007193D01*
X127391297Y-65406059D02*
X127384344Y-65410705D01*
X128722200Y-65131114D02*
X128722081Y-65139502D01*
X128904251Y-64703978D02*
X128896618Y-64707393D01*
X132213026Y-65713026D02*
X132258171Y-65768035D01*
X128163304Y-65308374D02*
X128167553Y-65315576D01*
X128889083Y-64711022D02*
X128881654Y-64714861D01*
X129018049Y-64678976D02*
X129009691Y-64679563D01*
X126972002Y-65322656D02*
X126976648Y-65329609D01*
X128392976Y-65457217D02*
X128401309Y-65457920D01*
X128968139Y-64684597D02*
X128959937Y-64686228D01*
X127143687Y-65448131D02*
X127151785Y-65450219D01*
X127525488Y-64948603D02*
X127524666Y-64956941D01*
X128577264Y-65415154D02*
X128570062Y-65419403D01*
X129051594Y-64677800D02*
X129043206Y-64677917D01*
X127284459Y-65452080D02*
X127276257Y-65453711D01*
X126892603Y-64852219D02*
X126896018Y-64859852D01*
X127530628Y-64915538D02*
X127528997Y-64923740D01*
X126867747Y-64808700D02*
X126872393Y-64815653D01*
X128120434Y-64965291D02*
X128121022Y-64973649D01*
X128711907Y-65230923D02*
X128709818Y-65239021D01*
X127674334Y-64718906D02*
X127667132Y-64723155D01*
X126609577Y-64678152D02*
X126617959Y-64678505D01*
X127111977Y-65437531D02*
X127119790Y-65440513D01*
X128604799Y-65396192D02*
X128598117Y-65401220D01*
X128359937Y-65452080D02*
X128368139Y-65453711D01*
X127176384Y-65455112D02*
X127184664Y-65456281D01*
X127689083Y-64711022D02*
X127681654Y-64714860D01*
X128023962Y-64758298D02*
X128030038Y-64764043D01*
X128797125Y-64782271D02*
X128791730Y-64788660D01*
X127735651Y-64692494D02*
X127727683Y-64695033D01*
X126922082Y-64998805D02*
X126922200Y-65007193D01*
X128730628Y-64915538D02*
X128728996Y-64923740D01*
X128122200Y-65131114D02*
X128122317Y-65139502D01*
X128727595Y-64931985D02*
X128726426Y-64940265D01*
X126926427Y-65198044D02*
X126927596Y-65206324D01*
X127209658Y-65458389D02*
X127218017Y-65458624D01*
X127067132Y-65415154D02*
X127074334Y-65419403D01*
X126920435Y-64965291D02*
X126921022Y-64973649D01*
X128721846Y-65147887D02*
X128721493Y-65156269D01*
X127908745Y-64692494D02*
X127916713Y-64695033D01*
X128722905Y-64982038D02*
X128722552Y-64990420D01*
X127876257Y-64684598D02*
X127884459Y-64686229D01*
X127646279Y-64737089D02*
X127639597Y-64742117D01*
X128035954Y-64769959D02*
X128041699Y-64776035D01*
X127539432Y-64883284D02*
X127536893Y-64891252D01*
X127620434Y-64758298D02*
X127626670Y-64752726D01*
X127970062Y-64718906D02*
X127962742Y-64714861D01*
X127104251Y-65434330D02*
X127111977Y-65437531D01*
X127300709Y-65448129D02*
X127308745Y-65445814D01*
X128122552Y-65147887D02*
X128122317Y-65139502D01*
X97250000Y-66927799D02*
X97250000Y-66927799D01*
X97250000Y-66927799D02*
X97250000Y-66927799D01*
X97250000Y-66927801D02*
X97250000Y-66927801D01*
X128911977Y-64700777D02*
X128904251Y-64703978D01*
X127801309Y-64680388D02*
X127809658Y-64679920D01*
X97424879Y-66767597D02*
X97395438Y-66787269D01*
X128846279Y-64737088D02*
X128853098Y-64732249D01*
X128434739Y-65458388D02*
X128443088Y-65457919D01*
X126934577Y-65239021D02*
X126936893Y-65247057D01*
X128109817Y-64899288D02*
X128107502Y-64891252D01*
X127020435Y-65380010D02*
X127026670Y-65385582D01*
X128776648Y-64808699D02*
X128781487Y-64801880D01*
X128976384Y-64683196D02*
X128968139Y-64684597D01*
X126668012Y-64683196D02*
X126676257Y-64684598D01*
X128716800Y-65206324D02*
X128715399Y-65214569D01*
X128304252Y-65434331D02*
X128311978Y-65437531D01*
X128476257Y-65453710D02*
X128468012Y-65455111D01*
X126740145Y-64703978D02*
X126732419Y-64700777D01*
X127576648Y-64808699D02*
X127581487Y-64801879D01*
X128159259Y-65301055D02*
X128163304Y-65308374D01*
X128763305Y-64829935D02*
X128759259Y-64837255D01*
X129034821Y-64678152D02*
X129043206Y-64677917D01*
X128722081Y-65139502D02*
X128721846Y-65147887D01*
X127423961Y-65380010D02*
X127417726Y-65385582D01*
X128127596Y-65206324D02*
X128128997Y-65214569D01*
X128343687Y-65448130D02*
X128335651Y-65445815D01*
X126601192Y-64677917D02*
X126609577Y-64678152D01*
X126924667Y-65181367D02*
X126923963Y-65173017D01*
X127523962Y-64965291D02*
X127524666Y-64956941D01*
X128409658Y-65458389D02*
X128401309Y-65457920D01*
X127481091Y-65308373D02*
X127485136Y-65301054D01*
X128096019Y-64859853D02*
X128099219Y-64867579D01*
X132379141Y-66023804D02*
X132393024Y-66093599D01*
X128532418Y-65437530D02*
X128540144Y-65434330D01*
X128246279Y-65401221D02*
X128253099Y-65406059D01*
X100319636Y-66703598D02*
X100450739Y-66677520D01*
X132040291Y-66746046D02*
X132079842Y-66738179D01*
X128802697Y-64776035D02*
X128797125Y-64782271D01*
X128719729Y-65181367D02*
X128720434Y-65173017D01*
X127520434Y-65173017D02*
X127519730Y-65181367D01*
X128197125Y-65356038D02*
X128202697Y-65362274D01*
X127653098Y-64732249D02*
X127646279Y-64737089D01*
X128820433Y-64758298D02*
X128826669Y-64752726D01*
X128226670Y-65385583D02*
X128220434Y-65380011D01*
X127743687Y-64690178D02*
X127735651Y-64692494D01*
X127868012Y-64683196D02*
X127876257Y-64684598D01*
X128591297Y-65406059D02*
X128598117Y-65401220D01*
X127534577Y-64899288D02*
X127536893Y-64891252D01*
X128047271Y-64782271D02*
X128041699Y-64776035D01*
X128722317Y-64998805D02*
X128722552Y-64990420D01*
X132395889Y-66385918D02*
X132387708Y-66427045D01*
X127932419Y-64700777D02*
X127940145Y-64703978D01*
X126945177Y-65270731D02*
X126948377Y-65278457D01*
X126963305Y-65308374D02*
X126959260Y-65301054D01*
X127674334Y-64718906D02*
X127681654Y-64714860D01*
X103085861Y-64690901D02*
X102954758Y-64716979D01*
X126700709Y-64690178D02*
X126708745Y-64692494D01*
X97557429Y-66720171D02*
X97522701Y-66727078D01*
X127545177Y-64867579D02*
X127548377Y-64859853D01*
X128115399Y-64923740D02*
X128116801Y-64931985D01*
X126862909Y-64801880D02*
X126867747Y-64808700D01*
X128647270Y-65356038D02*
X128641699Y-65362274D01*
X127135651Y-65445816D02*
X127143687Y-65448131D01*
X128176648Y-65329609D02*
X128181488Y-65336429D01*
X128562742Y-65423448D02*
X128570062Y-65419403D01*
X128748376Y-64859852D02*
X128745176Y-64867578D01*
X128707502Y-65247057D02*
X128709818Y-65239021D01*
X128696018Y-65278457D02*
X128699219Y-65270731D01*
X127046279Y-65401220D02*
X127053099Y-65406059D01*
X126921846Y-64990420D02*
X126922082Y-64998805D01*
X102585459Y-64869947D02*
X102474315Y-64944211D01*
X100931181Y-66450287D02*
X100820037Y-66524551D01*
X128736892Y-64891252D02*
X128734577Y-64899288D01*
X128662908Y-65336429D02*
X128667747Y-65329609D01*
X127447270Y-65356038D02*
X127441698Y-65362274D01*
X126817726Y-64752726D02*
X126823962Y-64758298D01*
X127002697Y-65362274D02*
X126997125Y-65356038D01*
X132297706Y-65827203D02*
X132258171Y-65768035D01*
X128119730Y-64956941D02*
X128120434Y-64965291D01*
X127559260Y-64837254D02*
X127563305Y-64829935D01*
X128681090Y-65308374D02*
X128685136Y-65301054D01*
X127398117Y-65401220D02*
X127391297Y-65406059D01*
X129001341Y-64680266D02*
X129009691Y-64679563D01*
X126841699Y-64776035D02*
X126847271Y-64782271D01*
X128085136Y-64837254D02*
X128081092Y-64829935D01*
X128728996Y-64923740D02*
X128727595Y-64931985D01*
X128145176Y-65270731D02*
X128148377Y-65278457D01*
X128281654Y-65423448D02*
X128274334Y-65419403D01*
X128874334Y-64718906D02*
X128881654Y-64714861D01*
X127900709Y-64690178D02*
X127908745Y-64692494D01*
X126634706Y-64679562D02*
X126643056Y-64680266D01*
X128122081Y-64998805D02*
X128121846Y-64990420D01*
X126916800Y-64931985D02*
X126915399Y-64923740D01*
X128062908Y-64801880D02*
X128067748Y-64808700D01*
X127998117Y-64737088D02*
X127991297Y-64732249D01*
X128376384Y-65455112D02*
X128368139Y-65453711D01*
X126981488Y-65336429D02*
X126976648Y-65329609D01*
X127362742Y-65423448D02*
X127370062Y-65419403D01*
X130945240Y-64716979D02*
X130814137Y-64690901D01*
X127509817Y-65239021D02*
X127507502Y-65247057D01*
X127496019Y-65278456D02*
X127499219Y-65270730D01*
X97250000Y-66927801D02*
X97250000Y-66927801D01*
X97250000Y-66927801D02*
X97250000Y-66927801D01*
X97250000Y-66927800D02*
X97250000Y-66927800D01*
X97250000Y-66927800D02*
X97250000Y-66927800D01*
X97250000Y-66927802D02*
X97250000Y-66927802D01*
X97250000Y-66927801D02*
X97250000Y-66927801D01*
X97250000Y-66927801D02*
X97250000Y-66927801D01*
X126770062Y-64718906D02*
X126762742Y-64714861D01*
X128508745Y-65445815D02*
X128500709Y-65448130D01*
X127467748Y-65329608D02*
X127462908Y-65336429D01*
X126899219Y-64867578D02*
X126896018Y-64859852D01*
X126922317Y-65139502D02*
X126922552Y-65147887D01*
X128017726Y-64752726D02*
X128023962Y-64758298D01*
X127711977Y-64700778D02*
X127704251Y-64703978D01*
X127602697Y-64776034D02*
X127597125Y-64782270D01*
X127243088Y-65457920D02*
X127234739Y-65458389D01*
X131314538Y-64869947D02*
X131425682Y-64944211D01*
X128136892Y-65247057D02*
X128134577Y-65239021D01*
X126919731Y-64956941D02*
X126920435Y-64965291D01*
X126909818Y-64899288D02*
X126907503Y-64891252D01*
X128935651Y-64692493D02*
X128943687Y-64690178D01*
X127776384Y-64683197D02*
X127768139Y-64684598D01*
X127268012Y-65455112D02*
X127276257Y-65453711D01*
X126885136Y-64837255D02*
X126881091Y-64829935D01*
X127527596Y-64931985D02*
X127528997Y-64923740D01*
X127516800Y-65206324D02*
X127515399Y-65214569D01*
X132339722Y-66542893D02*
X132316425Y-66577759D01*
X127081654Y-65423448D02*
X127074334Y-65419403D01*
X127834739Y-64679920D02*
X127843088Y-64680388D01*
X127332419Y-65437531D02*
X127340145Y-65434331D01*
X127522081Y-65139502D02*
X127521846Y-65147887D01*
X127522552Y-64990420D02*
X127522317Y-64998805D01*
X126928997Y-65214569D02*
X126927596Y-65206324D01*
X126798117Y-64737089D02*
X126791297Y-64732249D01*
X128124667Y-65181367D02*
X128123963Y-65173017D01*
X128623961Y-65380010D02*
X128617726Y-65385582D01*
X127168139Y-65453711D02*
X127176384Y-65455112D01*
X128724666Y-64956941D02*
X128723963Y-64965291D01*
X132224779Y-66669628D02*
X132191249Y-66692033D01*
X127201309Y-65457920D02*
X127209658Y-65458389D01*
X128130628Y-65222771D02*
X128132489Y-65230923D01*
X128721021Y-65164659D02*
X128721493Y-65156269D01*
X128611337Y-65390977D02*
X128604799Y-65396192D01*
X128547777Y-65430915D02*
X128555313Y-65427286D01*
X128004799Y-64742117D02*
X128011337Y-64747331D01*
X127892611Y-64688090D02*
X127884459Y-64686229D01*
X127521021Y-65164659D02*
X127521493Y-65156269D01*
X128896618Y-64707393D02*
X128889083Y-64711022D01*
X128713768Y-65222770D02*
X128711907Y-65230923D01*
X126922905Y-65156269D02*
X126923376Y-65164659D01*
X129026439Y-64678505D02*
X129018049Y-64678976D01*
X127226380Y-65458624D02*
X127218017Y-65458624D01*
X126692611Y-64688090D02*
X126684459Y-64686229D01*
X127586515Y-64795197D02*
X127591730Y-64788659D01*
X127039597Y-65396191D02*
X127033059Y-65390977D01*
X132331251Y-65889962D02*
X132358484Y-65955707D01*
X128657879Y-65343111D02*
X128652665Y-65349649D01*
X126911907Y-64907386D02*
X126913768Y-64915538D01*
X127292611Y-65450218D02*
X127284459Y-65452080D01*
X128951784Y-64688089D02*
X128959937Y-64686228D01*
X128122905Y-65156269D02*
X128123376Y-65164659D01*
X102703346Y-64806935D02*
X102826843Y-64755781D01*
X126951793Y-65286090D02*
X126955422Y-65293625D01*
X131196651Y-64806935D02*
X131073155Y-64755781D01*
X126811337Y-64747331D02*
X126804799Y-64742117D01*
X127452665Y-65349649D02*
X127457879Y-65343111D01*
X127532489Y-64907385D02*
X127530628Y-64915538D01*
X126986516Y-65343111D02*
X126991730Y-65349649D01*
X128113767Y-64915539D02*
X128111906Y-64907386D01*
X128088974Y-64844684D02*
X128092604Y-64852220D01*
X128296619Y-65430915D02*
X128289083Y-65427286D01*
X127404799Y-65396191D02*
X127411337Y-65390977D01*
X128833058Y-64747330D02*
X128839597Y-64742116D01*
X126747778Y-64707394D02*
X126755313Y-64711023D01*
X97250000Y-66927801D02*
X97250000Y-66927801D01*
X97250000Y-66927802D02*
X97250000Y-66927802D01*
X97250000Y-66927801D02*
X97250000Y-66927801D01*
X127159937Y-65452080D02*
X127151785Y-65450219D01*
X128484458Y-65452079D02*
X128492611Y-65450218D01*
X128418017Y-65458624D02*
X128426380Y-65458624D01*
X126626348Y-64678976D02*
X126617959Y-64678505D01*
X127696618Y-64707393D02*
X127689083Y-64711022D01*
X127492603Y-65286089D02*
X127488974Y-65293625D01*
X128751792Y-64852219D02*
X128755421Y-64844684D01*
X126921493Y-64982038D02*
X126921022Y-64973649D01*
X128692602Y-65286090D02*
X128688974Y-65293625D01*
X128191730Y-65349649D02*
X128186516Y-65343111D01*
X128351785Y-65450218D02*
X128359937Y-65452080D01*
X128723376Y-64973649D02*
X128722905Y-64982038D01*
X127511906Y-65230923D02*
X127513768Y-65222771D01*
X128732489Y-64907385D02*
X128730628Y-64915538D01*
X126932489Y-65230923D02*
X126930628Y-65222771D01*
X132359488Y-66505912D02*
X132375535Y-66467171D01*
X128151793Y-65286090D02*
X128155422Y-65293625D01*
X127759937Y-64686229D02*
X127751785Y-64688090D01*
X127551792Y-64852220D02*
X127555422Y-64844684D01*
X126852667Y-64788660D02*
X126857881Y-64795198D01*
X128786515Y-64795198D02*
X128791730Y-64788660D01*
X97456106Y-66750906D02*
X97488818Y-66737356D01*
X127355313Y-65427286D02*
X127347778Y-65430915D01*
X132155686Y-66711041D02*
X132118430Y-66726473D01*
X128239597Y-65396192D02*
X128233059Y-65390978D01*
X127818017Y-64679686D02*
X127826380Y-64679686D01*
X127089083Y-65427286D02*
X127096618Y-65430915D01*
X126888974Y-64844684D02*
X126892603Y-64852219D01*
X100702150Y-66587563D02*
X100578654Y-66638717D01*
X128121493Y-64982038D02*
X128121022Y-64973649D01*
X127633059Y-64747330D02*
X127639597Y-64742117D01*
X128057879Y-64795198D02*
X128052665Y-64788660D01*
X127522905Y-64982038D02*
X127523376Y-64973649D01*
X127955313Y-64711023D02*
X127947778Y-64707394D01*
X132255951Y-66644046D02*
X132289824Y-66610173D01*
X132400000Y-66344188D02*
X132400000Y-66164417D01*
X131529011Y-65029011D02*
X132213026Y-65713026D01*
X130681110Y-64677800D02*
X129051594Y-64677800D01*
X128984664Y-64682027D02*
X128993003Y-64681088D01*
X128927683Y-64695033D02*
X128919790Y-64697795D01*
X128860051Y-64727603D02*
X128867132Y-64723155D01*
X128814357Y-64764043D02*
X128808442Y-64769959D01*
X128767553Y-64822733D02*
X128772002Y-64815652D01*
X128739432Y-64883284D02*
X128742194Y-64875391D01*
X127502201Y-65262917D02*
X127504963Y-65255025D01*
X127522200Y-65131114D02*
X127522200Y-65007193D01*
X127472393Y-65322656D02*
X127476842Y-65315575D01*
X128717969Y-65198044D02*
X128718908Y-65189705D01*
X127430038Y-65374266D02*
X127435953Y-65368350D01*
X128030038Y-64764043D02*
X128035954Y-64769959D01*
X127377264Y-65415154D02*
X127384344Y-65410705D01*
X127316713Y-65443275D02*
X127324606Y-65440513D01*
X127192976Y-65457217D02*
X127184664Y-65456281D01*
X128267132Y-65415154D02*
X128260052Y-65410705D01*
X127526427Y-64940265D02*
X127525488Y-64948603D01*
X128384664Y-65456281D02*
X128392976Y-65457217D01*
X127008442Y-65368350D02*
X127014358Y-65374266D01*
X126967553Y-65315576D02*
X126972002Y-65322656D01*
X126942195Y-65262919D02*
X126939432Y-65255025D01*
X126925487Y-65189705D02*
X126926427Y-65198044D01*
X128524605Y-65440513D02*
X128516713Y-65443276D01*
X126659732Y-64682027D02*
X126651394Y-64681088D01*
X132000160Y-66750000D02*
X131810000Y-66750000D01*
X127127683Y-65443276D02*
X127119790Y-65440513D01*
X128702201Y-65262918D02*
X128704963Y-65255025D01*
X97368067Y-66809732D02*
X97315324Y-66862474D01*
X97592666Y-66716701D02*
X100186608Y-66716701D01*
X127251421Y-65457217D02*
X127259732Y-65456281D01*
X126592804Y-64677800D02*
X103218888Y-64677800D01*
X126922200Y-65131114D02*
X126922200Y-65007193D01*
X128319791Y-65440513D02*
X128327683Y-65443276D01*
X102370986Y-65029011D02*
X101034510Y-66365487D01*
X126724606Y-64697795D02*
X126716713Y-64695033D01*
X126777264Y-64723154D02*
X126784344Y-64727603D01*
X126835954Y-64769959D02*
X126830038Y-64764043D01*
X126876842Y-64822733D02*
X126872393Y-64815653D01*
X127060052Y-65410705D02*
X127067132Y-65415154D01*
X97250000Y-66927802D02*
X97250000Y-66927802D01*
X126902201Y-64875391D02*
X126904964Y-64883284D01*
X128672393Y-65322656D02*
X128676842Y-65315576D01*
X127518908Y-65189705D02*
X127517969Y-65198044D01*
X128459732Y-65456280D02*
X128451421Y-65457216D01*
X126917970Y-64940265D02*
X126918909Y-64948603D01*
X127542194Y-64875391D02*
X127539432Y-64883284D01*
X127572002Y-64815652D02*
X127567554Y-64822733D01*
X127614357Y-64764043D02*
X127608442Y-64769958D01*
X127660051Y-64727603D02*
X127667132Y-64723155D01*
X127719789Y-64697796D02*
X127727683Y-64695033D01*
X127792976Y-64681091D02*
X127784664Y-64682028D01*
X127859732Y-64682027D02*
X127851421Y-64681091D01*
X127924606Y-64697795D02*
X127916713Y-64695033D01*
X127977264Y-64723154D02*
X127984344Y-64727603D01*
X128072394Y-64815653D02*
X128076843Y-64822733D01*
X128104963Y-64883285D02*
X128102201Y-64875392D01*
X128118909Y-64948603D02*
X128117970Y-64940265D01*
X128122200Y-65007193D02*
X128122200Y-65131114D01*
X128126427Y-65198044D02*
X128125488Y-65189705D01*
X128139432Y-65255025D02*
X128142194Y-65262918D01*
X128172002Y-65322656D02*
X128167553Y-65315576D01*
X128208442Y-65368350D02*
X128214358Y-65374266D01*
X128584344Y-65410705D02*
X128577264Y-65415154D01*
X128630038Y-65374265D02*
X128635954Y-65368350D01*
X128722200Y-65007193D02*
X128722200Y-65131114D01*
X128725487Y-64948603D02*
X128726426Y-64940265D01*
%TO.N,/REFCLK_0_P*%
X147602756Y-64934344D02*
X147598110Y-64941297D01*
X147101879Y-65131487D02*
X147095197Y-65136515D01*
X142344831Y-59270147D02*
X142211804Y-59257046D01*
X147152220Y-64442603D02*
X147159853Y-64446019D01*
X146867689Y-63447992D02*
X146903798Y-63515547D01*
X146997795Y-64274606D02*
X147000777Y-64282419D01*
X147007393Y-65246618D02*
X147003978Y-65254251D01*
X146979562Y-65359691D02*
X146978976Y-65368049D01*
X147356710Y-64473376D02*
X147365068Y-64473962D01*
X134823770Y-59253366D02*
X134861127Y-59257046D01*
X147298805Y-64472081D02*
X147307193Y-64472200D01*
X147122733Y-64426843D02*
X147129935Y-64431091D01*
X147454969Y-64492194D02*
X147462782Y-64495176D01*
X146224005Y-71178342D02*
X146267968Y-71201841D01*
X147290420Y-65072552D02*
X147282038Y-65072905D01*
X147339938Y-64472552D02*
X147348320Y-64472905D01*
X147144684Y-65105420D02*
X147137254Y-65109259D01*
X147058298Y-64373962D02*
X147064043Y-64380038D01*
X146986229Y-65309937D02*
X146984597Y-65318139D01*
X147088659Y-65141730D02*
X147082269Y-65147125D01*
X147593271Y-64948117D02*
X147588242Y-64954799D01*
X147598110Y-64603099D02*
X147602756Y-64610052D01*
X147560401Y-64985953D02*
X147554324Y-64991699D01*
X146329011Y-67997434D02*
X146244211Y-68100763D01*
X146314023Y-71220917D02*
X146361725Y-71235388D01*
X147611453Y-64920062D02*
X147607205Y-64927264D01*
X147572061Y-64973961D02*
X147566316Y-64980038D01*
X147622966Y-64646619D02*
X147626382Y-64654252D01*
X147548089Y-64997271D02*
X147541700Y-65002666D01*
X147191252Y-65086892D02*
X147183284Y-65089432D01*
X147052726Y-65176669D02*
X147047330Y-65183059D01*
X146970291Y-63734745D02*
X146977800Y-63810976D01*
X147528480Y-64531488D02*
X147535162Y-64536516D01*
X142727345Y-59386181D02*
X142845232Y-59449193D01*
X146982027Y-64209732D02*
X146983196Y-64218012D01*
X147541700Y-64541730D02*
X147548089Y-64547125D01*
X147648331Y-64809732D02*
X147647162Y-64818012D01*
X147514707Y-64522002D02*
X147521660Y-64526648D01*
X147626381Y-64890145D02*
X147622965Y-64897778D01*
X147619337Y-64905313D02*
X147615499Y-64912742D01*
X147462782Y-65049219D02*
X147454969Y-65052201D01*
X147554325Y-64552697D02*
X147560401Y-64558442D01*
X147642269Y-64842611D02*
X147640181Y-64850709D01*
X142475934Y-59296225D02*
X142603849Y-59335027D01*
X147373418Y-64474666D02*
X147381756Y-64475487D01*
X147447076Y-65054963D02*
X147439108Y-65057502D01*
X147064043Y-65164357D02*
X147058298Y-65170434D01*
X147439108Y-64486892D02*
X147447076Y-64489432D01*
X146992493Y-64258745D02*
X146995033Y-64266713D01*
X146981087Y-65343003D02*
X146980266Y-65351341D01*
X147583028Y-64961337D02*
X147577633Y-64967726D01*
X147003978Y-64290145D02*
X147007394Y-64297778D01*
X147649268Y-64742976D02*
X147649971Y-64751309D01*
X147644131Y-64709937D02*
X147645762Y-64718139D01*
X146933111Y-63586316D02*
X146955347Y-63659617D01*
X147215539Y-64463767D02*
X147223740Y-64465399D01*
X146977800Y-64142804D02*
X146977917Y-64151192D01*
X147231985Y-64466800D02*
X147240265Y-64467969D01*
X134683247Y-59203085D02*
X134716353Y-59220780D01*
X147027603Y-64334344D02*
X147032249Y-64341297D01*
X147635326Y-64677684D02*
X147637865Y-64685651D01*
X147207385Y-65082489D02*
X147199288Y-65084577D01*
X147047331Y-64361337D02*
X147052726Y-64367726D01*
X146983196Y-65326384D02*
X146982027Y-65334664D01*
X147650440Y-64759658D02*
X147650675Y-64768017D01*
X147348320Y-65071493D02*
X147339938Y-65071846D01*
X147632564Y-64874606D02*
X147629582Y-64882419D01*
X146978152Y-64159577D02*
X146978505Y-64167959D01*
X147521660Y-65017747D02*
X147514707Y-65022393D01*
X147011023Y-64305313D02*
X147014860Y-64312743D01*
X147629582Y-64661978D02*
X147632564Y-64669791D01*
X147023154Y-65217132D02*
X147018906Y-65224334D01*
X147248603Y-64468908D02*
X147256941Y-64469730D01*
X147422974Y-64482489D02*
X147431072Y-64484577D01*
X147607205Y-64617132D02*
X147611454Y-64624334D01*
X147507627Y-65026842D02*
X147500425Y-65031090D01*
X147331553Y-64472317D02*
X147323165Y-64472200D01*
X147649970Y-64793088D02*
X147649267Y-64801421D01*
X147647163Y-64726384D02*
X147648332Y-64734664D01*
X147000778Y-65261977D02*
X146997796Y-65269789D01*
X146410617Y-71245113D02*
X146460226Y-71250000D01*
X146711386Y-67596530D02*
X146626586Y-67699859D01*
X146984598Y-64226257D02*
X146986229Y-64234459D01*
X147398375Y-65066800D02*
X147390095Y-65067969D01*
X147615499Y-64631654D02*
X147619337Y-64639083D01*
X145990901Y-68712309D02*
X145977800Y-68845336D01*
X146144023Y-71119023D02*
X146182557Y-71150647D01*
X147381756Y-65068909D02*
X147373418Y-65069730D01*
X147365068Y-65070435D02*
X147356710Y-65071022D01*
X146055781Y-68453291D02*
X146016979Y-68581206D01*
X147069959Y-64385954D02*
X147076036Y-64391698D01*
X147129935Y-65113304D02*
X147122733Y-65117553D01*
X147431072Y-65059818D02*
X147422974Y-65061906D01*
X147331553Y-65072082D02*
X147323165Y-65072200D01*
X147640181Y-64693687D02*
X147642270Y-64701785D01*
X147470508Y-64498377D02*
X147478141Y-64501793D01*
X146977917Y-65393206D02*
X146977800Y-65401594D01*
X146848662Y-67367499D02*
X146785650Y-67485386D01*
X147240265Y-65076427D02*
X147231985Y-65077596D01*
X147500425Y-64513305D02*
X147507627Y-64517553D01*
X147167579Y-64449219D02*
X147175392Y-64452201D01*
X147265291Y-64470434D02*
X147273649Y-64471021D01*
X147137255Y-64435136D02*
X147144684Y-64438974D01*
X147273649Y-65073376D02*
X147265291Y-65073962D01*
X147223740Y-65078997D02*
X147215538Y-65080628D01*
X147095198Y-64407879D02*
X147101880Y-64412908D01*
X147637866Y-64858745D02*
X147635327Y-64866713D01*
X147588243Y-64589597D02*
X147593272Y-64596279D01*
X146978505Y-65376439D02*
X146978152Y-65384821D01*
X147390095Y-64476427D02*
X147398375Y-64477596D01*
X147566317Y-64564358D02*
X147572062Y-64570434D01*
X147175391Y-65092195D02*
X147167578Y-65095177D01*
X147256941Y-65074666D02*
X147248603Y-65075488D01*
X146988090Y-64242611D02*
X146990178Y-64250709D01*
X134623019Y-59158417D02*
X134652036Y-59182230D01*
X147042116Y-65189597D02*
X147037088Y-65196279D01*
X145977800Y-70767571D02*
X145982686Y-70817180D01*
X146990178Y-65293687D02*
X146988090Y-65301785D01*
X147645761Y-64826257D02*
X147644130Y-64834459D01*
X147108700Y-64417748D02*
X147115653Y-64422394D01*
X147650675Y-64776380D02*
X147650440Y-64784739D01*
X147478141Y-65042603D02*
X147470508Y-65046019D01*
X146025956Y-70959829D02*
X146049455Y-71003792D01*
X146980267Y-64193056D02*
X146981088Y-64201394D01*
X147115652Y-65122002D02*
X147108699Y-65126648D01*
X147199288Y-64459818D02*
X147207386Y-64461906D01*
X145992411Y-70866072D02*
X146006881Y-70913774D01*
X147032249Y-65203098D02*
X147027603Y-65210051D01*
X147076034Y-65152697D02*
X147069958Y-65158442D01*
X146077150Y-71045240D02*
X146108774Y-71083774D01*
X147577634Y-64576670D02*
X147583029Y-64583059D01*
X146977800Y-66851957D02*
X146964697Y-66984985D01*
X142956376Y-59523457D02*
X143059705Y-59608257D01*
X147082271Y-64397270D02*
X147088660Y-64402665D01*
X147037089Y-64348117D02*
X147042117Y-64354799D01*
X146995033Y-65277683D02*
X146992494Y-65285651D01*
X147414822Y-65063768D02*
X147406620Y-65065399D01*
X147183284Y-64454964D02*
X147191252Y-64457503D01*
X147535162Y-65007880D02*
X147528480Y-65012908D01*
X147485676Y-64505422D02*
X147493105Y-64509260D01*
X146169947Y-68211907D02*
X146106935Y-68329794D01*
X147014861Y-65231654D02*
X147011022Y-65239083D01*
X147493105Y-65035136D02*
X147485676Y-65038975D01*
X147018905Y-64320062D02*
X147023154Y-64327264D01*
X146978976Y-64176348D02*
X146979563Y-64184706D01*
X134751033Y-59235145D02*
X134786954Y-59246042D01*
X147159852Y-65098377D02*
X147152219Y-65101792D01*
X146776538Y-63325090D02*
X146825133Y-63384303D01*
X146938619Y-67116088D02*
X146899816Y-67244003D01*
X147307193Y-65072200D02*
X147298805Y-65072317D01*
X147406620Y-64478997D02*
X147414822Y-64480628D01*
X147282038Y-64471493D02*
X147290420Y-64471846D01*
X146979562Y-65359691D02*
X146980266Y-65351341D01*
X146983196Y-64218012D02*
X146984598Y-64226257D01*
X147014860Y-64312743D02*
X147018905Y-64320062D01*
X146977917Y-65393206D02*
X146978152Y-65384821D01*
X147645762Y-64718139D02*
X147647163Y-64726384D01*
X147649970Y-64793088D02*
X147650440Y-64784739D01*
X146049455Y-71003792D02*
X146077150Y-71045240D01*
X147265291Y-65073962D02*
X147256941Y-65074666D01*
X147058298Y-64373962D02*
X147052726Y-64367726D01*
X146361725Y-71235388D02*
X146410617Y-71245113D01*
X147439108Y-65057502D02*
X147431072Y-65059818D01*
X147365068Y-64473962D02*
X147373418Y-64474666D01*
X147598110Y-64603099D02*
X147593272Y-64596279D01*
X147129935Y-64431091D02*
X147137255Y-64435136D01*
X147000777Y-64282419D02*
X147003978Y-64290145D01*
X147611454Y-64624334D02*
X147615499Y-64631654D01*
X147256941Y-64469730D02*
X147265291Y-64470434D01*
X147398375Y-65066800D02*
X147406620Y-65065399D01*
X147521660Y-65017747D02*
X147528480Y-65012908D01*
X147637865Y-64685651D02*
X147640181Y-64693687D01*
X147500425Y-65031090D02*
X147493105Y-65035136D01*
X147076036Y-64391698D02*
X147082271Y-64397270D01*
X147598110Y-64941297D02*
X147593271Y-64948117D01*
X147462782Y-64495176D02*
X147470508Y-64498377D01*
X147647162Y-64818012D02*
X147645761Y-64826257D01*
X147500425Y-64513305D02*
X147493105Y-64509260D01*
X146992493Y-64258745D02*
X146990178Y-64250709D01*
X147339938Y-64472552D02*
X147331553Y-64472317D01*
X147548089Y-64547125D02*
X147554325Y-64552697D01*
X146990178Y-65293687D02*
X146992494Y-65285651D01*
X145990901Y-68712309D02*
X146016979Y-68581206D01*
X147191252Y-65086892D02*
X147199288Y-65084577D01*
X147101879Y-65131487D02*
X147108699Y-65126648D01*
X147101880Y-64412908D02*
X147108700Y-64417748D01*
X147626381Y-64890145D02*
X147629582Y-64882419D01*
X147554324Y-64991699D02*
X147548089Y-64997271D01*
X146970291Y-63734745D02*
X146955347Y-63659617D01*
X147032249Y-64341297D02*
X147037089Y-64348117D01*
X146980267Y-64193056D02*
X146979563Y-64184706D01*
X147003978Y-65254251D02*
X147000778Y-65261977D01*
X146711386Y-67596530D02*
X146785650Y-67485386D01*
X147037088Y-65196279D02*
X147032249Y-65203098D01*
X147159853Y-64446019D02*
X147167579Y-64449219D01*
X147649971Y-64751309D02*
X147650440Y-64759658D01*
X147640181Y-64850709D02*
X147637866Y-64858745D01*
X147052726Y-65176669D02*
X147058298Y-65170434D01*
X142344831Y-59270147D02*
X142475934Y-59296225D01*
X147137254Y-65109259D02*
X147129935Y-65113304D01*
X146224005Y-71178342D02*
X146182557Y-71150647D01*
X147626382Y-64654252D02*
X147629582Y-64661978D01*
X146244211Y-68100763D02*
X146169947Y-68211907D01*
X146984597Y-65318139D02*
X146983196Y-65326384D01*
X134683247Y-59203085D02*
X134652036Y-59182230D01*
X146867689Y-63447992D02*
X146825133Y-63384303D01*
X147611453Y-64920062D02*
X147615499Y-64912742D01*
X147462782Y-65049219D02*
X147470508Y-65046019D01*
X147339938Y-65071846D02*
X147331553Y-65072082D01*
X147199288Y-64459818D02*
X147191252Y-64457503D01*
X146964697Y-66984985D02*
X146938619Y-67116088D01*
X147572062Y-64570434D02*
X147577634Y-64576670D01*
X142845232Y-59449193D02*
X142956376Y-59523457D01*
X147167578Y-65095177D02*
X147159852Y-65098377D01*
X147373418Y-65069730D02*
X147365068Y-65070435D01*
X147223740Y-64465399D02*
X147231985Y-64466800D01*
X147439108Y-64486892D02*
X147431072Y-64484577D01*
X147298805Y-64472081D02*
X147290420Y-64471846D01*
X134823770Y-59253366D02*
X134786954Y-59246042D01*
X147231985Y-65077596D02*
X147223740Y-65078997D01*
X147572061Y-64973961D02*
X147577633Y-64967726D01*
X147082269Y-65147125D02*
X147076034Y-65152697D01*
X146977917Y-64151192D02*
X146978152Y-64159577D01*
X147018906Y-65224334D02*
X147014861Y-65231654D01*
X147398375Y-64477596D02*
X147406620Y-64478997D01*
X147290420Y-65072552D02*
X147298805Y-65072317D01*
X147528480Y-64531488D02*
X147521660Y-64526648D01*
X145982686Y-70817180D02*
X145992411Y-70866072D01*
X146903798Y-63515547D02*
X146933111Y-63586316D01*
X147422974Y-65061906D02*
X147414822Y-65063768D01*
X147356710Y-64473376D02*
X147348320Y-64472905D01*
X147642269Y-64842611D02*
X147644130Y-64834459D01*
X147007393Y-65246618D02*
X147011022Y-65239083D01*
X147095197Y-65136515D02*
X147088659Y-65141730D01*
X147207385Y-65082489D02*
X147215538Y-65080628D01*
X142727345Y-59386181D02*
X142603849Y-59335027D01*
X147650675Y-64768017D02*
X147650675Y-64776380D01*
X147007394Y-64297778D02*
X147011023Y-64305313D01*
X147273649Y-64471021D02*
X147282038Y-64471493D01*
X134716353Y-59220780D02*
X134751033Y-59235145D01*
X146267968Y-71201841D02*
X146314023Y-71220917D01*
X147588242Y-64954799D02*
X147583028Y-64961337D01*
X147622965Y-64897778D02*
X147619337Y-64905313D01*
X147644131Y-64709937D02*
X147642270Y-64701785D01*
X147144684Y-65105420D02*
X147152219Y-65101792D01*
X147348320Y-65071493D02*
X147356710Y-65071022D01*
X147541700Y-65002666D02*
X147535162Y-65007880D01*
X147422974Y-64482489D02*
X147414822Y-64480628D01*
X146986229Y-64234459D02*
X146988090Y-64242611D01*
X146978976Y-65368049D02*
X146978505Y-65376439D01*
X146025956Y-70959829D02*
X146006881Y-70913774D01*
X147535162Y-64536516D02*
X147541700Y-64541730D01*
X147215539Y-64463767D02*
X147207386Y-64461906D01*
X146978505Y-64167959D02*
X146978976Y-64176348D01*
X147478141Y-65042603D02*
X147485676Y-65038975D01*
X146986229Y-65309937D02*
X146988090Y-65301785D01*
X147047330Y-65183059D02*
X147042116Y-65189597D01*
X146848662Y-67367499D02*
X146899816Y-67244003D01*
X146055781Y-68453291D02*
X146106935Y-68329794D01*
X147047331Y-64361337D02*
X147042117Y-64354799D01*
X147622966Y-64646619D02*
X147619337Y-64639083D01*
X147152220Y-64442603D02*
X147144684Y-64438974D01*
X147478141Y-64501793D02*
X147485676Y-64505422D01*
X147588243Y-64589597D02*
X147583029Y-64583059D01*
X147282038Y-65072905D02*
X147273649Y-65073376D01*
X147095198Y-64407879D02*
X147088660Y-64402665D01*
X146460226Y-71250000D02*
X146810000Y-71250000D01*
X146144023Y-71119023D02*
X146108774Y-71083774D01*
X145977800Y-68845336D02*
X145977800Y-70767571D01*
X146977800Y-65401594D02*
X146977800Y-66851957D01*
X146981087Y-65343003D02*
X146982027Y-65334664D01*
X146997796Y-65269789D02*
X146995033Y-65277683D01*
X147023154Y-65217132D02*
X147027603Y-65210051D01*
X147064043Y-65164357D02*
X147069958Y-65158442D01*
X147122733Y-65117553D02*
X147115652Y-65122002D01*
X143059705Y-59608257D02*
X146776538Y-63325090D01*
X147064043Y-64380038D02*
X147069959Y-64385954D01*
X147027603Y-64334344D02*
X147023154Y-64327264D01*
X146997795Y-64274606D02*
X146995033Y-64266713D01*
X147560401Y-64558442D02*
X147566317Y-64564358D01*
X146982027Y-64209732D02*
X146981088Y-64201394D01*
X147390095Y-65067969D02*
X147381756Y-65068909D01*
X147381756Y-64475487D02*
X147390095Y-64476427D01*
X147323165Y-65072200D02*
X147307193Y-65072200D01*
X146977800Y-63810976D02*
X146977800Y-64142804D01*
X147240265Y-64467969D02*
X147248603Y-64468908D01*
X142211804Y-59257046D02*
X134861127Y-59257046D01*
X147560401Y-64985953D02*
X147566316Y-64980038D01*
X147307193Y-64472200D02*
X147323165Y-64472200D01*
X147454969Y-65052201D02*
X147447076Y-65054963D01*
X134623019Y-59158417D02*
X134497848Y-59033246D01*
X147454969Y-64492194D02*
X147447076Y-64489432D01*
X147602756Y-64610052D02*
X147607205Y-64617132D01*
X146329011Y-67997434D02*
X146626586Y-67699859D01*
X147122733Y-64426843D02*
X147115653Y-64422394D01*
X147602756Y-64934344D02*
X147607205Y-64927264D01*
X147635326Y-64677684D02*
X147632564Y-64669791D01*
X147175392Y-64452201D02*
X147183284Y-64454964D01*
X147514707Y-64522002D02*
X147507627Y-64517553D01*
X147649268Y-64742976D02*
X147648332Y-64734664D01*
X147648331Y-64809732D02*
X147649267Y-64801421D01*
X147632564Y-64874606D02*
X147635327Y-64866713D01*
X147514707Y-65022393D02*
X147507627Y-65026842D01*
X147240265Y-65076427D02*
X147248603Y-65075488D01*
X147183284Y-65089432D02*
X147175391Y-65092195D01*
%TO.N,/REFCLK_0_N*%
X145635301Y-68565013D02*
X145622200Y-68698040D01*
X145764719Y-71252776D02*
X145779568Y-71280556D01*
X145652630Y-71101641D02*
X145667478Y-71129421D01*
X145814347Y-68064611D02*
X145751335Y-68182498D01*
X142328638Y-59651826D02*
X142456553Y-59690628D01*
X146355786Y-67449234D02*
X146270986Y-67552563D01*
X142197535Y-59625748D02*
X142064507Y-59612646D01*
X145791622Y-71309658D02*
X145800766Y-71339801D01*
X145631432Y-71042396D02*
X145640576Y-71072539D01*
X145973411Y-67850138D02*
X145888611Y-67953467D01*
X134652036Y-59687458D02*
X134623019Y-59711272D01*
X146430050Y-63536907D02*
X146493062Y-63654794D01*
X146622200Y-66704661D02*
X146609097Y-66837689D01*
X145727236Y-71202236D02*
X145747219Y-71226585D01*
X145700181Y-68305995D02*
X145661379Y-68433910D01*
X146583019Y-66968792D02*
X146544216Y-67096707D01*
X146609097Y-64037310D02*
X146622200Y-64170338D01*
X134786954Y-59623647D02*
X134751032Y-59634543D01*
X134861127Y-59612646D02*
X134823770Y-59616325D01*
X146270986Y-63322434D02*
X146355786Y-63425763D01*
X134716352Y-59648908D02*
X134683247Y-59666603D01*
X142809080Y-59879057D02*
X142912409Y-59963857D01*
X146493062Y-67220203D02*
X146430050Y-67338090D01*
X145622200Y-70980154D02*
X145625287Y-71011501D01*
X142580049Y-59741781D02*
X142697936Y-59804793D01*
X145684978Y-71155612D02*
X145704961Y-71179961D01*
X145806912Y-71370696D02*
X145810000Y-71402044D01*
X146544216Y-63778291D02*
X146583019Y-63906206D01*
X145667478Y-71129421D02*
X145684978Y-71155612D01*
X145764719Y-71252776D02*
X145747219Y-71226585D01*
X134652036Y-59687458D02*
X134683247Y-59666603D01*
X145635301Y-68565013D02*
X145661379Y-68433910D01*
X146609097Y-64037310D02*
X146583019Y-63906206D01*
X134786954Y-59623647D02*
X134823770Y-59616325D01*
X146609097Y-66837689D02*
X146583019Y-66968792D01*
X145631432Y-71042396D02*
X145625287Y-71011501D01*
X142809080Y-59879057D02*
X142697936Y-59804793D01*
X145814347Y-68064611D02*
X145888611Y-67953467D01*
X146430050Y-63536907D02*
X146355786Y-63425763D01*
X146355786Y-67449234D02*
X146430050Y-67338090D01*
X145800766Y-71339801D02*
X145806912Y-71370696D01*
X142328638Y-59651826D02*
X142197535Y-59625748D01*
X146493062Y-63654794D02*
X146544216Y-63778291D01*
X145779568Y-71280556D02*
X145791622Y-71309658D01*
X145751335Y-68182498D02*
X145700181Y-68305995D01*
X142456553Y-59690628D02*
X142580049Y-59741781D01*
X145652630Y-71101641D02*
X145640576Y-71072539D01*
X146544216Y-67096707D02*
X146493062Y-67220203D01*
X134751032Y-59634543D02*
X134716352Y-59648908D01*
X145810000Y-71402044D02*
X145810000Y-73250000D01*
X145727236Y-71202236D02*
X145704961Y-71179961D01*
X146270986Y-67552563D02*
X145973411Y-67850138D01*
X145622200Y-68698040D02*
X145622200Y-70980154D01*
X146622200Y-66704661D02*
X146622200Y-64170338D01*
X146270986Y-63322434D02*
X142912409Y-59963857D01*
X142064507Y-59612646D02*
X134861127Y-59612646D01*
X134623019Y-59711272D02*
X134497848Y-59836446D01*
D18*
%TO.N,/~WAKE*%
X150810000Y-67960000D02*
X150810000Y-68750000D01*
X149100000Y-66250000D02*
X150810000Y-67960000D01*
X149100000Y-58265008D02*
X149100000Y-66250000D01*
X147934992Y-57100000D02*
X149100000Y-58265008D01*
X95975000Y-58475000D02*
X97350000Y-57100000D01*
X95975000Y-61275000D02*
X95975000Y-58475000D01*
X96500000Y-61800000D02*
X95975000Y-61275000D01*
X97350000Y-57100000D02*
X147934992Y-57100000D01*
X97275000Y-61800000D02*
X96500000Y-61800000D01*
%TD*%
M02*
