%TF.GenerationSoftware,KiCad,Pcbnew,(5.1.10)-1*%
%TF.CreationDate,2021-08-10T11:15:44+01:00*%
%TF.ProjectId,ocu2pciex8,6f637532-7063-4696-9578-382e6b696361,rev?*%
%TF.SameCoordinates,Original*%
%TF.FileFunction,Copper,L2,Inr*%
%TF.FilePolarity,Positive*%
%FSLAX46Y46*%
G04 Gerber Fmt 4.6, Leading zero omitted, Abs format (unit mm)*
G04 Created by KiCad (PCBNEW (5.1.10)-1) date 2021-08-10 11:15:44*
%MOMM*%
%LPD*%
G01*
G04 APERTURE LIST*
%TA.AperFunction,ComponentPad*%
%ADD10C,0.800000*%
%TD*%
%TA.AperFunction,ComponentPad*%
%ADD11C,3.000000*%
%TD*%
%TA.AperFunction,ComponentPad*%
%ADD12C,1.000000*%
%TD*%
%TA.AperFunction,ViaPad*%
%ADD13C,0.600000*%
%TD*%
%TA.AperFunction,ViaPad*%
%ADD14C,0.800000*%
%TD*%
%TA.AperFunction,Conductor*%
%ADD15C,0.250000*%
%TD*%
%TA.AperFunction,Conductor*%
%ADD16C,0.254000*%
%TD*%
%TA.AperFunction,Conductor*%
%ADD17C,0.100000*%
%TD*%
G04 APERTURE END LIST*
D10*
%TO.N,GND*%
%TO.C,J5*%
X103750000Y-67500000D03*
X106250000Y-70000000D03*
X103750000Y-72500000D03*
X101250000Y-70000000D03*
X102000000Y-68250000D03*
X105500000Y-68250000D03*
X105500000Y-71750000D03*
X102000000Y-71750000D03*
%TD*%
%TO.N,GND*%
%TO.C,J4*%
X185500000Y-67500000D03*
X188000000Y-70000000D03*
X185500000Y-72500000D03*
X183000000Y-70000000D03*
X183750000Y-68250000D03*
X187250000Y-68250000D03*
X187250000Y-71750000D03*
X183750000Y-71750000D03*
%TD*%
D11*
%TO.N,GND*%
%TO.C,J3*%
X154150000Y-61600000D03*
%TO.N,+12VA*%
X154150000Y-57400000D03*
%TD*%
D12*
%TO.N,GND*%
%TO.C,J2*%
X110810000Y-71250000D03*
X110810000Y-68750000D03*
%TO.N,Net-(J2-PadA48)*%
X111810000Y-73250000D03*
%TO.N,Net-(J2-PadB48)*%
X111810000Y-66750000D03*
%TO.N,Net-(J2-PadA47)*%
X112810000Y-71250000D03*
%TO.N,GND*%
X112810000Y-68750000D03*
X113810000Y-73250000D03*
%TO.N,Net-(J2-PadB46)*%
X113810000Y-66750000D03*
%TO.N,GND*%
X114810000Y-71250000D03*
%TO.N,Net-(J2-PadB45)*%
X114810000Y-68750000D03*
%TO.N,Net-(J2-PadA44)*%
X115810000Y-73250000D03*
%TO.N,GND*%
X115810000Y-66750000D03*
%TO.N,Net-(J2-PadA43)*%
X116810000Y-71250000D03*
%TO.N,GND*%
X116810000Y-68750000D03*
X117810000Y-73250000D03*
%TO.N,Net-(J2-PadB42)*%
X117810000Y-66750000D03*
%TO.N,GND*%
X118810000Y-71250000D03*
%TO.N,Net-(J2-PadB41)*%
X118810000Y-68750000D03*
%TO.N,Net-(J2-PadA40)*%
X119810000Y-73250000D03*
%TO.N,GND*%
X119810000Y-66750000D03*
%TO.N,Net-(J2-PadA39)*%
X120810000Y-71250000D03*
%TO.N,GND*%
X120810000Y-68750000D03*
X121810000Y-73250000D03*
%TO.N,Net-(J2-PadB38)*%
X121810000Y-66750000D03*
%TO.N,GND*%
X122810000Y-71250000D03*
%TO.N,Net-(J2-PadB37)*%
X122810000Y-68750000D03*
%TO.N,Net-(J2-PadA36)*%
X123810000Y-73250000D03*
%TO.N,GND*%
X123810000Y-66750000D03*
%TO.N,Net-(J2-PadA35)*%
X124810000Y-71250000D03*
%TO.N,GND*%
X124810000Y-68750000D03*
X125810000Y-73250000D03*
%TO.N,Net-(J2-PadB34)*%
X125810000Y-66750000D03*
%TO.N,Net-(J2-PadA33)*%
X126810000Y-71250000D03*
%TO.N,Net-(J2-PadB33)*%
X126810000Y-68750000D03*
%TO.N,Net-(J2-PadA32)*%
X127810000Y-73250000D03*
%TO.N,GND*%
X127810000Y-66750000D03*
X128810000Y-71250000D03*
%TO.N,Net-(J2-PadB31)*%
X128810000Y-68750000D03*
%TO.N,/X8_PER3_N*%
X129810000Y-73250000D03*
%TO.N,Net-(J2-PadB30)*%
X129810000Y-66750000D03*
%TO.N,/X8_PER3_P*%
X130810000Y-71250000D03*
%TO.N,GND*%
X130810000Y-68750000D03*
X131810000Y-73250000D03*
%TO.N,/X8_PET3_N*%
X131810000Y-66750000D03*
%TO.N,GND*%
X132810000Y-71250000D03*
%TO.N,/X8_PET3_P*%
X132810000Y-68750000D03*
%TO.N,/X8_PER2_N*%
X133810000Y-73250000D03*
%TO.N,GND*%
X133810000Y-66750000D03*
%TO.N,/X8_PER2_P*%
X134810000Y-71250000D03*
%TO.N,GND*%
X134810000Y-68750000D03*
X135810000Y-73250000D03*
%TO.N,/X8_PET2_N*%
X135810000Y-66750000D03*
%TO.N,GND*%
X136810000Y-71250000D03*
%TO.N,/X8_PET2_P*%
X136810000Y-68750000D03*
%TO.N,/X8_PER1_N*%
X137810000Y-73250000D03*
%TO.N,GND*%
X137810000Y-66750000D03*
%TO.N,/X8_PER1_P*%
X138810000Y-71250000D03*
%TO.N,GND*%
X138810000Y-68750000D03*
X139810000Y-73250000D03*
%TO.N,/X8_PET1_N*%
X139810000Y-66750000D03*
%TO.N,Net-(J2-PadA19)*%
X140810000Y-71250000D03*
%TO.N,/X8_PET1_P*%
X140810000Y-68750000D03*
%TO.N,GND*%
X141810000Y-73250000D03*
X141810000Y-66750000D03*
%TO.N,/X8_PER0_N*%
X142810000Y-71250000D03*
%TO.N,Net-(J2-PadB17)*%
X142810000Y-68750000D03*
%TO.N,/X8_PER0_P*%
X143810000Y-73250000D03*
%TO.N,GND*%
X143810000Y-66750000D03*
X144810000Y-71250000D03*
%TO.N,/X8_PET0_N*%
X144810000Y-68750000D03*
%TO.N,/REFCLK_0_N*%
X145810000Y-73250000D03*
%TO.N,/X8_PET0_P*%
X145810000Y-66750000D03*
%TO.N,/REFCLK_0_P*%
X146810000Y-71250000D03*
%TO.N,GND*%
X146810000Y-68750000D03*
X147810000Y-73250000D03*
%TO.N,Net-(J2-PadB12)*%
X147810000Y-66750000D03*
%TO.N,/~WAKE*%
X150810000Y-68750000D03*
%TO.N,+3V3*%
X151810000Y-66750000D03*
%TO.N,Net-(J2-PadB9)*%
X152810000Y-68750000D03*
%TO.N,+3V3*%
X153810000Y-66750000D03*
%TO.N,GND*%
X154810000Y-68750000D03*
%TO.N,/SMDAT*%
X155810000Y-66750000D03*
%TO.N,/SMCLK*%
X156810000Y-68750000D03*
%TO.N,GND*%
X157810000Y-66750000D03*
%TO.N,+12V*%
X158810000Y-68750000D03*
X159810000Y-66750000D03*
X160810000Y-68750000D03*
%TO.N,/~PERST*%
X150810000Y-71250000D03*
%TO.N,+3V3*%
X151810000Y-73250000D03*
X152810000Y-71250000D03*
%TO.N,Net-(J2-PadA8)*%
X153810000Y-73250000D03*
%TO.N,Net-(J2-PadA7)*%
X154810000Y-71250000D03*
%TO.N,Net-(J2-PadA6)*%
X155810000Y-73250000D03*
%TO.N,Net-(J2-PadA5)*%
X156810000Y-71250000D03*
%TO.N,GND*%
X157810000Y-73250000D03*
%TO.N,+12V*%
X158810000Y-71250000D03*
X159810000Y-73250000D03*
%TO.N,Net-(J2-PadA1)*%
X160810000Y-71250000D03*
%TD*%
D13*
%TO.N,GND*%
X99500000Y-61270701D03*
X99500000Y-62250000D03*
X99500000Y-57750000D03*
X99500000Y-63750000D03*
X95250000Y-59750000D03*
X97250000Y-62750000D03*
X95250000Y-64500000D03*
X95250000Y-65750000D03*
X95250000Y-67250000D03*
X99500000Y-67270701D03*
D14*
X171478045Y-65371955D03*
X173900000Y-59200000D03*
X185900000Y-65500000D03*
X184400000Y-65500000D03*
X182400000Y-65500000D03*
X180900000Y-65500000D03*
X174900000Y-69500000D03*
X178400000Y-69500000D03*
X178400000Y-68500000D03*
X174900000Y-68500000D03*
X187150000Y-58250000D03*
D13*
X95250000Y-61000000D03*
X95247176Y-58900000D03*
X173650000Y-64100000D03*
X173650000Y-64900000D03*
X174650000Y-64900000D03*
X175650000Y-64900000D03*
X175650000Y-64100000D03*
X174650000Y-64100000D03*
D14*
X144250000Y-58750000D03*
X148000000Y-62000000D03*
X94500000Y-72000000D03*
X165550000Y-62300000D03*
D13*
X99500000Y-59250000D03*
X99500026Y-65250000D03*
D14*
X170900000Y-62225000D03*
X167150000Y-58450000D03*
%TO.N,+12VA*%
X177650000Y-57750000D03*
X180900000Y-60000000D03*
X182400000Y-60000000D03*
X185900000Y-60000000D03*
X184400000Y-60000000D03*
X160900000Y-60250000D03*
X156900000Y-60250000D03*
X159650015Y-60250000D03*
X158150030Y-60250000D03*
X177400000Y-64500000D03*
X177400000Y-63500000D03*
X177400000Y-62500000D03*
X176400000Y-62500000D03*
%TO.N,+3V3*%
X181150000Y-71250000D03*
X179150000Y-71250000D03*
X177650000Y-71250000D03*
X175650000Y-71250000D03*
X174150000Y-71250000D03*
X172150000Y-71250000D03*
X169900000Y-71250000D03*
X167650000Y-70000000D03*
X169150000Y-70000000D03*
X166150000Y-70000000D03*
X165399994Y-71250000D03*
X165400000Y-72750000D03*
X169900000Y-72750000D03*
D13*
%TO.N,/X8_PET0_P*%
X97275000Y-58572197D03*
%TO.N,/X8_PET0_N*%
X97275000Y-59350000D03*
%TO.N,/X8_PET1_P*%
X97275000Y-60150000D03*
%TO.N,/X8_PET1_N*%
X97275000Y-60927803D03*
D14*
%TO.N,/SMCLK*%
X94347470Y-61272192D03*
%TO.N,/SMDAT*%
X94350004Y-62250000D03*
%TO.N,/~PERST*%
X149900001Y-56650001D03*
X149900001Y-59400001D03*
X94350000Y-63250000D03*
%TO.N,/~CPRSNT*%
X94350000Y-64227803D03*
X184149988Y-56250000D03*
D13*
%TO.N,/X8_PET2_P*%
X97250000Y-64572197D03*
%TO.N,/X8_PET2_N*%
X97250000Y-65350000D03*
%TO.N,/X8_PET3_P*%
X97250000Y-66150000D03*
%TO.N,/X8_PET3_N*%
X97250000Y-66927803D03*
%TO.N,/REFCLK_0_P*%
X134497848Y-59033246D03*
%TO.N,/REFCLK_0_N*%
X134497848Y-59836446D03*
%TO.N,/~WAKE*%
X97275000Y-61800000D03*
%TO.N,/SW*%
X174650000Y-65975000D03*
D14*
X169900000Y-66250000D03*
X169900000Y-67749958D03*
X167650000Y-67750000D03*
X165400000Y-67750000D03*
X165400000Y-66250000D03*
D13*
X173650000Y-65975000D03*
X175650000Y-65975004D03*
D14*
X172381090Y-67268910D03*
%TD*%
D15*
%TO.N,GND*%
X157810000Y-66750000D02*
X157810000Y-73250000D01*
X146810000Y-69250000D02*
X146810000Y-68750000D01*
X144810000Y-71250000D02*
X146810000Y-69250000D01*
X143810000Y-66750000D02*
X141810000Y-66750000D01*
X138810000Y-67750000D02*
X137810000Y-66750000D01*
X138810000Y-68750000D02*
X138810000Y-67750000D01*
X136810000Y-70750000D02*
X136810000Y-71250000D01*
X138810000Y-68750000D02*
X136810000Y-70750000D01*
X139810000Y-73250000D02*
X141810000Y-73250000D01*
X136810000Y-72250000D02*
X135810000Y-73250000D01*
X136810000Y-71250000D02*
X136810000Y-72250000D01*
X134810000Y-69250000D02*
X134810000Y-68750000D01*
X136810000Y-71250000D02*
X134810000Y-69250000D01*
X134810000Y-67750000D02*
X133810000Y-66750000D01*
X134810000Y-68750000D02*
X134810000Y-67750000D01*
X132810000Y-70750000D02*
X132810000Y-71250000D01*
X134810000Y-68750000D02*
X132810000Y-70750000D01*
X130810000Y-69250000D02*
X130810000Y-68750000D01*
X132810000Y-71250000D02*
X130810000Y-69250000D01*
X132810000Y-72250000D02*
X131810000Y-73250000D01*
X132810000Y-71250000D02*
X132810000Y-72250000D01*
X128810000Y-70750000D02*
X128810000Y-71250000D01*
X130810000Y-68750000D02*
X128810000Y-70750000D01*
X124810000Y-67750000D02*
X123810000Y-66750000D01*
X124810000Y-68750000D02*
X124810000Y-67750000D01*
X122810000Y-70750000D02*
X122810000Y-71250000D01*
X124810000Y-68750000D02*
X122810000Y-70750000D01*
X122810000Y-72250000D02*
X121810000Y-73250000D01*
X122810000Y-71250000D02*
X122810000Y-72250000D01*
X120810000Y-69250000D02*
X120810000Y-68750000D01*
X122810000Y-71250000D02*
X120810000Y-69250000D01*
X120810000Y-67750000D02*
X119810000Y-66750000D01*
X120810000Y-68750000D02*
X120810000Y-67750000D01*
X118810000Y-70750000D02*
X118810000Y-71250000D01*
X120810000Y-68750000D02*
X118810000Y-70750000D01*
X118810000Y-72250000D02*
X117810000Y-73250000D01*
X118810000Y-71250000D02*
X118810000Y-72250000D01*
X116810000Y-69250000D02*
X116810000Y-68750000D01*
X118810000Y-71250000D02*
X116810000Y-69250000D01*
X116810000Y-67750000D02*
X115810000Y-66750000D01*
X116810000Y-68750000D02*
X116810000Y-67750000D01*
X116810000Y-68750000D02*
X115000000Y-70560000D01*
X115000000Y-71060000D02*
X114810000Y-71250000D01*
X115000000Y-70560000D02*
X115000000Y-71060000D01*
X114810000Y-72250000D02*
X113810000Y-73250000D01*
X114810000Y-71250000D02*
X114810000Y-72250000D01*
X112810000Y-69250000D02*
X112810000Y-68750000D01*
X114810000Y-71250000D02*
X112810000Y-69250000D01*
X112810000Y-68750000D02*
X110810000Y-68750000D01*
X110810000Y-68750000D02*
X110810000Y-71250000D01*
X99500000Y-61270701D02*
X99500000Y-62250000D01*
X99500000Y-62250000D02*
X99500000Y-63750000D01*
X157810000Y-65260000D02*
X154150000Y-61600000D01*
X157810000Y-66750000D02*
X157810000Y-65260000D01*
X172600000Y-64250000D02*
X171478045Y-65371955D01*
X171478045Y-63778045D02*
X169900000Y-62200000D01*
X171478045Y-65371955D02*
X171478045Y-63778045D01*
X167400000Y-64700000D02*
X169900000Y-62200000D01*
X95250000Y-64500000D02*
X95250000Y-65750000D01*
X95250000Y-65750000D02*
X95250000Y-67250000D01*
X173900000Y-59200000D02*
X172900000Y-59200000D01*
X185900000Y-65500000D02*
X184400000Y-65500000D01*
X182400000Y-65500000D02*
X180900000Y-65500000D01*
X180900000Y-65500000D02*
X180900000Y-67000000D01*
X179400000Y-68500000D02*
X178400000Y-68500000D01*
X180900000Y-67000000D02*
X179400000Y-68500000D01*
X187150000Y-64250000D02*
X185900000Y-65500000D01*
X187150000Y-58250000D02*
X187150000Y-64250000D01*
X97250000Y-62750000D02*
X95500000Y-61000000D01*
X95250000Y-61000000D02*
X95250000Y-59750000D01*
X95250000Y-61000000D02*
X95250000Y-64500000D01*
X95500000Y-61000000D02*
X95250000Y-61000000D01*
X95250000Y-59750000D02*
X95250000Y-58902824D01*
X95250000Y-58902824D02*
X95247176Y-58900000D01*
X148000000Y-62560000D02*
X148000000Y-62000000D01*
X143810000Y-66750000D02*
X148000000Y-62560000D01*
X158810000Y-67750000D02*
X157810000Y-66750000D01*
X164300000Y-64700000D02*
X161250000Y-67750000D01*
X175650000Y-64100000D02*
X174650000Y-64100000D01*
X175650000Y-64900000D02*
X174650000Y-64900000D01*
X173650000Y-64100000D02*
X173650000Y-64900000D01*
X173650000Y-64100000D02*
X172750000Y-64100000D01*
X172750000Y-64100000D02*
X172600000Y-64250000D01*
X186500000Y-67500000D02*
X187250000Y-68250000D01*
X185500000Y-67500000D02*
X186500000Y-67500000D01*
X188000000Y-69000000D02*
X188000000Y-70000000D01*
X187250000Y-68250000D02*
X188000000Y-69000000D01*
X188000000Y-71000000D02*
X187250000Y-71750000D01*
X188000000Y-70000000D02*
X188000000Y-71000000D01*
X186500000Y-72500000D02*
X185500000Y-72500000D01*
X187250000Y-71750000D02*
X186500000Y-72500000D01*
X184500000Y-72500000D02*
X183750000Y-71750000D01*
X185500000Y-72500000D02*
X184500000Y-72500000D01*
X183000000Y-71000000D02*
X183000000Y-70000000D01*
X183750000Y-71750000D02*
X183000000Y-71000000D01*
X183000000Y-69000000D02*
X183750000Y-68250000D01*
X183000000Y-70000000D02*
X183000000Y-69000000D01*
X184500000Y-67500000D02*
X185500000Y-67500000D01*
X183750000Y-68250000D02*
X184500000Y-67500000D01*
X161250000Y-67750000D02*
X158810000Y-67750000D01*
X165550000Y-62850000D02*
X165550000Y-62300000D01*
X167400000Y-64700000D02*
X165550000Y-62850000D01*
X99975000Y-70000000D02*
X101250000Y-70000000D01*
X97975000Y-72000000D02*
X99975000Y-70000000D01*
X94500000Y-72000000D02*
X97975000Y-72000000D01*
X101250000Y-71000000D02*
X102000000Y-71750000D01*
X101250000Y-70000000D02*
X101250000Y-71000000D01*
X102750000Y-72500000D02*
X103750000Y-72500000D01*
X102000000Y-71750000D02*
X102750000Y-72500000D01*
X104750000Y-72500000D02*
X105500000Y-71750000D01*
X103750000Y-72500000D02*
X104750000Y-72500000D01*
X106250000Y-71000000D02*
X106250000Y-70000000D01*
X105500000Y-71750000D02*
X106250000Y-71000000D01*
X106250000Y-69000000D02*
X105500000Y-68250000D01*
X106250000Y-70000000D02*
X106250000Y-69000000D01*
X104750000Y-67500000D02*
X103750000Y-67500000D01*
X105500000Y-68250000D02*
X104750000Y-67500000D01*
X102750000Y-67500000D02*
X102000000Y-68250000D01*
X103750000Y-67500000D02*
X102750000Y-67500000D01*
X101250000Y-69000000D02*
X101250000Y-70000000D01*
X102000000Y-68250000D02*
X101250000Y-69000000D01*
X100775000Y-68250000D02*
X102000000Y-68250000D01*
X99795701Y-67270701D02*
X100775000Y-68250000D01*
X99500000Y-67270701D02*
X99795701Y-67270701D01*
X185900000Y-67100000D02*
X185500000Y-67500000D01*
X185900000Y-65500000D02*
X185900000Y-67100000D01*
X167400000Y-64700000D02*
X164300000Y-64700000D01*
X99500000Y-57750000D02*
X99500000Y-59250000D01*
X99500000Y-59250000D02*
X99500000Y-61270701D01*
X110810000Y-68750000D02*
X107310000Y-65250000D01*
X99500000Y-65250026D02*
X99500026Y-65250000D01*
X99500000Y-67270701D02*
X99500000Y-65250026D01*
X99500000Y-63750000D02*
X99500000Y-65249974D01*
X99500000Y-65249974D02*
X99500026Y-65250000D01*
X107310000Y-65250000D02*
X99500026Y-65250000D01*
X171500000Y-58450000D02*
X172575000Y-59525000D01*
X167150000Y-58450000D02*
X171500000Y-58450000D01*
X172575000Y-59525000D02*
X169900000Y-62200000D01*
X172900000Y-59200000D02*
X172575000Y-59525000D01*
X138860000Y-72300000D02*
X139810000Y-73250000D01*
X137860000Y-72300000D02*
X138860000Y-72300000D01*
X136810000Y-71250000D02*
X137860000Y-72300000D01*
X139760000Y-67800000D02*
X138810000Y-68750000D01*
X140760000Y-67800000D02*
X139760000Y-67800000D01*
X141810000Y-66750000D02*
X140760000Y-67800000D01*
X144760000Y-67700000D02*
X143810000Y-66750000D01*
X145760000Y-67700000D02*
X144760000Y-67700000D01*
X146810000Y-68750000D02*
X145760000Y-67700000D01*
X145760000Y-72200000D02*
X144810000Y-71250000D01*
X146760000Y-72200000D02*
X145760000Y-72200000D01*
X147810000Y-73250000D02*
X146760000Y-72200000D01*
X148760000Y-72300000D02*
X147810000Y-73250000D01*
X156860000Y-72300000D02*
X148760000Y-72300000D01*
X157810000Y-73250000D02*
X156860000Y-72300000D01*
X156860000Y-67700000D02*
X157810000Y-66750000D01*
X155860000Y-67700000D02*
X156860000Y-67700000D01*
X154810000Y-68750000D02*
X155860000Y-67700000D01*
X128860000Y-67800000D02*
X127810000Y-66750000D01*
X129860000Y-67800000D02*
X128860000Y-67800000D01*
X130810000Y-68750000D02*
X129860000Y-67800000D01*
X125760000Y-67800000D02*
X124810000Y-68750000D01*
X126760000Y-67800000D02*
X125760000Y-67800000D01*
X127810000Y-66750000D02*
X126760000Y-67800000D01*
X124760000Y-72200000D02*
X125810000Y-73250000D01*
X123760000Y-72200000D02*
X124760000Y-72200000D01*
X122810000Y-71250000D02*
X123760000Y-72200000D01*
X173443910Y-67043910D02*
X174900000Y-68500000D01*
X171771955Y-65371955D02*
X173443910Y-67043910D01*
X171478045Y-65371955D02*
X171771955Y-65371955D01*
X178900000Y-70000000D02*
X178400000Y-69500000D01*
X180400000Y-70000000D02*
X178900000Y-70000000D01*
X180800000Y-70400000D02*
X180400000Y-70000000D01*
X182400000Y-70400000D02*
X180800000Y-70400000D01*
X183000000Y-71000000D02*
X182400000Y-70400000D01*
%TD*%
D16*
%TO.N,GND*%
X189094000Y-74094000D02*
X160074568Y-74094000D01*
X160227310Y-74030732D01*
X160371605Y-73934318D01*
X160494318Y-73811605D01*
X160590732Y-73667310D01*
X160657144Y-73506978D01*
X160691000Y-73336771D01*
X160691000Y-73163229D01*
X160657144Y-72993022D01*
X160590732Y-72832690D01*
X160494318Y-72688395D01*
X160371605Y-72565682D01*
X160227310Y-72469268D01*
X160066978Y-72402856D01*
X159896771Y-72369000D01*
X159723229Y-72369000D01*
X159553022Y-72402856D01*
X159392690Y-72469268D01*
X159248395Y-72565682D01*
X159125682Y-72688395D01*
X159029268Y-72832690D01*
X158962856Y-72993022D01*
X158929000Y-73163229D01*
X158929000Y-73336771D01*
X158962856Y-73506978D01*
X159029268Y-73667310D01*
X159125682Y-73811605D01*
X159248395Y-73934318D01*
X159392690Y-74030732D01*
X159545432Y-74094000D01*
X156074568Y-74094000D01*
X156227310Y-74030732D01*
X156371605Y-73934318D01*
X156494318Y-73811605D01*
X156590732Y-73667310D01*
X156657144Y-73506978D01*
X156691000Y-73336771D01*
X156691000Y-73163229D01*
X156657144Y-72993022D01*
X156590732Y-72832690D01*
X156494318Y-72688395D01*
X156371605Y-72565682D01*
X156227310Y-72469268D01*
X156066978Y-72402856D01*
X155896771Y-72369000D01*
X155723229Y-72369000D01*
X155553022Y-72402856D01*
X155392690Y-72469268D01*
X155248395Y-72565682D01*
X155125682Y-72688395D01*
X155029268Y-72832690D01*
X154962856Y-72993022D01*
X154929000Y-73163229D01*
X154929000Y-73336771D01*
X154962856Y-73506978D01*
X155029268Y-73667310D01*
X155125682Y-73811605D01*
X155248395Y-73934318D01*
X155392690Y-74030732D01*
X155545432Y-74094000D01*
X154074568Y-74094000D01*
X154227310Y-74030732D01*
X154371605Y-73934318D01*
X154494318Y-73811605D01*
X154590732Y-73667310D01*
X154657144Y-73506978D01*
X154691000Y-73336771D01*
X154691000Y-73163229D01*
X154657144Y-72993022D01*
X154590732Y-72832690D01*
X154494318Y-72688395D01*
X154371605Y-72565682D01*
X154227310Y-72469268D01*
X154066978Y-72402856D01*
X153896771Y-72369000D01*
X153723229Y-72369000D01*
X153553022Y-72402856D01*
X153392690Y-72469268D01*
X153248395Y-72565682D01*
X153125682Y-72688395D01*
X153029268Y-72832690D01*
X152962856Y-72993022D01*
X152929000Y-73163229D01*
X152929000Y-73336771D01*
X152962856Y-73506978D01*
X153029268Y-73667310D01*
X153125682Y-73811605D01*
X153248395Y-73934318D01*
X153392690Y-74030732D01*
X153545432Y-74094000D01*
X152074568Y-74094000D01*
X152227310Y-74030732D01*
X152371605Y-73934318D01*
X152494318Y-73811605D01*
X152590732Y-73667310D01*
X152657144Y-73506978D01*
X152691000Y-73336771D01*
X152691000Y-73163229D01*
X152657144Y-72993022D01*
X152590732Y-72832690D01*
X152494318Y-72688395D01*
X152371605Y-72565682D01*
X152227310Y-72469268D01*
X152066978Y-72402856D01*
X151896771Y-72369000D01*
X151723229Y-72369000D01*
X151553022Y-72402856D01*
X151392690Y-72469268D01*
X151248395Y-72565682D01*
X151125682Y-72688395D01*
X151029268Y-72832690D01*
X150962856Y-72993022D01*
X150929000Y-73163229D01*
X150929000Y-73336771D01*
X150962856Y-73506978D01*
X151029268Y-73667310D01*
X151125682Y-73811605D01*
X151248395Y-73934318D01*
X151392690Y-74030732D01*
X151545432Y-74094000D01*
X146074568Y-74094000D01*
X146227310Y-74030732D01*
X146371605Y-73934318D01*
X146494318Y-73811605D01*
X146590732Y-73667310D01*
X146657144Y-73506978D01*
X146691000Y-73336771D01*
X146691000Y-73163229D01*
X146657144Y-72993022D01*
X146590732Y-72832690D01*
X146494318Y-72688395D01*
X146371605Y-72565682D01*
X146227310Y-72469268D01*
X146066978Y-72402856D01*
X145896771Y-72369000D01*
X145723229Y-72369000D01*
X145553022Y-72402856D01*
X145392690Y-72469268D01*
X145248395Y-72565682D01*
X145125682Y-72688395D01*
X145029268Y-72832690D01*
X144962856Y-72993022D01*
X144929000Y-73163229D01*
X144929000Y-73336771D01*
X144962856Y-73506978D01*
X145029268Y-73667310D01*
X145125682Y-73811605D01*
X145248395Y-73934318D01*
X145392690Y-74030732D01*
X145545432Y-74094000D01*
X144074568Y-74094000D01*
X144227310Y-74030732D01*
X144371605Y-73934318D01*
X144494318Y-73811605D01*
X144590732Y-73667310D01*
X144657144Y-73506978D01*
X144691000Y-73336771D01*
X144691000Y-73163229D01*
X144657144Y-72993022D01*
X144590732Y-72832690D01*
X144494318Y-72688395D01*
X144371605Y-72565682D01*
X144227310Y-72469268D01*
X144066978Y-72402856D01*
X143896771Y-72369000D01*
X143723229Y-72369000D01*
X143553022Y-72402856D01*
X143392690Y-72469268D01*
X143248395Y-72565682D01*
X143125682Y-72688395D01*
X143029268Y-72832690D01*
X142962856Y-72993022D01*
X142929000Y-73163229D01*
X142929000Y-73336771D01*
X142962856Y-73506978D01*
X143029268Y-73667310D01*
X143125682Y-73811605D01*
X143248395Y-73934318D01*
X143392690Y-74030732D01*
X143545432Y-74094000D01*
X138074568Y-74094000D01*
X138227310Y-74030732D01*
X138371605Y-73934318D01*
X138494318Y-73811605D01*
X138590732Y-73667310D01*
X138657144Y-73506978D01*
X138691000Y-73336771D01*
X138691000Y-73163229D01*
X138657144Y-72993022D01*
X138590732Y-72832690D01*
X138494318Y-72688395D01*
X138371605Y-72565682D01*
X138227310Y-72469268D01*
X138066978Y-72402856D01*
X137896771Y-72369000D01*
X137723229Y-72369000D01*
X137553022Y-72402856D01*
X137392690Y-72469268D01*
X137248395Y-72565682D01*
X137125682Y-72688395D01*
X137029268Y-72832690D01*
X136962856Y-72993022D01*
X136929000Y-73163229D01*
X136929000Y-73336771D01*
X136962856Y-73506978D01*
X137029268Y-73667310D01*
X137125682Y-73811605D01*
X137248395Y-73934318D01*
X137392690Y-74030732D01*
X137545432Y-74094000D01*
X134074568Y-74094000D01*
X134227310Y-74030732D01*
X134371605Y-73934318D01*
X134494318Y-73811605D01*
X134590732Y-73667310D01*
X134657144Y-73506978D01*
X134691000Y-73336771D01*
X134691000Y-73163229D01*
X134657144Y-72993022D01*
X134590732Y-72832690D01*
X134494318Y-72688395D01*
X134371605Y-72565682D01*
X134227310Y-72469268D01*
X134066978Y-72402856D01*
X133896771Y-72369000D01*
X133723229Y-72369000D01*
X133553022Y-72402856D01*
X133392690Y-72469268D01*
X133248395Y-72565682D01*
X133125682Y-72688395D01*
X133029268Y-72832690D01*
X132962856Y-72993022D01*
X132929000Y-73163229D01*
X132929000Y-73336771D01*
X132962856Y-73506978D01*
X133029268Y-73667310D01*
X133125682Y-73811605D01*
X133248395Y-73934318D01*
X133392690Y-74030732D01*
X133545432Y-74094000D01*
X130074568Y-74094000D01*
X130227310Y-74030732D01*
X130371605Y-73934318D01*
X130494318Y-73811605D01*
X130590732Y-73667310D01*
X130657144Y-73506978D01*
X130691000Y-73336771D01*
X130691000Y-73163229D01*
X130657144Y-72993022D01*
X130590732Y-72832690D01*
X130494318Y-72688395D01*
X130371605Y-72565682D01*
X130227310Y-72469268D01*
X130066978Y-72402856D01*
X129896771Y-72369000D01*
X129723229Y-72369000D01*
X129553022Y-72402856D01*
X129392690Y-72469268D01*
X129248395Y-72565682D01*
X129125682Y-72688395D01*
X129029268Y-72832690D01*
X128962856Y-72993022D01*
X128929000Y-73163229D01*
X128929000Y-73336771D01*
X128962856Y-73506978D01*
X129029268Y-73667310D01*
X129125682Y-73811605D01*
X129248395Y-73934318D01*
X129392690Y-74030732D01*
X129545432Y-74094000D01*
X128074568Y-74094000D01*
X128227310Y-74030732D01*
X128371605Y-73934318D01*
X128494318Y-73811605D01*
X128590732Y-73667310D01*
X128657144Y-73506978D01*
X128691000Y-73336771D01*
X128691000Y-73163229D01*
X128657144Y-72993022D01*
X128590732Y-72832690D01*
X128494318Y-72688395D01*
X128371605Y-72565682D01*
X128227310Y-72469268D01*
X128066978Y-72402856D01*
X127896771Y-72369000D01*
X127723229Y-72369000D01*
X127553022Y-72402856D01*
X127392690Y-72469268D01*
X127248395Y-72565682D01*
X127125682Y-72688395D01*
X127029268Y-72832690D01*
X126962856Y-72993022D01*
X126929000Y-73163229D01*
X126929000Y-73336771D01*
X126962856Y-73506978D01*
X127029268Y-73667310D01*
X127125682Y-73811605D01*
X127248395Y-73934318D01*
X127392690Y-74030732D01*
X127545432Y-74094000D01*
X124074568Y-74094000D01*
X124227310Y-74030732D01*
X124371605Y-73934318D01*
X124494318Y-73811605D01*
X124590732Y-73667310D01*
X124657144Y-73506978D01*
X124691000Y-73336771D01*
X124691000Y-73163229D01*
X124657144Y-72993022D01*
X124590732Y-72832690D01*
X124494318Y-72688395D01*
X124371605Y-72565682D01*
X124227310Y-72469268D01*
X124066978Y-72402856D01*
X123896771Y-72369000D01*
X123723229Y-72369000D01*
X123553022Y-72402856D01*
X123392690Y-72469268D01*
X123248395Y-72565682D01*
X123125682Y-72688395D01*
X123029268Y-72832690D01*
X122962856Y-72993022D01*
X122929000Y-73163229D01*
X122929000Y-73336771D01*
X122962856Y-73506978D01*
X123029268Y-73667310D01*
X123125682Y-73811605D01*
X123248395Y-73934318D01*
X123392690Y-74030732D01*
X123545432Y-74094000D01*
X120074568Y-74094000D01*
X120227310Y-74030732D01*
X120371605Y-73934318D01*
X120494318Y-73811605D01*
X120590732Y-73667310D01*
X120657144Y-73506978D01*
X120691000Y-73336771D01*
X120691000Y-73163229D01*
X120657144Y-72993022D01*
X120590732Y-72832690D01*
X120494318Y-72688395D01*
X120371605Y-72565682D01*
X120227310Y-72469268D01*
X120066978Y-72402856D01*
X119896771Y-72369000D01*
X119723229Y-72369000D01*
X119553022Y-72402856D01*
X119392690Y-72469268D01*
X119248395Y-72565682D01*
X119125682Y-72688395D01*
X119029268Y-72832690D01*
X118962856Y-72993022D01*
X118929000Y-73163229D01*
X118929000Y-73336771D01*
X118962856Y-73506978D01*
X119029268Y-73667310D01*
X119125682Y-73811605D01*
X119248395Y-73934318D01*
X119392690Y-74030732D01*
X119545432Y-74094000D01*
X116074568Y-74094000D01*
X116227310Y-74030732D01*
X116371605Y-73934318D01*
X116494318Y-73811605D01*
X116590732Y-73667310D01*
X116657144Y-73506978D01*
X116691000Y-73336771D01*
X116691000Y-73163229D01*
X116657144Y-72993022D01*
X116590732Y-72832690D01*
X116494318Y-72688395D01*
X116371605Y-72565682D01*
X116227310Y-72469268D01*
X116066978Y-72402856D01*
X115896771Y-72369000D01*
X115723229Y-72369000D01*
X115553022Y-72402856D01*
X115392690Y-72469268D01*
X115248395Y-72565682D01*
X115125682Y-72688395D01*
X115029268Y-72832690D01*
X114962856Y-72993022D01*
X114929000Y-73163229D01*
X114929000Y-73336771D01*
X114962856Y-73506978D01*
X115029268Y-73667310D01*
X115125682Y-73811605D01*
X115248395Y-73934318D01*
X115392690Y-74030732D01*
X115545432Y-74094000D01*
X112074568Y-74094000D01*
X112227310Y-74030732D01*
X112371605Y-73934318D01*
X112494318Y-73811605D01*
X112590732Y-73667310D01*
X112657144Y-73506978D01*
X112691000Y-73336771D01*
X112691000Y-73163229D01*
X112657144Y-72993022D01*
X112590732Y-72832690D01*
X112494318Y-72688395D01*
X112371605Y-72565682D01*
X112227310Y-72469268D01*
X112066978Y-72402856D01*
X111896771Y-72369000D01*
X111723229Y-72369000D01*
X111553022Y-72402856D01*
X111392690Y-72469268D01*
X111248395Y-72565682D01*
X111125682Y-72688395D01*
X111029268Y-72832690D01*
X110962856Y-72993022D01*
X110929000Y-73163229D01*
X110929000Y-73336771D01*
X110962856Y-73506978D01*
X111029268Y-73667310D01*
X111125682Y-73811605D01*
X111248395Y-73934318D01*
X111392690Y-74030732D01*
X111545432Y-74094000D01*
X89906000Y-74094000D01*
X89906000Y-69799964D01*
X101719000Y-69799964D01*
X101719000Y-70200036D01*
X101797050Y-70592421D01*
X101950151Y-70962039D01*
X102172419Y-71294687D01*
X102455313Y-71577581D01*
X102787961Y-71799849D01*
X103157579Y-71952950D01*
X103549964Y-72031000D01*
X103950036Y-72031000D01*
X104342421Y-71952950D01*
X104712039Y-71799849D01*
X105044687Y-71577581D01*
X105327581Y-71294687D01*
X105549849Y-70962039D01*
X105702950Y-70592421D01*
X105781000Y-70200036D01*
X105781000Y-69846747D01*
X107444000Y-69846747D01*
X107444000Y-70153253D01*
X107503796Y-70453869D01*
X107621091Y-70737042D01*
X107791376Y-70991892D01*
X108008108Y-71208624D01*
X108262958Y-71378909D01*
X108546131Y-71496204D01*
X108846747Y-71556000D01*
X109153253Y-71556000D01*
X109453869Y-71496204D01*
X109737042Y-71378909D01*
X109991892Y-71208624D01*
X110037287Y-71163229D01*
X111929000Y-71163229D01*
X111929000Y-71336771D01*
X111962856Y-71506978D01*
X112029268Y-71667310D01*
X112125682Y-71811605D01*
X112248395Y-71934318D01*
X112392690Y-72030732D01*
X112553022Y-72097144D01*
X112723229Y-72131000D01*
X112896771Y-72131000D01*
X113066978Y-72097144D01*
X113227310Y-72030732D01*
X113371605Y-71934318D01*
X113494318Y-71811605D01*
X113590732Y-71667310D01*
X113657144Y-71506978D01*
X113691000Y-71336771D01*
X113691000Y-71163229D01*
X115929000Y-71163229D01*
X115929000Y-71336771D01*
X115962856Y-71506978D01*
X116029268Y-71667310D01*
X116125682Y-71811605D01*
X116248395Y-71934318D01*
X116392690Y-72030732D01*
X116553022Y-72097144D01*
X116723229Y-72131000D01*
X116896771Y-72131000D01*
X117066978Y-72097144D01*
X117227310Y-72030732D01*
X117371605Y-71934318D01*
X117494318Y-71811605D01*
X117590732Y-71667310D01*
X117657144Y-71506978D01*
X117691000Y-71336771D01*
X117691000Y-71163229D01*
X119929000Y-71163229D01*
X119929000Y-71336771D01*
X119962856Y-71506978D01*
X120029268Y-71667310D01*
X120125682Y-71811605D01*
X120248395Y-71934318D01*
X120392690Y-72030732D01*
X120553022Y-72097144D01*
X120723229Y-72131000D01*
X120896771Y-72131000D01*
X121066978Y-72097144D01*
X121227310Y-72030732D01*
X121371605Y-71934318D01*
X121494318Y-71811605D01*
X121590732Y-71667310D01*
X121657144Y-71506978D01*
X121691000Y-71336771D01*
X121691000Y-71163229D01*
X123929000Y-71163229D01*
X123929000Y-71336771D01*
X123962856Y-71506978D01*
X124029268Y-71667310D01*
X124125682Y-71811605D01*
X124248395Y-71934318D01*
X124392690Y-72030732D01*
X124553022Y-72097144D01*
X124723229Y-72131000D01*
X124896771Y-72131000D01*
X125066978Y-72097144D01*
X125227310Y-72030732D01*
X125371605Y-71934318D01*
X125494318Y-71811605D01*
X125590732Y-71667310D01*
X125657144Y-71506978D01*
X125691000Y-71336771D01*
X125691000Y-71163229D01*
X125929000Y-71163229D01*
X125929000Y-71336771D01*
X125962856Y-71506978D01*
X126029268Y-71667310D01*
X126125682Y-71811605D01*
X126248395Y-71934318D01*
X126392690Y-72030732D01*
X126553022Y-72097144D01*
X126723229Y-72131000D01*
X126896771Y-72131000D01*
X127066978Y-72097144D01*
X127227310Y-72030732D01*
X127371605Y-71934318D01*
X127494318Y-71811605D01*
X127590732Y-71667310D01*
X127657144Y-71506978D01*
X127691000Y-71336771D01*
X127691000Y-71163229D01*
X129929000Y-71163229D01*
X129929000Y-71336771D01*
X129962856Y-71506978D01*
X130029268Y-71667310D01*
X130125682Y-71811605D01*
X130248395Y-71934318D01*
X130392690Y-72030732D01*
X130553022Y-72097144D01*
X130723229Y-72131000D01*
X130896771Y-72131000D01*
X131066978Y-72097144D01*
X131227310Y-72030732D01*
X131371605Y-71934318D01*
X131494318Y-71811605D01*
X131590732Y-71667310D01*
X131657144Y-71506978D01*
X131691000Y-71336771D01*
X131691000Y-71163229D01*
X133929000Y-71163229D01*
X133929000Y-71336771D01*
X133962856Y-71506978D01*
X134029268Y-71667310D01*
X134125682Y-71811605D01*
X134248395Y-71934318D01*
X134392690Y-72030732D01*
X134553022Y-72097144D01*
X134723229Y-72131000D01*
X134896771Y-72131000D01*
X135066978Y-72097144D01*
X135227310Y-72030732D01*
X135371605Y-71934318D01*
X135494318Y-71811605D01*
X135590732Y-71667310D01*
X135657144Y-71506978D01*
X135691000Y-71336771D01*
X135691000Y-71163229D01*
X137929000Y-71163229D01*
X137929000Y-71336771D01*
X137962856Y-71506978D01*
X138029268Y-71667310D01*
X138125682Y-71811605D01*
X138248395Y-71934318D01*
X138392690Y-72030732D01*
X138553022Y-72097144D01*
X138723229Y-72131000D01*
X138896771Y-72131000D01*
X139066978Y-72097144D01*
X139227310Y-72030732D01*
X139371605Y-71934318D01*
X139494318Y-71811605D01*
X139590732Y-71667310D01*
X139657144Y-71506978D01*
X139691000Y-71336771D01*
X139691000Y-71163229D01*
X139929000Y-71163229D01*
X139929000Y-71336771D01*
X139962856Y-71506978D01*
X140029268Y-71667310D01*
X140125682Y-71811605D01*
X140248395Y-71934318D01*
X140392690Y-72030732D01*
X140553022Y-72097144D01*
X140723229Y-72131000D01*
X140896771Y-72131000D01*
X141066978Y-72097144D01*
X141227310Y-72030732D01*
X141371605Y-71934318D01*
X141494318Y-71811605D01*
X141590732Y-71667310D01*
X141657144Y-71506978D01*
X141691000Y-71336771D01*
X141691000Y-71163229D01*
X141929000Y-71163229D01*
X141929000Y-71336771D01*
X141962856Y-71506978D01*
X142029268Y-71667310D01*
X142125682Y-71811605D01*
X142248395Y-71934318D01*
X142392690Y-72030732D01*
X142553022Y-72097144D01*
X142723229Y-72131000D01*
X142896771Y-72131000D01*
X143066978Y-72097144D01*
X143227310Y-72030732D01*
X143371605Y-71934318D01*
X143494318Y-71811605D01*
X143590732Y-71667310D01*
X143657144Y-71506978D01*
X143691000Y-71336771D01*
X143691000Y-71163229D01*
X145929000Y-71163229D01*
X145929000Y-71336771D01*
X145962856Y-71506978D01*
X146029268Y-71667310D01*
X146125682Y-71811605D01*
X146248395Y-71934318D01*
X146392690Y-72030732D01*
X146553022Y-72097144D01*
X146723229Y-72131000D01*
X146896771Y-72131000D01*
X147066978Y-72097144D01*
X147227310Y-72030732D01*
X147371605Y-71934318D01*
X147494318Y-71811605D01*
X147590732Y-71667310D01*
X147657144Y-71506978D01*
X147691000Y-71336771D01*
X147691000Y-71163229D01*
X147657144Y-70993022D01*
X147590732Y-70832690D01*
X147494318Y-70688395D01*
X147371605Y-70565682D01*
X147227310Y-70469268D01*
X147066978Y-70402856D01*
X146896771Y-70369000D01*
X146723229Y-70369000D01*
X146553022Y-70402856D01*
X146392690Y-70469268D01*
X146248395Y-70565682D01*
X146125682Y-70688395D01*
X146029268Y-70832690D01*
X145962856Y-70993022D01*
X145929000Y-71163229D01*
X143691000Y-71163229D01*
X143657144Y-70993022D01*
X143590732Y-70832690D01*
X143494318Y-70688395D01*
X143371605Y-70565682D01*
X143227310Y-70469268D01*
X143066978Y-70402856D01*
X142896771Y-70369000D01*
X142723229Y-70369000D01*
X142553022Y-70402856D01*
X142392690Y-70469268D01*
X142248395Y-70565682D01*
X142125682Y-70688395D01*
X142029268Y-70832690D01*
X141962856Y-70993022D01*
X141929000Y-71163229D01*
X141691000Y-71163229D01*
X141657144Y-70993022D01*
X141590732Y-70832690D01*
X141494318Y-70688395D01*
X141371605Y-70565682D01*
X141227310Y-70469268D01*
X141066978Y-70402856D01*
X140896771Y-70369000D01*
X140723229Y-70369000D01*
X140553022Y-70402856D01*
X140392690Y-70469268D01*
X140248395Y-70565682D01*
X140125682Y-70688395D01*
X140029268Y-70832690D01*
X139962856Y-70993022D01*
X139929000Y-71163229D01*
X139691000Y-71163229D01*
X139657144Y-70993022D01*
X139590732Y-70832690D01*
X139494318Y-70688395D01*
X139371605Y-70565682D01*
X139227310Y-70469268D01*
X139066978Y-70402856D01*
X138896771Y-70369000D01*
X138723229Y-70369000D01*
X138553022Y-70402856D01*
X138392690Y-70469268D01*
X138248395Y-70565682D01*
X138125682Y-70688395D01*
X138029268Y-70832690D01*
X137962856Y-70993022D01*
X137929000Y-71163229D01*
X135691000Y-71163229D01*
X135657144Y-70993022D01*
X135590732Y-70832690D01*
X135494318Y-70688395D01*
X135371605Y-70565682D01*
X135227310Y-70469268D01*
X135066978Y-70402856D01*
X134896771Y-70369000D01*
X134723229Y-70369000D01*
X134553022Y-70402856D01*
X134392690Y-70469268D01*
X134248395Y-70565682D01*
X134125682Y-70688395D01*
X134029268Y-70832690D01*
X133962856Y-70993022D01*
X133929000Y-71163229D01*
X131691000Y-71163229D01*
X131657144Y-70993022D01*
X131590732Y-70832690D01*
X131494318Y-70688395D01*
X131371605Y-70565682D01*
X131227310Y-70469268D01*
X131066978Y-70402856D01*
X130896771Y-70369000D01*
X130723229Y-70369000D01*
X130553022Y-70402856D01*
X130392690Y-70469268D01*
X130248395Y-70565682D01*
X130125682Y-70688395D01*
X130029268Y-70832690D01*
X129962856Y-70993022D01*
X129929000Y-71163229D01*
X127691000Y-71163229D01*
X127657144Y-70993022D01*
X127590732Y-70832690D01*
X127494318Y-70688395D01*
X127371605Y-70565682D01*
X127227310Y-70469268D01*
X127066978Y-70402856D01*
X126896771Y-70369000D01*
X126723229Y-70369000D01*
X126553022Y-70402856D01*
X126392690Y-70469268D01*
X126248395Y-70565682D01*
X126125682Y-70688395D01*
X126029268Y-70832690D01*
X125962856Y-70993022D01*
X125929000Y-71163229D01*
X125691000Y-71163229D01*
X125657144Y-70993022D01*
X125590732Y-70832690D01*
X125494318Y-70688395D01*
X125371605Y-70565682D01*
X125227310Y-70469268D01*
X125066978Y-70402856D01*
X124896771Y-70369000D01*
X124723229Y-70369000D01*
X124553022Y-70402856D01*
X124392690Y-70469268D01*
X124248395Y-70565682D01*
X124125682Y-70688395D01*
X124029268Y-70832690D01*
X123962856Y-70993022D01*
X123929000Y-71163229D01*
X121691000Y-71163229D01*
X121657144Y-70993022D01*
X121590732Y-70832690D01*
X121494318Y-70688395D01*
X121371605Y-70565682D01*
X121227310Y-70469268D01*
X121066978Y-70402856D01*
X120896771Y-70369000D01*
X120723229Y-70369000D01*
X120553022Y-70402856D01*
X120392690Y-70469268D01*
X120248395Y-70565682D01*
X120125682Y-70688395D01*
X120029268Y-70832690D01*
X119962856Y-70993022D01*
X119929000Y-71163229D01*
X117691000Y-71163229D01*
X117657144Y-70993022D01*
X117590732Y-70832690D01*
X117494318Y-70688395D01*
X117371605Y-70565682D01*
X117227310Y-70469268D01*
X117066978Y-70402856D01*
X116896771Y-70369000D01*
X116723229Y-70369000D01*
X116553022Y-70402856D01*
X116392690Y-70469268D01*
X116248395Y-70565682D01*
X116125682Y-70688395D01*
X116029268Y-70832690D01*
X115962856Y-70993022D01*
X115929000Y-71163229D01*
X113691000Y-71163229D01*
X113657144Y-70993022D01*
X113590732Y-70832690D01*
X113494318Y-70688395D01*
X113371605Y-70565682D01*
X113227310Y-70469268D01*
X113066978Y-70402856D01*
X112896771Y-70369000D01*
X112723229Y-70369000D01*
X112553022Y-70402856D01*
X112392690Y-70469268D01*
X112248395Y-70565682D01*
X112125682Y-70688395D01*
X112029268Y-70832690D01*
X111962856Y-70993022D01*
X111929000Y-71163229D01*
X110037287Y-71163229D01*
X110208624Y-70991892D01*
X110378909Y-70737042D01*
X110496204Y-70453869D01*
X110556000Y-70153253D01*
X110556000Y-69846747D01*
X147604000Y-69846747D01*
X147604000Y-70153253D01*
X147663796Y-70453869D01*
X147781091Y-70737042D01*
X147951376Y-70991892D01*
X148168108Y-71208624D01*
X148422958Y-71378909D01*
X148706131Y-71496204D01*
X149006747Y-71556000D01*
X149313253Y-71556000D01*
X149613869Y-71496204D01*
X149897042Y-71378909D01*
X149932649Y-71355117D01*
X149962856Y-71506978D01*
X150029268Y-71667310D01*
X150125682Y-71811605D01*
X150248395Y-71934318D01*
X150392690Y-72030732D01*
X150553022Y-72097144D01*
X150723229Y-72131000D01*
X150896771Y-72131000D01*
X151066978Y-72097144D01*
X151227310Y-72030732D01*
X151371605Y-71934318D01*
X151494318Y-71811605D01*
X151590732Y-71667310D01*
X151657144Y-71506978D01*
X151691000Y-71336771D01*
X151691000Y-71163229D01*
X151929000Y-71163229D01*
X151929000Y-71336771D01*
X151962856Y-71506978D01*
X152029268Y-71667310D01*
X152125682Y-71811605D01*
X152248395Y-71934318D01*
X152392690Y-72030732D01*
X152553022Y-72097144D01*
X152723229Y-72131000D01*
X152896771Y-72131000D01*
X153066978Y-72097144D01*
X153227310Y-72030732D01*
X153371605Y-71934318D01*
X153494318Y-71811605D01*
X153590732Y-71667310D01*
X153657144Y-71506978D01*
X153691000Y-71336771D01*
X153691000Y-71163229D01*
X153929000Y-71163229D01*
X153929000Y-71336771D01*
X153962856Y-71506978D01*
X154029268Y-71667310D01*
X154125682Y-71811605D01*
X154248395Y-71934318D01*
X154392690Y-72030732D01*
X154553022Y-72097144D01*
X154723229Y-72131000D01*
X154896771Y-72131000D01*
X155066978Y-72097144D01*
X155227310Y-72030732D01*
X155371605Y-71934318D01*
X155494318Y-71811605D01*
X155590732Y-71667310D01*
X155657144Y-71506978D01*
X155691000Y-71336771D01*
X155691000Y-71163229D01*
X155929000Y-71163229D01*
X155929000Y-71336771D01*
X155962856Y-71506978D01*
X156029268Y-71667310D01*
X156125682Y-71811605D01*
X156248395Y-71934318D01*
X156392690Y-72030732D01*
X156553022Y-72097144D01*
X156723229Y-72131000D01*
X156896771Y-72131000D01*
X157066978Y-72097144D01*
X157227310Y-72030732D01*
X157371605Y-71934318D01*
X157494318Y-71811605D01*
X157590732Y-71667310D01*
X157657144Y-71506978D01*
X157691000Y-71336771D01*
X157691000Y-71163229D01*
X157929000Y-71163229D01*
X157929000Y-71336771D01*
X157962856Y-71506978D01*
X158029268Y-71667310D01*
X158125682Y-71811605D01*
X158248395Y-71934318D01*
X158392690Y-72030732D01*
X158553022Y-72097144D01*
X158723229Y-72131000D01*
X158896771Y-72131000D01*
X159066978Y-72097144D01*
X159227310Y-72030732D01*
X159371605Y-71934318D01*
X159494318Y-71811605D01*
X159590732Y-71667310D01*
X159657144Y-71506978D01*
X159691000Y-71336771D01*
X159691000Y-71163229D01*
X159929000Y-71163229D01*
X159929000Y-71336771D01*
X159962856Y-71506978D01*
X160029268Y-71667310D01*
X160125682Y-71811605D01*
X160248395Y-71934318D01*
X160392690Y-72030732D01*
X160553022Y-72097144D01*
X160723229Y-72131000D01*
X160896771Y-72131000D01*
X161066978Y-72097144D01*
X161227310Y-72030732D01*
X161371605Y-71934318D01*
X161494318Y-71811605D01*
X161590732Y-71667310D01*
X161657144Y-71506978D01*
X161691000Y-71336771D01*
X161691000Y-71173078D01*
X164618994Y-71173078D01*
X164618994Y-71326922D01*
X164649007Y-71477809D01*
X164707881Y-71619942D01*
X164793352Y-71747859D01*
X164902135Y-71856642D01*
X165030052Y-71942113D01*
X165169805Y-72000001D01*
X165030058Y-72057887D01*
X164902141Y-72143358D01*
X164793358Y-72252141D01*
X164707887Y-72380058D01*
X164649013Y-72522191D01*
X164619000Y-72673078D01*
X164619000Y-72826922D01*
X164649013Y-72977809D01*
X164707887Y-73119942D01*
X164793358Y-73247859D01*
X164902141Y-73356642D01*
X165030058Y-73442113D01*
X165172191Y-73500987D01*
X165323078Y-73531000D01*
X165476922Y-73531000D01*
X165627809Y-73500987D01*
X165769942Y-73442113D01*
X165897859Y-73356642D01*
X166006642Y-73247859D01*
X166092113Y-73119942D01*
X166150987Y-72977809D01*
X166181000Y-72826922D01*
X166181000Y-72673078D01*
X166150987Y-72522191D01*
X166092113Y-72380058D01*
X166006642Y-72252141D01*
X165897859Y-72143358D01*
X165769942Y-72057887D01*
X165630189Y-71999999D01*
X165769936Y-71942113D01*
X165897853Y-71856642D01*
X166006636Y-71747859D01*
X166092107Y-71619942D01*
X166150981Y-71477809D01*
X166180994Y-71326922D01*
X166180994Y-71173078D01*
X166150981Y-71022191D01*
X166092107Y-70880058D01*
X166018690Y-70770182D01*
X166073078Y-70781000D01*
X166226922Y-70781000D01*
X166377809Y-70750987D01*
X166519942Y-70692113D01*
X166647859Y-70606642D01*
X166756642Y-70497859D01*
X166842113Y-70369942D01*
X166900000Y-70230192D01*
X166957887Y-70369942D01*
X167043358Y-70497859D01*
X167152141Y-70606642D01*
X167280058Y-70692113D01*
X167422191Y-70750987D01*
X167573078Y-70781000D01*
X167726922Y-70781000D01*
X167877809Y-70750987D01*
X168019942Y-70692113D01*
X168147859Y-70606642D01*
X168256642Y-70497859D01*
X168342113Y-70369942D01*
X168400000Y-70230192D01*
X168457887Y-70369942D01*
X168543358Y-70497859D01*
X168652141Y-70606642D01*
X168780058Y-70692113D01*
X168922191Y-70750987D01*
X169073078Y-70781000D01*
X169226922Y-70781000D01*
X169281303Y-70770183D01*
X169207887Y-70880058D01*
X169149013Y-71022191D01*
X169119000Y-71173078D01*
X169119000Y-71326922D01*
X169149013Y-71477809D01*
X169207887Y-71619942D01*
X169293358Y-71747859D01*
X169402141Y-71856642D01*
X169530058Y-71942113D01*
X169669808Y-72000000D01*
X169530058Y-72057887D01*
X169402141Y-72143358D01*
X169293358Y-72252141D01*
X169207887Y-72380058D01*
X169149013Y-72522191D01*
X169119000Y-72673078D01*
X169119000Y-72826922D01*
X169149013Y-72977809D01*
X169207887Y-73119942D01*
X169293358Y-73247859D01*
X169402141Y-73356642D01*
X169530058Y-73442113D01*
X169672191Y-73500987D01*
X169823078Y-73531000D01*
X169976922Y-73531000D01*
X170127809Y-73500987D01*
X170269942Y-73442113D01*
X170397859Y-73356642D01*
X170506642Y-73247859D01*
X170592113Y-73119942D01*
X170650987Y-72977809D01*
X170681000Y-72826922D01*
X170681000Y-72673078D01*
X170650987Y-72522191D01*
X170592113Y-72380058D01*
X170506642Y-72252141D01*
X170397859Y-72143358D01*
X170269942Y-72057887D01*
X170130192Y-72000000D01*
X170269942Y-71942113D01*
X170397859Y-71856642D01*
X170506642Y-71747859D01*
X170592113Y-71619942D01*
X170650987Y-71477809D01*
X170681000Y-71326922D01*
X170681000Y-71173078D01*
X171369000Y-71173078D01*
X171369000Y-71326922D01*
X171399013Y-71477809D01*
X171457887Y-71619942D01*
X171543358Y-71747859D01*
X171652141Y-71856642D01*
X171780058Y-71942113D01*
X171922191Y-72000987D01*
X172073078Y-72031000D01*
X172226922Y-72031000D01*
X172377809Y-72000987D01*
X172519942Y-71942113D01*
X172647859Y-71856642D01*
X172756642Y-71747859D01*
X172842113Y-71619942D01*
X172900987Y-71477809D01*
X172931000Y-71326922D01*
X172931000Y-71173078D01*
X173369000Y-71173078D01*
X173369000Y-71326922D01*
X173399013Y-71477809D01*
X173457887Y-71619942D01*
X173543358Y-71747859D01*
X173652141Y-71856642D01*
X173780058Y-71942113D01*
X173922191Y-72000987D01*
X174073078Y-72031000D01*
X174226922Y-72031000D01*
X174377809Y-72000987D01*
X174519942Y-71942113D01*
X174647859Y-71856642D01*
X174756642Y-71747859D01*
X174842113Y-71619942D01*
X174900000Y-71480192D01*
X174957887Y-71619942D01*
X175043358Y-71747859D01*
X175152141Y-71856642D01*
X175280058Y-71942113D01*
X175422191Y-72000987D01*
X175573078Y-72031000D01*
X175726922Y-72031000D01*
X175877809Y-72000987D01*
X176019942Y-71942113D01*
X176147859Y-71856642D01*
X176256642Y-71747859D01*
X176342113Y-71619942D01*
X176400987Y-71477809D01*
X176431000Y-71326922D01*
X176431000Y-71173078D01*
X176869000Y-71173078D01*
X176869000Y-71326922D01*
X176899013Y-71477809D01*
X176957887Y-71619942D01*
X177043358Y-71747859D01*
X177152141Y-71856642D01*
X177280058Y-71942113D01*
X177422191Y-72000987D01*
X177573078Y-72031000D01*
X177726922Y-72031000D01*
X177877809Y-72000987D01*
X178019942Y-71942113D01*
X178147859Y-71856642D01*
X178256642Y-71747859D01*
X178342113Y-71619942D01*
X178400000Y-71480192D01*
X178457887Y-71619942D01*
X178543358Y-71747859D01*
X178652141Y-71856642D01*
X178780058Y-71942113D01*
X178922191Y-72000987D01*
X179073078Y-72031000D01*
X179226922Y-72031000D01*
X179377809Y-72000987D01*
X179519942Y-71942113D01*
X179647859Y-71856642D01*
X179756642Y-71747859D01*
X179842113Y-71619942D01*
X179900987Y-71477809D01*
X179931000Y-71326922D01*
X179931000Y-71173078D01*
X180369000Y-71173078D01*
X180369000Y-71326922D01*
X180399013Y-71477809D01*
X180457887Y-71619942D01*
X180543358Y-71747859D01*
X180652141Y-71856642D01*
X180780058Y-71942113D01*
X180922191Y-72000987D01*
X181073078Y-72031000D01*
X181226922Y-72031000D01*
X181377809Y-72000987D01*
X181519942Y-71942113D01*
X181647859Y-71856642D01*
X181756642Y-71747859D01*
X181842113Y-71619942D01*
X181900987Y-71477809D01*
X181931000Y-71326922D01*
X181931000Y-71173078D01*
X181900987Y-71022191D01*
X181842113Y-70880058D01*
X181756642Y-70752141D01*
X181647859Y-70643358D01*
X181519942Y-70557887D01*
X181377809Y-70499013D01*
X181226922Y-70469000D01*
X181073078Y-70469000D01*
X180922191Y-70499013D01*
X180780058Y-70557887D01*
X180652141Y-70643358D01*
X180543358Y-70752141D01*
X180457887Y-70880058D01*
X180399013Y-71022191D01*
X180369000Y-71173078D01*
X179931000Y-71173078D01*
X179900987Y-71022191D01*
X179842113Y-70880058D01*
X179756642Y-70752141D01*
X179647859Y-70643358D01*
X179519942Y-70557887D01*
X179377809Y-70499013D01*
X179226922Y-70469000D01*
X179073078Y-70469000D01*
X178922191Y-70499013D01*
X178780058Y-70557887D01*
X178652141Y-70643358D01*
X178543358Y-70752141D01*
X178457887Y-70880058D01*
X178400000Y-71019808D01*
X178342113Y-70880058D01*
X178256642Y-70752141D01*
X178147859Y-70643358D01*
X178019942Y-70557887D01*
X177877809Y-70499013D01*
X177726922Y-70469000D01*
X177573078Y-70469000D01*
X177422191Y-70499013D01*
X177280058Y-70557887D01*
X177152141Y-70643358D01*
X177043358Y-70752141D01*
X176957887Y-70880058D01*
X176899013Y-71022191D01*
X176869000Y-71173078D01*
X176431000Y-71173078D01*
X176400987Y-71022191D01*
X176342113Y-70880058D01*
X176256642Y-70752141D01*
X176147859Y-70643358D01*
X176019942Y-70557887D01*
X175877809Y-70499013D01*
X175726922Y-70469000D01*
X175573078Y-70469000D01*
X175422191Y-70499013D01*
X175280058Y-70557887D01*
X175152141Y-70643358D01*
X175043358Y-70752141D01*
X174957887Y-70880058D01*
X174900000Y-71019808D01*
X174842113Y-70880058D01*
X174756642Y-70752141D01*
X174647859Y-70643358D01*
X174519942Y-70557887D01*
X174377809Y-70499013D01*
X174226922Y-70469000D01*
X174073078Y-70469000D01*
X173922191Y-70499013D01*
X173780058Y-70557887D01*
X173652141Y-70643358D01*
X173543358Y-70752141D01*
X173457887Y-70880058D01*
X173399013Y-71022191D01*
X173369000Y-71173078D01*
X172931000Y-71173078D01*
X172900987Y-71022191D01*
X172842113Y-70880058D01*
X172756642Y-70752141D01*
X172647859Y-70643358D01*
X172519942Y-70557887D01*
X172377809Y-70499013D01*
X172226922Y-70469000D01*
X172073078Y-70469000D01*
X171922191Y-70499013D01*
X171780058Y-70557887D01*
X171652141Y-70643358D01*
X171543358Y-70752141D01*
X171457887Y-70880058D01*
X171399013Y-71022191D01*
X171369000Y-71173078D01*
X170681000Y-71173078D01*
X170650987Y-71022191D01*
X170592113Y-70880058D01*
X170506642Y-70752141D01*
X170397859Y-70643358D01*
X170269942Y-70557887D01*
X170127809Y-70499013D01*
X169976922Y-70469000D01*
X169823078Y-70469000D01*
X169768697Y-70479817D01*
X169842113Y-70369942D01*
X169900987Y-70227809D01*
X169931000Y-70076922D01*
X169931000Y-69923078D01*
X169906512Y-69799964D01*
X183469000Y-69799964D01*
X183469000Y-70200036D01*
X183547050Y-70592421D01*
X183700151Y-70962039D01*
X183922419Y-71294687D01*
X184205313Y-71577581D01*
X184537961Y-71799849D01*
X184907579Y-71952950D01*
X185299964Y-72031000D01*
X185700036Y-72031000D01*
X186092421Y-71952950D01*
X186462039Y-71799849D01*
X186794687Y-71577581D01*
X187077581Y-71294687D01*
X187299849Y-70962039D01*
X187452950Y-70592421D01*
X187531000Y-70200036D01*
X187531000Y-69799964D01*
X187452950Y-69407579D01*
X187299849Y-69037961D01*
X187077581Y-68705313D01*
X186794687Y-68422419D01*
X186462039Y-68200151D01*
X186092421Y-68047050D01*
X185700036Y-67969000D01*
X185299964Y-67969000D01*
X184907579Y-68047050D01*
X184537961Y-68200151D01*
X184205313Y-68422419D01*
X183922419Y-68705313D01*
X183700151Y-69037961D01*
X183547050Y-69407579D01*
X183469000Y-69799964D01*
X169906512Y-69799964D01*
X169900987Y-69772191D01*
X169842113Y-69630058D01*
X169756642Y-69502141D01*
X169647859Y-69393358D01*
X169519942Y-69307887D01*
X169377809Y-69249013D01*
X169226922Y-69219000D01*
X169073078Y-69219000D01*
X168922191Y-69249013D01*
X168780058Y-69307887D01*
X168652141Y-69393358D01*
X168543358Y-69502141D01*
X168457887Y-69630058D01*
X168400000Y-69769808D01*
X168342113Y-69630058D01*
X168256642Y-69502141D01*
X168147859Y-69393358D01*
X168019942Y-69307887D01*
X167877809Y-69249013D01*
X167726922Y-69219000D01*
X167573078Y-69219000D01*
X167422191Y-69249013D01*
X167280058Y-69307887D01*
X167152141Y-69393358D01*
X167043358Y-69502141D01*
X166957887Y-69630058D01*
X166900000Y-69769808D01*
X166842113Y-69630058D01*
X166756642Y-69502141D01*
X166647859Y-69393358D01*
X166519942Y-69307887D01*
X166377809Y-69249013D01*
X166226922Y-69219000D01*
X166073078Y-69219000D01*
X165922191Y-69249013D01*
X165780058Y-69307887D01*
X165652141Y-69393358D01*
X165543358Y-69502141D01*
X165457887Y-69630058D01*
X165399013Y-69772191D01*
X165369000Y-69923078D01*
X165369000Y-70076922D01*
X165399013Y-70227809D01*
X165457887Y-70369942D01*
X165531304Y-70479818D01*
X165476916Y-70469000D01*
X165323072Y-70469000D01*
X165172185Y-70499013D01*
X165030052Y-70557887D01*
X164902135Y-70643358D01*
X164793352Y-70752141D01*
X164707881Y-70880058D01*
X164649007Y-71022191D01*
X164618994Y-71173078D01*
X161691000Y-71173078D01*
X161691000Y-71163229D01*
X161657144Y-70993022D01*
X161590732Y-70832690D01*
X161494318Y-70688395D01*
X161371605Y-70565682D01*
X161227310Y-70469268D01*
X161066978Y-70402856D01*
X160896771Y-70369000D01*
X160723229Y-70369000D01*
X160553022Y-70402856D01*
X160392690Y-70469268D01*
X160248395Y-70565682D01*
X160125682Y-70688395D01*
X160029268Y-70832690D01*
X159962856Y-70993022D01*
X159929000Y-71163229D01*
X159691000Y-71163229D01*
X159657144Y-70993022D01*
X159590732Y-70832690D01*
X159494318Y-70688395D01*
X159371605Y-70565682D01*
X159227310Y-70469268D01*
X159066978Y-70402856D01*
X158896771Y-70369000D01*
X158723229Y-70369000D01*
X158553022Y-70402856D01*
X158392690Y-70469268D01*
X158248395Y-70565682D01*
X158125682Y-70688395D01*
X158029268Y-70832690D01*
X157962856Y-70993022D01*
X157929000Y-71163229D01*
X157691000Y-71163229D01*
X157657144Y-70993022D01*
X157590732Y-70832690D01*
X157494318Y-70688395D01*
X157371605Y-70565682D01*
X157227310Y-70469268D01*
X157066978Y-70402856D01*
X156896771Y-70369000D01*
X156723229Y-70369000D01*
X156553022Y-70402856D01*
X156392690Y-70469268D01*
X156248395Y-70565682D01*
X156125682Y-70688395D01*
X156029268Y-70832690D01*
X155962856Y-70993022D01*
X155929000Y-71163229D01*
X155691000Y-71163229D01*
X155657144Y-70993022D01*
X155590732Y-70832690D01*
X155494318Y-70688395D01*
X155371605Y-70565682D01*
X155227310Y-70469268D01*
X155066978Y-70402856D01*
X154896771Y-70369000D01*
X154723229Y-70369000D01*
X154553022Y-70402856D01*
X154392690Y-70469268D01*
X154248395Y-70565682D01*
X154125682Y-70688395D01*
X154029268Y-70832690D01*
X153962856Y-70993022D01*
X153929000Y-71163229D01*
X153691000Y-71163229D01*
X153657144Y-70993022D01*
X153590732Y-70832690D01*
X153494318Y-70688395D01*
X153371605Y-70565682D01*
X153227310Y-70469268D01*
X153066978Y-70402856D01*
X152896771Y-70369000D01*
X152723229Y-70369000D01*
X152553022Y-70402856D01*
X152392690Y-70469268D01*
X152248395Y-70565682D01*
X152125682Y-70688395D01*
X152029268Y-70832690D01*
X151962856Y-70993022D01*
X151929000Y-71163229D01*
X151691000Y-71163229D01*
X151657144Y-70993022D01*
X151590732Y-70832690D01*
X151494318Y-70688395D01*
X151371605Y-70565682D01*
X151227310Y-70469268D01*
X151066978Y-70402856D01*
X150896771Y-70369000D01*
X150723229Y-70369000D01*
X150671020Y-70379385D01*
X150716000Y-70153253D01*
X150716000Y-69846747D01*
X150671020Y-69620615D01*
X150723229Y-69631000D01*
X150896771Y-69631000D01*
X151066978Y-69597144D01*
X151227310Y-69530732D01*
X151371605Y-69434318D01*
X151494318Y-69311605D01*
X151590732Y-69167310D01*
X151657144Y-69006978D01*
X151691000Y-68836771D01*
X151691000Y-68663229D01*
X151929000Y-68663229D01*
X151929000Y-68836771D01*
X151962856Y-69006978D01*
X152029268Y-69167310D01*
X152125682Y-69311605D01*
X152248395Y-69434318D01*
X152392690Y-69530732D01*
X152553022Y-69597144D01*
X152723229Y-69631000D01*
X152896771Y-69631000D01*
X153066978Y-69597144D01*
X153227310Y-69530732D01*
X153371605Y-69434318D01*
X153494318Y-69311605D01*
X153590732Y-69167310D01*
X153657144Y-69006978D01*
X153691000Y-68836771D01*
X153691000Y-68663229D01*
X155929000Y-68663229D01*
X155929000Y-68836771D01*
X155962856Y-69006978D01*
X156029268Y-69167310D01*
X156125682Y-69311605D01*
X156248395Y-69434318D01*
X156392690Y-69530732D01*
X156553022Y-69597144D01*
X156723229Y-69631000D01*
X156896771Y-69631000D01*
X157066978Y-69597144D01*
X157227310Y-69530732D01*
X157371605Y-69434318D01*
X157494318Y-69311605D01*
X157590732Y-69167310D01*
X157657144Y-69006978D01*
X157691000Y-68836771D01*
X157691000Y-68663229D01*
X157929000Y-68663229D01*
X157929000Y-68836771D01*
X157962856Y-69006978D01*
X158029268Y-69167310D01*
X158125682Y-69311605D01*
X158248395Y-69434318D01*
X158392690Y-69530732D01*
X158553022Y-69597144D01*
X158723229Y-69631000D01*
X158896771Y-69631000D01*
X159066978Y-69597144D01*
X159227310Y-69530732D01*
X159371605Y-69434318D01*
X159494318Y-69311605D01*
X159590732Y-69167310D01*
X159657144Y-69006978D01*
X159691000Y-68836771D01*
X159691000Y-68663229D01*
X159929000Y-68663229D01*
X159929000Y-68836771D01*
X159962856Y-69006978D01*
X160029268Y-69167310D01*
X160125682Y-69311605D01*
X160248395Y-69434318D01*
X160392690Y-69530732D01*
X160553022Y-69597144D01*
X160723229Y-69631000D01*
X160896771Y-69631000D01*
X161066978Y-69597144D01*
X161227310Y-69530732D01*
X161371605Y-69434318D01*
X161494318Y-69311605D01*
X161590732Y-69167310D01*
X161657144Y-69006978D01*
X161691000Y-68836771D01*
X161691000Y-68663229D01*
X161657144Y-68493022D01*
X161590732Y-68332690D01*
X161494318Y-68188395D01*
X161371605Y-68065682D01*
X161227310Y-67969268D01*
X161066978Y-67902856D01*
X160896771Y-67869000D01*
X160723229Y-67869000D01*
X160553022Y-67902856D01*
X160392690Y-67969268D01*
X160248395Y-68065682D01*
X160125682Y-68188395D01*
X160029268Y-68332690D01*
X159962856Y-68493022D01*
X159929000Y-68663229D01*
X159691000Y-68663229D01*
X159657144Y-68493022D01*
X159590732Y-68332690D01*
X159494318Y-68188395D01*
X159371605Y-68065682D01*
X159227310Y-67969268D01*
X159066978Y-67902856D01*
X158896771Y-67869000D01*
X158723229Y-67869000D01*
X158553022Y-67902856D01*
X158392690Y-67969268D01*
X158248395Y-68065682D01*
X158125682Y-68188395D01*
X158029268Y-68332690D01*
X157962856Y-68493022D01*
X157929000Y-68663229D01*
X157691000Y-68663229D01*
X157657144Y-68493022D01*
X157590732Y-68332690D01*
X157494318Y-68188395D01*
X157371605Y-68065682D01*
X157227310Y-67969268D01*
X157066978Y-67902856D01*
X156896771Y-67869000D01*
X156723229Y-67869000D01*
X156553022Y-67902856D01*
X156392690Y-67969268D01*
X156248395Y-68065682D01*
X156125682Y-68188395D01*
X156029268Y-68332690D01*
X155962856Y-68493022D01*
X155929000Y-68663229D01*
X153691000Y-68663229D01*
X153657144Y-68493022D01*
X153590732Y-68332690D01*
X153494318Y-68188395D01*
X153371605Y-68065682D01*
X153227310Y-67969268D01*
X153066978Y-67902856D01*
X152896771Y-67869000D01*
X152723229Y-67869000D01*
X152553022Y-67902856D01*
X152392690Y-67969268D01*
X152248395Y-68065682D01*
X152125682Y-68188395D01*
X152029268Y-68332690D01*
X151962856Y-68493022D01*
X151929000Y-68663229D01*
X151691000Y-68663229D01*
X151657144Y-68493022D01*
X151590732Y-68332690D01*
X151494318Y-68188395D01*
X151371605Y-68065682D01*
X151227310Y-67969268D01*
X151066978Y-67902856D01*
X150896771Y-67869000D01*
X150723229Y-67869000D01*
X150553022Y-67902856D01*
X150392690Y-67969268D01*
X150248395Y-68065682D01*
X150125682Y-68188395D01*
X150029268Y-68332690D01*
X149962856Y-68493022D01*
X149932649Y-68644883D01*
X149897042Y-68621091D01*
X149613869Y-68503796D01*
X149313253Y-68444000D01*
X149006747Y-68444000D01*
X148706131Y-68503796D01*
X148422958Y-68621091D01*
X148168108Y-68791376D01*
X147951376Y-69008108D01*
X147781091Y-69262958D01*
X147663796Y-69546131D01*
X147604000Y-69846747D01*
X110556000Y-69846747D01*
X110496204Y-69546131D01*
X110378909Y-69262958D01*
X110208624Y-69008108D01*
X109991892Y-68791376D01*
X109800107Y-68663229D01*
X113929000Y-68663229D01*
X113929000Y-68836771D01*
X113962856Y-69006978D01*
X114029268Y-69167310D01*
X114125682Y-69311605D01*
X114248395Y-69434318D01*
X114392690Y-69530732D01*
X114553022Y-69597144D01*
X114723229Y-69631000D01*
X114896771Y-69631000D01*
X115066978Y-69597144D01*
X115227310Y-69530732D01*
X115371605Y-69434318D01*
X115494318Y-69311605D01*
X115590732Y-69167310D01*
X115657144Y-69006978D01*
X115691000Y-68836771D01*
X115691000Y-68663229D01*
X117929000Y-68663229D01*
X117929000Y-68836771D01*
X117962856Y-69006978D01*
X118029268Y-69167310D01*
X118125682Y-69311605D01*
X118248395Y-69434318D01*
X118392690Y-69530732D01*
X118553022Y-69597144D01*
X118723229Y-69631000D01*
X118896771Y-69631000D01*
X119066978Y-69597144D01*
X119227310Y-69530732D01*
X119371605Y-69434318D01*
X119494318Y-69311605D01*
X119590732Y-69167310D01*
X119657144Y-69006978D01*
X119691000Y-68836771D01*
X119691000Y-68663229D01*
X121929000Y-68663229D01*
X121929000Y-68836771D01*
X121962856Y-69006978D01*
X122029268Y-69167310D01*
X122125682Y-69311605D01*
X122248395Y-69434318D01*
X122392690Y-69530732D01*
X122553022Y-69597144D01*
X122723229Y-69631000D01*
X122896771Y-69631000D01*
X123066978Y-69597144D01*
X123227310Y-69530732D01*
X123371605Y-69434318D01*
X123494318Y-69311605D01*
X123590732Y-69167310D01*
X123657144Y-69006978D01*
X123691000Y-68836771D01*
X123691000Y-68663229D01*
X125929000Y-68663229D01*
X125929000Y-68836771D01*
X125962856Y-69006978D01*
X126029268Y-69167310D01*
X126125682Y-69311605D01*
X126248395Y-69434318D01*
X126392690Y-69530732D01*
X126553022Y-69597144D01*
X126723229Y-69631000D01*
X126896771Y-69631000D01*
X127066978Y-69597144D01*
X127227310Y-69530732D01*
X127371605Y-69434318D01*
X127494318Y-69311605D01*
X127590732Y-69167310D01*
X127657144Y-69006978D01*
X127691000Y-68836771D01*
X127691000Y-68663229D01*
X127929000Y-68663229D01*
X127929000Y-68836771D01*
X127962856Y-69006978D01*
X128029268Y-69167310D01*
X128125682Y-69311605D01*
X128248395Y-69434318D01*
X128392690Y-69530732D01*
X128553022Y-69597144D01*
X128723229Y-69631000D01*
X128896771Y-69631000D01*
X129066978Y-69597144D01*
X129227310Y-69530732D01*
X129371605Y-69434318D01*
X129494318Y-69311605D01*
X129590732Y-69167310D01*
X129657144Y-69006978D01*
X129691000Y-68836771D01*
X129691000Y-68663229D01*
X131929000Y-68663229D01*
X131929000Y-68836771D01*
X131962856Y-69006978D01*
X132029268Y-69167310D01*
X132125682Y-69311605D01*
X132248395Y-69434318D01*
X132392690Y-69530732D01*
X132553022Y-69597144D01*
X132723229Y-69631000D01*
X132896771Y-69631000D01*
X133066978Y-69597144D01*
X133227310Y-69530732D01*
X133371605Y-69434318D01*
X133494318Y-69311605D01*
X133590732Y-69167310D01*
X133657144Y-69006978D01*
X133691000Y-68836771D01*
X133691000Y-68663229D01*
X135929000Y-68663229D01*
X135929000Y-68836771D01*
X135962856Y-69006978D01*
X136029268Y-69167310D01*
X136125682Y-69311605D01*
X136248395Y-69434318D01*
X136392690Y-69530732D01*
X136553022Y-69597144D01*
X136723229Y-69631000D01*
X136896771Y-69631000D01*
X137066978Y-69597144D01*
X137227310Y-69530732D01*
X137371605Y-69434318D01*
X137494318Y-69311605D01*
X137590732Y-69167310D01*
X137657144Y-69006978D01*
X137691000Y-68836771D01*
X137691000Y-68663229D01*
X139929000Y-68663229D01*
X139929000Y-68836771D01*
X139962856Y-69006978D01*
X140029268Y-69167310D01*
X140125682Y-69311605D01*
X140248395Y-69434318D01*
X140392690Y-69530732D01*
X140553022Y-69597144D01*
X140723229Y-69631000D01*
X140896771Y-69631000D01*
X141066978Y-69597144D01*
X141227310Y-69530732D01*
X141371605Y-69434318D01*
X141494318Y-69311605D01*
X141590732Y-69167310D01*
X141657144Y-69006978D01*
X141691000Y-68836771D01*
X141691000Y-68663229D01*
X141929000Y-68663229D01*
X141929000Y-68836771D01*
X141962856Y-69006978D01*
X142029268Y-69167310D01*
X142125682Y-69311605D01*
X142248395Y-69434318D01*
X142392690Y-69530732D01*
X142553022Y-69597144D01*
X142723229Y-69631000D01*
X142896771Y-69631000D01*
X143066978Y-69597144D01*
X143227310Y-69530732D01*
X143371605Y-69434318D01*
X143494318Y-69311605D01*
X143590732Y-69167310D01*
X143657144Y-69006978D01*
X143691000Y-68836771D01*
X143691000Y-68663229D01*
X143929000Y-68663229D01*
X143929000Y-68836771D01*
X143962856Y-69006978D01*
X144029268Y-69167310D01*
X144125682Y-69311605D01*
X144248395Y-69434318D01*
X144392690Y-69530732D01*
X144553022Y-69597144D01*
X144723229Y-69631000D01*
X144896771Y-69631000D01*
X145066978Y-69597144D01*
X145227310Y-69530732D01*
X145371605Y-69434318D01*
X145494318Y-69311605D01*
X145590732Y-69167310D01*
X145657144Y-69006978D01*
X145691000Y-68836771D01*
X145691000Y-68663229D01*
X145657144Y-68493022D01*
X145590732Y-68332690D01*
X145494318Y-68188395D01*
X145371605Y-68065682D01*
X145227310Y-67969268D01*
X145066978Y-67902856D01*
X144896771Y-67869000D01*
X144723229Y-67869000D01*
X144553022Y-67902856D01*
X144392690Y-67969268D01*
X144248395Y-68065682D01*
X144125682Y-68188395D01*
X144029268Y-68332690D01*
X143962856Y-68493022D01*
X143929000Y-68663229D01*
X143691000Y-68663229D01*
X143657144Y-68493022D01*
X143590732Y-68332690D01*
X143494318Y-68188395D01*
X143371605Y-68065682D01*
X143227310Y-67969268D01*
X143066978Y-67902856D01*
X142896771Y-67869000D01*
X142723229Y-67869000D01*
X142553022Y-67902856D01*
X142392690Y-67969268D01*
X142248395Y-68065682D01*
X142125682Y-68188395D01*
X142029268Y-68332690D01*
X141962856Y-68493022D01*
X141929000Y-68663229D01*
X141691000Y-68663229D01*
X141657144Y-68493022D01*
X141590732Y-68332690D01*
X141494318Y-68188395D01*
X141371605Y-68065682D01*
X141227310Y-67969268D01*
X141066978Y-67902856D01*
X140896771Y-67869000D01*
X140723229Y-67869000D01*
X140553022Y-67902856D01*
X140392690Y-67969268D01*
X140248395Y-68065682D01*
X140125682Y-68188395D01*
X140029268Y-68332690D01*
X139962856Y-68493022D01*
X139929000Y-68663229D01*
X137691000Y-68663229D01*
X137657144Y-68493022D01*
X137590732Y-68332690D01*
X137494318Y-68188395D01*
X137371605Y-68065682D01*
X137227310Y-67969268D01*
X137066978Y-67902856D01*
X136896771Y-67869000D01*
X136723229Y-67869000D01*
X136553022Y-67902856D01*
X136392690Y-67969268D01*
X136248395Y-68065682D01*
X136125682Y-68188395D01*
X136029268Y-68332690D01*
X135962856Y-68493022D01*
X135929000Y-68663229D01*
X133691000Y-68663229D01*
X133657144Y-68493022D01*
X133590732Y-68332690D01*
X133494318Y-68188395D01*
X133371605Y-68065682D01*
X133227310Y-67969268D01*
X133066978Y-67902856D01*
X132896771Y-67869000D01*
X132723229Y-67869000D01*
X132553022Y-67902856D01*
X132392690Y-67969268D01*
X132248395Y-68065682D01*
X132125682Y-68188395D01*
X132029268Y-68332690D01*
X131962856Y-68493022D01*
X131929000Y-68663229D01*
X129691000Y-68663229D01*
X129657144Y-68493022D01*
X129590732Y-68332690D01*
X129494318Y-68188395D01*
X129371605Y-68065682D01*
X129227310Y-67969268D01*
X129066978Y-67902856D01*
X128896771Y-67869000D01*
X128723229Y-67869000D01*
X128553022Y-67902856D01*
X128392690Y-67969268D01*
X128248395Y-68065682D01*
X128125682Y-68188395D01*
X128029268Y-68332690D01*
X127962856Y-68493022D01*
X127929000Y-68663229D01*
X127691000Y-68663229D01*
X127657144Y-68493022D01*
X127590732Y-68332690D01*
X127494318Y-68188395D01*
X127371605Y-68065682D01*
X127227310Y-67969268D01*
X127066978Y-67902856D01*
X126896771Y-67869000D01*
X126723229Y-67869000D01*
X126553022Y-67902856D01*
X126392690Y-67969268D01*
X126248395Y-68065682D01*
X126125682Y-68188395D01*
X126029268Y-68332690D01*
X125962856Y-68493022D01*
X125929000Y-68663229D01*
X123691000Y-68663229D01*
X123657144Y-68493022D01*
X123590732Y-68332690D01*
X123494318Y-68188395D01*
X123371605Y-68065682D01*
X123227310Y-67969268D01*
X123066978Y-67902856D01*
X122896771Y-67869000D01*
X122723229Y-67869000D01*
X122553022Y-67902856D01*
X122392690Y-67969268D01*
X122248395Y-68065682D01*
X122125682Y-68188395D01*
X122029268Y-68332690D01*
X121962856Y-68493022D01*
X121929000Y-68663229D01*
X119691000Y-68663229D01*
X119657144Y-68493022D01*
X119590732Y-68332690D01*
X119494318Y-68188395D01*
X119371605Y-68065682D01*
X119227310Y-67969268D01*
X119066978Y-67902856D01*
X118896771Y-67869000D01*
X118723229Y-67869000D01*
X118553022Y-67902856D01*
X118392690Y-67969268D01*
X118248395Y-68065682D01*
X118125682Y-68188395D01*
X118029268Y-68332690D01*
X117962856Y-68493022D01*
X117929000Y-68663229D01*
X115691000Y-68663229D01*
X115657144Y-68493022D01*
X115590732Y-68332690D01*
X115494318Y-68188395D01*
X115371605Y-68065682D01*
X115227310Y-67969268D01*
X115066978Y-67902856D01*
X114896771Y-67869000D01*
X114723229Y-67869000D01*
X114553022Y-67902856D01*
X114392690Y-67969268D01*
X114248395Y-68065682D01*
X114125682Y-68188395D01*
X114029268Y-68332690D01*
X113962856Y-68493022D01*
X113929000Y-68663229D01*
X109800107Y-68663229D01*
X109737042Y-68621091D01*
X109453869Y-68503796D01*
X109153253Y-68444000D01*
X108846747Y-68444000D01*
X108546131Y-68503796D01*
X108262958Y-68621091D01*
X108008108Y-68791376D01*
X107791376Y-69008108D01*
X107621091Y-69262958D01*
X107503796Y-69546131D01*
X107444000Y-69846747D01*
X105781000Y-69846747D01*
X105781000Y-69799964D01*
X105702950Y-69407579D01*
X105549849Y-69037961D01*
X105327581Y-68705313D01*
X105044687Y-68422419D01*
X104712039Y-68200151D01*
X104342421Y-68047050D01*
X103950036Y-67969000D01*
X103549964Y-67969000D01*
X103157579Y-68047050D01*
X102787961Y-68200151D01*
X102455313Y-68422419D01*
X102172419Y-68705313D01*
X101950151Y-69037961D01*
X101797050Y-69407579D01*
X101719000Y-69799964D01*
X89906000Y-69799964D01*
X89906000Y-68368154D01*
X94629000Y-68368154D01*
X94629000Y-68531846D01*
X94660935Y-68692394D01*
X94723577Y-68843626D01*
X94814520Y-68979732D01*
X94930268Y-69095480D01*
X95066374Y-69186423D01*
X95217606Y-69249065D01*
X95378154Y-69281000D01*
X95541846Y-69281000D01*
X95702394Y-69249065D01*
X95853626Y-69186423D01*
X95989732Y-69095480D01*
X96105480Y-68979732D01*
X96196423Y-68843626D01*
X96259065Y-68692394D01*
X96291000Y-68531846D01*
X96291000Y-68368154D01*
X96259065Y-68207606D01*
X96196423Y-68056374D01*
X96105480Y-67920268D01*
X95989732Y-67804520D01*
X95853626Y-67713577D01*
X95702394Y-67650935D01*
X95541846Y-67619000D01*
X95378154Y-67619000D01*
X95217606Y-67650935D01*
X95066374Y-67713577D01*
X94930268Y-67804520D01*
X94814520Y-67920268D01*
X94723577Y-68056374D01*
X94660935Y-68207606D01*
X94629000Y-68368154D01*
X89906000Y-68368154D01*
X89906000Y-61195270D01*
X93566470Y-61195270D01*
X93566470Y-61349114D01*
X93596483Y-61500001D01*
X93655357Y-61642134D01*
X93736111Y-61762992D01*
X93657891Y-61880058D01*
X93599017Y-62022191D01*
X93569004Y-62173078D01*
X93569004Y-62326922D01*
X93599017Y-62477809D01*
X93657891Y-62619942D01*
X93743362Y-62747859D01*
X93745501Y-62749998D01*
X93743358Y-62752141D01*
X93657887Y-62880058D01*
X93599013Y-63022191D01*
X93569000Y-63173078D01*
X93569000Y-63326922D01*
X93599013Y-63477809D01*
X93657887Y-63619942D01*
X93737373Y-63738901D01*
X93657887Y-63857861D01*
X93599013Y-63999994D01*
X93569000Y-64150881D01*
X93569000Y-64304725D01*
X93599013Y-64455612D01*
X93657887Y-64597745D01*
X93743358Y-64725662D01*
X93852141Y-64834445D01*
X93980058Y-64919916D01*
X94122191Y-64978790D01*
X94273078Y-65008803D01*
X94426922Y-65008803D01*
X94577809Y-64978790D01*
X94719942Y-64919916D01*
X94847859Y-64834445D01*
X94956642Y-64725662D01*
X95042113Y-64597745D01*
X95080478Y-64505124D01*
X96569000Y-64505124D01*
X96569000Y-64639270D01*
X96595171Y-64770837D01*
X96646506Y-64894771D01*
X96690824Y-64961099D01*
X96646506Y-65027426D01*
X96595171Y-65151360D01*
X96569000Y-65282927D01*
X96569000Y-65417073D01*
X96595171Y-65548640D01*
X96646506Y-65672574D01*
X96698240Y-65750000D01*
X96646506Y-65827426D01*
X96595171Y-65951360D01*
X96569000Y-66082927D01*
X96569000Y-66217073D01*
X96595171Y-66348640D01*
X96646506Y-66472574D01*
X96690824Y-66538902D01*
X96646506Y-66605229D01*
X96595171Y-66729163D01*
X96569000Y-66860730D01*
X96569000Y-66994876D01*
X96595171Y-67126443D01*
X96646506Y-67250377D01*
X96721033Y-67361915D01*
X96815888Y-67456770D01*
X96927426Y-67531297D01*
X97051360Y-67582632D01*
X97182927Y-67608803D01*
X97317073Y-67608803D01*
X97448640Y-67582632D01*
X97572574Y-67531297D01*
X97684112Y-67456770D01*
X97778967Y-67361915D01*
X97853494Y-67250377D01*
X97904829Y-67126443D01*
X97931000Y-66994876D01*
X97931000Y-66860730D01*
X97904829Y-66729163D01*
X97877519Y-66663229D01*
X110929000Y-66663229D01*
X110929000Y-66836771D01*
X110962856Y-67006978D01*
X111029268Y-67167310D01*
X111125682Y-67311605D01*
X111248395Y-67434318D01*
X111392690Y-67530732D01*
X111553022Y-67597144D01*
X111723229Y-67631000D01*
X111896771Y-67631000D01*
X112066978Y-67597144D01*
X112227310Y-67530732D01*
X112371605Y-67434318D01*
X112494318Y-67311605D01*
X112590732Y-67167310D01*
X112657144Y-67006978D01*
X112691000Y-66836771D01*
X112691000Y-66663229D01*
X112929000Y-66663229D01*
X112929000Y-66836771D01*
X112962856Y-67006978D01*
X113029268Y-67167310D01*
X113125682Y-67311605D01*
X113248395Y-67434318D01*
X113392690Y-67530732D01*
X113553022Y-67597144D01*
X113723229Y-67631000D01*
X113896771Y-67631000D01*
X114066978Y-67597144D01*
X114227310Y-67530732D01*
X114371605Y-67434318D01*
X114494318Y-67311605D01*
X114590732Y-67167310D01*
X114657144Y-67006978D01*
X114691000Y-66836771D01*
X114691000Y-66663229D01*
X116929000Y-66663229D01*
X116929000Y-66836771D01*
X116962856Y-67006978D01*
X117029268Y-67167310D01*
X117125682Y-67311605D01*
X117248395Y-67434318D01*
X117392690Y-67530732D01*
X117553022Y-67597144D01*
X117723229Y-67631000D01*
X117896771Y-67631000D01*
X118066978Y-67597144D01*
X118227310Y-67530732D01*
X118371605Y-67434318D01*
X118494318Y-67311605D01*
X118590732Y-67167310D01*
X118657144Y-67006978D01*
X118691000Y-66836771D01*
X118691000Y-66663229D01*
X120929000Y-66663229D01*
X120929000Y-66836771D01*
X120962856Y-67006978D01*
X121029268Y-67167310D01*
X121125682Y-67311605D01*
X121248395Y-67434318D01*
X121392690Y-67530732D01*
X121553022Y-67597144D01*
X121723229Y-67631000D01*
X121896771Y-67631000D01*
X122066978Y-67597144D01*
X122227310Y-67530732D01*
X122371605Y-67434318D01*
X122494318Y-67311605D01*
X122590732Y-67167310D01*
X122657144Y-67006978D01*
X122691000Y-66836771D01*
X122691000Y-66663229D01*
X124929000Y-66663229D01*
X124929000Y-66836771D01*
X124962856Y-67006978D01*
X125029268Y-67167310D01*
X125125682Y-67311605D01*
X125248395Y-67434318D01*
X125392690Y-67530732D01*
X125553022Y-67597144D01*
X125723229Y-67631000D01*
X125896771Y-67631000D01*
X126066978Y-67597144D01*
X126227310Y-67530732D01*
X126371605Y-67434318D01*
X126494318Y-67311605D01*
X126590732Y-67167310D01*
X126657144Y-67006978D01*
X126691000Y-66836771D01*
X126691000Y-66663229D01*
X128929000Y-66663229D01*
X128929000Y-66836771D01*
X128962856Y-67006978D01*
X129029268Y-67167310D01*
X129125682Y-67311605D01*
X129248395Y-67434318D01*
X129392690Y-67530732D01*
X129553022Y-67597144D01*
X129723229Y-67631000D01*
X129896771Y-67631000D01*
X130066978Y-67597144D01*
X130227310Y-67530732D01*
X130371605Y-67434318D01*
X130494318Y-67311605D01*
X130590732Y-67167310D01*
X130657144Y-67006978D01*
X130691000Y-66836771D01*
X130691000Y-66663229D01*
X130929000Y-66663229D01*
X130929000Y-66836771D01*
X130962856Y-67006978D01*
X131029268Y-67167310D01*
X131125682Y-67311605D01*
X131248395Y-67434318D01*
X131392690Y-67530732D01*
X131553022Y-67597144D01*
X131723229Y-67631000D01*
X131896771Y-67631000D01*
X132066978Y-67597144D01*
X132227310Y-67530732D01*
X132371605Y-67434318D01*
X132494318Y-67311605D01*
X132590732Y-67167310D01*
X132657144Y-67006978D01*
X132691000Y-66836771D01*
X132691000Y-66663229D01*
X134929000Y-66663229D01*
X134929000Y-66836771D01*
X134962856Y-67006978D01*
X135029268Y-67167310D01*
X135125682Y-67311605D01*
X135248395Y-67434318D01*
X135392690Y-67530732D01*
X135553022Y-67597144D01*
X135723229Y-67631000D01*
X135896771Y-67631000D01*
X136066978Y-67597144D01*
X136227310Y-67530732D01*
X136371605Y-67434318D01*
X136494318Y-67311605D01*
X136590732Y-67167310D01*
X136657144Y-67006978D01*
X136691000Y-66836771D01*
X136691000Y-66663229D01*
X138929000Y-66663229D01*
X138929000Y-66836771D01*
X138962856Y-67006978D01*
X139029268Y-67167310D01*
X139125682Y-67311605D01*
X139248395Y-67434318D01*
X139392690Y-67530732D01*
X139553022Y-67597144D01*
X139723229Y-67631000D01*
X139896771Y-67631000D01*
X140066978Y-67597144D01*
X140227310Y-67530732D01*
X140371605Y-67434318D01*
X140494318Y-67311605D01*
X140590732Y-67167310D01*
X140657144Y-67006978D01*
X140691000Y-66836771D01*
X140691000Y-66663229D01*
X144929000Y-66663229D01*
X144929000Y-66836771D01*
X144962856Y-67006978D01*
X145029268Y-67167310D01*
X145125682Y-67311605D01*
X145248395Y-67434318D01*
X145392690Y-67530732D01*
X145553022Y-67597144D01*
X145723229Y-67631000D01*
X145896771Y-67631000D01*
X146066978Y-67597144D01*
X146227310Y-67530732D01*
X146371605Y-67434318D01*
X146494318Y-67311605D01*
X146590732Y-67167310D01*
X146657144Y-67006978D01*
X146691000Y-66836771D01*
X146691000Y-66663229D01*
X146929000Y-66663229D01*
X146929000Y-66836771D01*
X146962856Y-67006978D01*
X147029268Y-67167310D01*
X147125682Y-67311605D01*
X147248395Y-67434318D01*
X147392690Y-67530732D01*
X147553022Y-67597144D01*
X147723229Y-67631000D01*
X147896771Y-67631000D01*
X148066978Y-67597144D01*
X148227310Y-67530732D01*
X148371605Y-67434318D01*
X148494318Y-67311605D01*
X148590732Y-67167310D01*
X148657144Y-67006978D01*
X148691000Y-66836771D01*
X148691000Y-66663229D01*
X150929000Y-66663229D01*
X150929000Y-66836771D01*
X150962856Y-67006978D01*
X151029268Y-67167310D01*
X151125682Y-67311605D01*
X151248395Y-67434318D01*
X151392690Y-67530732D01*
X151553022Y-67597144D01*
X151723229Y-67631000D01*
X151896771Y-67631000D01*
X152066978Y-67597144D01*
X152227310Y-67530732D01*
X152371605Y-67434318D01*
X152494318Y-67311605D01*
X152590732Y-67167310D01*
X152657144Y-67006978D01*
X152691000Y-66836771D01*
X152691000Y-66663229D01*
X152929000Y-66663229D01*
X152929000Y-66836771D01*
X152962856Y-67006978D01*
X153029268Y-67167310D01*
X153125682Y-67311605D01*
X153248395Y-67434318D01*
X153392690Y-67530732D01*
X153553022Y-67597144D01*
X153723229Y-67631000D01*
X153896771Y-67631000D01*
X154066978Y-67597144D01*
X154227310Y-67530732D01*
X154371605Y-67434318D01*
X154494318Y-67311605D01*
X154590732Y-67167310D01*
X154657144Y-67006978D01*
X154691000Y-66836771D01*
X154691000Y-66663229D01*
X154929000Y-66663229D01*
X154929000Y-66836771D01*
X154962856Y-67006978D01*
X155029268Y-67167310D01*
X155125682Y-67311605D01*
X155248395Y-67434318D01*
X155392690Y-67530732D01*
X155553022Y-67597144D01*
X155723229Y-67631000D01*
X155896771Y-67631000D01*
X156066978Y-67597144D01*
X156227310Y-67530732D01*
X156371605Y-67434318D01*
X156494318Y-67311605D01*
X156590732Y-67167310D01*
X156657144Y-67006978D01*
X156691000Y-66836771D01*
X156691000Y-66663229D01*
X158929000Y-66663229D01*
X158929000Y-66836771D01*
X158962856Y-67006978D01*
X159029268Y-67167310D01*
X159125682Y-67311605D01*
X159248395Y-67434318D01*
X159392690Y-67530732D01*
X159553022Y-67597144D01*
X159723229Y-67631000D01*
X159896771Y-67631000D01*
X160066978Y-67597144D01*
X160227310Y-67530732D01*
X160371605Y-67434318D01*
X160494318Y-67311605D01*
X160590732Y-67167310D01*
X160657144Y-67006978D01*
X160691000Y-66836771D01*
X160691000Y-66663229D01*
X160657144Y-66493022D01*
X160590732Y-66332690D01*
X160494318Y-66188395D01*
X160479001Y-66173078D01*
X164619000Y-66173078D01*
X164619000Y-66326922D01*
X164649013Y-66477809D01*
X164707887Y-66619942D01*
X164793358Y-66747859D01*
X164902141Y-66856642D01*
X165030058Y-66942113D01*
X165169808Y-67000000D01*
X165030058Y-67057887D01*
X164902141Y-67143358D01*
X164793358Y-67252141D01*
X164707887Y-67380058D01*
X164649013Y-67522191D01*
X164619000Y-67673078D01*
X164619000Y-67826922D01*
X164649013Y-67977809D01*
X164707887Y-68119942D01*
X164793358Y-68247859D01*
X164902141Y-68356642D01*
X165030058Y-68442113D01*
X165172191Y-68500987D01*
X165323078Y-68531000D01*
X165476922Y-68531000D01*
X165627809Y-68500987D01*
X165769942Y-68442113D01*
X165897859Y-68356642D01*
X166006642Y-68247859D01*
X166092113Y-68119942D01*
X166150987Y-67977809D01*
X166181000Y-67826922D01*
X166181000Y-67673078D01*
X166869000Y-67673078D01*
X166869000Y-67826922D01*
X166899013Y-67977809D01*
X166957887Y-68119942D01*
X167043358Y-68247859D01*
X167152141Y-68356642D01*
X167280058Y-68442113D01*
X167422191Y-68500987D01*
X167573078Y-68531000D01*
X167726922Y-68531000D01*
X167877809Y-68500987D01*
X168019942Y-68442113D01*
X168147859Y-68356642D01*
X168256642Y-68247859D01*
X168342113Y-68119942D01*
X168400987Y-67977809D01*
X168431000Y-67826922D01*
X168431000Y-67673078D01*
X168400987Y-67522191D01*
X168342113Y-67380058D01*
X168256642Y-67252141D01*
X168147859Y-67143358D01*
X168019942Y-67057887D01*
X167877809Y-66999013D01*
X167726922Y-66969000D01*
X167573078Y-66969000D01*
X167422191Y-66999013D01*
X167280058Y-67057887D01*
X167152141Y-67143358D01*
X167043358Y-67252141D01*
X166957887Y-67380058D01*
X166899013Y-67522191D01*
X166869000Y-67673078D01*
X166181000Y-67673078D01*
X166150987Y-67522191D01*
X166092113Y-67380058D01*
X166006642Y-67252141D01*
X165897859Y-67143358D01*
X165769942Y-67057887D01*
X165630192Y-67000000D01*
X165769942Y-66942113D01*
X165897859Y-66856642D01*
X166006642Y-66747859D01*
X166092113Y-66619942D01*
X166150987Y-66477809D01*
X166181000Y-66326922D01*
X166181000Y-66173078D01*
X169119000Y-66173078D01*
X169119000Y-66326922D01*
X169149013Y-66477809D01*
X169207887Y-66619942D01*
X169293358Y-66747859D01*
X169402141Y-66856642D01*
X169530058Y-66942113D01*
X169669757Y-66999979D01*
X169530058Y-67057845D01*
X169402141Y-67143316D01*
X169293358Y-67252099D01*
X169207887Y-67380016D01*
X169149013Y-67522149D01*
X169119000Y-67673036D01*
X169119000Y-67826880D01*
X169149013Y-67977767D01*
X169207887Y-68119900D01*
X169293358Y-68247817D01*
X169402141Y-68356600D01*
X169530058Y-68442071D01*
X169672191Y-68500945D01*
X169823078Y-68530958D01*
X169976922Y-68530958D01*
X170127809Y-68500945D01*
X170269942Y-68442071D01*
X170397859Y-68356600D01*
X170506642Y-68247817D01*
X170592113Y-68119900D01*
X170650987Y-67977767D01*
X170681000Y-67826880D01*
X170681000Y-67673036D01*
X170650987Y-67522149D01*
X170592113Y-67380016D01*
X170506642Y-67252099D01*
X170446531Y-67191988D01*
X171600090Y-67191988D01*
X171600090Y-67345832D01*
X171630103Y-67496719D01*
X171688977Y-67638852D01*
X171774448Y-67766769D01*
X171883231Y-67875552D01*
X172011148Y-67961023D01*
X172153281Y-68019897D01*
X172304168Y-68049910D01*
X172458012Y-68049910D01*
X172608899Y-68019897D01*
X172751032Y-67961023D01*
X172878949Y-67875552D01*
X172987732Y-67766769D01*
X173073203Y-67638852D01*
X173132077Y-67496719D01*
X173162090Y-67345832D01*
X173162090Y-67191988D01*
X173132077Y-67041101D01*
X173073203Y-66898968D01*
X172987732Y-66771051D01*
X172878949Y-66662268D01*
X172751032Y-66576797D01*
X172608899Y-66517923D01*
X172458012Y-66487910D01*
X172304168Y-66487910D01*
X172153281Y-66517923D01*
X172011148Y-66576797D01*
X171883231Y-66662268D01*
X171774448Y-66771051D01*
X171688977Y-66898968D01*
X171630103Y-67041101D01*
X171600090Y-67191988D01*
X170446531Y-67191988D01*
X170397859Y-67143316D01*
X170269942Y-67057845D01*
X170130243Y-66999979D01*
X170269942Y-66942113D01*
X170397859Y-66856642D01*
X170506642Y-66747859D01*
X170592113Y-66619942D01*
X170650987Y-66477809D01*
X170681000Y-66326922D01*
X170681000Y-66173078D01*
X170650987Y-66022191D01*
X170603657Y-65907927D01*
X172969000Y-65907927D01*
X172969000Y-66042073D01*
X172995171Y-66173640D01*
X173046506Y-66297574D01*
X173121033Y-66409112D01*
X173215888Y-66503967D01*
X173327426Y-66578494D01*
X173451360Y-66629829D01*
X173582927Y-66656000D01*
X173717073Y-66656000D01*
X173848640Y-66629829D01*
X173972574Y-66578494D01*
X174084112Y-66503967D01*
X174150000Y-66438079D01*
X174215888Y-66503967D01*
X174327426Y-66578494D01*
X174451360Y-66629829D01*
X174582927Y-66656000D01*
X174717073Y-66656000D01*
X174848640Y-66629829D01*
X174972574Y-66578494D01*
X175084112Y-66503967D01*
X175149998Y-66438081D01*
X175215888Y-66503971D01*
X175327426Y-66578498D01*
X175451360Y-66629833D01*
X175582927Y-66656004D01*
X175717073Y-66656004D01*
X175848640Y-66629833D01*
X175972574Y-66578498D01*
X176084112Y-66503971D01*
X176178967Y-66409116D01*
X176253494Y-66297578D01*
X176304829Y-66173644D01*
X176331000Y-66042077D01*
X176331000Y-65907931D01*
X176304829Y-65776364D01*
X176253494Y-65652430D01*
X176178967Y-65540892D01*
X176084112Y-65446037D01*
X175972574Y-65371510D01*
X175848640Y-65320175D01*
X175717073Y-65294004D01*
X175582927Y-65294004D01*
X175451360Y-65320175D01*
X175327426Y-65371510D01*
X175215888Y-65446037D01*
X175150002Y-65511923D01*
X175084112Y-65446033D01*
X174972574Y-65371506D01*
X174848640Y-65320171D01*
X174717073Y-65294000D01*
X174582927Y-65294000D01*
X174451360Y-65320171D01*
X174327426Y-65371506D01*
X174215888Y-65446033D01*
X174150000Y-65511921D01*
X174084112Y-65446033D01*
X173972574Y-65371506D01*
X173848640Y-65320171D01*
X173717073Y-65294000D01*
X173582927Y-65294000D01*
X173451360Y-65320171D01*
X173327426Y-65371506D01*
X173215888Y-65446033D01*
X173121033Y-65540888D01*
X173046506Y-65652426D01*
X172995171Y-65776360D01*
X172969000Y-65907927D01*
X170603657Y-65907927D01*
X170592113Y-65880058D01*
X170506642Y-65752141D01*
X170397859Y-65643358D01*
X170269942Y-65557887D01*
X170127809Y-65499013D01*
X169976922Y-65469000D01*
X169823078Y-65469000D01*
X169672191Y-65499013D01*
X169530058Y-65557887D01*
X169402141Y-65643358D01*
X169293358Y-65752141D01*
X169207887Y-65880058D01*
X169149013Y-66022191D01*
X169119000Y-66173078D01*
X166181000Y-66173078D01*
X166150987Y-66022191D01*
X166092113Y-65880058D01*
X166006642Y-65752141D01*
X165897859Y-65643358D01*
X165769942Y-65557887D01*
X165627809Y-65499013D01*
X165476922Y-65469000D01*
X165323078Y-65469000D01*
X165172191Y-65499013D01*
X165030058Y-65557887D01*
X164902141Y-65643358D01*
X164793358Y-65752141D01*
X164707887Y-65880058D01*
X164649013Y-66022191D01*
X164619000Y-66173078D01*
X160479001Y-66173078D01*
X160371605Y-66065682D01*
X160227310Y-65969268D01*
X160066978Y-65902856D01*
X159896771Y-65869000D01*
X159723229Y-65869000D01*
X159553022Y-65902856D01*
X159392690Y-65969268D01*
X159248395Y-66065682D01*
X159125682Y-66188395D01*
X159029268Y-66332690D01*
X158962856Y-66493022D01*
X158929000Y-66663229D01*
X156691000Y-66663229D01*
X156657144Y-66493022D01*
X156590732Y-66332690D01*
X156494318Y-66188395D01*
X156371605Y-66065682D01*
X156227310Y-65969268D01*
X156066978Y-65902856D01*
X155896771Y-65869000D01*
X155723229Y-65869000D01*
X155553022Y-65902856D01*
X155392690Y-65969268D01*
X155248395Y-66065682D01*
X155125682Y-66188395D01*
X155029268Y-66332690D01*
X154962856Y-66493022D01*
X154929000Y-66663229D01*
X154691000Y-66663229D01*
X154657144Y-66493022D01*
X154590732Y-66332690D01*
X154494318Y-66188395D01*
X154371605Y-66065682D01*
X154227310Y-65969268D01*
X154066978Y-65902856D01*
X153896771Y-65869000D01*
X153723229Y-65869000D01*
X153553022Y-65902856D01*
X153392690Y-65969268D01*
X153248395Y-66065682D01*
X153125682Y-66188395D01*
X153029268Y-66332690D01*
X152962856Y-66493022D01*
X152929000Y-66663229D01*
X152691000Y-66663229D01*
X152657144Y-66493022D01*
X152590732Y-66332690D01*
X152494318Y-66188395D01*
X152371605Y-66065682D01*
X152227310Y-65969268D01*
X152066978Y-65902856D01*
X151896771Y-65869000D01*
X151723229Y-65869000D01*
X151553022Y-65902856D01*
X151392690Y-65969268D01*
X151248395Y-66065682D01*
X151125682Y-66188395D01*
X151029268Y-66332690D01*
X150962856Y-66493022D01*
X150929000Y-66663229D01*
X148691000Y-66663229D01*
X148657144Y-66493022D01*
X148590732Y-66332690D01*
X148494318Y-66188395D01*
X148371605Y-66065682D01*
X148227310Y-65969268D01*
X148066978Y-65902856D01*
X147896771Y-65869000D01*
X147723229Y-65869000D01*
X147553022Y-65902856D01*
X147392690Y-65969268D01*
X147248395Y-66065682D01*
X147125682Y-66188395D01*
X147029268Y-66332690D01*
X146962856Y-66493022D01*
X146929000Y-66663229D01*
X146691000Y-66663229D01*
X146657144Y-66493022D01*
X146590732Y-66332690D01*
X146494318Y-66188395D01*
X146371605Y-66065682D01*
X146227310Y-65969268D01*
X146066978Y-65902856D01*
X145896771Y-65869000D01*
X145723229Y-65869000D01*
X145553022Y-65902856D01*
X145392690Y-65969268D01*
X145248395Y-66065682D01*
X145125682Y-66188395D01*
X145029268Y-66332690D01*
X144962856Y-66493022D01*
X144929000Y-66663229D01*
X140691000Y-66663229D01*
X140657144Y-66493022D01*
X140590732Y-66332690D01*
X140494318Y-66188395D01*
X140371605Y-66065682D01*
X140227310Y-65969268D01*
X140066978Y-65902856D01*
X139896771Y-65869000D01*
X139723229Y-65869000D01*
X139553022Y-65902856D01*
X139392690Y-65969268D01*
X139248395Y-66065682D01*
X139125682Y-66188395D01*
X139029268Y-66332690D01*
X138962856Y-66493022D01*
X138929000Y-66663229D01*
X136691000Y-66663229D01*
X136657144Y-66493022D01*
X136590732Y-66332690D01*
X136494318Y-66188395D01*
X136371605Y-66065682D01*
X136227310Y-65969268D01*
X136066978Y-65902856D01*
X135896771Y-65869000D01*
X135723229Y-65869000D01*
X135553022Y-65902856D01*
X135392690Y-65969268D01*
X135248395Y-66065682D01*
X135125682Y-66188395D01*
X135029268Y-66332690D01*
X134962856Y-66493022D01*
X134929000Y-66663229D01*
X132691000Y-66663229D01*
X132657144Y-66493022D01*
X132590732Y-66332690D01*
X132494318Y-66188395D01*
X132371605Y-66065682D01*
X132227310Y-65969268D01*
X132066978Y-65902856D01*
X131896771Y-65869000D01*
X131723229Y-65869000D01*
X131553022Y-65902856D01*
X131392690Y-65969268D01*
X131248395Y-66065682D01*
X131125682Y-66188395D01*
X131029268Y-66332690D01*
X130962856Y-66493022D01*
X130929000Y-66663229D01*
X130691000Y-66663229D01*
X130657144Y-66493022D01*
X130590732Y-66332690D01*
X130494318Y-66188395D01*
X130371605Y-66065682D01*
X130227310Y-65969268D01*
X130066978Y-65902856D01*
X129896771Y-65869000D01*
X129723229Y-65869000D01*
X129553022Y-65902856D01*
X129392690Y-65969268D01*
X129248395Y-66065682D01*
X129125682Y-66188395D01*
X129029268Y-66332690D01*
X128962856Y-66493022D01*
X128929000Y-66663229D01*
X126691000Y-66663229D01*
X126657144Y-66493022D01*
X126590732Y-66332690D01*
X126494318Y-66188395D01*
X126371605Y-66065682D01*
X126227310Y-65969268D01*
X126066978Y-65902856D01*
X125896771Y-65869000D01*
X125723229Y-65869000D01*
X125553022Y-65902856D01*
X125392690Y-65969268D01*
X125248395Y-66065682D01*
X125125682Y-66188395D01*
X125029268Y-66332690D01*
X124962856Y-66493022D01*
X124929000Y-66663229D01*
X122691000Y-66663229D01*
X122657144Y-66493022D01*
X122590732Y-66332690D01*
X122494318Y-66188395D01*
X122371605Y-66065682D01*
X122227310Y-65969268D01*
X122066978Y-65902856D01*
X121896771Y-65869000D01*
X121723229Y-65869000D01*
X121553022Y-65902856D01*
X121392690Y-65969268D01*
X121248395Y-66065682D01*
X121125682Y-66188395D01*
X121029268Y-66332690D01*
X120962856Y-66493022D01*
X120929000Y-66663229D01*
X118691000Y-66663229D01*
X118657144Y-66493022D01*
X118590732Y-66332690D01*
X118494318Y-66188395D01*
X118371605Y-66065682D01*
X118227310Y-65969268D01*
X118066978Y-65902856D01*
X117896771Y-65869000D01*
X117723229Y-65869000D01*
X117553022Y-65902856D01*
X117392690Y-65969268D01*
X117248395Y-66065682D01*
X117125682Y-66188395D01*
X117029268Y-66332690D01*
X116962856Y-66493022D01*
X116929000Y-66663229D01*
X114691000Y-66663229D01*
X114657144Y-66493022D01*
X114590732Y-66332690D01*
X114494318Y-66188395D01*
X114371605Y-66065682D01*
X114227310Y-65969268D01*
X114066978Y-65902856D01*
X113896771Y-65869000D01*
X113723229Y-65869000D01*
X113553022Y-65902856D01*
X113392690Y-65969268D01*
X113248395Y-66065682D01*
X113125682Y-66188395D01*
X113029268Y-66332690D01*
X112962856Y-66493022D01*
X112929000Y-66663229D01*
X112691000Y-66663229D01*
X112657144Y-66493022D01*
X112590732Y-66332690D01*
X112494318Y-66188395D01*
X112371605Y-66065682D01*
X112227310Y-65969268D01*
X112066978Y-65902856D01*
X111896771Y-65869000D01*
X111723229Y-65869000D01*
X111553022Y-65902856D01*
X111392690Y-65969268D01*
X111248395Y-66065682D01*
X111125682Y-66188395D01*
X111029268Y-66332690D01*
X110962856Y-66493022D01*
X110929000Y-66663229D01*
X97877519Y-66663229D01*
X97853494Y-66605229D01*
X97809176Y-66538902D01*
X97853494Y-66472574D01*
X97904829Y-66348640D01*
X97931000Y-66217073D01*
X97931000Y-66082927D01*
X97904829Y-65951360D01*
X97853494Y-65827426D01*
X97801760Y-65750000D01*
X97853494Y-65672574D01*
X97904829Y-65548640D01*
X97931000Y-65417073D01*
X97931000Y-65282927D01*
X97904829Y-65151360D01*
X97853494Y-65027426D01*
X97809176Y-64961099D01*
X97853494Y-64894771D01*
X97904829Y-64770837D01*
X97931000Y-64639270D01*
X97931000Y-64505124D01*
X97904829Y-64373557D01*
X97853494Y-64249623D01*
X97778967Y-64138085D01*
X97684112Y-64043230D01*
X97572574Y-63968703D01*
X97448640Y-63917368D01*
X97317073Y-63891197D01*
X97182927Y-63891197D01*
X97051360Y-63917368D01*
X96927426Y-63968703D01*
X96815888Y-64043230D01*
X96721033Y-64138085D01*
X96646506Y-64249623D01*
X96595171Y-64373557D01*
X96569000Y-64505124D01*
X95080478Y-64505124D01*
X95100987Y-64455612D01*
X95131000Y-64304725D01*
X95131000Y-64150881D01*
X95100987Y-63999994D01*
X95042113Y-63857861D01*
X94962627Y-63738902D01*
X95042113Y-63619942D01*
X95100987Y-63477809D01*
X95131000Y-63326922D01*
X95131000Y-63173078D01*
X95100987Y-63022191D01*
X95042113Y-62880058D01*
X94956642Y-62752141D01*
X94954503Y-62750002D01*
X94956646Y-62747859D01*
X95042117Y-62619942D01*
X95100991Y-62477809D01*
X95131004Y-62326922D01*
X95131004Y-62173078D01*
X95100991Y-62022191D01*
X95042117Y-61880058D01*
X94961363Y-61759200D01*
X95039583Y-61642134D01*
X95098457Y-61500001D01*
X95128470Y-61349114D01*
X95128470Y-61195270D01*
X95098457Y-61044383D01*
X95039583Y-60902250D01*
X94954112Y-60774333D01*
X94845329Y-60665550D01*
X94717412Y-60580079D01*
X94575279Y-60521205D01*
X94424392Y-60491192D01*
X94270548Y-60491192D01*
X94119661Y-60521205D01*
X93977528Y-60580079D01*
X93849611Y-60665550D01*
X93740828Y-60774333D01*
X93655357Y-60902250D01*
X93596483Y-61044383D01*
X93566470Y-61195270D01*
X89906000Y-61195270D01*
X89906000Y-58505124D01*
X96594000Y-58505124D01*
X96594000Y-58639270D01*
X96620171Y-58770837D01*
X96671506Y-58894771D01*
X96715824Y-58961098D01*
X96671506Y-59027426D01*
X96620171Y-59151360D01*
X96594000Y-59282927D01*
X96594000Y-59417073D01*
X96620171Y-59548640D01*
X96671506Y-59672574D01*
X96723240Y-59750000D01*
X96671506Y-59827426D01*
X96620171Y-59951360D01*
X96594000Y-60082927D01*
X96594000Y-60217073D01*
X96620171Y-60348640D01*
X96671506Y-60472574D01*
X96715824Y-60538901D01*
X96671506Y-60605229D01*
X96620171Y-60729163D01*
X96594000Y-60860730D01*
X96594000Y-60994876D01*
X96620171Y-61126443D01*
X96671506Y-61250377D01*
X96746033Y-61361915D01*
X96748020Y-61363902D01*
X96746033Y-61365888D01*
X96671506Y-61477426D01*
X96620171Y-61601360D01*
X96594000Y-61732927D01*
X96594000Y-61867073D01*
X96620171Y-61998640D01*
X96671506Y-62122574D01*
X96746033Y-62234112D01*
X96840888Y-62328967D01*
X96952426Y-62403494D01*
X97076360Y-62454829D01*
X97207927Y-62481000D01*
X97342073Y-62481000D01*
X97473640Y-62454829D01*
X97550293Y-62423078D01*
X175619000Y-62423078D01*
X175619000Y-62576922D01*
X175649013Y-62727809D01*
X175707887Y-62869942D01*
X175793358Y-62997859D01*
X175902141Y-63106642D01*
X176030058Y-63192113D01*
X176172191Y-63250987D01*
X176323078Y-63281000D01*
X176476922Y-63281000D01*
X176627809Y-63250987D01*
X176664007Y-63235993D01*
X176649013Y-63272191D01*
X176619000Y-63423078D01*
X176619000Y-63576922D01*
X176649013Y-63727809D01*
X176707887Y-63869942D01*
X176793358Y-63997859D01*
X176795499Y-64000000D01*
X176793358Y-64002141D01*
X176707887Y-64130058D01*
X176649013Y-64272191D01*
X176619000Y-64423078D01*
X176619000Y-64576922D01*
X176649013Y-64727809D01*
X176707887Y-64869942D01*
X176793358Y-64997859D01*
X176902141Y-65106642D01*
X177030058Y-65192113D01*
X177172191Y-65250987D01*
X177323078Y-65281000D01*
X177476922Y-65281000D01*
X177627809Y-65250987D01*
X177769942Y-65192113D01*
X177897859Y-65106642D01*
X178006642Y-64997859D01*
X178092113Y-64869942D01*
X178150987Y-64727809D01*
X178181000Y-64576922D01*
X178181000Y-64423078D01*
X178150987Y-64272191D01*
X178092113Y-64130058D01*
X178006642Y-64002141D01*
X178004501Y-64000000D01*
X178006642Y-63997859D01*
X178092113Y-63869942D01*
X178150987Y-63727809D01*
X178181000Y-63576922D01*
X178181000Y-63423078D01*
X178150987Y-63272191D01*
X178092113Y-63130058D01*
X178006642Y-63002141D01*
X178004501Y-63000000D01*
X178006642Y-62997859D01*
X178092113Y-62869942D01*
X178150987Y-62727809D01*
X178181000Y-62576922D01*
X178181000Y-62423078D01*
X178150987Y-62272191D01*
X178092113Y-62130058D01*
X178006642Y-62002141D01*
X177897859Y-61893358D01*
X177769942Y-61807887D01*
X177627809Y-61749013D01*
X177476922Y-61719000D01*
X177323078Y-61719000D01*
X177172191Y-61749013D01*
X177030058Y-61807887D01*
X176902141Y-61893358D01*
X176900000Y-61895499D01*
X176897859Y-61893358D01*
X176769942Y-61807887D01*
X176627809Y-61749013D01*
X176476922Y-61719000D01*
X176323078Y-61719000D01*
X176172191Y-61749013D01*
X176030058Y-61807887D01*
X175902141Y-61893358D01*
X175793358Y-62002141D01*
X175707887Y-62130058D01*
X175649013Y-62272191D01*
X175619000Y-62423078D01*
X97550293Y-62423078D01*
X97597574Y-62403494D01*
X97709112Y-62328967D01*
X97803967Y-62234112D01*
X97878494Y-62122574D01*
X97929829Y-61998640D01*
X97956000Y-61867073D01*
X97956000Y-61732927D01*
X97929829Y-61601360D01*
X97878494Y-61477426D01*
X97803967Y-61365888D01*
X97801981Y-61363902D01*
X97803967Y-61361915D01*
X97878494Y-61250377D01*
X97929829Y-61126443D01*
X97956000Y-60994876D01*
X97956000Y-60860730D01*
X97929829Y-60729163D01*
X97878494Y-60605229D01*
X97834176Y-60538901D01*
X97878494Y-60472574D01*
X97929829Y-60348640D01*
X97956000Y-60217073D01*
X97956000Y-60082927D01*
X97929829Y-59951360D01*
X97878494Y-59827426D01*
X97826760Y-59750000D01*
X97878494Y-59672574D01*
X97929829Y-59548640D01*
X97956000Y-59417073D01*
X97956000Y-59282927D01*
X97929829Y-59151360D01*
X97878494Y-59027426D01*
X97837567Y-58966173D01*
X133816848Y-58966173D01*
X133816848Y-59100319D01*
X133843019Y-59231886D01*
X133894354Y-59355820D01*
X133947157Y-59434846D01*
X133894354Y-59513872D01*
X133843019Y-59637806D01*
X133816848Y-59769373D01*
X133816848Y-59903519D01*
X133843019Y-60035086D01*
X133894354Y-60159020D01*
X133968881Y-60270558D01*
X134063736Y-60365413D01*
X134175274Y-60439940D01*
X134299208Y-60491275D01*
X134430775Y-60517446D01*
X134564921Y-60517446D01*
X134696488Y-60491275D01*
X134820422Y-60439940D01*
X134931960Y-60365413D01*
X135026815Y-60270558D01*
X135101342Y-60159020D01*
X135152677Y-60035086D01*
X135178848Y-59903519D01*
X135178848Y-59769373D01*
X135152677Y-59637806D01*
X135101342Y-59513872D01*
X135048539Y-59434846D01*
X135101342Y-59355820D01*
X135118358Y-59314738D01*
X144969000Y-59314738D01*
X144969000Y-59685262D01*
X145041286Y-60048667D01*
X145183080Y-60390987D01*
X145388932Y-60699067D01*
X145650933Y-60961068D01*
X145959013Y-61166920D01*
X146301333Y-61308714D01*
X146664738Y-61381000D01*
X147035262Y-61381000D01*
X147398667Y-61308714D01*
X147740987Y-61166920D01*
X148049067Y-60961068D01*
X148311068Y-60699067D01*
X148516920Y-60390987D01*
X148658714Y-60048667D01*
X148731000Y-59685262D01*
X148731000Y-59323079D01*
X149119001Y-59323079D01*
X149119001Y-59476923D01*
X149149014Y-59627810D01*
X149207888Y-59769943D01*
X149293359Y-59897860D01*
X149402142Y-60006643D01*
X149530059Y-60092114D01*
X149672192Y-60150988D01*
X149823079Y-60181001D01*
X149976923Y-60181001D01*
X150016754Y-60173078D01*
X156119000Y-60173078D01*
X156119000Y-60326922D01*
X156149013Y-60477809D01*
X156207887Y-60619942D01*
X156293358Y-60747859D01*
X156402141Y-60856642D01*
X156530058Y-60942113D01*
X156672191Y-61000987D01*
X156823078Y-61031000D01*
X156976922Y-61031000D01*
X157127809Y-61000987D01*
X157269942Y-60942113D01*
X157397859Y-60856642D01*
X157506642Y-60747859D01*
X157525015Y-60720362D01*
X157543388Y-60747859D01*
X157652171Y-60856642D01*
X157780088Y-60942113D01*
X157922221Y-61000987D01*
X158073108Y-61031000D01*
X158226952Y-61031000D01*
X158377839Y-61000987D01*
X158519972Y-60942113D01*
X158647889Y-60856642D01*
X158756672Y-60747859D01*
X158842143Y-60619942D01*
X158900023Y-60480210D01*
X158957902Y-60619942D01*
X159043373Y-60747859D01*
X159152156Y-60856642D01*
X159280073Y-60942113D01*
X159422206Y-61000987D01*
X159573093Y-61031000D01*
X159726937Y-61031000D01*
X159877824Y-61000987D01*
X160019957Y-60942113D01*
X160147874Y-60856642D01*
X160256657Y-60747859D01*
X160275008Y-60720395D01*
X160293358Y-60747859D01*
X160402141Y-60856642D01*
X160530058Y-60942113D01*
X160672191Y-61000987D01*
X160823078Y-61031000D01*
X160976922Y-61031000D01*
X161127809Y-61000987D01*
X161269942Y-60942113D01*
X161397859Y-60856642D01*
X161506642Y-60747859D01*
X161592113Y-60619942D01*
X161650987Y-60477809D01*
X161681000Y-60326922D01*
X161681000Y-60173078D01*
X161650987Y-60022191D01*
X161609933Y-59923078D01*
X180119000Y-59923078D01*
X180119000Y-60076922D01*
X180149013Y-60227809D01*
X180207887Y-60369942D01*
X180293358Y-60497859D01*
X180402141Y-60606642D01*
X180530058Y-60692113D01*
X180672191Y-60750987D01*
X180823078Y-60781000D01*
X180976922Y-60781000D01*
X181127809Y-60750987D01*
X181269942Y-60692113D01*
X181397859Y-60606642D01*
X181506642Y-60497859D01*
X181592113Y-60369942D01*
X181650000Y-60230192D01*
X181707887Y-60369942D01*
X181793358Y-60497859D01*
X181902141Y-60606642D01*
X182030058Y-60692113D01*
X182172191Y-60750987D01*
X182323078Y-60781000D01*
X182476922Y-60781000D01*
X182627809Y-60750987D01*
X182769942Y-60692113D01*
X182897859Y-60606642D01*
X183006642Y-60497859D01*
X183092113Y-60369942D01*
X183150987Y-60227809D01*
X183181000Y-60076922D01*
X183181000Y-59923078D01*
X183619000Y-59923078D01*
X183619000Y-60076922D01*
X183649013Y-60227809D01*
X183707887Y-60369942D01*
X183793358Y-60497859D01*
X183902141Y-60606642D01*
X184030058Y-60692113D01*
X184172191Y-60750987D01*
X184323078Y-60781000D01*
X184476922Y-60781000D01*
X184627809Y-60750987D01*
X184769942Y-60692113D01*
X184897859Y-60606642D01*
X185006642Y-60497859D01*
X185092113Y-60369942D01*
X185150000Y-60230192D01*
X185207887Y-60369942D01*
X185293358Y-60497859D01*
X185402141Y-60606642D01*
X185530058Y-60692113D01*
X185672191Y-60750987D01*
X185823078Y-60781000D01*
X185976922Y-60781000D01*
X186127809Y-60750987D01*
X186269942Y-60692113D01*
X186397859Y-60606642D01*
X186506642Y-60497859D01*
X186592113Y-60369942D01*
X186650987Y-60227809D01*
X186681000Y-60076922D01*
X186681000Y-59923078D01*
X186650987Y-59772191D01*
X186592113Y-59630058D01*
X186506642Y-59502141D01*
X186397859Y-59393358D01*
X186269942Y-59307887D01*
X186127809Y-59249013D01*
X185976922Y-59219000D01*
X185823078Y-59219000D01*
X185672191Y-59249013D01*
X185530058Y-59307887D01*
X185402141Y-59393358D01*
X185293358Y-59502141D01*
X185207887Y-59630058D01*
X185150000Y-59769808D01*
X185092113Y-59630058D01*
X185006642Y-59502141D01*
X184897859Y-59393358D01*
X184769942Y-59307887D01*
X184627809Y-59249013D01*
X184476922Y-59219000D01*
X184323078Y-59219000D01*
X184172191Y-59249013D01*
X184030058Y-59307887D01*
X183902141Y-59393358D01*
X183793358Y-59502141D01*
X183707887Y-59630058D01*
X183649013Y-59772191D01*
X183619000Y-59923078D01*
X183181000Y-59923078D01*
X183150987Y-59772191D01*
X183092113Y-59630058D01*
X183006642Y-59502141D01*
X182897859Y-59393358D01*
X182769942Y-59307887D01*
X182627809Y-59249013D01*
X182476922Y-59219000D01*
X182323078Y-59219000D01*
X182172191Y-59249013D01*
X182030058Y-59307887D01*
X181902141Y-59393358D01*
X181793358Y-59502141D01*
X181707887Y-59630058D01*
X181650000Y-59769808D01*
X181592113Y-59630058D01*
X181506642Y-59502141D01*
X181397859Y-59393358D01*
X181269942Y-59307887D01*
X181127809Y-59249013D01*
X180976922Y-59219000D01*
X180823078Y-59219000D01*
X180672191Y-59249013D01*
X180530058Y-59307887D01*
X180402141Y-59393358D01*
X180293358Y-59502141D01*
X180207887Y-59630058D01*
X180149013Y-59772191D01*
X180119000Y-59923078D01*
X161609933Y-59923078D01*
X161592113Y-59880058D01*
X161506642Y-59752141D01*
X161397859Y-59643358D01*
X161269942Y-59557887D01*
X161127809Y-59499013D01*
X160976922Y-59469000D01*
X160823078Y-59469000D01*
X160672191Y-59499013D01*
X160530058Y-59557887D01*
X160402141Y-59643358D01*
X160293358Y-59752141D01*
X160275008Y-59779605D01*
X160256657Y-59752141D01*
X160147874Y-59643358D01*
X160019957Y-59557887D01*
X159877824Y-59499013D01*
X159726937Y-59469000D01*
X159573093Y-59469000D01*
X159422206Y-59499013D01*
X159280073Y-59557887D01*
X159152156Y-59643358D01*
X159043373Y-59752141D01*
X158957902Y-59880058D01*
X158900023Y-60019790D01*
X158842143Y-59880058D01*
X158756672Y-59752141D01*
X158647889Y-59643358D01*
X158519972Y-59557887D01*
X158377839Y-59499013D01*
X158226952Y-59469000D01*
X158073108Y-59469000D01*
X157922221Y-59499013D01*
X157780088Y-59557887D01*
X157652171Y-59643358D01*
X157543388Y-59752141D01*
X157525015Y-59779638D01*
X157506642Y-59752141D01*
X157397859Y-59643358D01*
X157269942Y-59557887D01*
X157127809Y-59499013D01*
X156976922Y-59469000D01*
X156823078Y-59469000D01*
X156672191Y-59499013D01*
X156530058Y-59557887D01*
X156402141Y-59643358D01*
X156293358Y-59752141D01*
X156207887Y-59880058D01*
X156149013Y-60022191D01*
X156119000Y-60173078D01*
X150016754Y-60173078D01*
X150127810Y-60150988D01*
X150269943Y-60092114D01*
X150397860Y-60006643D01*
X150506643Y-59897860D01*
X150592114Y-59769943D01*
X150650988Y-59627810D01*
X150681001Y-59476923D01*
X150681001Y-59323079D01*
X150650988Y-59172192D01*
X150592114Y-59030059D01*
X150506643Y-58902142D01*
X150397860Y-58793359D01*
X150269943Y-58707888D01*
X150127810Y-58649014D01*
X149976923Y-58619001D01*
X149823079Y-58619001D01*
X149672192Y-58649014D01*
X149530059Y-58707888D01*
X149402142Y-58793359D01*
X149293359Y-58902142D01*
X149207888Y-59030059D01*
X149149014Y-59172192D01*
X149119001Y-59323079D01*
X148731000Y-59323079D01*
X148731000Y-59314738D01*
X148658714Y-58951333D01*
X148516920Y-58609013D01*
X148311068Y-58300933D01*
X148049067Y-58038932D01*
X147740987Y-57833080D01*
X147398667Y-57691286D01*
X147035262Y-57619000D01*
X146664738Y-57619000D01*
X146301333Y-57691286D01*
X145959013Y-57833080D01*
X145650933Y-58038932D01*
X145388932Y-58300933D01*
X145183080Y-58609013D01*
X145041286Y-58951333D01*
X144969000Y-59314738D01*
X135118358Y-59314738D01*
X135152677Y-59231886D01*
X135178848Y-59100319D01*
X135178848Y-58966173D01*
X135152677Y-58834606D01*
X135101342Y-58710672D01*
X135026815Y-58599134D01*
X134931960Y-58504279D01*
X134820422Y-58429752D01*
X134696488Y-58378417D01*
X134564921Y-58352246D01*
X134430775Y-58352246D01*
X134299208Y-58378417D01*
X134175274Y-58429752D01*
X134063736Y-58504279D01*
X133968881Y-58599134D01*
X133894354Y-58710672D01*
X133843019Y-58834606D01*
X133816848Y-58966173D01*
X97837567Y-58966173D01*
X97834176Y-58961098D01*
X97878494Y-58894771D01*
X97929829Y-58770837D01*
X97956000Y-58639270D01*
X97956000Y-58505124D01*
X97929829Y-58373557D01*
X97878494Y-58249623D01*
X97803967Y-58138085D01*
X97709112Y-58043230D01*
X97597574Y-57968703D01*
X97473640Y-57917368D01*
X97342073Y-57891197D01*
X97207927Y-57891197D01*
X97076360Y-57917368D01*
X96952426Y-57968703D01*
X96840888Y-58043230D01*
X96746033Y-58138085D01*
X96671506Y-58249623D01*
X96620171Y-58373557D01*
X96594000Y-58505124D01*
X89906000Y-58505124D01*
X89906000Y-56998154D01*
X94629000Y-56998154D01*
X94629000Y-57161846D01*
X94660935Y-57322394D01*
X94723577Y-57473626D01*
X94814520Y-57609732D01*
X94930268Y-57725480D01*
X95066374Y-57816423D01*
X95217606Y-57879065D01*
X95378154Y-57911000D01*
X95541846Y-57911000D01*
X95702394Y-57879065D01*
X95853626Y-57816423D01*
X95989732Y-57725480D01*
X96105480Y-57609732D01*
X96196423Y-57473626D01*
X96259065Y-57322394D01*
X96291000Y-57161846D01*
X96291000Y-56998154D01*
X96259065Y-56837606D01*
X96196423Y-56686374D01*
X96120722Y-56573079D01*
X149119001Y-56573079D01*
X149119001Y-56726923D01*
X149149014Y-56877810D01*
X149207888Y-57019943D01*
X149293359Y-57147860D01*
X149402142Y-57256643D01*
X149530059Y-57342114D01*
X149672192Y-57400988D01*
X149823079Y-57431001D01*
X149976923Y-57431001D01*
X150127810Y-57400988D01*
X150269943Y-57342114D01*
X150397860Y-57256643D01*
X150439765Y-57214738D01*
X152269000Y-57214738D01*
X152269000Y-57585262D01*
X152341286Y-57948667D01*
X152483080Y-58290987D01*
X152688932Y-58599067D01*
X152950933Y-58861068D01*
X153259013Y-59066920D01*
X153601333Y-59208714D01*
X153964738Y-59281000D01*
X154335262Y-59281000D01*
X154698667Y-59208714D01*
X155040987Y-59066920D01*
X155349067Y-58861068D01*
X155611068Y-58599067D01*
X155816920Y-58290987D01*
X155958714Y-57948667D01*
X156013532Y-57673078D01*
X176869000Y-57673078D01*
X176869000Y-57826922D01*
X176899013Y-57977809D01*
X176957887Y-58119942D01*
X177043358Y-58247859D01*
X177152141Y-58356642D01*
X177280058Y-58442113D01*
X177422191Y-58500987D01*
X177573078Y-58531000D01*
X177726922Y-58531000D01*
X177877809Y-58500987D01*
X178019942Y-58442113D01*
X178147859Y-58356642D01*
X178256642Y-58247859D01*
X178342113Y-58119942D01*
X178400987Y-57977809D01*
X178431000Y-57826922D01*
X178431000Y-57673078D01*
X178400987Y-57522191D01*
X178342113Y-57380058D01*
X178256642Y-57252141D01*
X178147859Y-57143358D01*
X178019942Y-57057887D01*
X177877809Y-56999013D01*
X177726922Y-56969000D01*
X177573078Y-56969000D01*
X177422191Y-56999013D01*
X177280058Y-57057887D01*
X177152141Y-57143358D01*
X177043358Y-57252141D01*
X176957887Y-57380058D01*
X176899013Y-57522191D01*
X176869000Y-57673078D01*
X156013532Y-57673078D01*
X156031000Y-57585262D01*
X156031000Y-57214738D01*
X155958714Y-56851333D01*
X155816920Y-56509013D01*
X155611068Y-56200933D01*
X155583213Y-56173078D01*
X183368988Y-56173078D01*
X183368988Y-56326922D01*
X183399001Y-56477809D01*
X183457875Y-56619942D01*
X183543346Y-56747859D01*
X183652129Y-56856642D01*
X183780046Y-56942113D01*
X183922179Y-57000987D01*
X184073066Y-57031000D01*
X184226910Y-57031000D01*
X184377797Y-57000987D01*
X184519930Y-56942113D01*
X184647847Y-56856642D01*
X184756630Y-56747859D01*
X184842101Y-56619942D01*
X184900975Y-56477809D01*
X184930988Y-56326922D01*
X184930988Y-56173078D01*
X184900975Y-56022191D01*
X184842101Y-55880058D01*
X184756630Y-55752141D01*
X184647847Y-55643358D01*
X184519930Y-55557887D01*
X184377797Y-55499013D01*
X184226910Y-55469000D01*
X184073066Y-55469000D01*
X183922179Y-55499013D01*
X183780046Y-55557887D01*
X183652129Y-55643358D01*
X183543346Y-55752141D01*
X183457875Y-55880058D01*
X183399001Y-56022191D01*
X183368988Y-56173078D01*
X155583213Y-56173078D01*
X155349067Y-55938932D01*
X155040987Y-55733080D01*
X154698667Y-55591286D01*
X154335262Y-55519000D01*
X153964738Y-55519000D01*
X153601333Y-55591286D01*
X153259013Y-55733080D01*
X152950933Y-55938932D01*
X152688932Y-56200933D01*
X152483080Y-56509013D01*
X152341286Y-56851333D01*
X152269000Y-57214738D01*
X150439765Y-57214738D01*
X150506643Y-57147860D01*
X150592114Y-57019943D01*
X150650988Y-56877810D01*
X150681001Y-56726923D01*
X150681001Y-56573079D01*
X150650988Y-56422192D01*
X150592114Y-56280059D01*
X150506643Y-56152142D01*
X150397860Y-56043359D01*
X150269943Y-55957888D01*
X150127810Y-55899014D01*
X149976923Y-55869001D01*
X149823079Y-55869001D01*
X149672192Y-55899014D01*
X149530059Y-55957888D01*
X149402142Y-56043359D01*
X149293359Y-56152142D01*
X149207888Y-56280059D01*
X149149014Y-56422192D01*
X149119001Y-56573079D01*
X96120722Y-56573079D01*
X96105480Y-56550268D01*
X95989732Y-56434520D01*
X95853626Y-56343577D01*
X95702394Y-56280935D01*
X95541846Y-56249000D01*
X95378154Y-56249000D01*
X95217606Y-56280935D01*
X95066374Y-56343577D01*
X94930268Y-56434520D01*
X94814520Y-56550268D01*
X94723577Y-56686374D01*
X94660935Y-56837606D01*
X94629000Y-56998154D01*
X89906000Y-56998154D01*
X89906000Y-54906000D01*
X189094001Y-54906000D01*
X189094000Y-74094000D01*
%TA.AperFunction,Conductor*%
D17*
G36*
X189094000Y-74094000D02*
G01*
X160074568Y-74094000D01*
X160227310Y-74030732D01*
X160371605Y-73934318D01*
X160494318Y-73811605D01*
X160590732Y-73667310D01*
X160657144Y-73506978D01*
X160691000Y-73336771D01*
X160691000Y-73163229D01*
X160657144Y-72993022D01*
X160590732Y-72832690D01*
X160494318Y-72688395D01*
X160371605Y-72565682D01*
X160227310Y-72469268D01*
X160066978Y-72402856D01*
X159896771Y-72369000D01*
X159723229Y-72369000D01*
X159553022Y-72402856D01*
X159392690Y-72469268D01*
X159248395Y-72565682D01*
X159125682Y-72688395D01*
X159029268Y-72832690D01*
X158962856Y-72993022D01*
X158929000Y-73163229D01*
X158929000Y-73336771D01*
X158962856Y-73506978D01*
X159029268Y-73667310D01*
X159125682Y-73811605D01*
X159248395Y-73934318D01*
X159392690Y-74030732D01*
X159545432Y-74094000D01*
X156074568Y-74094000D01*
X156227310Y-74030732D01*
X156371605Y-73934318D01*
X156494318Y-73811605D01*
X156590732Y-73667310D01*
X156657144Y-73506978D01*
X156691000Y-73336771D01*
X156691000Y-73163229D01*
X156657144Y-72993022D01*
X156590732Y-72832690D01*
X156494318Y-72688395D01*
X156371605Y-72565682D01*
X156227310Y-72469268D01*
X156066978Y-72402856D01*
X155896771Y-72369000D01*
X155723229Y-72369000D01*
X155553022Y-72402856D01*
X155392690Y-72469268D01*
X155248395Y-72565682D01*
X155125682Y-72688395D01*
X155029268Y-72832690D01*
X154962856Y-72993022D01*
X154929000Y-73163229D01*
X154929000Y-73336771D01*
X154962856Y-73506978D01*
X155029268Y-73667310D01*
X155125682Y-73811605D01*
X155248395Y-73934318D01*
X155392690Y-74030732D01*
X155545432Y-74094000D01*
X154074568Y-74094000D01*
X154227310Y-74030732D01*
X154371605Y-73934318D01*
X154494318Y-73811605D01*
X154590732Y-73667310D01*
X154657144Y-73506978D01*
X154691000Y-73336771D01*
X154691000Y-73163229D01*
X154657144Y-72993022D01*
X154590732Y-72832690D01*
X154494318Y-72688395D01*
X154371605Y-72565682D01*
X154227310Y-72469268D01*
X154066978Y-72402856D01*
X153896771Y-72369000D01*
X153723229Y-72369000D01*
X153553022Y-72402856D01*
X153392690Y-72469268D01*
X153248395Y-72565682D01*
X153125682Y-72688395D01*
X153029268Y-72832690D01*
X152962856Y-72993022D01*
X152929000Y-73163229D01*
X152929000Y-73336771D01*
X152962856Y-73506978D01*
X153029268Y-73667310D01*
X153125682Y-73811605D01*
X153248395Y-73934318D01*
X153392690Y-74030732D01*
X153545432Y-74094000D01*
X152074568Y-74094000D01*
X152227310Y-74030732D01*
X152371605Y-73934318D01*
X152494318Y-73811605D01*
X152590732Y-73667310D01*
X152657144Y-73506978D01*
X152691000Y-73336771D01*
X152691000Y-73163229D01*
X152657144Y-72993022D01*
X152590732Y-72832690D01*
X152494318Y-72688395D01*
X152371605Y-72565682D01*
X152227310Y-72469268D01*
X152066978Y-72402856D01*
X151896771Y-72369000D01*
X151723229Y-72369000D01*
X151553022Y-72402856D01*
X151392690Y-72469268D01*
X151248395Y-72565682D01*
X151125682Y-72688395D01*
X151029268Y-72832690D01*
X150962856Y-72993022D01*
X150929000Y-73163229D01*
X150929000Y-73336771D01*
X150962856Y-73506978D01*
X151029268Y-73667310D01*
X151125682Y-73811605D01*
X151248395Y-73934318D01*
X151392690Y-74030732D01*
X151545432Y-74094000D01*
X146074568Y-74094000D01*
X146227310Y-74030732D01*
X146371605Y-73934318D01*
X146494318Y-73811605D01*
X146590732Y-73667310D01*
X146657144Y-73506978D01*
X146691000Y-73336771D01*
X146691000Y-73163229D01*
X146657144Y-72993022D01*
X146590732Y-72832690D01*
X146494318Y-72688395D01*
X146371605Y-72565682D01*
X146227310Y-72469268D01*
X146066978Y-72402856D01*
X145896771Y-72369000D01*
X145723229Y-72369000D01*
X145553022Y-72402856D01*
X145392690Y-72469268D01*
X145248395Y-72565682D01*
X145125682Y-72688395D01*
X145029268Y-72832690D01*
X144962856Y-72993022D01*
X144929000Y-73163229D01*
X144929000Y-73336771D01*
X144962856Y-73506978D01*
X145029268Y-73667310D01*
X145125682Y-73811605D01*
X145248395Y-73934318D01*
X145392690Y-74030732D01*
X145545432Y-74094000D01*
X144074568Y-74094000D01*
X144227310Y-74030732D01*
X144371605Y-73934318D01*
X144494318Y-73811605D01*
X144590732Y-73667310D01*
X144657144Y-73506978D01*
X144691000Y-73336771D01*
X144691000Y-73163229D01*
X144657144Y-72993022D01*
X144590732Y-72832690D01*
X144494318Y-72688395D01*
X144371605Y-72565682D01*
X144227310Y-72469268D01*
X144066978Y-72402856D01*
X143896771Y-72369000D01*
X143723229Y-72369000D01*
X143553022Y-72402856D01*
X143392690Y-72469268D01*
X143248395Y-72565682D01*
X143125682Y-72688395D01*
X143029268Y-72832690D01*
X142962856Y-72993022D01*
X142929000Y-73163229D01*
X142929000Y-73336771D01*
X142962856Y-73506978D01*
X143029268Y-73667310D01*
X143125682Y-73811605D01*
X143248395Y-73934318D01*
X143392690Y-74030732D01*
X143545432Y-74094000D01*
X138074568Y-74094000D01*
X138227310Y-74030732D01*
X138371605Y-73934318D01*
X138494318Y-73811605D01*
X138590732Y-73667310D01*
X138657144Y-73506978D01*
X138691000Y-73336771D01*
X138691000Y-73163229D01*
X138657144Y-72993022D01*
X138590732Y-72832690D01*
X138494318Y-72688395D01*
X138371605Y-72565682D01*
X138227310Y-72469268D01*
X138066978Y-72402856D01*
X137896771Y-72369000D01*
X137723229Y-72369000D01*
X137553022Y-72402856D01*
X137392690Y-72469268D01*
X137248395Y-72565682D01*
X137125682Y-72688395D01*
X137029268Y-72832690D01*
X136962856Y-72993022D01*
X136929000Y-73163229D01*
X136929000Y-73336771D01*
X136962856Y-73506978D01*
X137029268Y-73667310D01*
X137125682Y-73811605D01*
X137248395Y-73934318D01*
X137392690Y-74030732D01*
X137545432Y-74094000D01*
X134074568Y-74094000D01*
X134227310Y-74030732D01*
X134371605Y-73934318D01*
X134494318Y-73811605D01*
X134590732Y-73667310D01*
X134657144Y-73506978D01*
X134691000Y-73336771D01*
X134691000Y-73163229D01*
X134657144Y-72993022D01*
X134590732Y-72832690D01*
X134494318Y-72688395D01*
X134371605Y-72565682D01*
X134227310Y-72469268D01*
X134066978Y-72402856D01*
X133896771Y-72369000D01*
X133723229Y-72369000D01*
X133553022Y-72402856D01*
X133392690Y-72469268D01*
X133248395Y-72565682D01*
X133125682Y-72688395D01*
X133029268Y-72832690D01*
X132962856Y-72993022D01*
X132929000Y-73163229D01*
X132929000Y-73336771D01*
X132962856Y-73506978D01*
X133029268Y-73667310D01*
X133125682Y-73811605D01*
X133248395Y-73934318D01*
X133392690Y-74030732D01*
X133545432Y-74094000D01*
X130074568Y-74094000D01*
X130227310Y-74030732D01*
X130371605Y-73934318D01*
X130494318Y-73811605D01*
X130590732Y-73667310D01*
X130657144Y-73506978D01*
X130691000Y-73336771D01*
X130691000Y-73163229D01*
X130657144Y-72993022D01*
X130590732Y-72832690D01*
X130494318Y-72688395D01*
X130371605Y-72565682D01*
X130227310Y-72469268D01*
X130066978Y-72402856D01*
X129896771Y-72369000D01*
X129723229Y-72369000D01*
X129553022Y-72402856D01*
X129392690Y-72469268D01*
X129248395Y-72565682D01*
X129125682Y-72688395D01*
X129029268Y-72832690D01*
X128962856Y-72993022D01*
X128929000Y-73163229D01*
X128929000Y-73336771D01*
X128962856Y-73506978D01*
X129029268Y-73667310D01*
X129125682Y-73811605D01*
X129248395Y-73934318D01*
X129392690Y-74030732D01*
X129545432Y-74094000D01*
X128074568Y-74094000D01*
X128227310Y-74030732D01*
X128371605Y-73934318D01*
X128494318Y-73811605D01*
X128590732Y-73667310D01*
X128657144Y-73506978D01*
X128691000Y-73336771D01*
X128691000Y-73163229D01*
X128657144Y-72993022D01*
X128590732Y-72832690D01*
X128494318Y-72688395D01*
X128371605Y-72565682D01*
X128227310Y-72469268D01*
X128066978Y-72402856D01*
X127896771Y-72369000D01*
X127723229Y-72369000D01*
X127553022Y-72402856D01*
X127392690Y-72469268D01*
X127248395Y-72565682D01*
X127125682Y-72688395D01*
X127029268Y-72832690D01*
X126962856Y-72993022D01*
X126929000Y-73163229D01*
X126929000Y-73336771D01*
X126962856Y-73506978D01*
X127029268Y-73667310D01*
X127125682Y-73811605D01*
X127248395Y-73934318D01*
X127392690Y-74030732D01*
X127545432Y-74094000D01*
X124074568Y-74094000D01*
X124227310Y-74030732D01*
X124371605Y-73934318D01*
X124494318Y-73811605D01*
X124590732Y-73667310D01*
X124657144Y-73506978D01*
X124691000Y-73336771D01*
X124691000Y-73163229D01*
X124657144Y-72993022D01*
X124590732Y-72832690D01*
X124494318Y-72688395D01*
X124371605Y-72565682D01*
X124227310Y-72469268D01*
X124066978Y-72402856D01*
X123896771Y-72369000D01*
X123723229Y-72369000D01*
X123553022Y-72402856D01*
X123392690Y-72469268D01*
X123248395Y-72565682D01*
X123125682Y-72688395D01*
X123029268Y-72832690D01*
X122962856Y-72993022D01*
X122929000Y-73163229D01*
X122929000Y-73336771D01*
X122962856Y-73506978D01*
X123029268Y-73667310D01*
X123125682Y-73811605D01*
X123248395Y-73934318D01*
X123392690Y-74030732D01*
X123545432Y-74094000D01*
X120074568Y-74094000D01*
X120227310Y-74030732D01*
X120371605Y-73934318D01*
X120494318Y-73811605D01*
X120590732Y-73667310D01*
X120657144Y-73506978D01*
X120691000Y-73336771D01*
X120691000Y-73163229D01*
X120657144Y-72993022D01*
X120590732Y-72832690D01*
X120494318Y-72688395D01*
X120371605Y-72565682D01*
X120227310Y-72469268D01*
X120066978Y-72402856D01*
X119896771Y-72369000D01*
X119723229Y-72369000D01*
X119553022Y-72402856D01*
X119392690Y-72469268D01*
X119248395Y-72565682D01*
X119125682Y-72688395D01*
X119029268Y-72832690D01*
X118962856Y-72993022D01*
X118929000Y-73163229D01*
X118929000Y-73336771D01*
X118962856Y-73506978D01*
X119029268Y-73667310D01*
X119125682Y-73811605D01*
X119248395Y-73934318D01*
X119392690Y-74030732D01*
X119545432Y-74094000D01*
X116074568Y-74094000D01*
X116227310Y-74030732D01*
X116371605Y-73934318D01*
X116494318Y-73811605D01*
X116590732Y-73667310D01*
X116657144Y-73506978D01*
X116691000Y-73336771D01*
X116691000Y-73163229D01*
X116657144Y-72993022D01*
X116590732Y-72832690D01*
X116494318Y-72688395D01*
X116371605Y-72565682D01*
X116227310Y-72469268D01*
X116066978Y-72402856D01*
X115896771Y-72369000D01*
X115723229Y-72369000D01*
X115553022Y-72402856D01*
X115392690Y-72469268D01*
X115248395Y-72565682D01*
X115125682Y-72688395D01*
X115029268Y-72832690D01*
X114962856Y-72993022D01*
X114929000Y-73163229D01*
X114929000Y-73336771D01*
X114962856Y-73506978D01*
X115029268Y-73667310D01*
X115125682Y-73811605D01*
X115248395Y-73934318D01*
X115392690Y-74030732D01*
X115545432Y-74094000D01*
X112074568Y-74094000D01*
X112227310Y-74030732D01*
X112371605Y-73934318D01*
X112494318Y-73811605D01*
X112590732Y-73667310D01*
X112657144Y-73506978D01*
X112691000Y-73336771D01*
X112691000Y-73163229D01*
X112657144Y-72993022D01*
X112590732Y-72832690D01*
X112494318Y-72688395D01*
X112371605Y-72565682D01*
X112227310Y-72469268D01*
X112066978Y-72402856D01*
X111896771Y-72369000D01*
X111723229Y-72369000D01*
X111553022Y-72402856D01*
X111392690Y-72469268D01*
X111248395Y-72565682D01*
X111125682Y-72688395D01*
X111029268Y-72832690D01*
X110962856Y-72993022D01*
X110929000Y-73163229D01*
X110929000Y-73336771D01*
X110962856Y-73506978D01*
X111029268Y-73667310D01*
X111125682Y-73811605D01*
X111248395Y-73934318D01*
X111392690Y-74030732D01*
X111545432Y-74094000D01*
X89906000Y-74094000D01*
X89906000Y-69799964D01*
X101719000Y-69799964D01*
X101719000Y-70200036D01*
X101797050Y-70592421D01*
X101950151Y-70962039D01*
X102172419Y-71294687D01*
X102455313Y-71577581D01*
X102787961Y-71799849D01*
X103157579Y-71952950D01*
X103549964Y-72031000D01*
X103950036Y-72031000D01*
X104342421Y-71952950D01*
X104712039Y-71799849D01*
X105044687Y-71577581D01*
X105327581Y-71294687D01*
X105549849Y-70962039D01*
X105702950Y-70592421D01*
X105781000Y-70200036D01*
X105781000Y-69846747D01*
X107444000Y-69846747D01*
X107444000Y-70153253D01*
X107503796Y-70453869D01*
X107621091Y-70737042D01*
X107791376Y-70991892D01*
X108008108Y-71208624D01*
X108262958Y-71378909D01*
X108546131Y-71496204D01*
X108846747Y-71556000D01*
X109153253Y-71556000D01*
X109453869Y-71496204D01*
X109737042Y-71378909D01*
X109991892Y-71208624D01*
X110037287Y-71163229D01*
X111929000Y-71163229D01*
X111929000Y-71336771D01*
X111962856Y-71506978D01*
X112029268Y-71667310D01*
X112125682Y-71811605D01*
X112248395Y-71934318D01*
X112392690Y-72030732D01*
X112553022Y-72097144D01*
X112723229Y-72131000D01*
X112896771Y-72131000D01*
X113066978Y-72097144D01*
X113227310Y-72030732D01*
X113371605Y-71934318D01*
X113494318Y-71811605D01*
X113590732Y-71667310D01*
X113657144Y-71506978D01*
X113691000Y-71336771D01*
X113691000Y-71163229D01*
X115929000Y-71163229D01*
X115929000Y-71336771D01*
X115962856Y-71506978D01*
X116029268Y-71667310D01*
X116125682Y-71811605D01*
X116248395Y-71934318D01*
X116392690Y-72030732D01*
X116553022Y-72097144D01*
X116723229Y-72131000D01*
X116896771Y-72131000D01*
X117066978Y-72097144D01*
X117227310Y-72030732D01*
X117371605Y-71934318D01*
X117494318Y-71811605D01*
X117590732Y-71667310D01*
X117657144Y-71506978D01*
X117691000Y-71336771D01*
X117691000Y-71163229D01*
X119929000Y-71163229D01*
X119929000Y-71336771D01*
X119962856Y-71506978D01*
X120029268Y-71667310D01*
X120125682Y-71811605D01*
X120248395Y-71934318D01*
X120392690Y-72030732D01*
X120553022Y-72097144D01*
X120723229Y-72131000D01*
X120896771Y-72131000D01*
X121066978Y-72097144D01*
X121227310Y-72030732D01*
X121371605Y-71934318D01*
X121494318Y-71811605D01*
X121590732Y-71667310D01*
X121657144Y-71506978D01*
X121691000Y-71336771D01*
X121691000Y-71163229D01*
X123929000Y-71163229D01*
X123929000Y-71336771D01*
X123962856Y-71506978D01*
X124029268Y-71667310D01*
X124125682Y-71811605D01*
X124248395Y-71934318D01*
X124392690Y-72030732D01*
X124553022Y-72097144D01*
X124723229Y-72131000D01*
X124896771Y-72131000D01*
X125066978Y-72097144D01*
X125227310Y-72030732D01*
X125371605Y-71934318D01*
X125494318Y-71811605D01*
X125590732Y-71667310D01*
X125657144Y-71506978D01*
X125691000Y-71336771D01*
X125691000Y-71163229D01*
X125929000Y-71163229D01*
X125929000Y-71336771D01*
X125962856Y-71506978D01*
X126029268Y-71667310D01*
X126125682Y-71811605D01*
X126248395Y-71934318D01*
X126392690Y-72030732D01*
X126553022Y-72097144D01*
X126723229Y-72131000D01*
X126896771Y-72131000D01*
X127066978Y-72097144D01*
X127227310Y-72030732D01*
X127371605Y-71934318D01*
X127494318Y-71811605D01*
X127590732Y-71667310D01*
X127657144Y-71506978D01*
X127691000Y-71336771D01*
X127691000Y-71163229D01*
X129929000Y-71163229D01*
X129929000Y-71336771D01*
X129962856Y-71506978D01*
X130029268Y-71667310D01*
X130125682Y-71811605D01*
X130248395Y-71934318D01*
X130392690Y-72030732D01*
X130553022Y-72097144D01*
X130723229Y-72131000D01*
X130896771Y-72131000D01*
X131066978Y-72097144D01*
X131227310Y-72030732D01*
X131371605Y-71934318D01*
X131494318Y-71811605D01*
X131590732Y-71667310D01*
X131657144Y-71506978D01*
X131691000Y-71336771D01*
X131691000Y-71163229D01*
X133929000Y-71163229D01*
X133929000Y-71336771D01*
X133962856Y-71506978D01*
X134029268Y-71667310D01*
X134125682Y-71811605D01*
X134248395Y-71934318D01*
X134392690Y-72030732D01*
X134553022Y-72097144D01*
X134723229Y-72131000D01*
X134896771Y-72131000D01*
X135066978Y-72097144D01*
X135227310Y-72030732D01*
X135371605Y-71934318D01*
X135494318Y-71811605D01*
X135590732Y-71667310D01*
X135657144Y-71506978D01*
X135691000Y-71336771D01*
X135691000Y-71163229D01*
X137929000Y-71163229D01*
X137929000Y-71336771D01*
X137962856Y-71506978D01*
X138029268Y-71667310D01*
X138125682Y-71811605D01*
X138248395Y-71934318D01*
X138392690Y-72030732D01*
X138553022Y-72097144D01*
X138723229Y-72131000D01*
X138896771Y-72131000D01*
X139066978Y-72097144D01*
X139227310Y-72030732D01*
X139371605Y-71934318D01*
X139494318Y-71811605D01*
X139590732Y-71667310D01*
X139657144Y-71506978D01*
X139691000Y-71336771D01*
X139691000Y-71163229D01*
X139929000Y-71163229D01*
X139929000Y-71336771D01*
X139962856Y-71506978D01*
X140029268Y-71667310D01*
X140125682Y-71811605D01*
X140248395Y-71934318D01*
X140392690Y-72030732D01*
X140553022Y-72097144D01*
X140723229Y-72131000D01*
X140896771Y-72131000D01*
X141066978Y-72097144D01*
X141227310Y-72030732D01*
X141371605Y-71934318D01*
X141494318Y-71811605D01*
X141590732Y-71667310D01*
X141657144Y-71506978D01*
X141691000Y-71336771D01*
X141691000Y-71163229D01*
X141929000Y-71163229D01*
X141929000Y-71336771D01*
X141962856Y-71506978D01*
X142029268Y-71667310D01*
X142125682Y-71811605D01*
X142248395Y-71934318D01*
X142392690Y-72030732D01*
X142553022Y-72097144D01*
X142723229Y-72131000D01*
X142896771Y-72131000D01*
X143066978Y-72097144D01*
X143227310Y-72030732D01*
X143371605Y-71934318D01*
X143494318Y-71811605D01*
X143590732Y-71667310D01*
X143657144Y-71506978D01*
X143691000Y-71336771D01*
X143691000Y-71163229D01*
X145929000Y-71163229D01*
X145929000Y-71336771D01*
X145962856Y-71506978D01*
X146029268Y-71667310D01*
X146125682Y-71811605D01*
X146248395Y-71934318D01*
X146392690Y-72030732D01*
X146553022Y-72097144D01*
X146723229Y-72131000D01*
X146896771Y-72131000D01*
X147066978Y-72097144D01*
X147227310Y-72030732D01*
X147371605Y-71934318D01*
X147494318Y-71811605D01*
X147590732Y-71667310D01*
X147657144Y-71506978D01*
X147691000Y-71336771D01*
X147691000Y-71163229D01*
X147657144Y-70993022D01*
X147590732Y-70832690D01*
X147494318Y-70688395D01*
X147371605Y-70565682D01*
X147227310Y-70469268D01*
X147066978Y-70402856D01*
X146896771Y-70369000D01*
X146723229Y-70369000D01*
X146553022Y-70402856D01*
X146392690Y-70469268D01*
X146248395Y-70565682D01*
X146125682Y-70688395D01*
X146029268Y-70832690D01*
X145962856Y-70993022D01*
X145929000Y-71163229D01*
X143691000Y-71163229D01*
X143657144Y-70993022D01*
X143590732Y-70832690D01*
X143494318Y-70688395D01*
X143371605Y-70565682D01*
X143227310Y-70469268D01*
X143066978Y-70402856D01*
X142896771Y-70369000D01*
X142723229Y-70369000D01*
X142553022Y-70402856D01*
X142392690Y-70469268D01*
X142248395Y-70565682D01*
X142125682Y-70688395D01*
X142029268Y-70832690D01*
X141962856Y-70993022D01*
X141929000Y-71163229D01*
X141691000Y-71163229D01*
X141657144Y-70993022D01*
X141590732Y-70832690D01*
X141494318Y-70688395D01*
X141371605Y-70565682D01*
X141227310Y-70469268D01*
X141066978Y-70402856D01*
X140896771Y-70369000D01*
X140723229Y-70369000D01*
X140553022Y-70402856D01*
X140392690Y-70469268D01*
X140248395Y-70565682D01*
X140125682Y-70688395D01*
X140029268Y-70832690D01*
X139962856Y-70993022D01*
X139929000Y-71163229D01*
X139691000Y-71163229D01*
X139657144Y-70993022D01*
X139590732Y-70832690D01*
X139494318Y-70688395D01*
X139371605Y-70565682D01*
X139227310Y-70469268D01*
X139066978Y-70402856D01*
X138896771Y-70369000D01*
X138723229Y-70369000D01*
X138553022Y-70402856D01*
X138392690Y-70469268D01*
X138248395Y-70565682D01*
X138125682Y-70688395D01*
X138029268Y-70832690D01*
X137962856Y-70993022D01*
X137929000Y-71163229D01*
X135691000Y-71163229D01*
X135657144Y-70993022D01*
X135590732Y-70832690D01*
X135494318Y-70688395D01*
X135371605Y-70565682D01*
X135227310Y-70469268D01*
X135066978Y-70402856D01*
X134896771Y-70369000D01*
X134723229Y-70369000D01*
X134553022Y-70402856D01*
X134392690Y-70469268D01*
X134248395Y-70565682D01*
X134125682Y-70688395D01*
X134029268Y-70832690D01*
X133962856Y-70993022D01*
X133929000Y-71163229D01*
X131691000Y-71163229D01*
X131657144Y-70993022D01*
X131590732Y-70832690D01*
X131494318Y-70688395D01*
X131371605Y-70565682D01*
X131227310Y-70469268D01*
X131066978Y-70402856D01*
X130896771Y-70369000D01*
X130723229Y-70369000D01*
X130553022Y-70402856D01*
X130392690Y-70469268D01*
X130248395Y-70565682D01*
X130125682Y-70688395D01*
X130029268Y-70832690D01*
X129962856Y-70993022D01*
X129929000Y-71163229D01*
X127691000Y-71163229D01*
X127657144Y-70993022D01*
X127590732Y-70832690D01*
X127494318Y-70688395D01*
X127371605Y-70565682D01*
X127227310Y-70469268D01*
X127066978Y-70402856D01*
X126896771Y-70369000D01*
X126723229Y-70369000D01*
X126553022Y-70402856D01*
X126392690Y-70469268D01*
X126248395Y-70565682D01*
X126125682Y-70688395D01*
X126029268Y-70832690D01*
X125962856Y-70993022D01*
X125929000Y-71163229D01*
X125691000Y-71163229D01*
X125657144Y-70993022D01*
X125590732Y-70832690D01*
X125494318Y-70688395D01*
X125371605Y-70565682D01*
X125227310Y-70469268D01*
X125066978Y-70402856D01*
X124896771Y-70369000D01*
X124723229Y-70369000D01*
X124553022Y-70402856D01*
X124392690Y-70469268D01*
X124248395Y-70565682D01*
X124125682Y-70688395D01*
X124029268Y-70832690D01*
X123962856Y-70993022D01*
X123929000Y-71163229D01*
X121691000Y-71163229D01*
X121657144Y-70993022D01*
X121590732Y-70832690D01*
X121494318Y-70688395D01*
X121371605Y-70565682D01*
X121227310Y-70469268D01*
X121066978Y-70402856D01*
X120896771Y-70369000D01*
X120723229Y-70369000D01*
X120553022Y-70402856D01*
X120392690Y-70469268D01*
X120248395Y-70565682D01*
X120125682Y-70688395D01*
X120029268Y-70832690D01*
X119962856Y-70993022D01*
X119929000Y-71163229D01*
X117691000Y-71163229D01*
X117657144Y-70993022D01*
X117590732Y-70832690D01*
X117494318Y-70688395D01*
X117371605Y-70565682D01*
X117227310Y-70469268D01*
X117066978Y-70402856D01*
X116896771Y-70369000D01*
X116723229Y-70369000D01*
X116553022Y-70402856D01*
X116392690Y-70469268D01*
X116248395Y-70565682D01*
X116125682Y-70688395D01*
X116029268Y-70832690D01*
X115962856Y-70993022D01*
X115929000Y-71163229D01*
X113691000Y-71163229D01*
X113657144Y-70993022D01*
X113590732Y-70832690D01*
X113494318Y-70688395D01*
X113371605Y-70565682D01*
X113227310Y-70469268D01*
X113066978Y-70402856D01*
X112896771Y-70369000D01*
X112723229Y-70369000D01*
X112553022Y-70402856D01*
X112392690Y-70469268D01*
X112248395Y-70565682D01*
X112125682Y-70688395D01*
X112029268Y-70832690D01*
X111962856Y-70993022D01*
X111929000Y-71163229D01*
X110037287Y-71163229D01*
X110208624Y-70991892D01*
X110378909Y-70737042D01*
X110496204Y-70453869D01*
X110556000Y-70153253D01*
X110556000Y-69846747D01*
X147604000Y-69846747D01*
X147604000Y-70153253D01*
X147663796Y-70453869D01*
X147781091Y-70737042D01*
X147951376Y-70991892D01*
X148168108Y-71208624D01*
X148422958Y-71378909D01*
X148706131Y-71496204D01*
X149006747Y-71556000D01*
X149313253Y-71556000D01*
X149613869Y-71496204D01*
X149897042Y-71378909D01*
X149932649Y-71355117D01*
X149962856Y-71506978D01*
X150029268Y-71667310D01*
X150125682Y-71811605D01*
X150248395Y-71934318D01*
X150392690Y-72030732D01*
X150553022Y-72097144D01*
X150723229Y-72131000D01*
X150896771Y-72131000D01*
X151066978Y-72097144D01*
X151227310Y-72030732D01*
X151371605Y-71934318D01*
X151494318Y-71811605D01*
X151590732Y-71667310D01*
X151657144Y-71506978D01*
X151691000Y-71336771D01*
X151691000Y-71163229D01*
X151929000Y-71163229D01*
X151929000Y-71336771D01*
X151962856Y-71506978D01*
X152029268Y-71667310D01*
X152125682Y-71811605D01*
X152248395Y-71934318D01*
X152392690Y-72030732D01*
X152553022Y-72097144D01*
X152723229Y-72131000D01*
X152896771Y-72131000D01*
X153066978Y-72097144D01*
X153227310Y-72030732D01*
X153371605Y-71934318D01*
X153494318Y-71811605D01*
X153590732Y-71667310D01*
X153657144Y-71506978D01*
X153691000Y-71336771D01*
X153691000Y-71163229D01*
X153929000Y-71163229D01*
X153929000Y-71336771D01*
X153962856Y-71506978D01*
X154029268Y-71667310D01*
X154125682Y-71811605D01*
X154248395Y-71934318D01*
X154392690Y-72030732D01*
X154553022Y-72097144D01*
X154723229Y-72131000D01*
X154896771Y-72131000D01*
X155066978Y-72097144D01*
X155227310Y-72030732D01*
X155371605Y-71934318D01*
X155494318Y-71811605D01*
X155590732Y-71667310D01*
X155657144Y-71506978D01*
X155691000Y-71336771D01*
X155691000Y-71163229D01*
X155929000Y-71163229D01*
X155929000Y-71336771D01*
X155962856Y-71506978D01*
X156029268Y-71667310D01*
X156125682Y-71811605D01*
X156248395Y-71934318D01*
X156392690Y-72030732D01*
X156553022Y-72097144D01*
X156723229Y-72131000D01*
X156896771Y-72131000D01*
X157066978Y-72097144D01*
X157227310Y-72030732D01*
X157371605Y-71934318D01*
X157494318Y-71811605D01*
X157590732Y-71667310D01*
X157657144Y-71506978D01*
X157691000Y-71336771D01*
X157691000Y-71163229D01*
X157929000Y-71163229D01*
X157929000Y-71336771D01*
X157962856Y-71506978D01*
X158029268Y-71667310D01*
X158125682Y-71811605D01*
X158248395Y-71934318D01*
X158392690Y-72030732D01*
X158553022Y-72097144D01*
X158723229Y-72131000D01*
X158896771Y-72131000D01*
X159066978Y-72097144D01*
X159227310Y-72030732D01*
X159371605Y-71934318D01*
X159494318Y-71811605D01*
X159590732Y-71667310D01*
X159657144Y-71506978D01*
X159691000Y-71336771D01*
X159691000Y-71163229D01*
X159929000Y-71163229D01*
X159929000Y-71336771D01*
X159962856Y-71506978D01*
X160029268Y-71667310D01*
X160125682Y-71811605D01*
X160248395Y-71934318D01*
X160392690Y-72030732D01*
X160553022Y-72097144D01*
X160723229Y-72131000D01*
X160896771Y-72131000D01*
X161066978Y-72097144D01*
X161227310Y-72030732D01*
X161371605Y-71934318D01*
X161494318Y-71811605D01*
X161590732Y-71667310D01*
X161657144Y-71506978D01*
X161691000Y-71336771D01*
X161691000Y-71173078D01*
X164618994Y-71173078D01*
X164618994Y-71326922D01*
X164649007Y-71477809D01*
X164707881Y-71619942D01*
X164793352Y-71747859D01*
X164902135Y-71856642D01*
X165030052Y-71942113D01*
X165169805Y-72000001D01*
X165030058Y-72057887D01*
X164902141Y-72143358D01*
X164793358Y-72252141D01*
X164707887Y-72380058D01*
X164649013Y-72522191D01*
X164619000Y-72673078D01*
X164619000Y-72826922D01*
X164649013Y-72977809D01*
X164707887Y-73119942D01*
X164793358Y-73247859D01*
X164902141Y-73356642D01*
X165030058Y-73442113D01*
X165172191Y-73500987D01*
X165323078Y-73531000D01*
X165476922Y-73531000D01*
X165627809Y-73500987D01*
X165769942Y-73442113D01*
X165897859Y-73356642D01*
X166006642Y-73247859D01*
X166092113Y-73119942D01*
X166150987Y-72977809D01*
X166181000Y-72826922D01*
X166181000Y-72673078D01*
X166150987Y-72522191D01*
X166092113Y-72380058D01*
X166006642Y-72252141D01*
X165897859Y-72143358D01*
X165769942Y-72057887D01*
X165630189Y-71999999D01*
X165769936Y-71942113D01*
X165897853Y-71856642D01*
X166006636Y-71747859D01*
X166092107Y-71619942D01*
X166150981Y-71477809D01*
X166180994Y-71326922D01*
X166180994Y-71173078D01*
X166150981Y-71022191D01*
X166092107Y-70880058D01*
X166018690Y-70770182D01*
X166073078Y-70781000D01*
X166226922Y-70781000D01*
X166377809Y-70750987D01*
X166519942Y-70692113D01*
X166647859Y-70606642D01*
X166756642Y-70497859D01*
X166842113Y-70369942D01*
X166900000Y-70230192D01*
X166957887Y-70369942D01*
X167043358Y-70497859D01*
X167152141Y-70606642D01*
X167280058Y-70692113D01*
X167422191Y-70750987D01*
X167573078Y-70781000D01*
X167726922Y-70781000D01*
X167877809Y-70750987D01*
X168019942Y-70692113D01*
X168147859Y-70606642D01*
X168256642Y-70497859D01*
X168342113Y-70369942D01*
X168400000Y-70230192D01*
X168457887Y-70369942D01*
X168543358Y-70497859D01*
X168652141Y-70606642D01*
X168780058Y-70692113D01*
X168922191Y-70750987D01*
X169073078Y-70781000D01*
X169226922Y-70781000D01*
X169281303Y-70770183D01*
X169207887Y-70880058D01*
X169149013Y-71022191D01*
X169119000Y-71173078D01*
X169119000Y-71326922D01*
X169149013Y-71477809D01*
X169207887Y-71619942D01*
X169293358Y-71747859D01*
X169402141Y-71856642D01*
X169530058Y-71942113D01*
X169669808Y-72000000D01*
X169530058Y-72057887D01*
X169402141Y-72143358D01*
X169293358Y-72252141D01*
X169207887Y-72380058D01*
X169149013Y-72522191D01*
X169119000Y-72673078D01*
X169119000Y-72826922D01*
X169149013Y-72977809D01*
X169207887Y-73119942D01*
X169293358Y-73247859D01*
X169402141Y-73356642D01*
X169530058Y-73442113D01*
X169672191Y-73500987D01*
X169823078Y-73531000D01*
X169976922Y-73531000D01*
X170127809Y-73500987D01*
X170269942Y-73442113D01*
X170397859Y-73356642D01*
X170506642Y-73247859D01*
X170592113Y-73119942D01*
X170650987Y-72977809D01*
X170681000Y-72826922D01*
X170681000Y-72673078D01*
X170650987Y-72522191D01*
X170592113Y-72380058D01*
X170506642Y-72252141D01*
X170397859Y-72143358D01*
X170269942Y-72057887D01*
X170130192Y-72000000D01*
X170269942Y-71942113D01*
X170397859Y-71856642D01*
X170506642Y-71747859D01*
X170592113Y-71619942D01*
X170650987Y-71477809D01*
X170681000Y-71326922D01*
X170681000Y-71173078D01*
X171369000Y-71173078D01*
X171369000Y-71326922D01*
X171399013Y-71477809D01*
X171457887Y-71619942D01*
X171543358Y-71747859D01*
X171652141Y-71856642D01*
X171780058Y-71942113D01*
X171922191Y-72000987D01*
X172073078Y-72031000D01*
X172226922Y-72031000D01*
X172377809Y-72000987D01*
X172519942Y-71942113D01*
X172647859Y-71856642D01*
X172756642Y-71747859D01*
X172842113Y-71619942D01*
X172900987Y-71477809D01*
X172931000Y-71326922D01*
X172931000Y-71173078D01*
X173369000Y-71173078D01*
X173369000Y-71326922D01*
X173399013Y-71477809D01*
X173457887Y-71619942D01*
X173543358Y-71747859D01*
X173652141Y-71856642D01*
X173780058Y-71942113D01*
X173922191Y-72000987D01*
X174073078Y-72031000D01*
X174226922Y-72031000D01*
X174377809Y-72000987D01*
X174519942Y-71942113D01*
X174647859Y-71856642D01*
X174756642Y-71747859D01*
X174842113Y-71619942D01*
X174900000Y-71480192D01*
X174957887Y-71619942D01*
X175043358Y-71747859D01*
X175152141Y-71856642D01*
X175280058Y-71942113D01*
X175422191Y-72000987D01*
X175573078Y-72031000D01*
X175726922Y-72031000D01*
X175877809Y-72000987D01*
X176019942Y-71942113D01*
X176147859Y-71856642D01*
X176256642Y-71747859D01*
X176342113Y-71619942D01*
X176400987Y-71477809D01*
X176431000Y-71326922D01*
X176431000Y-71173078D01*
X176869000Y-71173078D01*
X176869000Y-71326922D01*
X176899013Y-71477809D01*
X176957887Y-71619942D01*
X177043358Y-71747859D01*
X177152141Y-71856642D01*
X177280058Y-71942113D01*
X177422191Y-72000987D01*
X177573078Y-72031000D01*
X177726922Y-72031000D01*
X177877809Y-72000987D01*
X178019942Y-71942113D01*
X178147859Y-71856642D01*
X178256642Y-71747859D01*
X178342113Y-71619942D01*
X178400000Y-71480192D01*
X178457887Y-71619942D01*
X178543358Y-71747859D01*
X178652141Y-71856642D01*
X178780058Y-71942113D01*
X178922191Y-72000987D01*
X179073078Y-72031000D01*
X179226922Y-72031000D01*
X179377809Y-72000987D01*
X179519942Y-71942113D01*
X179647859Y-71856642D01*
X179756642Y-71747859D01*
X179842113Y-71619942D01*
X179900987Y-71477809D01*
X179931000Y-71326922D01*
X179931000Y-71173078D01*
X180369000Y-71173078D01*
X180369000Y-71326922D01*
X180399013Y-71477809D01*
X180457887Y-71619942D01*
X180543358Y-71747859D01*
X180652141Y-71856642D01*
X180780058Y-71942113D01*
X180922191Y-72000987D01*
X181073078Y-72031000D01*
X181226922Y-72031000D01*
X181377809Y-72000987D01*
X181519942Y-71942113D01*
X181647859Y-71856642D01*
X181756642Y-71747859D01*
X181842113Y-71619942D01*
X181900987Y-71477809D01*
X181931000Y-71326922D01*
X181931000Y-71173078D01*
X181900987Y-71022191D01*
X181842113Y-70880058D01*
X181756642Y-70752141D01*
X181647859Y-70643358D01*
X181519942Y-70557887D01*
X181377809Y-70499013D01*
X181226922Y-70469000D01*
X181073078Y-70469000D01*
X180922191Y-70499013D01*
X180780058Y-70557887D01*
X180652141Y-70643358D01*
X180543358Y-70752141D01*
X180457887Y-70880058D01*
X180399013Y-71022191D01*
X180369000Y-71173078D01*
X179931000Y-71173078D01*
X179900987Y-71022191D01*
X179842113Y-70880058D01*
X179756642Y-70752141D01*
X179647859Y-70643358D01*
X179519942Y-70557887D01*
X179377809Y-70499013D01*
X179226922Y-70469000D01*
X179073078Y-70469000D01*
X178922191Y-70499013D01*
X178780058Y-70557887D01*
X178652141Y-70643358D01*
X178543358Y-70752141D01*
X178457887Y-70880058D01*
X178400000Y-71019808D01*
X178342113Y-70880058D01*
X178256642Y-70752141D01*
X178147859Y-70643358D01*
X178019942Y-70557887D01*
X177877809Y-70499013D01*
X177726922Y-70469000D01*
X177573078Y-70469000D01*
X177422191Y-70499013D01*
X177280058Y-70557887D01*
X177152141Y-70643358D01*
X177043358Y-70752141D01*
X176957887Y-70880058D01*
X176899013Y-71022191D01*
X176869000Y-71173078D01*
X176431000Y-71173078D01*
X176400987Y-71022191D01*
X176342113Y-70880058D01*
X176256642Y-70752141D01*
X176147859Y-70643358D01*
X176019942Y-70557887D01*
X175877809Y-70499013D01*
X175726922Y-70469000D01*
X175573078Y-70469000D01*
X175422191Y-70499013D01*
X175280058Y-70557887D01*
X175152141Y-70643358D01*
X175043358Y-70752141D01*
X174957887Y-70880058D01*
X174900000Y-71019808D01*
X174842113Y-70880058D01*
X174756642Y-70752141D01*
X174647859Y-70643358D01*
X174519942Y-70557887D01*
X174377809Y-70499013D01*
X174226922Y-70469000D01*
X174073078Y-70469000D01*
X173922191Y-70499013D01*
X173780058Y-70557887D01*
X173652141Y-70643358D01*
X173543358Y-70752141D01*
X173457887Y-70880058D01*
X173399013Y-71022191D01*
X173369000Y-71173078D01*
X172931000Y-71173078D01*
X172900987Y-71022191D01*
X172842113Y-70880058D01*
X172756642Y-70752141D01*
X172647859Y-70643358D01*
X172519942Y-70557887D01*
X172377809Y-70499013D01*
X172226922Y-70469000D01*
X172073078Y-70469000D01*
X171922191Y-70499013D01*
X171780058Y-70557887D01*
X171652141Y-70643358D01*
X171543358Y-70752141D01*
X171457887Y-70880058D01*
X171399013Y-71022191D01*
X171369000Y-71173078D01*
X170681000Y-71173078D01*
X170650987Y-71022191D01*
X170592113Y-70880058D01*
X170506642Y-70752141D01*
X170397859Y-70643358D01*
X170269942Y-70557887D01*
X170127809Y-70499013D01*
X169976922Y-70469000D01*
X169823078Y-70469000D01*
X169768697Y-70479817D01*
X169842113Y-70369942D01*
X169900987Y-70227809D01*
X169931000Y-70076922D01*
X169931000Y-69923078D01*
X169906512Y-69799964D01*
X183469000Y-69799964D01*
X183469000Y-70200036D01*
X183547050Y-70592421D01*
X183700151Y-70962039D01*
X183922419Y-71294687D01*
X184205313Y-71577581D01*
X184537961Y-71799849D01*
X184907579Y-71952950D01*
X185299964Y-72031000D01*
X185700036Y-72031000D01*
X186092421Y-71952950D01*
X186462039Y-71799849D01*
X186794687Y-71577581D01*
X187077581Y-71294687D01*
X187299849Y-70962039D01*
X187452950Y-70592421D01*
X187531000Y-70200036D01*
X187531000Y-69799964D01*
X187452950Y-69407579D01*
X187299849Y-69037961D01*
X187077581Y-68705313D01*
X186794687Y-68422419D01*
X186462039Y-68200151D01*
X186092421Y-68047050D01*
X185700036Y-67969000D01*
X185299964Y-67969000D01*
X184907579Y-68047050D01*
X184537961Y-68200151D01*
X184205313Y-68422419D01*
X183922419Y-68705313D01*
X183700151Y-69037961D01*
X183547050Y-69407579D01*
X183469000Y-69799964D01*
X169906512Y-69799964D01*
X169900987Y-69772191D01*
X169842113Y-69630058D01*
X169756642Y-69502141D01*
X169647859Y-69393358D01*
X169519942Y-69307887D01*
X169377809Y-69249013D01*
X169226922Y-69219000D01*
X169073078Y-69219000D01*
X168922191Y-69249013D01*
X168780058Y-69307887D01*
X168652141Y-69393358D01*
X168543358Y-69502141D01*
X168457887Y-69630058D01*
X168400000Y-69769808D01*
X168342113Y-69630058D01*
X168256642Y-69502141D01*
X168147859Y-69393358D01*
X168019942Y-69307887D01*
X167877809Y-69249013D01*
X167726922Y-69219000D01*
X167573078Y-69219000D01*
X167422191Y-69249013D01*
X167280058Y-69307887D01*
X167152141Y-69393358D01*
X167043358Y-69502141D01*
X166957887Y-69630058D01*
X166900000Y-69769808D01*
X166842113Y-69630058D01*
X166756642Y-69502141D01*
X166647859Y-69393358D01*
X166519942Y-69307887D01*
X166377809Y-69249013D01*
X166226922Y-69219000D01*
X166073078Y-69219000D01*
X165922191Y-69249013D01*
X165780058Y-69307887D01*
X165652141Y-69393358D01*
X165543358Y-69502141D01*
X165457887Y-69630058D01*
X165399013Y-69772191D01*
X165369000Y-69923078D01*
X165369000Y-70076922D01*
X165399013Y-70227809D01*
X165457887Y-70369942D01*
X165531304Y-70479818D01*
X165476916Y-70469000D01*
X165323072Y-70469000D01*
X165172185Y-70499013D01*
X165030052Y-70557887D01*
X164902135Y-70643358D01*
X164793352Y-70752141D01*
X164707881Y-70880058D01*
X164649007Y-71022191D01*
X164618994Y-71173078D01*
X161691000Y-71173078D01*
X161691000Y-71163229D01*
X161657144Y-70993022D01*
X161590732Y-70832690D01*
X161494318Y-70688395D01*
X161371605Y-70565682D01*
X161227310Y-70469268D01*
X161066978Y-70402856D01*
X160896771Y-70369000D01*
X160723229Y-70369000D01*
X160553022Y-70402856D01*
X160392690Y-70469268D01*
X160248395Y-70565682D01*
X160125682Y-70688395D01*
X160029268Y-70832690D01*
X159962856Y-70993022D01*
X159929000Y-71163229D01*
X159691000Y-71163229D01*
X159657144Y-70993022D01*
X159590732Y-70832690D01*
X159494318Y-70688395D01*
X159371605Y-70565682D01*
X159227310Y-70469268D01*
X159066978Y-70402856D01*
X158896771Y-70369000D01*
X158723229Y-70369000D01*
X158553022Y-70402856D01*
X158392690Y-70469268D01*
X158248395Y-70565682D01*
X158125682Y-70688395D01*
X158029268Y-70832690D01*
X157962856Y-70993022D01*
X157929000Y-71163229D01*
X157691000Y-71163229D01*
X157657144Y-70993022D01*
X157590732Y-70832690D01*
X157494318Y-70688395D01*
X157371605Y-70565682D01*
X157227310Y-70469268D01*
X157066978Y-70402856D01*
X156896771Y-70369000D01*
X156723229Y-70369000D01*
X156553022Y-70402856D01*
X156392690Y-70469268D01*
X156248395Y-70565682D01*
X156125682Y-70688395D01*
X156029268Y-70832690D01*
X155962856Y-70993022D01*
X155929000Y-71163229D01*
X155691000Y-71163229D01*
X155657144Y-70993022D01*
X155590732Y-70832690D01*
X155494318Y-70688395D01*
X155371605Y-70565682D01*
X155227310Y-70469268D01*
X155066978Y-70402856D01*
X154896771Y-70369000D01*
X154723229Y-70369000D01*
X154553022Y-70402856D01*
X154392690Y-70469268D01*
X154248395Y-70565682D01*
X154125682Y-70688395D01*
X154029268Y-70832690D01*
X153962856Y-70993022D01*
X153929000Y-71163229D01*
X153691000Y-71163229D01*
X153657144Y-70993022D01*
X153590732Y-70832690D01*
X153494318Y-70688395D01*
X153371605Y-70565682D01*
X153227310Y-70469268D01*
X153066978Y-70402856D01*
X152896771Y-70369000D01*
X152723229Y-70369000D01*
X152553022Y-70402856D01*
X152392690Y-70469268D01*
X152248395Y-70565682D01*
X152125682Y-70688395D01*
X152029268Y-70832690D01*
X151962856Y-70993022D01*
X151929000Y-71163229D01*
X151691000Y-71163229D01*
X151657144Y-70993022D01*
X151590732Y-70832690D01*
X151494318Y-70688395D01*
X151371605Y-70565682D01*
X151227310Y-70469268D01*
X151066978Y-70402856D01*
X150896771Y-70369000D01*
X150723229Y-70369000D01*
X150671020Y-70379385D01*
X150716000Y-70153253D01*
X150716000Y-69846747D01*
X150671020Y-69620615D01*
X150723229Y-69631000D01*
X150896771Y-69631000D01*
X151066978Y-69597144D01*
X151227310Y-69530732D01*
X151371605Y-69434318D01*
X151494318Y-69311605D01*
X151590732Y-69167310D01*
X151657144Y-69006978D01*
X151691000Y-68836771D01*
X151691000Y-68663229D01*
X151929000Y-68663229D01*
X151929000Y-68836771D01*
X151962856Y-69006978D01*
X152029268Y-69167310D01*
X152125682Y-69311605D01*
X152248395Y-69434318D01*
X152392690Y-69530732D01*
X152553022Y-69597144D01*
X152723229Y-69631000D01*
X152896771Y-69631000D01*
X153066978Y-69597144D01*
X153227310Y-69530732D01*
X153371605Y-69434318D01*
X153494318Y-69311605D01*
X153590732Y-69167310D01*
X153657144Y-69006978D01*
X153691000Y-68836771D01*
X153691000Y-68663229D01*
X155929000Y-68663229D01*
X155929000Y-68836771D01*
X155962856Y-69006978D01*
X156029268Y-69167310D01*
X156125682Y-69311605D01*
X156248395Y-69434318D01*
X156392690Y-69530732D01*
X156553022Y-69597144D01*
X156723229Y-69631000D01*
X156896771Y-69631000D01*
X157066978Y-69597144D01*
X157227310Y-69530732D01*
X157371605Y-69434318D01*
X157494318Y-69311605D01*
X157590732Y-69167310D01*
X157657144Y-69006978D01*
X157691000Y-68836771D01*
X157691000Y-68663229D01*
X157929000Y-68663229D01*
X157929000Y-68836771D01*
X157962856Y-69006978D01*
X158029268Y-69167310D01*
X158125682Y-69311605D01*
X158248395Y-69434318D01*
X158392690Y-69530732D01*
X158553022Y-69597144D01*
X158723229Y-69631000D01*
X158896771Y-69631000D01*
X159066978Y-69597144D01*
X159227310Y-69530732D01*
X159371605Y-69434318D01*
X159494318Y-69311605D01*
X159590732Y-69167310D01*
X159657144Y-69006978D01*
X159691000Y-68836771D01*
X159691000Y-68663229D01*
X159929000Y-68663229D01*
X159929000Y-68836771D01*
X159962856Y-69006978D01*
X160029268Y-69167310D01*
X160125682Y-69311605D01*
X160248395Y-69434318D01*
X160392690Y-69530732D01*
X160553022Y-69597144D01*
X160723229Y-69631000D01*
X160896771Y-69631000D01*
X161066978Y-69597144D01*
X161227310Y-69530732D01*
X161371605Y-69434318D01*
X161494318Y-69311605D01*
X161590732Y-69167310D01*
X161657144Y-69006978D01*
X161691000Y-68836771D01*
X161691000Y-68663229D01*
X161657144Y-68493022D01*
X161590732Y-68332690D01*
X161494318Y-68188395D01*
X161371605Y-68065682D01*
X161227310Y-67969268D01*
X161066978Y-67902856D01*
X160896771Y-67869000D01*
X160723229Y-67869000D01*
X160553022Y-67902856D01*
X160392690Y-67969268D01*
X160248395Y-68065682D01*
X160125682Y-68188395D01*
X160029268Y-68332690D01*
X159962856Y-68493022D01*
X159929000Y-68663229D01*
X159691000Y-68663229D01*
X159657144Y-68493022D01*
X159590732Y-68332690D01*
X159494318Y-68188395D01*
X159371605Y-68065682D01*
X159227310Y-67969268D01*
X159066978Y-67902856D01*
X158896771Y-67869000D01*
X158723229Y-67869000D01*
X158553022Y-67902856D01*
X158392690Y-67969268D01*
X158248395Y-68065682D01*
X158125682Y-68188395D01*
X158029268Y-68332690D01*
X157962856Y-68493022D01*
X157929000Y-68663229D01*
X157691000Y-68663229D01*
X157657144Y-68493022D01*
X157590732Y-68332690D01*
X157494318Y-68188395D01*
X157371605Y-68065682D01*
X157227310Y-67969268D01*
X157066978Y-67902856D01*
X156896771Y-67869000D01*
X156723229Y-67869000D01*
X156553022Y-67902856D01*
X156392690Y-67969268D01*
X156248395Y-68065682D01*
X156125682Y-68188395D01*
X156029268Y-68332690D01*
X155962856Y-68493022D01*
X155929000Y-68663229D01*
X153691000Y-68663229D01*
X153657144Y-68493022D01*
X153590732Y-68332690D01*
X153494318Y-68188395D01*
X153371605Y-68065682D01*
X153227310Y-67969268D01*
X153066978Y-67902856D01*
X152896771Y-67869000D01*
X152723229Y-67869000D01*
X152553022Y-67902856D01*
X152392690Y-67969268D01*
X152248395Y-68065682D01*
X152125682Y-68188395D01*
X152029268Y-68332690D01*
X151962856Y-68493022D01*
X151929000Y-68663229D01*
X151691000Y-68663229D01*
X151657144Y-68493022D01*
X151590732Y-68332690D01*
X151494318Y-68188395D01*
X151371605Y-68065682D01*
X151227310Y-67969268D01*
X151066978Y-67902856D01*
X150896771Y-67869000D01*
X150723229Y-67869000D01*
X150553022Y-67902856D01*
X150392690Y-67969268D01*
X150248395Y-68065682D01*
X150125682Y-68188395D01*
X150029268Y-68332690D01*
X149962856Y-68493022D01*
X149932649Y-68644883D01*
X149897042Y-68621091D01*
X149613869Y-68503796D01*
X149313253Y-68444000D01*
X149006747Y-68444000D01*
X148706131Y-68503796D01*
X148422958Y-68621091D01*
X148168108Y-68791376D01*
X147951376Y-69008108D01*
X147781091Y-69262958D01*
X147663796Y-69546131D01*
X147604000Y-69846747D01*
X110556000Y-69846747D01*
X110496204Y-69546131D01*
X110378909Y-69262958D01*
X110208624Y-69008108D01*
X109991892Y-68791376D01*
X109800107Y-68663229D01*
X113929000Y-68663229D01*
X113929000Y-68836771D01*
X113962856Y-69006978D01*
X114029268Y-69167310D01*
X114125682Y-69311605D01*
X114248395Y-69434318D01*
X114392690Y-69530732D01*
X114553022Y-69597144D01*
X114723229Y-69631000D01*
X114896771Y-69631000D01*
X115066978Y-69597144D01*
X115227310Y-69530732D01*
X115371605Y-69434318D01*
X115494318Y-69311605D01*
X115590732Y-69167310D01*
X115657144Y-69006978D01*
X115691000Y-68836771D01*
X115691000Y-68663229D01*
X117929000Y-68663229D01*
X117929000Y-68836771D01*
X117962856Y-69006978D01*
X118029268Y-69167310D01*
X118125682Y-69311605D01*
X118248395Y-69434318D01*
X118392690Y-69530732D01*
X118553022Y-69597144D01*
X118723229Y-69631000D01*
X118896771Y-69631000D01*
X119066978Y-69597144D01*
X119227310Y-69530732D01*
X119371605Y-69434318D01*
X119494318Y-69311605D01*
X119590732Y-69167310D01*
X119657144Y-69006978D01*
X119691000Y-68836771D01*
X119691000Y-68663229D01*
X121929000Y-68663229D01*
X121929000Y-68836771D01*
X121962856Y-69006978D01*
X122029268Y-69167310D01*
X122125682Y-69311605D01*
X122248395Y-69434318D01*
X122392690Y-69530732D01*
X122553022Y-69597144D01*
X122723229Y-69631000D01*
X122896771Y-69631000D01*
X123066978Y-69597144D01*
X123227310Y-69530732D01*
X123371605Y-69434318D01*
X123494318Y-69311605D01*
X123590732Y-69167310D01*
X123657144Y-69006978D01*
X123691000Y-68836771D01*
X123691000Y-68663229D01*
X125929000Y-68663229D01*
X125929000Y-68836771D01*
X125962856Y-69006978D01*
X126029268Y-69167310D01*
X126125682Y-69311605D01*
X126248395Y-69434318D01*
X126392690Y-69530732D01*
X126553022Y-69597144D01*
X126723229Y-69631000D01*
X126896771Y-69631000D01*
X127066978Y-69597144D01*
X127227310Y-69530732D01*
X127371605Y-69434318D01*
X127494318Y-69311605D01*
X127590732Y-69167310D01*
X127657144Y-69006978D01*
X127691000Y-68836771D01*
X127691000Y-68663229D01*
X127929000Y-68663229D01*
X127929000Y-68836771D01*
X127962856Y-69006978D01*
X128029268Y-69167310D01*
X128125682Y-69311605D01*
X128248395Y-69434318D01*
X128392690Y-69530732D01*
X128553022Y-69597144D01*
X128723229Y-69631000D01*
X128896771Y-69631000D01*
X129066978Y-69597144D01*
X129227310Y-69530732D01*
X129371605Y-69434318D01*
X129494318Y-69311605D01*
X129590732Y-69167310D01*
X129657144Y-69006978D01*
X129691000Y-68836771D01*
X129691000Y-68663229D01*
X131929000Y-68663229D01*
X131929000Y-68836771D01*
X131962856Y-69006978D01*
X132029268Y-69167310D01*
X132125682Y-69311605D01*
X132248395Y-69434318D01*
X132392690Y-69530732D01*
X132553022Y-69597144D01*
X132723229Y-69631000D01*
X132896771Y-69631000D01*
X133066978Y-69597144D01*
X133227310Y-69530732D01*
X133371605Y-69434318D01*
X133494318Y-69311605D01*
X133590732Y-69167310D01*
X133657144Y-69006978D01*
X133691000Y-68836771D01*
X133691000Y-68663229D01*
X135929000Y-68663229D01*
X135929000Y-68836771D01*
X135962856Y-69006978D01*
X136029268Y-69167310D01*
X136125682Y-69311605D01*
X136248395Y-69434318D01*
X136392690Y-69530732D01*
X136553022Y-69597144D01*
X136723229Y-69631000D01*
X136896771Y-69631000D01*
X137066978Y-69597144D01*
X137227310Y-69530732D01*
X137371605Y-69434318D01*
X137494318Y-69311605D01*
X137590732Y-69167310D01*
X137657144Y-69006978D01*
X137691000Y-68836771D01*
X137691000Y-68663229D01*
X139929000Y-68663229D01*
X139929000Y-68836771D01*
X139962856Y-69006978D01*
X140029268Y-69167310D01*
X140125682Y-69311605D01*
X140248395Y-69434318D01*
X140392690Y-69530732D01*
X140553022Y-69597144D01*
X140723229Y-69631000D01*
X140896771Y-69631000D01*
X141066978Y-69597144D01*
X141227310Y-69530732D01*
X141371605Y-69434318D01*
X141494318Y-69311605D01*
X141590732Y-69167310D01*
X141657144Y-69006978D01*
X141691000Y-68836771D01*
X141691000Y-68663229D01*
X141929000Y-68663229D01*
X141929000Y-68836771D01*
X141962856Y-69006978D01*
X142029268Y-69167310D01*
X142125682Y-69311605D01*
X142248395Y-69434318D01*
X142392690Y-69530732D01*
X142553022Y-69597144D01*
X142723229Y-69631000D01*
X142896771Y-69631000D01*
X143066978Y-69597144D01*
X143227310Y-69530732D01*
X143371605Y-69434318D01*
X143494318Y-69311605D01*
X143590732Y-69167310D01*
X143657144Y-69006978D01*
X143691000Y-68836771D01*
X143691000Y-68663229D01*
X143929000Y-68663229D01*
X143929000Y-68836771D01*
X143962856Y-69006978D01*
X144029268Y-69167310D01*
X144125682Y-69311605D01*
X144248395Y-69434318D01*
X144392690Y-69530732D01*
X144553022Y-69597144D01*
X144723229Y-69631000D01*
X144896771Y-69631000D01*
X145066978Y-69597144D01*
X145227310Y-69530732D01*
X145371605Y-69434318D01*
X145494318Y-69311605D01*
X145590732Y-69167310D01*
X145657144Y-69006978D01*
X145691000Y-68836771D01*
X145691000Y-68663229D01*
X145657144Y-68493022D01*
X145590732Y-68332690D01*
X145494318Y-68188395D01*
X145371605Y-68065682D01*
X145227310Y-67969268D01*
X145066978Y-67902856D01*
X144896771Y-67869000D01*
X144723229Y-67869000D01*
X144553022Y-67902856D01*
X144392690Y-67969268D01*
X144248395Y-68065682D01*
X144125682Y-68188395D01*
X144029268Y-68332690D01*
X143962856Y-68493022D01*
X143929000Y-68663229D01*
X143691000Y-68663229D01*
X143657144Y-68493022D01*
X143590732Y-68332690D01*
X143494318Y-68188395D01*
X143371605Y-68065682D01*
X143227310Y-67969268D01*
X143066978Y-67902856D01*
X142896771Y-67869000D01*
X142723229Y-67869000D01*
X142553022Y-67902856D01*
X142392690Y-67969268D01*
X142248395Y-68065682D01*
X142125682Y-68188395D01*
X142029268Y-68332690D01*
X141962856Y-68493022D01*
X141929000Y-68663229D01*
X141691000Y-68663229D01*
X141657144Y-68493022D01*
X141590732Y-68332690D01*
X141494318Y-68188395D01*
X141371605Y-68065682D01*
X141227310Y-67969268D01*
X141066978Y-67902856D01*
X140896771Y-67869000D01*
X140723229Y-67869000D01*
X140553022Y-67902856D01*
X140392690Y-67969268D01*
X140248395Y-68065682D01*
X140125682Y-68188395D01*
X140029268Y-68332690D01*
X139962856Y-68493022D01*
X139929000Y-68663229D01*
X137691000Y-68663229D01*
X137657144Y-68493022D01*
X137590732Y-68332690D01*
X137494318Y-68188395D01*
X137371605Y-68065682D01*
X137227310Y-67969268D01*
X137066978Y-67902856D01*
X136896771Y-67869000D01*
X136723229Y-67869000D01*
X136553022Y-67902856D01*
X136392690Y-67969268D01*
X136248395Y-68065682D01*
X136125682Y-68188395D01*
X136029268Y-68332690D01*
X135962856Y-68493022D01*
X135929000Y-68663229D01*
X133691000Y-68663229D01*
X133657144Y-68493022D01*
X133590732Y-68332690D01*
X133494318Y-68188395D01*
X133371605Y-68065682D01*
X133227310Y-67969268D01*
X133066978Y-67902856D01*
X132896771Y-67869000D01*
X132723229Y-67869000D01*
X132553022Y-67902856D01*
X132392690Y-67969268D01*
X132248395Y-68065682D01*
X132125682Y-68188395D01*
X132029268Y-68332690D01*
X131962856Y-68493022D01*
X131929000Y-68663229D01*
X129691000Y-68663229D01*
X129657144Y-68493022D01*
X129590732Y-68332690D01*
X129494318Y-68188395D01*
X129371605Y-68065682D01*
X129227310Y-67969268D01*
X129066978Y-67902856D01*
X128896771Y-67869000D01*
X128723229Y-67869000D01*
X128553022Y-67902856D01*
X128392690Y-67969268D01*
X128248395Y-68065682D01*
X128125682Y-68188395D01*
X128029268Y-68332690D01*
X127962856Y-68493022D01*
X127929000Y-68663229D01*
X127691000Y-68663229D01*
X127657144Y-68493022D01*
X127590732Y-68332690D01*
X127494318Y-68188395D01*
X127371605Y-68065682D01*
X127227310Y-67969268D01*
X127066978Y-67902856D01*
X126896771Y-67869000D01*
X126723229Y-67869000D01*
X126553022Y-67902856D01*
X126392690Y-67969268D01*
X126248395Y-68065682D01*
X126125682Y-68188395D01*
X126029268Y-68332690D01*
X125962856Y-68493022D01*
X125929000Y-68663229D01*
X123691000Y-68663229D01*
X123657144Y-68493022D01*
X123590732Y-68332690D01*
X123494318Y-68188395D01*
X123371605Y-68065682D01*
X123227310Y-67969268D01*
X123066978Y-67902856D01*
X122896771Y-67869000D01*
X122723229Y-67869000D01*
X122553022Y-67902856D01*
X122392690Y-67969268D01*
X122248395Y-68065682D01*
X122125682Y-68188395D01*
X122029268Y-68332690D01*
X121962856Y-68493022D01*
X121929000Y-68663229D01*
X119691000Y-68663229D01*
X119657144Y-68493022D01*
X119590732Y-68332690D01*
X119494318Y-68188395D01*
X119371605Y-68065682D01*
X119227310Y-67969268D01*
X119066978Y-67902856D01*
X118896771Y-67869000D01*
X118723229Y-67869000D01*
X118553022Y-67902856D01*
X118392690Y-67969268D01*
X118248395Y-68065682D01*
X118125682Y-68188395D01*
X118029268Y-68332690D01*
X117962856Y-68493022D01*
X117929000Y-68663229D01*
X115691000Y-68663229D01*
X115657144Y-68493022D01*
X115590732Y-68332690D01*
X115494318Y-68188395D01*
X115371605Y-68065682D01*
X115227310Y-67969268D01*
X115066978Y-67902856D01*
X114896771Y-67869000D01*
X114723229Y-67869000D01*
X114553022Y-67902856D01*
X114392690Y-67969268D01*
X114248395Y-68065682D01*
X114125682Y-68188395D01*
X114029268Y-68332690D01*
X113962856Y-68493022D01*
X113929000Y-68663229D01*
X109800107Y-68663229D01*
X109737042Y-68621091D01*
X109453869Y-68503796D01*
X109153253Y-68444000D01*
X108846747Y-68444000D01*
X108546131Y-68503796D01*
X108262958Y-68621091D01*
X108008108Y-68791376D01*
X107791376Y-69008108D01*
X107621091Y-69262958D01*
X107503796Y-69546131D01*
X107444000Y-69846747D01*
X105781000Y-69846747D01*
X105781000Y-69799964D01*
X105702950Y-69407579D01*
X105549849Y-69037961D01*
X105327581Y-68705313D01*
X105044687Y-68422419D01*
X104712039Y-68200151D01*
X104342421Y-68047050D01*
X103950036Y-67969000D01*
X103549964Y-67969000D01*
X103157579Y-68047050D01*
X102787961Y-68200151D01*
X102455313Y-68422419D01*
X102172419Y-68705313D01*
X101950151Y-69037961D01*
X101797050Y-69407579D01*
X101719000Y-69799964D01*
X89906000Y-69799964D01*
X89906000Y-68368154D01*
X94629000Y-68368154D01*
X94629000Y-68531846D01*
X94660935Y-68692394D01*
X94723577Y-68843626D01*
X94814520Y-68979732D01*
X94930268Y-69095480D01*
X95066374Y-69186423D01*
X95217606Y-69249065D01*
X95378154Y-69281000D01*
X95541846Y-69281000D01*
X95702394Y-69249065D01*
X95853626Y-69186423D01*
X95989732Y-69095480D01*
X96105480Y-68979732D01*
X96196423Y-68843626D01*
X96259065Y-68692394D01*
X96291000Y-68531846D01*
X96291000Y-68368154D01*
X96259065Y-68207606D01*
X96196423Y-68056374D01*
X96105480Y-67920268D01*
X95989732Y-67804520D01*
X95853626Y-67713577D01*
X95702394Y-67650935D01*
X95541846Y-67619000D01*
X95378154Y-67619000D01*
X95217606Y-67650935D01*
X95066374Y-67713577D01*
X94930268Y-67804520D01*
X94814520Y-67920268D01*
X94723577Y-68056374D01*
X94660935Y-68207606D01*
X94629000Y-68368154D01*
X89906000Y-68368154D01*
X89906000Y-61195270D01*
X93566470Y-61195270D01*
X93566470Y-61349114D01*
X93596483Y-61500001D01*
X93655357Y-61642134D01*
X93736111Y-61762992D01*
X93657891Y-61880058D01*
X93599017Y-62022191D01*
X93569004Y-62173078D01*
X93569004Y-62326922D01*
X93599017Y-62477809D01*
X93657891Y-62619942D01*
X93743362Y-62747859D01*
X93745501Y-62749998D01*
X93743358Y-62752141D01*
X93657887Y-62880058D01*
X93599013Y-63022191D01*
X93569000Y-63173078D01*
X93569000Y-63326922D01*
X93599013Y-63477809D01*
X93657887Y-63619942D01*
X93737373Y-63738901D01*
X93657887Y-63857861D01*
X93599013Y-63999994D01*
X93569000Y-64150881D01*
X93569000Y-64304725D01*
X93599013Y-64455612D01*
X93657887Y-64597745D01*
X93743358Y-64725662D01*
X93852141Y-64834445D01*
X93980058Y-64919916D01*
X94122191Y-64978790D01*
X94273078Y-65008803D01*
X94426922Y-65008803D01*
X94577809Y-64978790D01*
X94719942Y-64919916D01*
X94847859Y-64834445D01*
X94956642Y-64725662D01*
X95042113Y-64597745D01*
X95080478Y-64505124D01*
X96569000Y-64505124D01*
X96569000Y-64639270D01*
X96595171Y-64770837D01*
X96646506Y-64894771D01*
X96690824Y-64961099D01*
X96646506Y-65027426D01*
X96595171Y-65151360D01*
X96569000Y-65282927D01*
X96569000Y-65417073D01*
X96595171Y-65548640D01*
X96646506Y-65672574D01*
X96698240Y-65750000D01*
X96646506Y-65827426D01*
X96595171Y-65951360D01*
X96569000Y-66082927D01*
X96569000Y-66217073D01*
X96595171Y-66348640D01*
X96646506Y-66472574D01*
X96690824Y-66538902D01*
X96646506Y-66605229D01*
X96595171Y-66729163D01*
X96569000Y-66860730D01*
X96569000Y-66994876D01*
X96595171Y-67126443D01*
X96646506Y-67250377D01*
X96721033Y-67361915D01*
X96815888Y-67456770D01*
X96927426Y-67531297D01*
X97051360Y-67582632D01*
X97182927Y-67608803D01*
X97317073Y-67608803D01*
X97448640Y-67582632D01*
X97572574Y-67531297D01*
X97684112Y-67456770D01*
X97778967Y-67361915D01*
X97853494Y-67250377D01*
X97904829Y-67126443D01*
X97931000Y-66994876D01*
X97931000Y-66860730D01*
X97904829Y-66729163D01*
X97877519Y-66663229D01*
X110929000Y-66663229D01*
X110929000Y-66836771D01*
X110962856Y-67006978D01*
X111029268Y-67167310D01*
X111125682Y-67311605D01*
X111248395Y-67434318D01*
X111392690Y-67530732D01*
X111553022Y-67597144D01*
X111723229Y-67631000D01*
X111896771Y-67631000D01*
X112066978Y-67597144D01*
X112227310Y-67530732D01*
X112371605Y-67434318D01*
X112494318Y-67311605D01*
X112590732Y-67167310D01*
X112657144Y-67006978D01*
X112691000Y-66836771D01*
X112691000Y-66663229D01*
X112929000Y-66663229D01*
X112929000Y-66836771D01*
X112962856Y-67006978D01*
X113029268Y-67167310D01*
X113125682Y-67311605D01*
X113248395Y-67434318D01*
X113392690Y-67530732D01*
X113553022Y-67597144D01*
X113723229Y-67631000D01*
X113896771Y-67631000D01*
X114066978Y-67597144D01*
X114227310Y-67530732D01*
X114371605Y-67434318D01*
X114494318Y-67311605D01*
X114590732Y-67167310D01*
X114657144Y-67006978D01*
X114691000Y-66836771D01*
X114691000Y-66663229D01*
X116929000Y-66663229D01*
X116929000Y-66836771D01*
X116962856Y-67006978D01*
X117029268Y-67167310D01*
X117125682Y-67311605D01*
X117248395Y-67434318D01*
X117392690Y-67530732D01*
X117553022Y-67597144D01*
X117723229Y-67631000D01*
X117896771Y-67631000D01*
X118066978Y-67597144D01*
X118227310Y-67530732D01*
X118371605Y-67434318D01*
X118494318Y-67311605D01*
X118590732Y-67167310D01*
X118657144Y-67006978D01*
X118691000Y-66836771D01*
X118691000Y-66663229D01*
X120929000Y-66663229D01*
X120929000Y-66836771D01*
X120962856Y-67006978D01*
X121029268Y-67167310D01*
X121125682Y-67311605D01*
X121248395Y-67434318D01*
X121392690Y-67530732D01*
X121553022Y-67597144D01*
X121723229Y-67631000D01*
X121896771Y-67631000D01*
X122066978Y-67597144D01*
X122227310Y-67530732D01*
X122371605Y-67434318D01*
X122494318Y-67311605D01*
X122590732Y-67167310D01*
X122657144Y-67006978D01*
X122691000Y-66836771D01*
X122691000Y-66663229D01*
X124929000Y-66663229D01*
X124929000Y-66836771D01*
X124962856Y-67006978D01*
X125029268Y-67167310D01*
X125125682Y-67311605D01*
X125248395Y-67434318D01*
X125392690Y-67530732D01*
X125553022Y-67597144D01*
X125723229Y-67631000D01*
X125896771Y-67631000D01*
X126066978Y-67597144D01*
X126227310Y-67530732D01*
X126371605Y-67434318D01*
X126494318Y-67311605D01*
X126590732Y-67167310D01*
X126657144Y-67006978D01*
X126691000Y-66836771D01*
X126691000Y-66663229D01*
X128929000Y-66663229D01*
X128929000Y-66836771D01*
X128962856Y-67006978D01*
X129029268Y-67167310D01*
X129125682Y-67311605D01*
X129248395Y-67434318D01*
X129392690Y-67530732D01*
X129553022Y-67597144D01*
X129723229Y-67631000D01*
X129896771Y-67631000D01*
X130066978Y-67597144D01*
X130227310Y-67530732D01*
X130371605Y-67434318D01*
X130494318Y-67311605D01*
X130590732Y-67167310D01*
X130657144Y-67006978D01*
X130691000Y-66836771D01*
X130691000Y-66663229D01*
X130929000Y-66663229D01*
X130929000Y-66836771D01*
X130962856Y-67006978D01*
X131029268Y-67167310D01*
X131125682Y-67311605D01*
X131248395Y-67434318D01*
X131392690Y-67530732D01*
X131553022Y-67597144D01*
X131723229Y-67631000D01*
X131896771Y-67631000D01*
X132066978Y-67597144D01*
X132227310Y-67530732D01*
X132371605Y-67434318D01*
X132494318Y-67311605D01*
X132590732Y-67167310D01*
X132657144Y-67006978D01*
X132691000Y-66836771D01*
X132691000Y-66663229D01*
X134929000Y-66663229D01*
X134929000Y-66836771D01*
X134962856Y-67006978D01*
X135029268Y-67167310D01*
X135125682Y-67311605D01*
X135248395Y-67434318D01*
X135392690Y-67530732D01*
X135553022Y-67597144D01*
X135723229Y-67631000D01*
X135896771Y-67631000D01*
X136066978Y-67597144D01*
X136227310Y-67530732D01*
X136371605Y-67434318D01*
X136494318Y-67311605D01*
X136590732Y-67167310D01*
X136657144Y-67006978D01*
X136691000Y-66836771D01*
X136691000Y-66663229D01*
X138929000Y-66663229D01*
X138929000Y-66836771D01*
X138962856Y-67006978D01*
X139029268Y-67167310D01*
X139125682Y-67311605D01*
X139248395Y-67434318D01*
X139392690Y-67530732D01*
X139553022Y-67597144D01*
X139723229Y-67631000D01*
X139896771Y-67631000D01*
X140066978Y-67597144D01*
X140227310Y-67530732D01*
X140371605Y-67434318D01*
X140494318Y-67311605D01*
X140590732Y-67167310D01*
X140657144Y-67006978D01*
X140691000Y-66836771D01*
X140691000Y-66663229D01*
X144929000Y-66663229D01*
X144929000Y-66836771D01*
X144962856Y-67006978D01*
X145029268Y-67167310D01*
X145125682Y-67311605D01*
X145248395Y-67434318D01*
X145392690Y-67530732D01*
X145553022Y-67597144D01*
X145723229Y-67631000D01*
X145896771Y-67631000D01*
X146066978Y-67597144D01*
X146227310Y-67530732D01*
X146371605Y-67434318D01*
X146494318Y-67311605D01*
X146590732Y-67167310D01*
X146657144Y-67006978D01*
X146691000Y-66836771D01*
X146691000Y-66663229D01*
X146929000Y-66663229D01*
X146929000Y-66836771D01*
X146962856Y-67006978D01*
X147029268Y-67167310D01*
X147125682Y-67311605D01*
X147248395Y-67434318D01*
X147392690Y-67530732D01*
X147553022Y-67597144D01*
X147723229Y-67631000D01*
X147896771Y-67631000D01*
X148066978Y-67597144D01*
X148227310Y-67530732D01*
X148371605Y-67434318D01*
X148494318Y-67311605D01*
X148590732Y-67167310D01*
X148657144Y-67006978D01*
X148691000Y-66836771D01*
X148691000Y-66663229D01*
X150929000Y-66663229D01*
X150929000Y-66836771D01*
X150962856Y-67006978D01*
X151029268Y-67167310D01*
X151125682Y-67311605D01*
X151248395Y-67434318D01*
X151392690Y-67530732D01*
X151553022Y-67597144D01*
X151723229Y-67631000D01*
X151896771Y-67631000D01*
X152066978Y-67597144D01*
X152227310Y-67530732D01*
X152371605Y-67434318D01*
X152494318Y-67311605D01*
X152590732Y-67167310D01*
X152657144Y-67006978D01*
X152691000Y-66836771D01*
X152691000Y-66663229D01*
X152929000Y-66663229D01*
X152929000Y-66836771D01*
X152962856Y-67006978D01*
X153029268Y-67167310D01*
X153125682Y-67311605D01*
X153248395Y-67434318D01*
X153392690Y-67530732D01*
X153553022Y-67597144D01*
X153723229Y-67631000D01*
X153896771Y-67631000D01*
X154066978Y-67597144D01*
X154227310Y-67530732D01*
X154371605Y-67434318D01*
X154494318Y-67311605D01*
X154590732Y-67167310D01*
X154657144Y-67006978D01*
X154691000Y-66836771D01*
X154691000Y-66663229D01*
X154929000Y-66663229D01*
X154929000Y-66836771D01*
X154962856Y-67006978D01*
X155029268Y-67167310D01*
X155125682Y-67311605D01*
X155248395Y-67434318D01*
X155392690Y-67530732D01*
X155553022Y-67597144D01*
X155723229Y-67631000D01*
X155896771Y-67631000D01*
X156066978Y-67597144D01*
X156227310Y-67530732D01*
X156371605Y-67434318D01*
X156494318Y-67311605D01*
X156590732Y-67167310D01*
X156657144Y-67006978D01*
X156691000Y-66836771D01*
X156691000Y-66663229D01*
X158929000Y-66663229D01*
X158929000Y-66836771D01*
X158962856Y-67006978D01*
X159029268Y-67167310D01*
X159125682Y-67311605D01*
X159248395Y-67434318D01*
X159392690Y-67530732D01*
X159553022Y-67597144D01*
X159723229Y-67631000D01*
X159896771Y-67631000D01*
X160066978Y-67597144D01*
X160227310Y-67530732D01*
X160371605Y-67434318D01*
X160494318Y-67311605D01*
X160590732Y-67167310D01*
X160657144Y-67006978D01*
X160691000Y-66836771D01*
X160691000Y-66663229D01*
X160657144Y-66493022D01*
X160590732Y-66332690D01*
X160494318Y-66188395D01*
X160479001Y-66173078D01*
X164619000Y-66173078D01*
X164619000Y-66326922D01*
X164649013Y-66477809D01*
X164707887Y-66619942D01*
X164793358Y-66747859D01*
X164902141Y-66856642D01*
X165030058Y-66942113D01*
X165169808Y-67000000D01*
X165030058Y-67057887D01*
X164902141Y-67143358D01*
X164793358Y-67252141D01*
X164707887Y-67380058D01*
X164649013Y-67522191D01*
X164619000Y-67673078D01*
X164619000Y-67826922D01*
X164649013Y-67977809D01*
X164707887Y-68119942D01*
X164793358Y-68247859D01*
X164902141Y-68356642D01*
X165030058Y-68442113D01*
X165172191Y-68500987D01*
X165323078Y-68531000D01*
X165476922Y-68531000D01*
X165627809Y-68500987D01*
X165769942Y-68442113D01*
X165897859Y-68356642D01*
X166006642Y-68247859D01*
X166092113Y-68119942D01*
X166150987Y-67977809D01*
X166181000Y-67826922D01*
X166181000Y-67673078D01*
X166869000Y-67673078D01*
X166869000Y-67826922D01*
X166899013Y-67977809D01*
X166957887Y-68119942D01*
X167043358Y-68247859D01*
X167152141Y-68356642D01*
X167280058Y-68442113D01*
X167422191Y-68500987D01*
X167573078Y-68531000D01*
X167726922Y-68531000D01*
X167877809Y-68500987D01*
X168019942Y-68442113D01*
X168147859Y-68356642D01*
X168256642Y-68247859D01*
X168342113Y-68119942D01*
X168400987Y-67977809D01*
X168431000Y-67826922D01*
X168431000Y-67673078D01*
X168400987Y-67522191D01*
X168342113Y-67380058D01*
X168256642Y-67252141D01*
X168147859Y-67143358D01*
X168019942Y-67057887D01*
X167877809Y-66999013D01*
X167726922Y-66969000D01*
X167573078Y-66969000D01*
X167422191Y-66999013D01*
X167280058Y-67057887D01*
X167152141Y-67143358D01*
X167043358Y-67252141D01*
X166957887Y-67380058D01*
X166899013Y-67522191D01*
X166869000Y-67673078D01*
X166181000Y-67673078D01*
X166150987Y-67522191D01*
X166092113Y-67380058D01*
X166006642Y-67252141D01*
X165897859Y-67143358D01*
X165769942Y-67057887D01*
X165630192Y-67000000D01*
X165769942Y-66942113D01*
X165897859Y-66856642D01*
X166006642Y-66747859D01*
X166092113Y-66619942D01*
X166150987Y-66477809D01*
X166181000Y-66326922D01*
X166181000Y-66173078D01*
X169119000Y-66173078D01*
X169119000Y-66326922D01*
X169149013Y-66477809D01*
X169207887Y-66619942D01*
X169293358Y-66747859D01*
X169402141Y-66856642D01*
X169530058Y-66942113D01*
X169669757Y-66999979D01*
X169530058Y-67057845D01*
X169402141Y-67143316D01*
X169293358Y-67252099D01*
X169207887Y-67380016D01*
X169149013Y-67522149D01*
X169119000Y-67673036D01*
X169119000Y-67826880D01*
X169149013Y-67977767D01*
X169207887Y-68119900D01*
X169293358Y-68247817D01*
X169402141Y-68356600D01*
X169530058Y-68442071D01*
X169672191Y-68500945D01*
X169823078Y-68530958D01*
X169976922Y-68530958D01*
X170127809Y-68500945D01*
X170269942Y-68442071D01*
X170397859Y-68356600D01*
X170506642Y-68247817D01*
X170592113Y-68119900D01*
X170650987Y-67977767D01*
X170681000Y-67826880D01*
X170681000Y-67673036D01*
X170650987Y-67522149D01*
X170592113Y-67380016D01*
X170506642Y-67252099D01*
X170446531Y-67191988D01*
X171600090Y-67191988D01*
X171600090Y-67345832D01*
X171630103Y-67496719D01*
X171688977Y-67638852D01*
X171774448Y-67766769D01*
X171883231Y-67875552D01*
X172011148Y-67961023D01*
X172153281Y-68019897D01*
X172304168Y-68049910D01*
X172458012Y-68049910D01*
X172608899Y-68019897D01*
X172751032Y-67961023D01*
X172878949Y-67875552D01*
X172987732Y-67766769D01*
X173073203Y-67638852D01*
X173132077Y-67496719D01*
X173162090Y-67345832D01*
X173162090Y-67191988D01*
X173132077Y-67041101D01*
X173073203Y-66898968D01*
X172987732Y-66771051D01*
X172878949Y-66662268D01*
X172751032Y-66576797D01*
X172608899Y-66517923D01*
X172458012Y-66487910D01*
X172304168Y-66487910D01*
X172153281Y-66517923D01*
X172011148Y-66576797D01*
X171883231Y-66662268D01*
X171774448Y-66771051D01*
X171688977Y-66898968D01*
X171630103Y-67041101D01*
X171600090Y-67191988D01*
X170446531Y-67191988D01*
X170397859Y-67143316D01*
X170269942Y-67057845D01*
X170130243Y-66999979D01*
X170269942Y-66942113D01*
X170397859Y-66856642D01*
X170506642Y-66747859D01*
X170592113Y-66619942D01*
X170650987Y-66477809D01*
X170681000Y-66326922D01*
X170681000Y-66173078D01*
X170650987Y-66022191D01*
X170603657Y-65907927D01*
X172969000Y-65907927D01*
X172969000Y-66042073D01*
X172995171Y-66173640D01*
X173046506Y-66297574D01*
X173121033Y-66409112D01*
X173215888Y-66503967D01*
X173327426Y-66578494D01*
X173451360Y-66629829D01*
X173582927Y-66656000D01*
X173717073Y-66656000D01*
X173848640Y-66629829D01*
X173972574Y-66578494D01*
X174084112Y-66503967D01*
X174150000Y-66438079D01*
X174215888Y-66503967D01*
X174327426Y-66578494D01*
X174451360Y-66629829D01*
X174582927Y-66656000D01*
X174717073Y-66656000D01*
X174848640Y-66629829D01*
X174972574Y-66578494D01*
X175084112Y-66503967D01*
X175149998Y-66438081D01*
X175215888Y-66503971D01*
X175327426Y-66578498D01*
X175451360Y-66629833D01*
X175582927Y-66656004D01*
X175717073Y-66656004D01*
X175848640Y-66629833D01*
X175972574Y-66578498D01*
X176084112Y-66503971D01*
X176178967Y-66409116D01*
X176253494Y-66297578D01*
X176304829Y-66173644D01*
X176331000Y-66042077D01*
X176331000Y-65907931D01*
X176304829Y-65776364D01*
X176253494Y-65652430D01*
X176178967Y-65540892D01*
X176084112Y-65446037D01*
X175972574Y-65371510D01*
X175848640Y-65320175D01*
X175717073Y-65294004D01*
X175582927Y-65294004D01*
X175451360Y-65320175D01*
X175327426Y-65371510D01*
X175215888Y-65446037D01*
X175150002Y-65511923D01*
X175084112Y-65446033D01*
X174972574Y-65371506D01*
X174848640Y-65320171D01*
X174717073Y-65294000D01*
X174582927Y-65294000D01*
X174451360Y-65320171D01*
X174327426Y-65371506D01*
X174215888Y-65446033D01*
X174150000Y-65511921D01*
X174084112Y-65446033D01*
X173972574Y-65371506D01*
X173848640Y-65320171D01*
X173717073Y-65294000D01*
X173582927Y-65294000D01*
X173451360Y-65320171D01*
X173327426Y-65371506D01*
X173215888Y-65446033D01*
X173121033Y-65540888D01*
X173046506Y-65652426D01*
X172995171Y-65776360D01*
X172969000Y-65907927D01*
X170603657Y-65907927D01*
X170592113Y-65880058D01*
X170506642Y-65752141D01*
X170397859Y-65643358D01*
X170269942Y-65557887D01*
X170127809Y-65499013D01*
X169976922Y-65469000D01*
X169823078Y-65469000D01*
X169672191Y-65499013D01*
X169530058Y-65557887D01*
X169402141Y-65643358D01*
X169293358Y-65752141D01*
X169207887Y-65880058D01*
X169149013Y-66022191D01*
X169119000Y-66173078D01*
X166181000Y-66173078D01*
X166150987Y-66022191D01*
X166092113Y-65880058D01*
X166006642Y-65752141D01*
X165897859Y-65643358D01*
X165769942Y-65557887D01*
X165627809Y-65499013D01*
X165476922Y-65469000D01*
X165323078Y-65469000D01*
X165172191Y-65499013D01*
X165030058Y-65557887D01*
X164902141Y-65643358D01*
X164793358Y-65752141D01*
X164707887Y-65880058D01*
X164649013Y-66022191D01*
X164619000Y-66173078D01*
X160479001Y-66173078D01*
X160371605Y-66065682D01*
X160227310Y-65969268D01*
X160066978Y-65902856D01*
X159896771Y-65869000D01*
X159723229Y-65869000D01*
X159553022Y-65902856D01*
X159392690Y-65969268D01*
X159248395Y-66065682D01*
X159125682Y-66188395D01*
X159029268Y-66332690D01*
X158962856Y-66493022D01*
X158929000Y-66663229D01*
X156691000Y-66663229D01*
X156657144Y-66493022D01*
X156590732Y-66332690D01*
X156494318Y-66188395D01*
X156371605Y-66065682D01*
X156227310Y-65969268D01*
X156066978Y-65902856D01*
X155896771Y-65869000D01*
X155723229Y-65869000D01*
X155553022Y-65902856D01*
X155392690Y-65969268D01*
X155248395Y-66065682D01*
X155125682Y-66188395D01*
X155029268Y-66332690D01*
X154962856Y-66493022D01*
X154929000Y-66663229D01*
X154691000Y-66663229D01*
X154657144Y-66493022D01*
X154590732Y-66332690D01*
X154494318Y-66188395D01*
X154371605Y-66065682D01*
X154227310Y-65969268D01*
X154066978Y-65902856D01*
X153896771Y-65869000D01*
X153723229Y-65869000D01*
X153553022Y-65902856D01*
X153392690Y-65969268D01*
X153248395Y-66065682D01*
X153125682Y-66188395D01*
X153029268Y-66332690D01*
X152962856Y-66493022D01*
X152929000Y-66663229D01*
X152691000Y-66663229D01*
X152657144Y-66493022D01*
X152590732Y-66332690D01*
X152494318Y-66188395D01*
X152371605Y-66065682D01*
X152227310Y-65969268D01*
X152066978Y-65902856D01*
X151896771Y-65869000D01*
X151723229Y-65869000D01*
X151553022Y-65902856D01*
X151392690Y-65969268D01*
X151248395Y-66065682D01*
X151125682Y-66188395D01*
X151029268Y-66332690D01*
X150962856Y-66493022D01*
X150929000Y-66663229D01*
X148691000Y-66663229D01*
X148657144Y-66493022D01*
X148590732Y-66332690D01*
X148494318Y-66188395D01*
X148371605Y-66065682D01*
X148227310Y-65969268D01*
X148066978Y-65902856D01*
X147896771Y-65869000D01*
X147723229Y-65869000D01*
X147553022Y-65902856D01*
X147392690Y-65969268D01*
X147248395Y-66065682D01*
X147125682Y-66188395D01*
X147029268Y-66332690D01*
X146962856Y-66493022D01*
X146929000Y-66663229D01*
X146691000Y-66663229D01*
X146657144Y-66493022D01*
X146590732Y-66332690D01*
X146494318Y-66188395D01*
X146371605Y-66065682D01*
X146227310Y-65969268D01*
X146066978Y-65902856D01*
X145896771Y-65869000D01*
X145723229Y-65869000D01*
X145553022Y-65902856D01*
X145392690Y-65969268D01*
X145248395Y-66065682D01*
X145125682Y-66188395D01*
X145029268Y-66332690D01*
X144962856Y-66493022D01*
X144929000Y-66663229D01*
X140691000Y-66663229D01*
X140657144Y-66493022D01*
X140590732Y-66332690D01*
X140494318Y-66188395D01*
X140371605Y-66065682D01*
X140227310Y-65969268D01*
X140066978Y-65902856D01*
X139896771Y-65869000D01*
X139723229Y-65869000D01*
X139553022Y-65902856D01*
X139392690Y-65969268D01*
X139248395Y-66065682D01*
X139125682Y-66188395D01*
X139029268Y-66332690D01*
X138962856Y-66493022D01*
X138929000Y-66663229D01*
X136691000Y-66663229D01*
X136657144Y-66493022D01*
X136590732Y-66332690D01*
X136494318Y-66188395D01*
X136371605Y-66065682D01*
X136227310Y-65969268D01*
X136066978Y-65902856D01*
X135896771Y-65869000D01*
X135723229Y-65869000D01*
X135553022Y-65902856D01*
X135392690Y-65969268D01*
X135248395Y-66065682D01*
X135125682Y-66188395D01*
X135029268Y-66332690D01*
X134962856Y-66493022D01*
X134929000Y-66663229D01*
X132691000Y-66663229D01*
X132657144Y-66493022D01*
X132590732Y-66332690D01*
X132494318Y-66188395D01*
X132371605Y-66065682D01*
X132227310Y-65969268D01*
X132066978Y-65902856D01*
X131896771Y-65869000D01*
X131723229Y-65869000D01*
X131553022Y-65902856D01*
X131392690Y-65969268D01*
X131248395Y-66065682D01*
X131125682Y-66188395D01*
X131029268Y-66332690D01*
X130962856Y-66493022D01*
X130929000Y-66663229D01*
X130691000Y-66663229D01*
X130657144Y-66493022D01*
X130590732Y-66332690D01*
X130494318Y-66188395D01*
X130371605Y-66065682D01*
X130227310Y-65969268D01*
X130066978Y-65902856D01*
X129896771Y-65869000D01*
X129723229Y-65869000D01*
X129553022Y-65902856D01*
X129392690Y-65969268D01*
X129248395Y-66065682D01*
X129125682Y-66188395D01*
X129029268Y-66332690D01*
X128962856Y-66493022D01*
X128929000Y-66663229D01*
X126691000Y-66663229D01*
X126657144Y-66493022D01*
X126590732Y-66332690D01*
X126494318Y-66188395D01*
X126371605Y-66065682D01*
X126227310Y-65969268D01*
X126066978Y-65902856D01*
X125896771Y-65869000D01*
X125723229Y-65869000D01*
X125553022Y-65902856D01*
X125392690Y-65969268D01*
X125248395Y-66065682D01*
X125125682Y-66188395D01*
X125029268Y-66332690D01*
X124962856Y-66493022D01*
X124929000Y-66663229D01*
X122691000Y-66663229D01*
X122657144Y-66493022D01*
X122590732Y-66332690D01*
X122494318Y-66188395D01*
X122371605Y-66065682D01*
X122227310Y-65969268D01*
X122066978Y-65902856D01*
X121896771Y-65869000D01*
X121723229Y-65869000D01*
X121553022Y-65902856D01*
X121392690Y-65969268D01*
X121248395Y-66065682D01*
X121125682Y-66188395D01*
X121029268Y-66332690D01*
X120962856Y-66493022D01*
X120929000Y-66663229D01*
X118691000Y-66663229D01*
X118657144Y-66493022D01*
X118590732Y-66332690D01*
X118494318Y-66188395D01*
X118371605Y-66065682D01*
X118227310Y-65969268D01*
X118066978Y-65902856D01*
X117896771Y-65869000D01*
X117723229Y-65869000D01*
X117553022Y-65902856D01*
X117392690Y-65969268D01*
X117248395Y-66065682D01*
X117125682Y-66188395D01*
X117029268Y-66332690D01*
X116962856Y-66493022D01*
X116929000Y-66663229D01*
X114691000Y-66663229D01*
X114657144Y-66493022D01*
X114590732Y-66332690D01*
X114494318Y-66188395D01*
X114371605Y-66065682D01*
X114227310Y-65969268D01*
X114066978Y-65902856D01*
X113896771Y-65869000D01*
X113723229Y-65869000D01*
X113553022Y-65902856D01*
X113392690Y-65969268D01*
X113248395Y-66065682D01*
X113125682Y-66188395D01*
X113029268Y-66332690D01*
X112962856Y-66493022D01*
X112929000Y-66663229D01*
X112691000Y-66663229D01*
X112657144Y-66493022D01*
X112590732Y-66332690D01*
X112494318Y-66188395D01*
X112371605Y-66065682D01*
X112227310Y-65969268D01*
X112066978Y-65902856D01*
X111896771Y-65869000D01*
X111723229Y-65869000D01*
X111553022Y-65902856D01*
X111392690Y-65969268D01*
X111248395Y-66065682D01*
X111125682Y-66188395D01*
X111029268Y-66332690D01*
X110962856Y-66493022D01*
X110929000Y-66663229D01*
X97877519Y-66663229D01*
X97853494Y-66605229D01*
X97809176Y-66538902D01*
X97853494Y-66472574D01*
X97904829Y-66348640D01*
X97931000Y-66217073D01*
X97931000Y-66082927D01*
X97904829Y-65951360D01*
X97853494Y-65827426D01*
X97801760Y-65750000D01*
X97853494Y-65672574D01*
X97904829Y-65548640D01*
X97931000Y-65417073D01*
X97931000Y-65282927D01*
X97904829Y-65151360D01*
X97853494Y-65027426D01*
X97809176Y-64961099D01*
X97853494Y-64894771D01*
X97904829Y-64770837D01*
X97931000Y-64639270D01*
X97931000Y-64505124D01*
X97904829Y-64373557D01*
X97853494Y-64249623D01*
X97778967Y-64138085D01*
X97684112Y-64043230D01*
X97572574Y-63968703D01*
X97448640Y-63917368D01*
X97317073Y-63891197D01*
X97182927Y-63891197D01*
X97051360Y-63917368D01*
X96927426Y-63968703D01*
X96815888Y-64043230D01*
X96721033Y-64138085D01*
X96646506Y-64249623D01*
X96595171Y-64373557D01*
X96569000Y-64505124D01*
X95080478Y-64505124D01*
X95100987Y-64455612D01*
X95131000Y-64304725D01*
X95131000Y-64150881D01*
X95100987Y-63999994D01*
X95042113Y-63857861D01*
X94962627Y-63738902D01*
X95042113Y-63619942D01*
X95100987Y-63477809D01*
X95131000Y-63326922D01*
X95131000Y-63173078D01*
X95100987Y-63022191D01*
X95042113Y-62880058D01*
X94956642Y-62752141D01*
X94954503Y-62750002D01*
X94956646Y-62747859D01*
X95042117Y-62619942D01*
X95100991Y-62477809D01*
X95131004Y-62326922D01*
X95131004Y-62173078D01*
X95100991Y-62022191D01*
X95042117Y-61880058D01*
X94961363Y-61759200D01*
X95039583Y-61642134D01*
X95098457Y-61500001D01*
X95128470Y-61349114D01*
X95128470Y-61195270D01*
X95098457Y-61044383D01*
X95039583Y-60902250D01*
X94954112Y-60774333D01*
X94845329Y-60665550D01*
X94717412Y-60580079D01*
X94575279Y-60521205D01*
X94424392Y-60491192D01*
X94270548Y-60491192D01*
X94119661Y-60521205D01*
X93977528Y-60580079D01*
X93849611Y-60665550D01*
X93740828Y-60774333D01*
X93655357Y-60902250D01*
X93596483Y-61044383D01*
X93566470Y-61195270D01*
X89906000Y-61195270D01*
X89906000Y-58505124D01*
X96594000Y-58505124D01*
X96594000Y-58639270D01*
X96620171Y-58770837D01*
X96671506Y-58894771D01*
X96715824Y-58961098D01*
X96671506Y-59027426D01*
X96620171Y-59151360D01*
X96594000Y-59282927D01*
X96594000Y-59417073D01*
X96620171Y-59548640D01*
X96671506Y-59672574D01*
X96723240Y-59750000D01*
X96671506Y-59827426D01*
X96620171Y-59951360D01*
X96594000Y-60082927D01*
X96594000Y-60217073D01*
X96620171Y-60348640D01*
X96671506Y-60472574D01*
X96715824Y-60538901D01*
X96671506Y-60605229D01*
X96620171Y-60729163D01*
X96594000Y-60860730D01*
X96594000Y-60994876D01*
X96620171Y-61126443D01*
X96671506Y-61250377D01*
X96746033Y-61361915D01*
X96748020Y-61363902D01*
X96746033Y-61365888D01*
X96671506Y-61477426D01*
X96620171Y-61601360D01*
X96594000Y-61732927D01*
X96594000Y-61867073D01*
X96620171Y-61998640D01*
X96671506Y-62122574D01*
X96746033Y-62234112D01*
X96840888Y-62328967D01*
X96952426Y-62403494D01*
X97076360Y-62454829D01*
X97207927Y-62481000D01*
X97342073Y-62481000D01*
X97473640Y-62454829D01*
X97550293Y-62423078D01*
X175619000Y-62423078D01*
X175619000Y-62576922D01*
X175649013Y-62727809D01*
X175707887Y-62869942D01*
X175793358Y-62997859D01*
X175902141Y-63106642D01*
X176030058Y-63192113D01*
X176172191Y-63250987D01*
X176323078Y-63281000D01*
X176476922Y-63281000D01*
X176627809Y-63250987D01*
X176664007Y-63235993D01*
X176649013Y-63272191D01*
X176619000Y-63423078D01*
X176619000Y-63576922D01*
X176649013Y-63727809D01*
X176707887Y-63869942D01*
X176793358Y-63997859D01*
X176795499Y-64000000D01*
X176793358Y-64002141D01*
X176707887Y-64130058D01*
X176649013Y-64272191D01*
X176619000Y-64423078D01*
X176619000Y-64576922D01*
X176649013Y-64727809D01*
X176707887Y-64869942D01*
X176793358Y-64997859D01*
X176902141Y-65106642D01*
X177030058Y-65192113D01*
X177172191Y-65250987D01*
X177323078Y-65281000D01*
X177476922Y-65281000D01*
X177627809Y-65250987D01*
X177769942Y-65192113D01*
X177897859Y-65106642D01*
X178006642Y-64997859D01*
X178092113Y-64869942D01*
X178150987Y-64727809D01*
X178181000Y-64576922D01*
X178181000Y-64423078D01*
X178150987Y-64272191D01*
X178092113Y-64130058D01*
X178006642Y-64002141D01*
X178004501Y-64000000D01*
X178006642Y-63997859D01*
X178092113Y-63869942D01*
X178150987Y-63727809D01*
X178181000Y-63576922D01*
X178181000Y-63423078D01*
X178150987Y-63272191D01*
X178092113Y-63130058D01*
X178006642Y-63002141D01*
X178004501Y-63000000D01*
X178006642Y-62997859D01*
X178092113Y-62869942D01*
X178150987Y-62727809D01*
X178181000Y-62576922D01*
X178181000Y-62423078D01*
X178150987Y-62272191D01*
X178092113Y-62130058D01*
X178006642Y-62002141D01*
X177897859Y-61893358D01*
X177769942Y-61807887D01*
X177627809Y-61749013D01*
X177476922Y-61719000D01*
X177323078Y-61719000D01*
X177172191Y-61749013D01*
X177030058Y-61807887D01*
X176902141Y-61893358D01*
X176900000Y-61895499D01*
X176897859Y-61893358D01*
X176769942Y-61807887D01*
X176627809Y-61749013D01*
X176476922Y-61719000D01*
X176323078Y-61719000D01*
X176172191Y-61749013D01*
X176030058Y-61807887D01*
X175902141Y-61893358D01*
X175793358Y-62002141D01*
X175707887Y-62130058D01*
X175649013Y-62272191D01*
X175619000Y-62423078D01*
X97550293Y-62423078D01*
X97597574Y-62403494D01*
X97709112Y-62328967D01*
X97803967Y-62234112D01*
X97878494Y-62122574D01*
X97929829Y-61998640D01*
X97956000Y-61867073D01*
X97956000Y-61732927D01*
X97929829Y-61601360D01*
X97878494Y-61477426D01*
X97803967Y-61365888D01*
X97801981Y-61363902D01*
X97803967Y-61361915D01*
X97878494Y-61250377D01*
X97929829Y-61126443D01*
X97956000Y-60994876D01*
X97956000Y-60860730D01*
X97929829Y-60729163D01*
X97878494Y-60605229D01*
X97834176Y-60538901D01*
X97878494Y-60472574D01*
X97929829Y-60348640D01*
X97956000Y-60217073D01*
X97956000Y-60082927D01*
X97929829Y-59951360D01*
X97878494Y-59827426D01*
X97826760Y-59750000D01*
X97878494Y-59672574D01*
X97929829Y-59548640D01*
X97956000Y-59417073D01*
X97956000Y-59282927D01*
X97929829Y-59151360D01*
X97878494Y-59027426D01*
X97837567Y-58966173D01*
X133816848Y-58966173D01*
X133816848Y-59100319D01*
X133843019Y-59231886D01*
X133894354Y-59355820D01*
X133947157Y-59434846D01*
X133894354Y-59513872D01*
X133843019Y-59637806D01*
X133816848Y-59769373D01*
X133816848Y-59903519D01*
X133843019Y-60035086D01*
X133894354Y-60159020D01*
X133968881Y-60270558D01*
X134063736Y-60365413D01*
X134175274Y-60439940D01*
X134299208Y-60491275D01*
X134430775Y-60517446D01*
X134564921Y-60517446D01*
X134696488Y-60491275D01*
X134820422Y-60439940D01*
X134931960Y-60365413D01*
X135026815Y-60270558D01*
X135101342Y-60159020D01*
X135152677Y-60035086D01*
X135178848Y-59903519D01*
X135178848Y-59769373D01*
X135152677Y-59637806D01*
X135101342Y-59513872D01*
X135048539Y-59434846D01*
X135101342Y-59355820D01*
X135118358Y-59314738D01*
X144969000Y-59314738D01*
X144969000Y-59685262D01*
X145041286Y-60048667D01*
X145183080Y-60390987D01*
X145388932Y-60699067D01*
X145650933Y-60961068D01*
X145959013Y-61166920D01*
X146301333Y-61308714D01*
X146664738Y-61381000D01*
X147035262Y-61381000D01*
X147398667Y-61308714D01*
X147740987Y-61166920D01*
X148049067Y-60961068D01*
X148311068Y-60699067D01*
X148516920Y-60390987D01*
X148658714Y-60048667D01*
X148731000Y-59685262D01*
X148731000Y-59323079D01*
X149119001Y-59323079D01*
X149119001Y-59476923D01*
X149149014Y-59627810D01*
X149207888Y-59769943D01*
X149293359Y-59897860D01*
X149402142Y-60006643D01*
X149530059Y-60092114D01*
X149672192Y-60150988D01*
X149823079Y-60181001D01*
X149976923Y-60181001D01*
X150016754Y-60173078D01*
X156119000Y-60173078D01*
X156119000Y-60326922D01*
X156149013Y-60477809D01*
X156207887Y-60619942D01*
X156293358Y-60747859D01*
X156402141Y-60856642D01*
X156530058Y-60942113D01*
X156672191Y-61000987D01*
X156823078Y-61031000D01*
X156976922Y-61031000D01*
X157127809Y-61000987D01*
X157269942Y-60942113D01*
X157397859Y-60856642D01*
X157506642Y-60747859D01*
X157525015Y-60720362D01*
X157543388Y-60747859D01*
X157652171Y-60856642D01*
X157780088Y-60942113D01*
X157922221Y-61000987D01*
X158073108Y-61031000D01*
X158226952Y-61031000D01*
X158377839Y-61000987D01*
X158519972Y-60942113D01*
X158647889Y-60856642D01*
X158756672Y-60747859D01*
X158842143Y-60619942D01*
X158900023Y-60480210D01*
X158957902Y-60619942D01*
X159043373Y-60747859D01*
X159152156Y-60856642D01*
X159280073Y-60942113D01*
X159422206Y-61000987D01*
X159573093Y-61031000D01*
X159726937Y-61031000D01*
X159877824Y-61000987D01*
X160019957Y-60942113D01*
X160147874Y-60856642D01*
X160256657Y-60747859D01*
X160275008Y-60720395D01*
X160293358Y-60747859D01*
X160402141Y-60856642D01*
X160530058Y-60942113D01*
X160672191Y-61000987D01*
X160823078Y-61031000D01*
X160976922Y-61031000D01*
X161127809Y-61000987D01*
X161269942Y-60942113D01*
X161397859Y-60856642D01*
X161506642Y-60747859D01*
X161592113Y-60619942D01*
X161650987Y-60477809D01*
X161681000Y-60326922D01*
X161681000Y-60173078D01*
X161650987Y-60022191D01*
X161609933Y-59923078D01*
X180119000Y-59923078D01*
X180119000Y-60076922D01*
X180149013Y-60227809D01*
X180207887Y-60369942D01*
X180293358Y-60497859D01*
X180402141Y-60606642D01*
X180530058Y-60692113D01*
X180672191Y-60750987D01*
X180823078Y-60781000D01*
X180976922Y-60781000D01*
X181127809Y-60750987D01*
X181269942Y-60692113D01*
X181397859Y-60606642D01*
X181506642Y-60497859D01*
X181592113Y-60369942D01*
X181650000Y-60230192D01*
X181707887Y-60369942D01*
X181793358Y-60497859D01*
X181902141Y-60606642D01*
X182030058Y-60692113D01*
X182172191Y-60750987D01*
X182323078Y-60781000D01*
X182476922Y-60781000D01*
X182627809Y-60750987D01*
X182769942Y-60692113D01*
X182897859Y-60606642D01*
X183006642Y-60497859D01*
X183092113Y-60369942D01*
X183150987Y-60227809D01*
X183181000Y-60076922D01*
X183181000Y-59923078D01*
X183619000Y-59923078D01*
X183619000Y-60076922D01*
X183649013Y-60227809D01*
X183707887Y-60369942D01*
X183793358Y-60497859D01*
X183902141Y-60606642D01*
X184030058Y-60692113D01*
X184172191Y-60750987D01*
X184323078Y-60781000D01*
X184476922Y-60781000D01*
X184627809Y-60750987D01*
X184769942Y-60692113D01*
X184897859Y-60606642D01*
X185006642Y-60497859D01*
X185092113Y-60369942D01*
X185150000Y-60230192D01*
X185207887Y-60369942D01*
X185293358Y-60497859D01*
X185402141Y-60606642D01*
X185530058Y-60692113D01*
X185672191Y-60750987D01*
X185823078Y-60781000D01*
X185976922Y-60781000D01*
X186127809Y-60750987D01*
X186269942Y-60692113D01*
X186397859Y-60606642D01*
X186506642Y-60497859D01*
X186592113Y-60369942D01*
X186650987Y-60227809D01*
X186681000Y-60076922D01*
X186681000Y-59923078D01*
X186650987Y-59772191D01*
X186592113Y-59630058D01*
X186506642Y-59502141D01*
X186397859Y-59393358D01*
X186269942Y-59307887D01*
X186127809Y-59249013D01*
X185976922Y-59219000D01*
X185823078Y-59219000D01*
X185672191Y-59249013D01*
X185530058Y-59307887D01*
X185402141Y-59393358D01*
X185293358Y-59502141D01*
X185207887Y-59630058D01*
X185150000Y-59769808D01*
X185092113Y-59630058D01*
X185006642Y-59502141D01*
X184897859Y-59393358D01*
X184769942Y-59307887D01*
X184627809Y-59249013D01*
X184476922Y-59219000D01*
X184323078Y-59219000D01*
X184172191Y-59249013D01*
X184030058Y-59307887D01*
X183902141Y-59393358D01*
X183793358Y-59502141D01*
X183707887Y-59630058D01*
X183649013Y-59772191D01*
X183619000Y-59923078D01*
X183181000Y-59923078D01*
X183150987Y-59772191D01*
X183092113Y-59630058D01*
X183006642Y-59502141D01*
X182897859Y-59393358D01*
X182769942Y-59307887D01*
X182627809Y-59249013D01*
X182476922Y-59219000D01*
X182323078Y-59219000D01*
X182172191Y-59249013D01*
X182030058Y-59307887D01*
X181902141Y-59393358D01*
X181793358Y-59502141D01*
X181707887Y-59630058D01*
X181650000Y-59769808D01*
X181592113Y-59630058D01*
X181506642Y-59502141D01*
X181397859Y-59393358D01*
X181269942Y-59307887D01*
X181127809Y-59249013D01*
X180976922Y-59219000D01*
X180823078Y-59219000D01*
X180672191Y-59249013D01*
X180530058Y-59307887D01*
X180402141Y-59393358D01*
X180293358Y-59502141D01*
X180207887Y-59630058D01*
X180149013Y-59772191D01*
X180119000Y-59923078D01*
X161609933Y-59923078D01*
X161592113Y-59880058D01*
X161506642Y-59752141D01*
X161397859Y-59643358D01*
X161269942Y-59557887D01*
X161127809Y-59499013D01*
X160976922Y-59469000D01*
X160823078Y-59469000D01*
X160672191Y-59499013D01*
X160530058Y-59557887D01*
X160402141Y-59643358D01*
X160293358Y-59752141D01*
X160275008Y-59779605D01*
X160256657Y-59752141D01*
X160147874Y-59643358D01*
X160019957Y-59557887D01*
X159877824Y-59499013D01*
X159726937Y-59469000D01*
X159573093Y-59469000D01*
X159422206Y-59499013D01*
X159280073Y-59557887D01*
X159152156Y-59643358D01*
X159043373Y-59752141D01*
X158957902Y-59880058D01*
X158900023Y-60019790D01*
X158842143Y-59880058D01*
X158756672Y-59752141D01*
X158647889Y-59643358D01*
X158519972Y-59557887D01*
X158377839Y-59499013D01*
X158226952Y-59469000D01*
X158073108Y-59469000D01*
X157922221Y-59499013D01*
X157780088Y-59557887D01*
X157652171Y-59643358D01*
X157543388Y-59752141D01*
X157525015Y-59779638D01*
X157506642Y-59752141D01*
X157397859Y-59643358D01*
X157269942Y-59557887D01*
X157127809Y-59499013D01*
X156976922Y-59469000D01*
X156823078Y-59469000D01*
X156672191Y-59499013D01*
X156530058Y-59557887D01*
X156402141Y-59643358D01*
X156293358Y-59752141D01*
X156207887Y-59880058D01*
X156149013Y-60022191D01*
X156119000Y-60173078D01*
X150016754Y-60173078D01*
X150127810Y-60150988D01*
X150269943Y-60092114D01*
X150397860Y-60006643D01*
X150506643Y-59897860D01*
X150592114Y-59769943D01*
X150650988Y-59627810D01*
X150681001Y-59476923D01*
X150681001Y-59323079D01*
X150650988Y-59172192D01*
X150592114Y-59030059D01*
X150506643Y-58902142D01*
X150397860Y-58793359D01*
X150269943Y-58707888D01*
X150127810Y-58649014D01*
X149976923Y-58619001D01*
X149823079Y-58619001D01*
X149672192Y-58649014D01*
X149530059Y-58707888D01*
X149402142Y-58793359D01*
X149293359Y-58902142D01*
X149207888Y-59030059D01*
X149149014Y-59172192D01*
X149119001Y-59323079D01*
X148731000Y-59323079D01*
X148731000Y-59314738D01*
X148658714Y-58951333D01*
X148516920Y-58609013D01*
X148311068Y-58300933D01*
X148049067Y-58038932D01*
X147740987Y-57833080D01*
X147398667Y-57691286D01*
X147035262Y-57619000D01*
X146664738Y-57619000D01*
X146301333Y-57691286D01*
X145959013Y-57833080D01*
X145650933Y-58038932D01*
X145388932Y-58300933D01*
X145183080Y-58609013D01*
X145041286Y-58951333D01*
X144969000Y-59314738D01*
X135118358Y-59314738D01*
X135152677Y-59231886D01*
X135178848Y-59100319D01*
X135178848Y-58966173D01*
X135152677Y-58834606D01*
X135101342Y-58710672D01*
X135026815Y-58599134D01*
X134931960Y-58504279D01*
X134820422Y-58429752D01*
X134696488Y-58378417D01*
X134564921Y-58352246D01*
X134430775Y-58352246D01*
X134299208Y-58378417D01*
X134175274Y-58429752D01*
X134063736Y-58504279D01*
X133968881Y-58599134D01*
X133894354Y-58710672D01*
X133843019Y-58834606D01*
X133816848Y-58966173D01*
X97837567Y-58966173D01*
X97834176Y-58961098D01*
X97878494Y-58894771D01*
X97929829Y-58770837D01*
X97956000Y-58639270D01*
X97956000Y-58505124D01*
X97929829Y-58373557D01*
X97878494Y-58249623D01*
X97803967Y-58138085D01*
X97709112Y-58043230D01*
X97597574Y-57968703D01*
X97473640Y-57917368D01*
X97342073Y-57891197D01*
X97207927Y-57891197D01*
X97076360Y-57917368D01*
X96952426Y-57968703D01*
X96840888Y-58043230D01*
X96746033Y-58138085D01*
X96671506Y-58249623D01*
X96620171Y-58373557D01*
X96594000Y-58505124D01*
X89906000Y-58505124D01*
X89906000Y-56998154D01*
X94629000Y-56998154D01*
X94629000Y-57161846D01*
X94660935Y-57322394D01*
X94723577Y-57473626D01*
X94814520Y-57609732D01*
X94930268Y-57725480D01*
X95066374Y-57816423D01*
X95217606Y-57879065D01*
X95378154Y-57911000D01*
X95541846Y-57911000D01*
X95702394Y-57879065D01*
X95853626Y-57816423D01*
X95989732Y-57725480D01*
X96105480Y-57609732D01*
X96196423Y-57473626D01*
X96259065Y-57322394D01*
X96291000Y-57161846D01*
X96291000Y-56998154D01*
X96259065Y-56837606D01*
X96196423Y-56686374D01*
X96120722Y-56573079D01*
X149119001Y-56573079D01*
X149119001Y-56726923D01*
X149149014Y-56877810D01*
X149207888Y-57019943D01*
X149293359Y-57147860D01*
X149402142Y-57256643D01*
X149530059Y-57342114D01*
X149672192Y-57400988D01*
X149823079Y-57431001D01*
X149976923Y-57431001D01*
X150127810Y-57400988D01*
X150269943Y-57342114D01*
X150397860Y-57256643D01*
X150439765Y-57214738D01*
X152269000Y-57214738D01*
X152269000Y-57585262D01*
X152341286Y-57948667D01*
X152483080Y-58290987D01*
X152688932Y-58599067D01*
X152950933Y-58861068D01*
X153259013Y-59066920D01*
X153601333Y-59208714D01*
X153964738Y-59281000D01*
X154335262Y-59281000D01*
X154698667Y-59208714D01*
X155040987Y-59066920D01*
X155349067Y-58861068D01*
X155611068Y-58599067D01*
X155816920Y-58290987D01*
X155958714Y-57948667D01*
X156013532Y-57673078D01*
X176869000Y-57673078D01*
X176869000Y-57826922D01*
X176899013Y-57977809D01*
X176957887Y-58119942D01*
X177043358Y-58247859D01*
X177152141Y-58356642D01*
X177280058Y-58442113D01*
X177422191Y-58500987D01*
X177573078Y-58531000D01*
X177726922Y-58531000D01*
X177877809Y-58500987D01*
X178019942Y-58442113D01*
X178147859Y-58356642D01*
X178256642Y-58247859D01*
X178342113Y-58119942D01*
X178400987Y-57977809D01*
X178431000Y-57826922D01*
X178431000Y-57673078D01*
X178400987Y-57522191D01*
X178342113Y-57380058D01*
X178256642Y-57252141D01*
X178147859Y-57143358D01*
X178019942Y-57057887D01*
X177877809Y-56999013D01*
X177726922Y-56969000D01*
X177573078Y-56969000D01*
X177422191Y-56999013D01*
X177280058Y-57057887D01*
X177152141Y-57143358D01*
X177043358Y-57252141D01*
X176957887Y-57380058D01*
X176899013Y-57522191D01*
X176869000Y-57673078D01*
X156013532Y-57673078D01*
X156031000Y-57585262D01*
X156031000Y-57214738D01*
X155958714Y-56851333D01*
X155816920Y-56509013D01*
X155611068Y-56200933D01*
X155583213Y-56173078D01*
X183368988Y-56173078D01*
X183368988Y-56326922D01*
X183399001Y-56477809D01*
X183457875Y-56619942D01*
X183543346Y-56747859D01*
X183652129Y-56856642D01*
X183780046Y-56942113D01*
X183922179Y-57000987D01*
X184073066Y-57031000D01*
X184226910Y-57031000D01*
X184377797Y-57000987D01*
X184519930Y-56942113D01*
X184647847Y-56856642D01*
X184756630Y-56747859D01*
X184842101Y-56619942D01*
X184900975Y-56477809D01*
X184930988Y-56326922D01*
X184930988Y-56173078D01*
X184900975Y-56022191D01*
X184842101Y-55880058D01*
X184756630Y-55752141D01*
X184647847Y-55643358D01*
X184519930Y-55557887D01*
X184377797Y-55499013D01*
X184226910Y-55469000D01*
X184073066Y-55469000D01*
X183922179Y-55499013D01*
X183780046Y-55557887D01*
X183652129Y-55643358D01*
X183543346Y-55752141D01*
X183457875Y-55880058D01*
X183399001Y-56022191D01*
X183368988Y-56173078D01*
X155583213Y-56173078D01*
X155349067Y-55938932D01*
X155040987Y-55733080D01*
X154698667Y-55591286D01*
X154335262Y-55519000D01*
X153964738Y-55519000D01*
X153601333Y-55591286D01*
X153259013Y-55733080D01*
X152950933Y-55938932D01*
X152688932Y-56200933D01*
X152483080Y-56509013D01*
X152341286Y-56851333D01*
X152269000Y-57214738D01*
X150439765Y-57214738D01*
X150506643Y-57147860D01*
X150592114Y-57019943D01*
X150650988Y-56877810D01*
X150681001Y-56726923D01*
X150681001Y-56573079D01*
X150650988Y-56422192D01*
X150592114Y-56280059D01*
X150506643Y-56152142D01*
X150397860Y-56043359D01*
X150269943Y-55957888D01*
X150127810Y-55899014D01*
X149976923Y-55869001D01*
X149823079Y-55869001D01*
X149672192Y-55899014D01*
X149530059Y-55957888D01*
X149402142Y-56043359D01*
X149293359Y-56152142D01*
X149207888Y-56280059D01*
X149149014Y-56422192D01*
X149119001Y-56573079D01*
X96120722Y-56573079D01*
X96105480Y-56550268D01*
X95989732Y-56434520D01*
X95853626Y-56343577D01*
X95702394Y-56280935D01*
X95541846Y-56249000D01*
X95378154Y-56249000D01*
X95217606Y-56280935D01*
X95066374Y-56343577D01*
X94930268Y-56434520D01*
X94814520Y-56550268D01*
X94723577Y-56686374D01*
X94660935Y-56837606D01*
X94629000Y-56998154D01*
X89906000Y-56998154D01*
X89906000Y-54906000D01*
X189094001Y-54906000D01*
X189094000Y-74094000D01*
G37*
%TD.AperFunction*%
%TD*%
M02*
