%TF.GenerationSoftware,KiCad,Pcbnew,(5.1.10)-1*%
%TF.CreationDate,2021-08-10T11:15:44+01:00*%
%TF.ProjectId,ocu2pciex8,6f637532-7063-4696-9578-382e6b696361,rev?*%
%TF.SameCoordinates,Original*%
%TF.FileFunction,Soldermask,Bot*%
%TF.FilePolarity,Negative*%
%FSLAX46Y46*%
G04 Gerber Fmt 4.6, Leading zero omitted, Abs format (unit mm)*
G04 Created by KiCad (PCBNEW (5.1.10)-1) date 2021-08-10 11:15:44*
%MOMM*%
%LPD*%
G01*
G04 APERTURE LIST*
%ADD10C,1.400000*%
%ADD11C,3.300000*%
%ADD12C,0.800000*%
%ADD13C,0.900000*%
%ADD14C,3.000000*%
%ADD15C,2.350000*%
%ADD16C,1.000000*%
G04 APERTURE END LIST*
D10*
%TO.C,J5*%
X106300490Y-70000000D02*
G75*
G03*
X106300490Y-70000000I-2550490J0D01*
G01*
%TO.C,J4*%
X188050490Y-70000000D02*
G75*
G03*
X188050490Y-70000000I-2550490J0D01*
G01*
%TD*%
D11*
%TO.C,J5*%
X103750000Y-70000000D03*
D12*
X103750000Y-67500000D03*
X106250000Y-70000000D03*
X103750000Y-72500000D03*
X101250000Y-70000000D03*
X102000000Y-68250000D03*
X105500000Y-68250000D03*
X105500000Y-71750000D03*
X102000000Y-71750000D03*
%TD*%
D11*
%TO.C,J4*%
X185500000Y-70000000D03*
D12*
X185500000Y-67500000D03*
X188000000Y-70000000D03*
X185500000Y-72500000D03*
X183000000Y-70000000D03*
X183750000Y-68250000D03*
X187250000Y-68250000D03*
X187250000Y-71750000D03*
X183750000Y-71750000D03*
%TD*%
D13*
%TO.C,J1*%
X95460000Y-57080000D03*
X95460000Y-68450000D03*
%TD*%
D14*
%TO.C,J3*%
X154150000Y-61600000D03*
X154150000Y-57400000D03*
X146850000Y-59500000D03*
%TD*%
D15*
%TO.C,J2*%
X109000000Y-70000000D03*
D16*
X110810000Y-71250000D03*
X110810000Y-68750000D03*
X111810000Y-73250000D03*
X111810000Y-66750000D03*
X112810000Y-71250000D03*
X112810000Y-68750000D03*
X113810000Y-73250000D03*
X113810000Y-66750000D03*
X114810000Y-71250000D03*
X114810000Y-68750000D03*
X115810000Y-73250000D03*
X115810000Y-66750000D03*
X116810000Y-71250000D03*
X116810000Y-68750000D03*
X117810000Y-73250000D03*
X117810000Y-66750000D03*
X118810000Y-71250000D03*
X118810000Y-68750000D03*
X119810000Y-73250000D03*
X119810000Y-66750000D03*
X120810000Y-71250000D03*
X120810000Y-68750000D03*
X121810000Y-73250000D03*
X121810000Y-66750000D03*
X122810000Y-71250000D03*
X122810000Y-68750000D03*
X123810000Y-73250000D03*
X123810000Y-66750000D03*
X124810000Y-71250000D03*
X124810000Y-68750000D03*
X125810000Y-73250000D03*
X125810000Y-66750000D03*
X126810000Y-71250000D03*
X126810000Y-68750000D03*
X127810000Y-73250000D03*
X127810000Y-66750000D03*
X128810000Y-71250000D03*
X128810000Y-68750000D03*
X129810000Y-73250000D03*
X129810000Y-66750000D03*
X130810000Y-71250000D03*
X130810000Y-68750000D03*
X131810000Y-73250000D03*
X131810000Y-66750000D03*
X132810000Y-71250000D03*
X132810000Y-68750000D03*
X133810000Y-73250000D03*
X133810000Y-66750000D03*
X134810000Y-71250000D03*
X134810000Y-68750000D03*
X135810000Y-73250000D03*
X135810000Y-66750000D03*
X136810000Y-71250000D03*
X136810000Y-68750000D03*
X137810000Y-73250000D03*
X137810000Y-66750000D03*
X138810000Y-71250000D03*
X138810000Y-68750000D03*
X139810000Y-73250000D03*
X139810000Y-66750000D03*
X140810000Y-71250000D03*
X140810000Y-68750000D03*
X141810000Y-73250000D03*
X141810000Y-66750000D03*
X142810000Y-71250000D03*
X142810000Y-68750000D03*
X143810000Y-73250000D03*
X143810000Y-66750000D03*
X144810000Y-71250000D03*
X144810000Y-68750000D03*
X145810000Y-73250000D03*
X145810000Y-66750000D03*
X146810000Y-71250000D03*
X146810000Y-68750000D03*
X147810000Y-73250000D03*
X147810000Y-66750000D03*
D15*
X149160000Y-70000000D03*
D16*
X150810000Y-68750000D03*
X151810000Y-66750000D03*
X152810000Y-68750000D03*
X153810000Y-66750000D03*
X154810000Y-68750000D03*
X155810000Y-66750000D03*
X156810000Y-68750000D03*
X157810000Y-66750000D03*
X158810000Y-68750000D03*
X159810000Y-66750000D03*
X160810000Y-68750000D03*
X150810000Y-71250000D03*
X151810000Y-73250000D03*
X152810000Y-71250000D03*
X153810000Y-73250000D03*
X154810000Y-71250000D03*
X155810000Y-73250000D03*
X156810000Y-71250000D03*
X157810000Y-73250000D03*
X158810000Y-71250000D03*
X159810000Y-73250000D03*
X160810000Y-71250000D03*
%TD*%
M02*
