%TF.GenerationSoftware,KiCad,Pcbnew,(5.1.10)-1*%
%TF.CreationDate,2021-08-10T11:15:44+01:00*%
%TF.ProjectId,ocu2pciex8,6f637532-7063-4696-9578-382e6b696361,rev?*%
%TF.SameCoordinates,Original*%
%TF.FileFunction,Soldermask,Top*%
%TF.FilePolarity,Negative*%
%FSLAX46Y46*%
G04 Gerber Fmt 4.6, Leading zero omitted, Abs format (unit mm)*
G04 Created by KiCad (PCBNEW (5.1.10)-1) date 2021-08-10 11:15:44*
%MOMM*%
%LPD*%
G01*
G04 APERTURE LIST*
%ADD10C,1.400000*%
%ADD11C,3.300000*%
%ADD12C,0.800000*%
%ADD13C,0.900000*%
%ADD14R,1.800000X1.810000*%
%ADD15R,1.380000X1.810000*%
%ADD16R,0.910000X0.310000*%
%ADD17R,2.600000X1.350000*%
%ADD18R,2.600000X0.900000*%
%ADD19C,3.000000*%
%ADD20R,0.800000X0.900000*%
%ADD21R,3.429000X2.413000*%
%ADD22C,2.350000*%
%ADD23C,1.000000*%
G04 APERTURE END LIST*
D10*
%TO.C,J5*%
X106300000Y-70000000D02*
G75*
G03*
X106300000Y-70000000I-2550000J0D01*
G01*
%TO.C,J4*%
X188050000Y-70000000D02*
G75*
G03*
X188050000Y-70000000I-2550000J0D01*
G01*
%TD*%
D11*
%TO.C,J5*%
X103750000Y-70000000D03*
D12*
X103750000Y-67500000D03*
X106250000Y-70000000D03*
X103750000Y-72500000D03*
X101250000Y-70000000D03*
X102000000Y-68250000D03*
X105500000Y-68250000D03*
X105500000Y-71750000D03*
X102000000Y-71750000D03*
%TD*%
D11*
%TO.C,J4*%
X185500000Y-70000000D03*
D12*
X185500000Y-67500000D03*
X188000000Y-70000000D03*
X185500000Y-72500000D03*
X183000000Y-70000000D03*
X183750000Y-68250000D03*
X187250000Y-68250000D03*
X187250000Y-71750000D03*
X183750000Y-71750000D03*
%TD*%
D13*
%TO.C,J1*%
X95460000Y-57080000D03*
X95460000Y-68450000D03*
D14*
X93260000Y-55590000D03*
X93260000Y-69410000D03*
D15*
X97980000Y-55590000D03*
X97980000Y-69410000D03*
D16*
X96180000Y-57750000D03*
X96180000Y-58250000D03*
X96180000Y-58750000D03*
X96180000Y-59250000D03*
X96180000Y-59750000D03*
X96180000Y-60250000D03*
X96180000Y-60750000D03*
X96180000Y-61250000D03*
X96180000Y-61750000D03*
X96180000Y-62250000D03*
X96180000Y-62750000D03*
X96180000Y-63250000D03*
X96180000Y-63750000D03*
X96180000Y-64250000D03*
X96180000Y-64750000D03*
X96180000Y-65250000D03*
X96180000Y-65750000D03*
X96180000Y-66250000D03*
X96180000Y-66750000D03*
X96180000Y-67250000D03*
X96180000Y-67750000D03*
X98370000Y-57250000D03*
X98370000Y-57750000D03*
X98370000Y-58250000D03*
X98370000Y-58750000D03*
X98370000Y-59250000D03*
X98370000Y-59750000D03*
X98370000Y-60250000D03*
X98370000Y-60750000D03*
X98370000Y-61250000D03*
X98370000Y-61750000D03*
X98370000Y-62250000D03*
X98370000Y-62750000D03*
X98370000Y-63250000D03*
X98370000Y-63750000D03*
X98370000Y-64250000D03*
X98370000Y-64750000D03*
X98370000Y-65250000D03*
X98370000Y-65750000D03*
X98370000Y-66250000D03*
X98370000Y-66750000D03*
X98370000Y-67250000D03*
%TD*%
%TO.C,R10*%
G36*
G01*
X93900000Y-71725000D02*
X93900000Y-72275000D01*
G75*
G02*
X93700000Y-72475000I-200000J0D01*
G01*
X93300000Y-72475000D01*
G75*
G02*
X93100000Y-72275000I0J200000D01*
G01*
X93100000Y-71725000D01*
G75*
G02*
X93300000Y-71525000I200000J0D01*
G01*
X93700000Y-71525000D01*
G75*
G02*
X93900000Y-71725000I0J-200000D01*
G01*
G37*
G36*
G01*
X92250000Y-71725000D02*
X92250000Y-72275000D01*
G75*
G02*
X92050000Y-72475000I-200000J0D01*
G01*
X91650000Y-72475000D01*
G75*
G02*
X91450000Y-72275000I0J200000D01*
G01*
X91450000Y-71725000D01*
G75*
G02*
X91650000Y-71525000I200000J0D01*
G01*
X92050000Y-71525000D01*
G75*
G02*
X92250000Y-71725000I0J-200000D01*
G01*
G37*
%TD*%
D17*
%TO.C,U1*%
X174650000Y-64500000D03*
G36*
G01*
X173275000Y-63537500D02*
X173275000Y-62837500D01*
G75*
G02*
X173337500Y-62775000I62500J0D01*
G01*
X173462500Y-62775000D01*
G75*
G02*
X173525000Y-62837500I0J-62500D01*
G01*
X173525000Y-63537500D01*
G75*
G02*
X173462500Y-63600000I-62500J0D01*
G01*
X173337500Y-63600000D01*
G75*
G02*
X173275000Y-63537500I0J62500D01*
G01*
G37*
G36*
G01*
X173775000Y-63537500D02*
X173775000Y-62837500D01*
G75*
G02*
X173837500Y-62775000I62500J0D01*
G01*
X173962500Y-62775000D01*
G75*
G02*
X174025000Y-62837500I0J-62500D01*
G01*
X174025000Y-63537500D01*
G75*
G02*
X173962500Y-63600000I-62500J0D01*
G01*
X173837500Y-63600000D01*
G75*
G02*
X173775000Y-63537500I0J62500D01*
G01*
G37*
G36*
G01*
X174275000Y-63537500D02*
X174275000Y-62837500D01*
G75*
G02*
X174337500Y-62775000I62500J0D01*
G01*
X174462500Y-62775000D01*
G75*
G02*
X174525000Y-62837500I0J-62500D01*
G01*
X174525000Y-63537500D01*
G75*
G02*
X174462500Y-63600000I-62500J0D01*
G01*
X174337500Y-63600000D01*
G75*
G02*
X174275000Y-63537500I0J62500D01*
G01*
G37*
G36*
G01*
X174775000Y-63537500D02*
X174775000Y-62837500D01*
G75*
G02*
X174837500Y-62775000I62500J0D01*
G01*
X174962500Y-62775000D01*
G75*
G02*
X175025000Y-62837500I0J-62500D01*
G01*
X175025000Y-63537500D01*
G75*
G02*
X174962500Y-63600000I-62500J0D01*
G01*
X174837500Y-63600000D01*
G75*
G02*
X174775000Y-63537500I0J62500D01*
G01*
G37*
G36*
G01*
X175275000Y-63537500D02*
X175275000Y-62837500D01*
G75*
G02*
X175337500Y-62775000I62500J0D01*
G01*
X175462500Y-62775000D01*
G75*
G02*
X175525000Y-62837500I0J-62500D01*
G01*
X175525000Y-63537500D01*
G75*
G02*
X175462500Y-63600000I-62500J0D01*
G01*
X175337500Y-63600000D01*
G75*
G02*
X175275000Y-63537500I0J62500D01*
G01*
G37*
G36*
G01*
X175775000Y-63537500D02*
X175775000Y-62837500D01*
G75*
G02*
X175837500Y-62775000I62500J0D01*
G01*
X175962500Y-62775000D01*
G75*
G02*
X176025000Y-62837500I0J-62500D01*
G01*
X176025000Y-63537500D01*
G75*
G02*
X175962500Y-63600000I-62500J0D01*
G01*
X175837500Y-63600000D01*
G75*
G02*
X175775000Y-63537500I0J62500D01*
G01*
G37*
G36*
G01*
X176175000Y-63937500D02*
X176175000Y-63812500D01*
G75*
G02*
X176237500Y-63750000I62500J0D01*
G01*
X176937500Y-63750000D01*
G75*
G02*
X177000000Y-63812500I0J-62500D01*
G01*
X177000000Y-63937500D01*
G75*
G02*
X176937500Y-64000000I-62500J0D01*
G01*
X176237500Y-64000000D01*
G75*
G02*
X176175000Y-63937500I0J62500D01*
G01*
G37*
G36*
G01*
X176175000Y-64437500D02*
X176175000Y-64312500D01*
G75*
G02*
X176237500Y-64250000I62500J0D01*
G01*
X176937500Y-64250000D01*
G75*
G02*
X177000000Y-64312500I0J-62500D01*
G01*
X177000000Y-64437500D01*
G75*
G02*
X176937500Y-64500000I-62500J0D01*
G01*
X176237500Y-64500000D01*
G75*
G02*
X176175000Y-64437500I0J62500D01*
G01*
G37*
G36*
G01*
X176175000Y-64937500D02*
X176175000Y-64812500D01*
G75*
G02*
X176237500Y-64750000I62500J0D01*
G01*
X176937500Y-64750000D01*
G75*
G02*
X177000000Y-64812500I0J-62500D01*
G01*
X177000000Y-64937500D01*
G75*
G02*
X176937500Y-65000000I-62500J0D01*
G01*
X176237500Y-65000000D01*
G75*
G02*
X176175000Y-64937500I0J62500D01*
G01*
G37*
G36*
G01*
X176175000Y-65437500D02*
X176175000Y-65312500D01*
G75*
G02*
X176237500Y-65250000I62500J0D01*
G01*
X176937500Y-65250000D01*
G75*
G02*
X177000000Y-65312500I0J-62500D01*
G01*
X177000000Y-65437500D01*
G75*
G02*
X176937500Y-65500000I-62500J0D01*
G01*
X176237500Y-65500000D01*
G75*
G02*
X176175000Y-65437500I0J62500D01*
G01*
G37*
G36*
G01*
X176175000Y-65937500D02*
X176175000Y-65812500D01*
G75*
G02*
X176237500Y-65750000I62500J0D01*
G01*
X176937500Y-65750000D01*
G75*
G02*
X177000000Y-65812500I0J-62500D01*
G01*
X177000000Y-65937500D01*
G75*
G02*
X176937500Y-66000000I-62500J0D01*
G01*
X176237500Y-66000000D01*
G75*
G02*
X176175000Y-65937500I0J62500D01*
G01*
G37*
G36*
G01*
X176175000Y-66437500D02*
X176175000Y-66312500D01*
G75*
G02*
X176237500Y-66250000I62500J0D01*
G01*
X176937500Y-66250000D01*
G75*
G02*
X177000000Y-66312500I0J-62500D01*
G01*
X177000000Y-66437500D01*
G75*
G02*
X176937500Y-66500000I-62500J0D01*
G01*
X176237500Y-66500000D01*
G75*
G02*
X176175000Y-66437500I0J62500D01*
G01*
G37*
G36*
G01*
X175775000Y-67412500D02*
X175775000Y-66712500D01*
G75*
G02*
X175837500Y-66650000I62500J0D01*
G01*
X175962500Y-66650000D01*
G75*
G02*
X176025000Y-66712500I0J-62500D01*
G01*
X176025000Y-67412500D01*
G75*
G02*
X175962500Y-67475000I-62500J0D01*
G01*
X175837500Y-67475000D01*
G75*
G02*
X175775000Y-67412500I0J62500D01*
G01*
G37*
G36*
G01*
X175275000Y-67412500D02*
X175275000Y-66712500D01*
G75*
G02*
X175337500Y-66650000I62500J0D01*
G01*
X175462500Y-66650000D01*
G75*
G02*
X175525000Y-66712500I0J-62500D01*
G01*
X175525000Y-67412500D01*
G75*
G02*
X175462500Y-67475000I-62500J0D01*
G01*
X175337500Y-67475000D01*
G75*
G02*
X175275000Y-67412500I0J62500D01*
G01*
G37*
G36*
G01*
X174775000Y-67412500D02*
X174775000Y-66712500D01*
G75*
G02*
X174837500Y-66650000I62500J0D01*
G01*
X174962500Y-66650000D01*
G75*
G02*
X175025000Y-66712500I0J-62500D01*
G01*
X175025000Y-67412500D01*
G75*
G02*
X174962500Y-67475000I-62500J0D01*
G01*
X174837500Y-67475000D01*
G75*
G02*
X174775000Y-67412500I0J62500D01*
G01*
G37*
G36*
G01*
X174275000Y-67412500D02*
X174275000Y-66712500D01*
G75*
G02*
X174337500Y-66650000I62500J0D01*
G01*
X174462500Y-66650000D01*
G75*
G02*
X174525000Y-66712500I0J-62500D01*
G01*
X174525000Y-67412500D01*
G75*
G02*
X174462500Y-67475000I-62500J0D01*
G01*
X174337500Y-67475000D01*
G75*
G02*
X174275000Y-67412500I0J62500D01*
G01*
G37*
G36*
G01*
X173775000Y-67412500D02*
X173775000Y-66712500D01*
G75*
G02*
X173837500Y-66650000I62500J0D01*
G01*
X173962500Y-66650000D01*
G75*
G02*
X174025000Y-66712500I0J-62500D01*
G01*
X174025000Y-67412500D01*
G75*
G02*
X173962500Y-67475000I-62500J0D01*
G01*
X173837500Y-67475000D01*
G75*
G02*
X173775000Y-67412500I0J62500D01*
G01*
G37*
G36*
G01*
X173275000Y-67412500D02*
X173275000Y-66712500D01*
G75*
G02*
X173337500Y-66650000I62500J0D01*
G01*
X173462500Y-66650000D01*
G75*
G02*
X173525000Y-66712500I0J-62500D01*
G01*
X173525000Y-67412500D01*
G75*
G02*
X173462500Y-67475000I-62500J0D01*
G01*
X173337500Y-67475000D01*
G75*
G02*
X173275000Y-67412500I0J62500D01*
G01*
G37*
G36*
G01*
X172300000Y-66437500D02*
X172300000Y-66312500D01*
G75*
G02*
X172362500Y-66250000I62500J0D01*
G01*
X173062500Y-66250000D01*
G75*
G02*
X173125000Y-66312500I0J-62500D01*
G01*
X173125000Y-66437500D01*
G75*
G02*
X173062500Y-66500000I-62500J0D01*
G01*
X172362500Y-66500000D01*
G75*
G02*
X172300000Y-66437500I0J62500D01*
G01*
G37*
G36*
G01*
X172300000Y-65937500D02*
X172300000Y-65812500D01*
G75*
G02*
X172362500Y-65750000I62500J0D01*
G01*
X173062500Y-65750000D01*
G75*
G02*
X173125000Y-65812500I0J-62500D01*
G01*
X173125000Y-65937500D01*
G75*
G02*
X173062500Y-66000000I-62500J0D01*
G01*
X172362500Y-66000000D01*
G75*
G02*
X172300000Y-65937500I0J62500D01*
G01*
G37*
G36*
G01*
X172300000Y-65437500D02*
X172300000Y-65312500D01*
G75*
G02*
X172362500Y-65250000I62500J0D01*
G01*
X173062500Y-65250000D01*
G75*
G02*
X173125000Y-65312500I0J-62500D01*
G01*
X173125000Y-65437500D01*
G75*
G02*
X173062500Y-65500000I-62500J0D01*
G01*
X172362500Y-65500000D01*
G75*
G02*
X172300000Y-65437500I0J62500D01*
G01*
G37*
G36*
G01*
X172300000Y-64937500D02*
X172300000Y-64812500D01*
G75*
G02*
X172362500Y-64750000I62500J0D01*
G01*
X173062500Y-64750000D01*
G75*
G02*
X173125000Y-64812500I0J-62500D01*
G01*
X173125000Y-64937500D01*
G75*
G02*
X173062500Y-65000000I-62500J0D01*
G01*
X172362500Y-65000000D01*
G75*
G02*
X172300000Y-64937500I0J62500D01*
G01*
G37*
G36*
G01*
X172300000Y-64437500D02*
X172300000Y-64312500D01*
G75*
G02*
X172362500Y-64250000I62500J0D01*
G01*
X173062500Y-64250000D01*
G75*
G02*
X173125000Y-64312500I0J-62500D01*
G01*
X173125000Y-64437500D01*
G75*
G02*
X173062500Y-64500000I-62500J0D01*
G01*
X172362500Y-64500000D01*
G75*
G02*
X172300000Y-64437500I0J62500D01*
G01*
G37*
G36*
G01*
X172300000Y-63937500D02*
X172300000Y-63812500D01*
G75*
G02*
X172362500Y-63750000I62500J0D01*
G01*
X173062500Y-63750000D01*
G75*
G02*
X173125000Y-63812500I0J-62500D01*
G01*
X173125000Y-63937500D01*
G75*
G02*
X173062500Y-64000000I-62500J0D01*
G01*
X172362500Y-64000000D01*
G75*
G02*
X172300000Y-63937500I0J62500D01*
G01*
G37*
D18*
X174650000Y-65975000D03*
%TD*%
D19*
%TO.C,J3*%
X154150000Y-61600000D03*
X154150000Y-57400000D03*
X146850000Y-59500000D03*
%TD*%
%TO.C,R9*%
G36*
G01*
X167425000Y-59575000D02*
X166875000Y-59575000D01*
G75*
G02*
X166675000Y-59375000I0J200000D01*
G01*
X166675000Y-58975000D01*
G75*
G02*
X166875000Y-58775000I200000J0D01*
G01*
X167425000Y-58775000D01*
G75*
G02*
X167625000Y-58975000I0J-200000D01*
G01*
X167625000Y-59375000D01*
G75*
G02*
X167425000Y-59575000I-200000J0D01*
G01*
G37*
G36*
G01*
X167425000Y-61225000D02*
X166875000Y-61225000D01*
G75*
G02*
X166675000Y-61025000I0J200000D01*
G01*
X166675000Y-60625000D01*
G75*
G02*
X166875000Y-60425000I200000J0D01*
G01*
X167425000Y-60425000D01*
G75*
G02*
X167625000Y-60625000I0J-200000D01*
G01*
X167625000Y-61025000D01*
G75*
G02*
X167425000Y-61225000I-200000J0D01*
G01*
G37*
%TD*%
%TO.C,R8*%
G36*
G01*
X168925000Y-62575000D02*
X168375000Y-62575000D01*
G75*
G02*
X168175000Y-62375000I0J200000D01*
G01*
X168175000Y-61975000D01*
G75*
G02*
X168375000Y-61775000I200000J0D01*
G01*
X168925000Y-61775000D01*
G75*
G02*
X169125000Y-61975000I0J-200000D01*
G01*
X169125000Y-62375000D01*
G75*
G02*
X168925000Y-62575000I-200000J0D01*
G01*
G37*
G36*
G01*
X168925000Y-64225000D02*
X168375000Y-64225000D01*
G75*
G02*
X168175000Y-64025000I0J200000D01*
G01*
X168175000Y-63625000D01*
G75*
G02*
X168375000Y-63425000I200000J0D01*
G01*
X168925000Y-63425000D01*
G75*
G02*
X169125000Y-63625000I0J-200000D01*
G01*
X169125000Y-64025000D01*
G75*
G02*
X168925000Y-64225000I-200000J0D01*
G01*
G37*
%TD*%
%TO.C,R7*%
G36*
G01*
X171925000Y-59575000D02*
X171375000Y-59575000D01*
G75*
G02*
X171175000Y-59375000I0J200000D01*
G01*
X171175000Y-58975000D01*
G75*
G02*
X171375000Y-58775000I200000J0D01*
G01*
X171925000Y-58775000D01*
G75*
G02*
X172125000Y-58975000I0J-200000D01*
G01*
X172125000Y-59375000D01*
G75*
G02*
X171925000Y-59575000I-200000J0D01*
G01*
G37*
G36*
G01*
X171925000Y-61225000D02*
X171375000Y-61225000D01*
G75*
G02*
X171175000Y-61025000I0J200000D01*
G01*
X171175000Y-60625000D01*
G75*
G02*
X171375000Y-60425000I200000J0D01*
G01*
X171925000Y-60425000D01*
G75*
G02*
X172125000Y-60625000I0J-200000D01*
G01*
X172125000Y-61025000D01*
G75*
G02*
X171925000Y-61225000I-200000J0D01*
G01*
G37*
%TD*%
%TO.C,R6*%
G36*
G01*
X177375000Y-60425000D02*
X177925000Y-60425000D01*
G75*
G02*
X178125000Y-60625000I0J-200000D01*
G01*
X178125000Y-61025000D01*
G75*
G02*
X177925000Y-61225000I-200000J0D01*
G01*
X177375000Y-61225000D01*
G75*
G02*
X177175000Y-61025000I0J200000D01*
G01*
X177175000Y-60625000D01*
G75*
G02*
X177375000Y-60425000I200000J0D01*
G01*
G37*
G36*
G01*
X177375000Y-58775000D02*
X177925000Y-58775000D01*
G75*
G02*
X178125000Y-58975000I0J-200000D01*
G01*
X178125000Y-59375000D01*
G75*
G02*
X177925000Y-59575000I-200000J0D01*
G01*
X177375000Y-59575000D01*
G75*
G02*
X177175000Y-59375000I0J200000D01*
G01*
X177175000Y-58975000D01*
G75*
G02*
X177375000Y-58775000I200000J0D01*
G01*
G37*
%TD*%
%TO.C,R5*%
G36*
G01*
X176425000Y-59575000D02*
X175875000Y-59575000D01*
G75*
G02*
X175675000Y-59375000I0J200000D01*
G01*
X175675000Y-58975000D01*
G75*
G02*
X175875000Y-58775000I200000J0D01*
G01*
X176425000Y-58775000D01*
G75*
G02*
X176625000Y-58975000I0J-200000D01*
G01*
X176625000Y-59375000D01*
G75*
G02*
X176425000Y-59575000I-200000J0D01*
G01*
G37*
G36*
G01*
X176425000Y-61225000D02*
X175875000Y-61225000D01*
G75*
G02*
X175675000Y-61025000I0J200000D01*
G01*
X175675000Y-60625000D01*
G75*
G02*
X175875000Y-60425000I200000J0D01*
G01*
X176425000Y-60425000D01*
G75*
G02*
X176625000Y-60625000I0J-200000D01*
G01*
X176625000Y-61025000D01*
G75*
G02*
X176425000Y-61225000I-200000J0D01*
G01*
G37*
%TD*%
%TO.C,R4*%
G36*
G01*
X174925000Y-59575000D02*
X174375000Y-59575000D01*
G75*
G02*
X174175000Y-59375000I0J200000D01*
G01*
X174175000Y-58975000D01*
G75*
G02*
X174375000Y-58775000I200000J0D01*
G01*
X174925000Y-58775000D01*
G75*
G02*
X175125000Y-58975000I0J-200000D01*
G01*
X175125000Y-59375000D01*
G75*
G02*
X174925000Y-59575000I-200000J0D01*
G01*
G37*
G36*
G01*
X174925000Y-61225000D02*
X174375000Y-61225000D01*
G75*
G02*
X174175000Y-61025000I0J200000D01*
G01*
X174175000Y-60625000D01*
G75*
G02*
X174375000Y-60425000I200000J0D01*
G01*
X174925000Y-60425000D01*
G75*
G02*
X175125000Y-60625000I0J-200000D01*
G01*
X175125000Y-61025000D01*
G75*
G02*
X174925000Y-61225000I-200000J0D01*
G01*
G37*
%TD*%
%TO.C,R3*%
G36*
G01*
X181875000Y-57675000D02*
X182425000Y-57675000D01*
G75*
G02*
X182625000Y-57875000I0J-200000D01*
G01*
X182625000Y-58275000D01*
G75*
G02*
X182425000Y-58475000I-200000J0D01*
G01*
X181875000Y-58475000D01*
G75*
G02*
X181675000Y-58275000I0J200000D01*
G01*
X181675000Y-57875000D01*
G75*
G02*
X181875000Y-57675000I200000J0D01*
G01*
G37*
G36*
G01*
X181875000Y-56025000D02*
X182425000Y-56025000D01*
G75*
G02*
X182625000Y-56225000I0J-200000D01*
G01*
X182625000Y-56625000D01*
G75*
G02*
X182425000Y-56825000I-200000J0D01*
G01*
X181875000Y-56825000D01*
G75*
G02*
X181675000Y-56625000I0J200000D01*
G01*
X181675000Y-56225000D01*
G75*
G02*
X181875000Y-56025000I200000J0D01*
G01*
G37*
%TD*%
%TO.C,R2*%
G36*
G01*
X180925000Y-56825000D02*
X180375000Y-56825000D01*
G75*
G02*
X180175000Y-56625000I0J200000D01*
G01*
X180175000Y-56225000D01*
G75*
G02*
X180375000Y-56025000I200000J0D01*
G01*
X180925000Y-56025000D01*
G75*
G02*
X181125000Y-56225000I0J-200000D01*
G01*
X181125000Y-56625000D01*
G75*
G02*
X180925000Y-56825000I-200000J0D01*
G01*
G37*
G36*
G01*
X180925000Y-58475000D02*
X180375000Y-58475000D01*
G75*
G02*
X180175000Y-58275000I0J200000D01*
G01*
X180175000Y-57875000D01*
G75*
G02*
X180375000Y-57675000I200000J0D01*
G01*
X180925000Y-57675000D01*
G75*
G02*
X181125000Y-57875000I0J-200000D01*
G01*
X181125000Y-58275000D01*
G75*
G02*
X180925000Y-58475000I-200000J0D01*
G01*
G37*
%TD*%
%TO.C,R1*%
G36*
G01*
X164575000Y-59525000D02*
X164575000Y-58975000D01*
G75*
G02*
X164775000Y-58775000I200000J0D01*
G01*
X165175000Y-58775000D01*
G75*
G02*
X165375000Y-58975000I0J-200000D01*
G01*
X165375000Y-59525000D01*
G75*
G02*
X165175000Y-59725000I-200000J0D01*
G01*
X164775000Y-59725000D01*
G75*
G02*
X164575000Y-59525000I0J200000D01*
G01*
G37*
G36*
G01*
X162925000Y-59525000D02*
X162925000Y-58975000D01*
G75*
G02*
X163125000Y-58775000I200000J0D01*
G01*
X163525000Y-58775000D01*
G75*
G02*
X163725000Y-58975000I0J-200000D01*
G01*
X163725000Y-59525000D01*
G75*
G02*
X163525000Y-59725000I-200000J0D01*
G01*
X163125000Y-59725000D01*
G75*
G02*
X162925000Y-59525000I0J200000D01*
G01*
G37*
%TD*%
D20*
%TO.C,Q3*%
X185150000Y-56250000D03*
X186100000Y-58250000D03*
X184200000Y-58250000D03*
%TD*%
%TO.C,Q2*%
X164150000Y-61000000D03*
X165100000Y-63000000D03*
X163200000Y-63000000D03*
%TD*%
%TO.C,Q1*%
G36*
G01*
X160655000Y-62000000D02*
X160955000Y-62000000D01*
G75*
G02*
X161105000Y-62150000I0J-150000D01*
G01*
X161105000Y-63800000D01*
G75*
G02*
X160955000Y-63950000I-150000J0D01*
G01*
X160655000Y-63950000D01*
G75*
G02*
X160505000Y-63800000I0J150000D01*
G01*
X160505000Y-62150000D01*
G75*
G02*
X160655000Y-62000000I150000J0D01*
G01*
G37*
G36*
G01*
X159385000Y-62000000D02*
X159685000Y-62000000D01*
G75*
G02*
X159835000Y-62150000I0J-150000D01*
G01*
X159835000Y-63800000D01*
G75*
G02*
X159685000Y-63950000I-150000J0D01*
G01*
X159385000Y-63950000D01*
G75*
G02*
X159235000Y-63800000I0J150000D01*
G01*
X159235000Y-62150000D01*
G75*
G02*
X159385000Y-62000000I150000J0D01*
G01*
G37*
G36*
G01*
X158115000Y-62000000D02*
X158415000Y-62000000D01*
G75*
G02*
X158565000Y-62150000I0J-150000D01*
G01*
X158565000Y-63800000D01*
G75*
G02*
X158415000Y-63950000I-150000J0D01*
G01*
X158115000Y-63950000D01*
G75*
G02*
X157965000Y-63800000I0J150000D01*
G01*
X157965000Y-62150000D01*
G75*
G02*
X158115000Y-62000000I150000J0D01*
G01*
G37*
G36*
G01*
X156845000Y-62000000D02*
X157145000Y-62000000D01*
G75*
G02*
X157295000Y-62150000I0J-150000D01*
G01*
X157295000Y-63800000D01*
G75*
G02*
X157145000Y-63950000I-150000J0D01*
G01*
X156845000Y-63950000D01*
G75*
G02*
X156695000Y-63800000I0J150000D01*
G01*
X156695000Y-62150000D01*
G75*
G02*
X156845000Y-62000000I150000J0D01*
G01*
G37*
G36*
G01*
X156845000Y-57050000D02*
X157145000Y-57050000D01*
G75*
G02*
X157295000Y-57200000I0J-150000D01*
G01*
X157295000Y-58850000D01*
G75*
G02*
X157145000Y-59000000I-150000J0D01*
G01*
X156845000Y-59000000D01*
G75*
G02*
X156695000Y-58850000I0J150000D01*
G01*
X156695000Y-57200000D01*
G75*
G02*
X156845000Y-57050000I150000J0D01*
G01*
G37*
G36*
G01*
X158115000Y-57050000D02*
X158415000Y-57050000D01*
G75*
G02*
X158565000Y-57200000I0J-150000D01*
G01*
X158565000Y-58850000D01*
G75*
G02*
X158415000Y-59000000I-150000J0D01*
G01*
X158115000Y-59000000D01*
G75*
G02*
X157965000Y-58850000I0J150000D01*
G01*
X157965000Y-57200000D01*
G75*
G02*
X158115000Y-57050000I150000J0D01*
G01*
G37*
G36*
G01*
X159385000Y-57050000D02*
X159685000Y-57050000D01*
G75*
G02*
X159835000Y-57200000I0J-150000D01*
G01*
X159835000Y-58850000D01*
G75*
G02*
X159685000Y-59000000I-150000J0D01*
G01*
X159385000Y-59000000D01*
G75*
G02*
X159235000Y-58850000I0J150000D01*
G01*
X159235000Y-57200000D01*
G75*
G02*
X159385000Y-57050000I150000J0D01*
G01*
G37*
G36*
G01*
X160655000Y-57050000D02*
X160955000Y-57050000D01*
G75*
G02*
X161105000Y-57200000I0J-150000D01*
G01*
X161105000Y-58850000D01*
G75*
G02*
X160955000Y-59000000I-150000J0D01*
G01*
X160655000Y-59000000D01*
G75*
G02*
X160505000Y-58850000I0J150000D01*
G01*
X160505000Y-57200000D01*
G75*
G02*
X160655000Y-57050000I150000J0D01*
G01*
G37*
%TD*%
D21*
%TO.C,L1*%
X167650000Y-71921000D03*
X167650000Y-66079000D03*
%TD*%
D22*
%TO.C,J2*%
X109000000Y-70000000D03*
D23*
X110810000Y-71250000D03*
X110810000Y-68750000D03*
X111810000Y-73250000D03*
X111810000Y-66750000D03*
X112810000Y-71250000D03*
X112810000Y-68750000D03*
X113810000Y-73250000D03*
X113810000Y-66750000D03*
X114810000Y-71250000D03*
X114810000Y-68750000D03*
X115810000Y-73250000D03*
X115810000Y-66750000D03*
X116810000Y-71250000D03*
X116810000Y-68750000D03*
X117810000Y-73250000D03*
X117810000Y-66750000D03*
X118810000Y-71250000D03*
X118810000Y-68750000D03*
X119810000Y-73250000D03*
X119810000Y-66750000D03*
X120810000Y-71250000D03*
X120810000Y-68750000D03*
X121810000Y-73250000D03*
X121810000Y-66750000D03*
X122810000Y-71250000D03*
X122810000Y-68750000D03*
X123810000Y-73250000D03*
X123810000Y-66750000D03*
X124810000Y-71250000D03*
X124810000Y-68750000D03*
X125810000Y-73250000D03*
X125810000Y-66750000D03*
X126810000Y-71250000D03*
X126810000Y-68750000D03*
X127810000Y-73250000D03*
X127810000Y-66750000D03*
X128810000Y-71250000D03*
X128810000Y-68750000D03*
X129810000Y-73250000D03*
X129810000Y-66750000D03*
X130810000Y-71250000D03*
X130810000Y-68750000D03*
X131810000Y-73250000D03*
X131810000Y-66750000D03*
X132810000Y-71250000D03*
X132810000Y-68750000D03*
X133810000Y-73250000D03*
X133810000Y-66750000D03*
X134810000Y-71250000D03*
X134810000Y-68750000D03*
X135810000Y-73250000D03*
X135810000Y-66750000D03*
X136810000Y-71250000D03*
X136810000Y-68750000D03*
X137810000Y-73250000D03*
X137810000Y-66750000D03*
X138810000Y-71250000D03*
X138810000Y-68750000D03*
X139810000Y-73250000D03*
X139810000Y-66750000D03*
X140810000Y-71250000D03*
X140810000Y-68750000D03*
X141810000Y-73250000D03*
X141810000Y-66750000D03*
X142810000Y-71250000D03*
X142810000Y-68750000D03*
X143810000Y-73250000D03*
X143810000Y-66750000D03*
X144810000Y-71250000D03*
X144810000Y-68750000D03*
X145810000Y-73250000D03*
X145810000Y-66750000D03*
X146810000Y-71250000D03*
X146810000Y-68750000D03*
X147810000Y-73250000D03*
X147810000Y-66750000D03*
D22*
X149160000Y-70000000D03*
D23*
X150810000Y-68750000D03*
X151810000Y-66750000D03*
X152810000Y-68750000D03*
X153810000Y-66750000D03*
X154810000Y-68750000D03*
X155810000Y-66750000D03*
X156810000Y-68750000D03*
X157810000Y-66750000D03*
X158810000Y-68750000D03*
X159810000Y-66750000D03*
X160810000Y-68750000D03*
X150810000Y-71250000D03*
X151810000Y-73250000D03*
X152810000Y-71250000D03*
X153810000Y-73250000D03*
X154810000Y-71250000D03*
X155810000Y-73250000D03*
X156810000Y-71250000D03*
X157810000Y-73250000D03*
X158810000Y-71250000D03*
X159810000Y-73250000D03*
X160810000Y-71250000D03*
%TD*%
%TO.C,C8*%
G36*
G01*
X174250001Y-70100000D02*
X172049999Y-70100000D01*
G75*
G02*
X171800000Y-69850001I0J249999D01*
G01*
X171800000Y-69199999D01*
G75*
G02*
X172049999Y-68950000I249999J0D01*
G01*
X174250001Y-68950000D01*
G75*
G02*
X174500000Y-69199999I0J-249999D01*
G01*
X174500000Y-69850001D01*
G75*
G02*
X174250001Y-70100000I-249999J0D01*
G01*
G37*
G36*
G01*
X174250001Y-73050000D02*
X172049999Y-73050000D01*
G75*
G02*
X171800000Y-72800001I0J249999D01*
G01*
X171800000Y-72149999D01*
G75*
G02*
X172049999Y-71900000I249999J0D01*
G01*
X174250001Y-71900000D01*
G75*
G02*
X174500000Y-72149999I0J-249999D01*
G01*
X174500000Y-72800001D01*
G75*
G02*
X174250001Y-73050000I-249999J0D01*
G01*
G37*
%TD*%
%TO.C,C7*%
G36*
G01*
X168400000Y-60325000D02*
X168900000Y-60325000D01*
G75*
G02*
X169125000Y-60550000I0J-225000D01*
G01*
X169125000Y-61000000D01*
G75*
G02*
X168900000Y-61225000I-225000J0D01*
G01*
X168400000Y-61225000D01*
G75*
G02*
X168175000Y-61000000I0J225000D01*
G01*
X168175000Y-60550000D01*
G75*
G02*
X168400000Y-60325000I225000J0D01*
G01*
G37*
G36*
G01*
X168400000Y-58775000D02*
X168900000Y-58775000D01*
G75*
G02*
X169125000Y-59000000I0J-225000D01*
G01*
X169125000Y-59450000D01*
G75*
G02*
X168900000Y-59675000I-225000J0D01*
G01*
X168400000Y-59675000D01*
G75*
G02*
X168175000Y-59450000I0J225000D01*
G01*
X168175000Y-59000000D01*
G75*
G02*
X168400000Y-58775000I225000J0D01*
G01*
G37*
%TD*%
%TO.C,C10*%
G36*
G01*
X181250001Y-70100000D02*
X179049999Y-70100000D01*
G75*
G02*
X178800000Y-69850001I0J249999D01*
G01*
X178800000Y-69199999D01*
G75*
G02*
X179049999Y-68950000I249999J0D01*
G01*
X181250001Y-68950000D01*
G75*
G02*
X181500000Y-69199999I0J-249999D01*
G01*
X181500000Y-69850001D01*
G75*
G02*
X181250001Y-70100000I-249999J0D01*
G01*
G37*
G36*
G01*
X181250001Y-73050000D02*
X179049999Y-73050000D01*
G75*
G02*
X178800000Y-72800001I0J249999D01*
G01*
X178800000Y-72149999D01*
G75*
G02*
X179049999Y-71900000I249999J0D01*
G01*
X181250001Y-71900000D01*
G75*
G02*
X181500000Y-72149999I0J-249999D01*
G01*
X181500000Y-72800001D01*
G75*
G02*
X181250001Y-73050000I-249999J0D01*
G01*
G37*
%TD*%
%TO.C,C9*%
G36*
G01*
X177750001Y-70100000D02*
X175549999Y-70100000D01*
G75*
G02*
X175300000Y-69850001I0J249999D01*
G01*
X175300000Y-69199999D01*
G75*
G02*
X175549999Y-68950000I249999J0D01*
G01*
X177750001Y-68950000D01*
G75*
G02*
X178000000Y-69199999I0J-249999D01*
G01*
X178000000Y-69850001D01*
G75*
G02*
X177750001Y-70100000I-249999J0D01*
G01*
G37*
G36*
G01*
X177750001Y-73050000D02*
X175549999Y-73050000D01*
G75*
G02*
X175300000Y-72800001I0J249999D01*
G01*
X175300000Y-72149999D01*
G75*
G02*
X175549999Y-71900000I249999J0D01*
G01*
X177750001Y-71900000D01*
G75*
G02*
X178000000Y-72149999I0J-249999D01*
G01*
X178000000Y-72800001D01*
G75*
G02*
X177750001Y-73050000I-249999J0D01*
G01*
G37*
%TD*%
%TO.C,C6*%
G36*
G01*
X170400000Y-59675000D02*
X169900000Y-59675000D01*
G75*
G02*
X169675000Y-59450000I0J225000D01*
G01*
X169675000Y-59000000D01*
G75*
G02*
X169900000Y-58775000I225000J0D01*
G01*
X170400000Y-58775000D01*
G75*
G02*
X170625000Y-59000000I0J-225000D01*
G01*
X170625000Y-59450000D01*
G75*
G02*
X170400000Y-59675000I-225000J0D01*
G01*
G37*
G36*
G01*
X170400000Y-61225000D02*
X169900000Y-61225000D01*
G75*
G02*
X169675000Y-61000000I0J225000D01*
G01*
X169675000Y-60550000D01*
G75*
G02*
X169900000Y-60325000I225000J0D01*
G01*
X170400000Y-60325000D01*
G75*
G02*
X170625000Y-60550000I0J-225000D01*
G01*
X170625000Y-61000000D01*
G75*
G02*
X170400000Y-61225000I-225000J0D01*
G01*
G37*
%TD*%
%TO.C,C5*%
G36*
G01*
X178400000Y-66575000D02*
X178900000Y-66575000D01*
G75*
G02*
X179125000Y-66800000I0J-225000D01*
G01*
X179125000Y-67250000D01*
G75*
G02*
X178900000Y-67475000I-225000J0D01*
G01*
X178400000Y-67475000D01*
G75*
G02*
X178175000Y-67250000I0J225000D01*
G01*
X178175000Y-66800000D01*
G75*
G02*
X178400000Y-66575000I225000J0D01*
G01*
G37*
G36*
G01*
X178400000Y-65025000D02*
X178900000Y-65025000D01*
G75*
G02*
X179125000Y-65250000I0J-225000D01*
G01*
X179125000Y-65700000D01*
G75*
G02*
X178900000Y-65925000I-225000J0D01*
G01*
X178400000Y-65925000D01*
G75*
G02*
X178175000Y-65700000I0J225000D01*
G01*
X178175000Y-65250000D01*
G75*
G02*
X178400000Y-65025000I225000J0D01*
G01*
G37*
%TD*%
%TO.C,C4*%
G36*
G01*
X173400000Y-59675000D02*
X172900000Y-59675000D01*
G75*
G02*
X172675000Y-59450000I0J225000D01*
G01*
X172675000Y-59000000D01*
G75*
G02*
X172900000Y-58775000I225000J0D01*
G01*
X173400000Y-58775000D01*
G75*
G02*
X173625000Y-59000000I0J-225000D01*
G01*
X173625000Y-59450000D01*
G75*
G02*
X173400000Y-59675000I-225000J0D01*
G01*
G37*
G36*
G01*
X173400000Y-61225000D02*
X172900000Y-61225000D01*
G75*
G02*
X172675000Y-61000000I0J225000D01*
G01*
X172675000Y-60550000D01*
G75*
G02*
X172900000Y-60325000I225000J0D01*
G01*
X173400000Y-60325000D01*
G75*
G02*
X173625000Y-60550000I0J-225000D01*
G01*
X173625000Y-61000000D01*
G75*
G02*
X173400000Y-61225000I-225000J0D01*
G01*
G37*
%TD*%
%TO.C,C3*%
G36*
G01*
X169900000Y-63325000D02*
X170400000Y-63325000D01*
G75*
G02*
X170625000Y-63550000I0J-225000D01*
G01*
X170625000Y-64000000D01*
G75*
G02*
X170400000Y-64225000I-225000J0D01*
G01*
X169900000Y-64225000D01*
G75*
G02*
X169675000Y-64000000I0J225000D01*
G01*
X169675000Y-63550000D01*
G75*
G02*
X169900000Y-63325000I225000J0D01*
G01*
G37*
G36*
G01*
X169900000Y-61775000D02*
X170400000Y-61775000D01*
G75*
G02*
X170625000Y-62000000I0J-225000D01*
G01*
X170625000Y-62450000D01*
G75*
G02*
X170400000Y-62675000I-225000J0D01*
G01*
X169900000Y-62675000D01*
G75*
G02*
X169675000Y-62450000I0J225000D01*
G01*
X169675000Y-62000000D01*
G75*
G02*
X169900000Y-61775000I225000J0D01*
G01*
G37*
%TD*%
%TO.C,C2*%
G36*
G01*
X184049999Y-63900000D02*
X186250001Y-63900000D01*
G75*
G02*
X186500000Y-64149999I0J-249999D01*
G01*
X186500000Y-64800001D01*
G75*
G02*
X186250001Y-65050000I-249999J0D01*
G01*
X184049999Y-65050000D01*
G75*
G02*
X183800000Y-64800001I0J249999D01*
G01*
X183800000Y-64149999D01*
G75*
G02*
X184049999Y-63900000I249999J0D01*
G01*
G37*
G36*
G01*
X184049999Y-60950000D02*
X186250001Y-60950000D01*
G75*
G02*
X186500000Y-61199999I0J-249999D01*
G01*
X186500000Y-61850001D01*
G75*
G02*
X186250001Y-62100000I-249999J0D01*
G01*
X184049999Y-62100000D01*
G75*
G02*
X183800000Y-61850001I0J249999D01*
G01*
X183800000Y-61199999D01*
G75*
G02*
X184049999Y-60950000I249999J0D01*
G01*
G37*
%TD*%
%TO.C,C1*%
G36*
G01*
X180549999Y-63900000D02*
X182750001Y-63900000D01*
G75*
G02*
X183000000Y-64149999I0J-249999D01*
G01*
X183000000Y-64800001D01*
G75*
G02*
X182750001Y-65050000I-249999J0D01*
G01*
X180549999Y-65050000D01*
G75*
G02*
X180300000Y-64800001I0J249999D01*
G01*
X180300000Y-64149999D01*
G75*
G02*
X180549999Y-63900000I249999J0D01*
G01*
G37*
G36*
G01*
X180549999Y-60950000D02*
X182750001Y-60950000D01*
G75*
G02*
X183000000Y-61199999I0J-249999D01*
G01*
X183000000Y-61850001D01*
G75*
G02*
X182750001Y-62100000I-249999J0D01*
G01*
X180549999Y-62100000D01*
G75*
G02*
X180300000Y-61850001I0J249999D01*
G01*
X180300000Y-61199999D01*
G75*
G02*
X180549999Y-60950000I249999J0D01*
G01*
G37*
%TD*%
M02*
