M48
; DRILL file {KiCad (5.1.10)-1} date 08/10/21 11:15:46
; FORMAT={-:-/ absolute / inch / decimal}
; #@! TF.CreationDate,2021-08-10T11:15:46+01:00
; #@! TF.GenerationSoftware,Kicad,Pcbnew,(5.1.10)-1
; #@! TF.FileFunction,Plated,1,4,PTH
FMAT,2
INCH
T1C0.0118
T2C0.0157
T3C0.0276
T4C0.0709
%
G90
G05
T1
X3.7499Y-2.3189
X3.75Y-2.3524
X3.75Y-2.4016
X3.75Y-2.5394
X3.75Y-2.5886
X3.75Y-2.6476
X3.8287Y-2.4705
X3.8287Y-2.5422
X3.8287Y-2.5728
X3.8287Y-2.6043
X3.8287Y-2.635
X3.8297Y-2.306
X3.8297Y-2.3366
X3.8297Y-2.3681
X3.8297Y-2.3987
X3.8297Y-2.4331
X3.9173Y-2.2736
X3.9173Y-2.3327
X3.9173Y-2.4122
X3.9173Y-2.4508
X3.9173Y-2.5098
X3.9173Y-2.6485
X3.9173Y-2.5689
X5.2952Y-2.3241
X5.2952Y-2.3558
X6.8366Y-2.5236
X6.8366Y-2.5551
X6.8366Y-2.5974
X6.876Y-2.5236
X6.876Y-2.5551
X6.876Y-2.5974
X6.9154Y-2.5236
X6.9154Y-2.5551
X6.9154Y-2.5974
T2
X3.7145Y-2.4123
X3.7146Y-2.4902
X3.7146Y-2.5287
X3.7146Y-2.4508
X3.7205Y-2.8346
X3.9862Y-2.7559
X4.0157Y-2.687
X4.0157Y-2.8248
X4.0846Y-2.6575
X4.0846Y-2.8543
X4.1535Y-2.687
X4.1535Y-2.8248
X4.1831Y-2.7559
X5.6791Y-2.313
X5.8268Y-2.4409
X5.9016Y-2.2303
X5.9016Y-2.3386
X6.1772Y-2.372
X6.2264Y-2.372
X6.2854Y-2.372
X6.3346Y-2.372
X6.5118Y-2.8051
X6.5118Y-2.6083
X6.5118Y-2.6673
X6.5118Y-2.8642
X6.5177Y-2.4528
X6.5413Y-2.7559
X6.5807Y-2.3012
X6.6004Y-2.6673
X6.6004Y-2.7559
X6.6594Y-2.7559
X6.689Y-2.6083
X6.689Y-2.6673
X6.689Y-2.8051
X6.689Y-2.8642
X6.7283Y-2.4498
X6.7511Y-2.5737
X6.7776Y-2.8051
X6.7867Y-2.6484
X6.8465Y-2.3307
X6.8563Y-2.8051
X6.8858Y-2.6969
X6.8858Y-2.7362
X6.9154Y-2.8051
X6.9449Y-2.4606
X6.9843Y-2.4606
X6.9843Y-2.5
X6.9843Y-2.5394
X6.9941Y-2.2736
X6.9941Y-2.8051
X7.0236Y-2.6969
X7.0236Y-2.7362
X7.0531Y-2.8051
X7.122Y-2.3622
X7.122Y-2.5787
X7.1319Y-2.8051
X7.1811Y-2.3622
X7.1811Y-2.5787
X7.2047Y-2.7559
X7.2343Y-2.687
X7.2343Y-2.8248
X7.25Y-2.2146
X7.2598Y-2.3622
X7.2598Y-2.5787
X7.3031Y-2.6575
X7.3031Y-2.8543
X7.3189Y-2.3622
X7.3189Y-2.5787
X7.3681Y-2.2933
X7.372Y-2.687
X7.372Y-2.8248
X7.4016Y-2.7559
T3
X4.3626Y-2.7067
X4.3626Y-2.8051
X4.402Y-2.628
X4.402Y-2.8839
X4.4413Y-2.7067
X4.4413Y-2.8051
X4.4807Y-2.628
X4.4807Y-2.8839
X4.5201Y-2.7067
X4.5201Y-2.8051
X4.5594Y-2.628
X4.5594Y-2.8839
X4.5988Y-2.7067
X4.5988Y-2.8051
X4.6382Y-2.628
X4.6382Y-2.8839
X4.6776Y-2.7067
X4.6776Y-2.8051
X4.7169Y-2.628
X4.7169Y-2.8839
X4.7563Y-2.7067
X4.7563Y-2.8051
X4.7957Y-2.628
X4.7957Y-2.8839
X4.835Y-2.7067
X4.835Y-2.8051
X4.8744Y-2.628
X4.8744Y-2.8839
X4.9138Y-2.7067
X4.9138Y-2.8051
X4.9531Y-2.628
X4.9531Y-2.8839
X4.9925Y-2.7067
X4.9925Y-2.8051
X5.0319Y-2.628
X5.0319Y-2.8839
X5.0713Y-2.7067
X5.0713Y-2.8051
X5.1106Y-2.628
X5.1106Y-2.8839
X5.15Y-2.7067
X5.15Y-2.8051
X5.1894Y-2.628
X5.1894Y-2.8839
X5.2287Y-2.7067
X5.2287Y-2.8051
X5.2681Y-2.628
X5.2681Y-2.8839
X5.3075Y-2.7067
X5.3075Y-2.8051
X5.3469Y-2.628
X5.3469Y-2.8839
X5.3862Y-2.7067
X5.3862Y-2.8051
X5.4256Y-2.628
X5.4256Y-2.8839
X5.465Y-2.7067
X5.465Y-2.8051
X5.5043Y-2.628
X5.5043Y-2.8839
X5.5437Y-2.7067
X5.5437Y-2.8051
X5.5831Y-2.628
X5.5831Y-2.8839
X5.6224Y-2.7067
X5.6224Y-2.8051
X5.6618Y-2.628
X5.6618Y-2.8839
X5.7012Y-2.7067
X5.7012Y-2.8051
X5.7406Y-2.628
X5.7406Y-2.8839
X5.7799Y-2.7067
X5.7799Y-2.8051
X5.8193Y-2.628
X5.8193Y-2.8839
X5.9374Y-2.7067
X5.9374Y-2.8051
X5.9768Y-2.628
X5.9768Y-2.8839
X6.0161Y-2.7067
X6.0161Y-2.8051
X6.0555Y-2.628
X6.0555Y-2.8839
X6.0949Y-2.7067
X6.0949Y-2.8051
X6.1343Y-2.628
X6.1343Y-2.8839
X6.1736Y-2.7067
X6.1736Y-2.8051
X6.213Y-2.628
X6.213Y-2.8839
X6.2524Y-2.7067
X6.2524Y-2.8051
X6.2917Y-2.628
X6.2917Y-2.8839
X6.3311Y-2.7067
X6.3311Y-2.8051
T4
X6.0689Y-2.2598
X6.0689Y-2.4252
T0
M30
